%TF.GenerationSoftware,KiCad,Pcbnew,8.0.8*%
%TF.CreationDate,2026-01-16T16:01:26-05:00*%
%TF.ProjectId,InSystemROMProg,496e5379-7374-4656-9d52-4f4d50726f67,rev?*%
%TF.SameCoordinates,Original*%
%TF.FileFunction,Drillmap*%
%TF.FilePolarity,Positive*%
%FSLAX45Y45*%
G04 Gerber Fmt 4.5, Leading zero omitted, Abs format (unit mm)*
G04 Created by KiCad (PCBNEW 8.0.8) date 2026-01-16 16:01:26*
%MOMM*%
%LPD*%
G01*
G04 APERTURE LIST*
%ADD10C,0.050000*%
%ADD11C,0.200000*%
%ADD12C,0.100000*%
G04 APERTURE END LIST*
D10*
X7500000Y1500000D02*
X13460000Y1500000D01*
X13460000Y-3950000D01*
X7500000Y-3950000D01*
X7500000Y1500000D01*
D11*
D12*
X8685000Y-235000D02*
X8715000Y-265000D01*
X8715000Y-235000D02*
X8685000Y-265000D01*
X9085000Y915000D02*
X9115000Y885000D01*
X9115000Y915000D02*
X9085000Y885000D01*
X10152476Y-1287600D02*
X10182476Y-1317600D01*
X10182476Y-1287600D02*
X10152476Y-1317600D01*
X10185000Y-3135000D02*
X10215000Y-3165000D01*
X10215000Y-3135000D02*
X10185000Y-3165000D01*
X10230000Y-2997000D02*
X10260000Y-3027000D01*
X10260000Y-2997000D02*
X10230000Y-3027000D01*
X10260000Y-1035000D02*
X10290000Y-1065000D01*
X10290000Y-1035000D02*
X10260000Y-1065000D01*
X10335000Y-2997000D02*
X10365000Y-3027000D01*
X10365000Y-2997000D02*
X10335000Y-3027000D01*
X10635000Y-235000D02*
X10665000Y-265000D01*
X10665000Y-235000D02*
X10635000Y-265000D01*
X10635000Y-2535000D02*
X10665000Y-2565000D01*
X10665000Y-2535000D02*
X10635000Y-2565000D01*
X11185000Y-1510000D02*
X11215000Y-1540000D01*
X11215000Y-1510000D02*
X11185000Y-1540000D01*
X11485000Y436000D02*
X11515000Y406000D01*
X11515000Y436000D02*
X11485000Y406000D01*
X11535000Y-1735000D02*
X11565000Y-1765000D01*
X11565000Y-1735000D02*
X11535000Y-1765000D01*
X11685000Y965000D02*
X11715000Y935000D01*
X11715000Y965000D02*
X11685000Y935000D01*
X11685000Y-2785000D02*
X11715000Y-2815000D01*
X11715000Y-2785000D02*
X11685000Y-2815000D01*
X11835000Y-2885000D02*
X11865000Y-2915000D01*
X11865000Y-2885000D02*
X11835000Y-2915000D01*
X11885000Y994000D02*
X11915000Y964000D01*
X11915000Y994000D02*
X11885000Y964000D01*
X11985000Y1220000D02*
X12015000Y1190000D01*
X12015000Y1220000D02*
X11985000Y1190000D01*
X11985000Y436000D02*
X12015000Y406000D01*
X12015000Y436000D02*
X11985000Y406000D01*
X11985000Y-960000D02*
X12015000Y-990000D01*
X12015000Y-960000D02*
X11985000Y-990000D01*
X11985000Y-1560000D02*
X12015000Y-1590000D01*
X12015000Y-1560000D02*
X11985000Y-1590000D01*
X12085000Y-485000D02*
X12115000Y-515000D01*
X12115000Y-485000D02*
X12085000Y-515000D01*
X12185000Y715000D02*
X12215000Y685000D01*
X12215000Y715000D02*
X12185000Y685000D01*
X12235000Y-735000D02*
X12265000Y-765000D01*
X12265000Y-735000D02*
X12235000Y-765000D01*
X12385000Y415000D02*
X12415000Y385000D01*
X12415000Y415000D02*
X12385000Y385000D01*
X12485000Y115000D02*
X12515000Y85000D01*
X12515000Y115000D02*
X12485000Y85000D01*
X12585000Y215000D02*
X12615000Y185000D01*
X12615000Y215000D02*
X12585000Y185000D01*
X7716000Y504000D02*
G75*
G02*
X7636000Y504000I-40000J0D01*
G01*
X7636000Y504000D02*
G75*
G02*
X7716000Y504000I40000J0D01*
G01*
X7716000Y250000D02*
G75*
G02*
X7636000Y250000I-40000J0D01*
G01*
X7636000Y250000D02*
G75*
G02*
X7716000Y250000I40000J0D01*
G01*
X7716000Y-4000D02*
G75*
G02*
X7636000Y-4000I-40000J0D01*
G01*
X7636000Y-4000D02*
G75*
G02*
X7716000Y-4000I40000J0D01*
G01*
X7716000Y-258000D02*
G75*
G02*
X7636000Y-258000I-40000J0D01*
G01*
X7636000Y-258000D02*
G75*
G02*
X7716000Y-258000I40000J0D01*
G01*
X7716000Y-512000D02*
G75*
G02*
X7636000Y-512000I-40000J0D01*
G01*
X7636000Y-512000D02*
G75*
G02*
X7716000Y-512000I40000J0D01*
G01*
X7716000Y-766000D02*
G75*
G02*
X7636000Y-766000I-40000J0D01*
G01*
X7636000Y-766000D02*
G75*
G02*
X7716000Y-766000I40000J0D01*
G01*
X7716000Y-1020000D02*
G75*
G02*
X7636000Y-1020000I-40000J0D01*
G01*
X7636000Y-1020000D02*
G75*
G02*
X7716000Y-1020000I40000J0D01*
G01*
X7716000Y-1274000D02*
G75*
G02*
X7636000Y-1274000I-40000J0D01*
G01*
X7636000Y-1274000D02*
G75*
G02*
X7716000Y-1274000I40000J0D01*
G01*
X7716000Y-1528000D02*
G75*
G02*
X7636000Y-1528000I-40000J0D01*
G01*
X7636000Y-1528000D02*
G75*
G02*
X7716000Y-1528000I40000J0D01*
G01*
X7716000Y-1782000D02*
G75*
G02*
X7636000Y-1782000I-40000J0D01*
G01*
X7636000Y-1782000D02*
G75*
G02*
X7716000Y-1782000I40000J0D01*
G01*
X7716000Y-2036000D02*
G75*
G02*
X7636000Y-2036000I-40000J0D01*
G01*
X7636000Y-2036000D02*
G75*
G02*
X7716000Y-2036000I40000J0D01*
G01*
X7716000Y-2290000D02*
G75*
G02*
X7636000Y-2290000I-40000J0D01*
G01*
X7636000Y-2290000D02*
G75*
G02*
X7716000Y-2290000I40000J0D01*
G01*
X7716000Y-2544000D02*
G75*
G02*
X7636000Y-2544000I-40000J0D01*
G01*
X7636000Y-2544000D02*
G75*
G02*
X7716000Y-2544000I40000J0D01*
G01*
X7716000Y-2798000D02*
G75*
G02*
X7636000Y-2798000I-40000J0D01*
G01*
X7636000Y-2798000D02*
G75*
G02*
X7716000Y-2798000I40000J0D01*
G01*
X7716000Y-3052000D02*
G75*
G02*
X7636000Y-3052000I-40000J0D01*
G01*
X7636000Y-3052000D02*
G75*
G02*
X7716000Y-3052000I40000J0D01*
G01*
X7716000Y-3306000D02*
G75*
G02*
X7636000Y-3306000I-40000J0D01*
G01*
X7636000Y-3306000D02*
G75*
G02*
X7716000Y-3306000I40000J0D01*
G01*
X9240000Y504000D02*
G75*
G02*
X9160000Y504000I-40000J0D01*
G01*
X9160000Y504000D02*
G75*
G02*
X9240000Y504000I40000J0D01*
G01*
X9240000Y250000D02*
G75*
G02*
X9160000Y250000I-40000J0D01*
G01*
X9160000Y250000D02*
G75*
G02*
X9240000Y250000I40000J0D01*
G01*
X9240000Y-4000D02*
G75*
G02*
X9160000Y-4000I-40000J0D01*
G01*
X9160000Y-4000D02*
G75*
G02*
X9240000Y-4000I40000J0D01*
G01*
X9240000Y-258000D02*
G75*
G02*
X9160000Y-258000I-40000J0D01*
G01*
X9160000Y-258000D02*
G75*
G02*
X9240000Y-258000I40000J0D01*
G01*
X9240000Y-512000D02*
G75*
G02*
X9160000Y-512000I-40000J0D01*
G01*
X9160000Y-512000D02*
G75*
G02*
X9240000Y-512000I40000J0D01*
G01*
X9240000Y-766000D02*
G75*
G02*
X9160000Y-766000I-40000J0D01*
G01*
X9160000Y-766000D02*
G75*
G02*
X9240000Y-766000I40000J0D01*
G01*
X9240000Y-1020000D02*
G75*
G02*
X9160000Y-1020000I-40000J0D01*
G01*
X9160000Y-1020000D02*
G75*
G02*
X9240000Y-1020000I40000J0D01*
G01*
X9240000Y-1274000D02*
G75*
G02*
X9160000Y-1274000I-40000J0D01*
G01*
X9160000Y-1274000D02*
G75*
G02*
X9240000Y-1274000I40000J0D01*
G01*
X9240000Y-1528000D02*
G75*
G02*
X9160000Y-1528000I-40000J0D01*
G01*
X9160000Y-1528000D02*
G75*
G02*
X9240000Y-1528000I40000J0D01*
G01*
X9240000Y-1782000D02*
G75*
G02*
X9160000Y-1782000I-40000J0D01*
G01*
X9160000Y-1782000D02*
G75*
G02*
X9240000Y-1782000I40000J0D01*
G01*
X9240000Y-2036000D02*
G75*
G02*
X9160000Y-2036000I-40000J0D01*
G01*
X9160000Y-2036000D02*
G75*
G02*
X9240000Y-2036000I40000J0D01*
G01*
X9240000Y-2290000D02*
G75*
G02*
X9160000Y-2290000I-40000J0D01*
G01*
X9160000Y-2290000D02*
G75*
G02*
X9240000Y-2290000I40000J0D01*
G01*
X9240000Y-2544000D02*
G75*
G02*
X9160000Y-2544000I-40000J0D01*
G01*
X9160000Y-2544000D02*
G75*
G02*
X9240000Y-2544000I40000J0D01*
G01*
X9240000Y-2798000D02*
G75*
G02*
X9160000Y-2798000I-40000J0D01*
G01*
X9160000Y-2798000D02*
G75*
G02*
X9240000Y-2798000I40000J0D01*
G01*
X9240000Y-3052000D02*
G75*
G02*
X9160000Y-3052000I-40000J0D01*
G01*
X9160000Y-3052000D02*
G75*
G02*
X9240000Y-3052000I40000J0D01*
G01*
X9240000Y-3306000D02*
G75*
G02*
X9160000Y-3306000I-40000J0D01*
G01*
X9160000Y-3306000D02*
G75*
G02*
X9240000Y-3306000I40000J0D01*
G01*
X11109000Y650000D02*
G75*
G02*
X11029000Y650000I-40000J0D01*
G01*
X11029000Y650000D02*
G75*
G02*
X11109000Y650000I40000J0D01*
G01*
X11109000Y300000D02*
G75*
G02*
X11029000Y300000I-40000J0D01*
G01*
X11029000Y300000D02*
G75*
G02*
X11109000Y300000I40000J0D01*
G01*
X11109000Y-70000D02*
G75*
G02*
X11029000Y-70000I-40000J0D01*
G01*
X11029000Y-70000D02*
G75*
G02*
X11109000Y-70000I40000J0D01*
G01*
X11871000Y650000D02*
G75*
G02*
X11791000Y650000I-40000J0D01*
G01*
X11791000Y650000D02*
G75*
G02*
X11871000Y650000I40000J0D01*
G01*
X11871000Y300000D02*
G75*
G02*
X11791000Y300000I-40000J0D01*
G01*
X11791000Y300000D02*
G75*
G02*
X11871000Y300000I40000J0D01*
G01*
X11871000Y-70000D02*
G75*
G02*
X11791000Y-70000I-40000J0D01*
G01*
X11791000Y-70000D02*
G75*
G02*
X11871000Y-70000I40000J0D01*
G01*
X8430000Y546000D02*
X8430000Y446000D01*
X8380000Y496000D02*
X8480000Y496000D01*
X8430000Y292000D02*
X8430000Y192000D01*
X8380000Y242000D02*
X8480000Y242000D01*
X8430000Y38000D02*
X8430000Y-62000D01*
X8380000Y-12000D02*
X8480000Y-12000D01*
X8430000Y-216000D02*
X8430000Y-316000D01*
X8380000Y-266000D02*
X8480000Y-266000D01*
X8430000Y-470000D02*
X8430000Y-570000D01*
X8380000Y-520000D02*
X8480000Y-520000D01*
X8430000Y-724000D02*
X8430000Y-824000D01*
X8380000Y-774000D02*
X8480000Y-774000D01*
X8430000Y-978000D02*
X8430000Y-1078000D01*
X8380000Y-1028000D02*
X8480000Y-1028000D01*
X8430000Y-1232000D02*
X8430000Y-1332000D01*
X8380000Y-1282000D02*
X8480000Y-1282000D01*
X8430000Y-1486000D02*
X8430000Y-1586000D01*
X8380000Y-1536000D02*
X8480000Y-1536000D01*
X8430000Y-1740000D02*
X8430000Y-1840000D01*
X8380000Y-1790000D02*
X8480000Y-1790000D01*
X8430000Y-1994000D02*
X8430000Y-2094000D01*
X8380000Y-2044000D02*
X8480000Y-2044000D01*
X8430000Y-2248000D02*
X8430000Y-2348000D01*
X8380000Y-2298000D02*
X8480000Y-2298000D01*
X8430000Y-2502000D02*
X8430000Y-2602000D01*
X8380000Y-2552000D02*
X8480000Y-2552000D01*
X8430000Y-2756000D02*
X8430000Y-2856000D01*
X8380000Y-2806000D02*
X8480000Y-2806000D01*
X8430000Y-3010000D02*
X8430000Y-3110000D01*
X8380000Y-3060000D02*
X8480000Y-3060000D01*
X8430000Y-3264000D02*
X8430000Y-3364000D01*
X8380000Y-3314000D02*
X8480000Y-3314000D01*
X9954000Y546000D02*
X9954000Y446000D01*
X9904000Y496000D02*
X10004000Y496000D01*
X9954000Y292000D02*
X9954000Y192000D01*
X9904000Y242000D02*
X10004000Y242000D01*
X9954000Y38000D02*
X9954000Y-62000D01*
X9904000Y-12000D02*
X10004000Y-12000D01*
X9954000Y-216000D02*
X9954000Y-316000D01*
X9904000Y-266000D02*
X10004000Y-266000D01*
X9954000Y-470000D02*
X9954000Y-570000D01*
X9904000Y-520000D02*
X10004000Y-520000D01*
X9954000Y-724000D02*
X9954000Y-824000D01*
X9904000Y-774000D02*
X10004000Y-774000D01*
X9954000Y-978000D02*
X9954000Y-1078000D01*
X9904000Y-1028000D02*
X10004000Y-1028000D01*
X9954000Y-1232000D02*
X9954000Y-1332000D01*
X9904000Y-1282000D02*
X10004000Y-1282000D01*
X9954000Y-1486000D02*
X9954000Y-1586000D01*
X9904000Y-1536000D02*
X10004000Y-1536000D01*
X9954000Y-1740000D02*
X9954000Y-1840000D01*
X9904000Y-1790000D02*
X10004000Y-1790000D01*
X9954000Y-1994000D02*
X9954000Y-2094000D01*
X9904000Y-2044000D02*
X10004000Y-2044000D01*
X9954000Y-2248000D02*
X9954000Y-2348000D01*
X9904000Y-2298000D02*
X10004000Y-2298000D01*
X9954000Y-2502000D02*
X9954000Y-2602000D01*
X9904000Y-2552000D02*
X10004000Y-2552000D01*
X9954000Y-2756000D02*
X9954000Y-2856000D01*
X9904000Y-2806000D02*
X10004000Y-2806000D01*
X9954000Y-3010000D02*
X9954000Y-3110000D01*
X9904000Y-3060000D02*
X10004000Y-3060000D01*
X9954000Y-3264000D02*
X9954000Y-3364000D01*
X9904000Y-3314000D02*
X10004000Y-3314000D01*
X11300000Y-3700000D02*
X11300000Y-3800000D01*
X11250000Y-3750000D02*
X11350000Y-3750000D01*
X11554000Y-3700000D02*
X11554000Y-3800000D01*
X11504000Y-3750000D02*
X11604000Y-3750000D01*
X11808000Y-3700000D02*
X11808000Y-3800000D01*
X11758000Y-3750000D02*
X11858000Y-3750000D01*
X12062000Y-3700000D02*
X12062000Y-3800000D01*
X12012000Y-3750000D02*
X12112000Y-3750000D01*
X12316000Y-3700000D02*
X12316000Y-3800000D01*
X12266000Y-3750000D02*
X12366000Y-3750000D01*
X12850000Y1224000D02*
X12850000Y1124000D01*
X12800000Y1174000D02*
X12900000Y1174000D01*
X12850000Y970000D02*
X12850000Y870000D01*
X12800000Y920000D02*
X12900000Y920000D01*
X12850000Y716000D02*
X12850000Y616000D01*
X12800000Y666000D02*
X12900000Y666000D01*
X12850000Y462000D02*
X12850000Y362000D01*
X12800000Y412000D02*
X12900000Y412000D01*
X12850000Y208000D02*
X12850000Y108000D01*
X12800000Y158000D02*
X12900000Y158000D01*
X12850000Y-46000D02*
X12850000Y-146000D01*
X12800000Y-96000D02*
X12900000Y-96000D01*
X12850000Y-300000D02*
X12850000Y-400000D01*
X12800000Y-350000D02*
X12900000Y-350000D01*
X12850000Y-554000D02*
X12850000Y-654000D01*
X12800000Y-604000D02*
X12900000Y-604000D01*
X12850000Y-808000D02*
X12850000Y-908000D01*
X12800000Y-858000D02*
X12900000Y-858000D01*
X12850000Y-1062000D02*
X12850000Y-1162000D01*
X12800000Y-1112000D02*
X12900000Y-1112000D01*
X12850000Y-1316000D02*
X12850000Y-1416000D01*
X12800000Y-1366000D02*
X12900000Y-1366000D01*
X12850000Y-1570000D02*
X12850000Y-1670000D01*
X12800000Y-1620000D02*
X12900000Y-1620000D01*
X12850000Y-1824000D02*
X12850000Y-1924000D01*
X12800000Y-1874000D02*
X12900000Y-1874000D01*
X12850000Y-2078000D02*
X12850000Y-2178000D01*
X12800000Y-2128000D02*
X12900000Y-2128000D01*
X12850000Y-2332000D02*
X12850000Y-2432000D01*
X12800000Y-2382000D02*
X12900000Y-2382000D01*
X12850000Y-2586000D02*
X12850000Y-2686000D01*
X12800000Y-2636000D02*
X12900000Y-2636000D01*
X12850000Y-2840000D02*
X12850000Y-2940000D01*
X12800000Y-2890000D02*
X12900000Y-2890000D01*
X12850000Y-3094000D02*
X12850000Y-3194000D01*
X12800000Y-3144000D02*
X12900000Y-3144000D01*
X12850000Y-3348000D02*
X12850000Y-3448000D01*
X12800000Y-3398000D02*
X12900000Y-3398000D01*
X12850000Y-3602000D02*
X12850000Y-3702000D01*
X12800000Y-3652000D02*
X12900000Y-3652000D01*
X13104000Y1224000D02*
X13104000Y1124000D01*
X13054000Y1174000D02*
X13154000Y1174000D01*
X13104000Y970000D02*
X13104000Y870000D01*
X13054000Y920000D02*
X13154000Y920000D01*
X13104000Y716000D02*
X13104000Y616000D01*
X13054000Y666000D02*
X13154000Y666000D01*
X13104000Y462000D02*
X13104000Y362000D01*
X13054000Y412000D02*
X13154000Y412000D01*
X13104000Y208000D02*
X13104000Y108000D01*
X13054000Y158000D02*
X13154000Y158000D01*
X13104000Y-46000D02*
X13104000Y-146000D01*
X13054000Y-96000D02*
X13154000Y-96000D01*
X13104000Y-300000D02*
X13104000Y-400000D01*
X13054000Y-350000D02*
X13154000Y-350000D01*
X13104000Y-554000D02*
X13104000Y-654000D01*
X13054000Y-604000D02*
X13154000Y-604000D01*
X13104000Y-808000D02*
X13104000Y-908000D01*
X13054000Y-858000D02*
X13154000Y-858000D01*
X13104000Y-1062000D02*
X13104000Y-1162000D01*
X13054000Y-1112000D02*
X13154000Y-1112000D01*
X13104000Y-1316000D02*
X13104000Y-1416000D01*
X13054000Y-1366000D02*
X13154000Y-1366000D01*
X13104000Y-1570000D02*
X13104000Y-1670000D01*
X13054000Y-1620000D02*
X13154000Y-1620000D01*
X13104000Y-1824000D02*
X13104000Y-1924000D01*
X13054000Y-1874000D02*
X13154000Y-1874000D01*
X13104000Y-2078000D02*
X13104000Y-2178000D01*
X13054000Y-2128000D02*
X13154000Y-2128000D01*
X13104000Y-2332000D02*
X13104000Y-2432000D01*
X13054000Y-2382000D02*
X13154000Y-2382000D01*
X13104000Y-2586000D02*
X13104000Y-2686000D01*
X13054000Y-2636000D02*
X13154000Y-2636000D01*
X13104000Y-2840000D02*
X13104000Y-2940000D01*
X13054000Y-2890000D02*
X13154000Y-2890000D01*
X13104000Y-3094000D02*
X13104000Y-3194000D01*
X13054000Y-3144000D02*
X13154000Y-3144000D01*
X13104000Y-3348000D02*
X13104000Y-3448000D01*
X13054000Y-3398000D02*
X13154000Y-3398000D01*
X13104000Y-3602000D02*
X13104000Y-3702000D01*
X13054000Y-3652000D02*
X13154000Y-3652000D01*
D11*
X7758277Y-4263984D02*
X7758277Y-4063984D01*
X7758277Y-4063984D02*
X7805896Y-4063984D01*
X7805896Y-4063984D02*
X7834467Y-4073508D01*
X7834467Y-4073508D02*
X7853515Y-4092555D01*
X7853515Y-4092555D02*
X7863039Y-4111603D01*
X7863039Y-4111603D02*
X7872562Y-4149698D01*
X7872562Y-4149698D02*
X7872562Y-4178269D01*
X7872562Y-4178269D02*
X7863039Y-4216365D01*
X7863039Y-4216365D02*
X7853515Y-4235412D01*
X7853515Y-4235412D02*
X7834467Y-4254460D01*
X7834467Y-4254460D02*
X7805896Y-4263984D01*
X7805896Y-4263984D02*
X7758277Y-4263984D01*
X7958277Y-4263984D02*
X7958277Y-4130650D01*
X7958277Y-4168746D02*
X7967801Y-4149698D01*
X7967801Y-4149698D02*
X7977324Y-4140174D01*
X7977324Y-4140174D02*
X7996372Y-4130650D01*
X7996372Y-4130650D02*
X8015420Y-4130650D01*
X8082086Y-4263984D02*
X8082086Y-4130650D01*
X8082086Y-4063984D02*
X8072562Y-4073508D01*
X8072562Y-4073508D02*
X8082086Y-4083031D01*
X8082086Y-4083031D02*
X8091610Y-4073508D01*
X8091610Y-4073508D02*
X8082086Y-4063984D01*
X8082086Y-4063984D02*
X8082086Y-4083031D01*
X8205896Y-4263984D02*
X8186848Y-4254460D01*
X8186848Y-4254460D02*
X8177324Y-4235412D01*
X8177324Y-4235412D02*
X8177324Y-4063984D01*
X8310658Y-4263984D02*
X8291610Y-4254460D01*
X8291610Y-4254460D02*
X8282086Y-4235412D01*
X8282086Y-4235412D02*
X8282086Y-4063984D01*
X8539229Y-4263984D02*
X8539229Y-4063984D01*
X8539229Y-4063984D02*
X8605896Y-4206841D01*
X8605896Y-4206841D02*
X8672563Y-4063984D01*
X8672563Y-4063984D02*
X8672563Y-4263984D01*
X8853515Y-4263984D02*
X8853515Y-4159222D01*
X8853515Y-4159222D02*
X8843991Y-4140174D01*
X8843991Y-4140174D02*
X8824944Y-4130650D01*
X8824944Y-4130650D02*
X8786848Y-4130650D01*
X8786848Y-4130650D02*
X8767801Y-4140174D01*
X8853515Y-4254460D02*
X8834467Y-4263984D01*
X8834467Y-4263984D02*
X8786848Y-4263984D01*
X8786848Y-4263984D02*
X8767801Y-4254460D01*
X8767801Y-4254460D02*
X8758277Y-4235412D01*
X8758277Y-4235412D02*
X8758277Y-4216365D01*
X8758277Y-4216365D02*
X8767801Y-4197317D01*
X8767801Y-4197317D02*
X8786848Y-4187793D01*
X8786848Y-4187793D02*
X8834467Y-4187793D01*
X8834467Y-4187793D02*
X8853515Y-4178269D01*
X8948753Y-4130650D02*
X8948753Y-4330650D01*
X8948753Y-4140174D02*
X8967801Y-4130650D01*
X8967801Y-4130650D02*
X9005896Y-4130650D01*
X9005896Y-4130650D02*
X9024944Y-4140174D01*
X9024944Y-4140174D02*
X9034467Y-4149698D01*
X9034467Y-4149698D02*
X9043991Y-4168746D01*
X9043991Y-4168746D02*
X9043991Y-4225889D01*
X9043991Y-4225889D02*
X9034467Y-4244936D01*
X9034467Y-4244936D02*
X9024944Y-4254460D01*
X9024944Y-4254460D02*
X9005896Y-4263984D01*
X9005896Y-4263984D02*
X8967801Y-4263984D01*
X8967801Y-4263984D02*
X8948753Y-4254460D01*
X9129705Y-4244936D02*
X9139229Y-4254460D01*
X9139229Y-4254460D02*
X9129705Y-4263984D01*
X9129705Y-4263984D02*
X9120182Y-4254460D01*
X9120182Y-4254460D02*
X9129705Y-4244936D01*
X9129705Y-4244936D02*
X9129705Y-4263984D01*
X9129705Y-4140174D02*
X9139229Y-4149698D01*
X9139229Y-4149698D02*
X9129705Y-4159222D01*
X9129705Y-4159222D02*
X9120182Y-4149698D01*
X9120182Y-4149698D02*
X9129705Y-4140174D01*
X9129705Y-4140174D02*
X9129705Y-4159222D01*
D12*
X7467500Y-4577500D02*
X7497500Y-4607500D01*
X7497500Y-4577500D02*
X7467500Y-4607500D01*
D11*
X7796372Y-4483984D02*
X7815420Y-4483984D01*
X7815420Y-4483984D02*
X7834467Y-4493508D01*
X7834467Y-4493508D02*
X7843991Y-4503031D01*
X7843991Y-4503031D02*
X7853515Y-4522079D01*
X7853515Y-4522079D02*
X7863039Y-4560174D01*
X7863039Y-4560174D02*
X7863039Y-4607793D01*
X7863039Y-4607793D02*
X7853515Y-4645889D01*
X7853515Y-4645889D02*
X7843991Y-4664936D01*
X7843991Y-4664936D02*
X7834467Y-4674460D01*
X7834467Y-4674460D02*
X7815420Y-4683984D01*
X7815420Y-4683984D02*
X7796372Y-4683984D01*
X7796372Y-4683984D02*
X7777324Y-4674460D01*
X7777324Y-4674460D02*
X7767801Y-4664936D01*
X7767801Y-4664936D02*
X7758277Y-4645889D01*
X7758277Y-4645889D02*
X7748753Y-4607793D01*
X7748753Y-4607793D02*
X7748753Y-4560174D01*
X7748753Y-4560174D02*
X7758277Y-4522079D01*
X7758277Y-4522079D02*
X7767801Y-4503031D01*
X7767801Y-4503031D02*
X7777324Y-4493508D01*
X7777324Y-4493508D02*
X7796372Y-4483984D01*
X7948753Y-4664936D02*
X7958277Y-4674460D01*
X7958277Y-4674460D02*
X7948753Y-4683984D01*
X7948753Y-4683984D02*
X7939229Y-4674460D01*
X7939229Y-4674460D02*
X7948753Y-4664936D01*
X7948753Y-4664936D02*
X7948753Y-4683984D01*
X8024943Y-4483984D02*
X8148753Y-4483984D01*
X8148753Y-4483984D02*
X8082086Y-4560174D01*
X8082086Y-4560174D02*
X8110658Y-4560174D01*
X8110658Y-4560174D02*
X8129705Y-4569698D01*
X8129705Y-4569698D02*
X8139229Y-4579222D01*
X8139229Y-4579222D02*
X8148753Y-4598270D01*
X8148753Y-4598270D02*
X8148753Y-4645889D01*
X8148753Y-4645889D02*
X8139229Y-4664936D01*
X8139229Y-4664936D02*
X8129705Y-4674460D01*
X8129705Y-4674460D02*
X8110658Y-4683984D01*
X8110658Y-4683984D02*
X8053515Y-4683984D01*
X8053515Y-4683984D02*
X8034467Y-4674460D01*
X8034467Y-4674460D02*
X8024943Y-4664936D01*
X8272562Y-4483984D02*
X8291610Y-4483984D01*
X8291610Y-4483984D02*
X8310658Y-4493508D01*
X8310658Y-4493508D02*
X8320182Y-4503031D01*
X8320182Y-4503031D02*
X8329705Y-4522079D01*
X8329705Y-4522079D02*
X8339229Y-4560174D01*
X8339229Y-4560174D02*
X8339229Y-4607793D01*
X8339229Y-4607793D02*
X8329705Y-4645889D01*
X8329705Y-4645889D02*
X8320182Y-4664936D01*
X8320182Y-4664936D02*
X8310658Y-4674460D01*
X8310658Y-4674460D02*
X8291610Y-4683984D01*
X8291610Y-4683984D02*
X8272562Y-4683984D01*
X8272562Y-4683984D02*
X8253515Y-4674460D01*
X8253515Y-4674460D02*
X8243991Y-4664936D01*
X8243991Y-4664936D02*
X8234467Y-4645889D01*
X8234467Y-4645889D02*
X8224943Y-4607793D01*
X8224943Y-4607793D02*
X8224943Y-4560174D01*
X8224943Y-4560174D02*
X8234467Y-4522079D01*
X8234467Y-4522079D02*
X8243991Y-4503031D01*
X8243991Y-4503031D02*
X8253515Y-4493508D01*
X8253515Y-4493508D02*
X8272562Y-4483984D01*
X8463039Y-4483984D02*
X8482086Y-4483984D01*
X8482086Y-4483984D02*
X8501134Y-4493508D01*
X8501134Y-4493508D02*
X8510658Y-4503031D01*
X8510658Y-4503031D02*
X8520182Y-4522079D01*
X8520182Y-4522079D02*
X8529705Y-4560174D01*
X8529705Y-4560174D02*
X8529705Y-4607793D01*
X8529705Y-4607793D02*
X8520182Y-4645889D01*
X8520182Y-4645889D02*
X8510658Y-4664936D01*
X8510658Y-4664936D02*
X8501134Y-4674460D01*
X8501134Y-4674460D02*
X8482086Y-4683984D01*
X8482086Y-4683984D02*
X8463039Y-4683984D01*
X8463039Y-4683984D02*
X8443991Y-4674460D01*
X8443991Y-4674460D02*
X8434467Y-4664936D01*
X8434467Y-4664936D02*
X8424944Y-4645889D01*
X8424944Y-4645889D02*
X8415420Y-4607793D01*
X8415420Y-4607793D02*
X8415420Y-4560174D01*
X8415420Y-4560174D02*
X8424944Y-4522079D01*
X8424944Y-4522079D02*
X8434467Y-4503031D01*
X8434467Y-4503031D02*
X8443991Y-4493508D01*
X8443991Y-4493508D02*
X8463039Y-4483984D01*
X8615420Y-4683984D02*
X8615420Y-4550650D01*
X8615420Y-4569698D02*
X8624944Y-4560174D01*
X8624944Y-4560174D02*
X8643991Y-4550650D01*
X8643991Y-4550650D02*
X8672563Y-4550650D01*
X8672563Y-4550650D02*
X8691610Y-4560174D01*
X8691610Y-4560174D02*
X8701134Y-4579222D01*
X8701134Y-4579222D02*
X8701134Y-4683984D01*
X8701134Y-4579222D02*
X8710658Y-4560174D01*
X8710658Y-4560174D02*
X8729705Y-4550650D01*
X8729705Y-4550650D02*
X8758277Y-4550650D01*
X8758277Y-4550650D02*
X8777325Y-4560174D01*
X8777325Y-4560174D02*
X8786848Y-4579222D01*
X8786848Y-4579222D02*
X8786848Y-4683984D01*
X8882086Y-4683984D02*
X8882086Y-4550650D01*
X8882086Y-4569698D02*
X8891610Y-4560174D01*
X8891610Y-4560174D02*
X8910658Y-4550650D01*
X8910658Y-4550650D02*
X8939229Y-4550650D01*
X8939229Y-4550650D02*
X8958277Y-4560174D01*
X8958277Y-4560174D02*
X8967801Y-4579222D01*
X8967801Y-4579222D02*
X8967801Y-4683984D01*
X8967801Y-4579222D02*
X8977325Y-4560174D01*
X8977325Y-4560174D02*
X8996372Y-4550650D01*
X8996372Y-4550650D02*
X9024944Y-4550650D01*
X9024944Y-4550650D02*
X9043991Y-4560174D01*
X9043991Y-4560174D02*
X9053515Y-4579222D01*
X9053515Y-4579222D02*
X9053515Y-4683984D01*
X9443991Y-4474460D02*
X9272563Y-4731603D01*
X9701134Y-4483984D02*
X9720182Y-4483984D01*
X9720182Y-4483984D02*
X9739229Y-4493508D01*
X9739229Y-4493508D02*
X9748753Y-4503031D01*
X9748753Y-4503031D02*
X9758277Y-4522079D01*
X9758277Y-4522079D02*
X9767801Y-4560174D01*
X9767801Y-4560174D02*
X9767801Y-4607793D01*
X9767801Y-4607793D02*
X9758277Y-4645889D01*
X9758277Y-4645889D02*
X9748753Y-4664936D01*
X9748753Y-4664936D02*
X9739229Y-4674460D01*
X9739229Y-4674460D02*
X9720182Y-4683984D01*
X9720182Y-4683984D02*
X9701134Y-4683984D01*
X9701134Y-4683984D02*
X9682087Y-4674460D01*
X9682087Y-4674460D02*
X9672563Y-4664936D01*
X9672563Y-4664936D02*
X9663039Y-4645889D01*
X9663039Y-4645889D02*
X9653515Y-4607793D01*
X9653515Y-4607793D02*
X9653515Y-4560174D01*
X9653515Y-4560174D02*
X9663039Y-4522079D01*
X9663039Y-4522079D02*
X9672563Y-4503031D01*
X9672563Y-4503031D02*
X9682087Y-4493508D01*
X9682087Y-4493508D02*
X9701134Y-4483984D01*
X9853515Y-4664936D02*
X9863039Y-4674460D01*
X9863039Y-4674460D02*
X9853515Y-4683984D01*
X9853515Y-4683984D02*
X9843991Y-4674460D01*
X9843991Y-4674460D02*
X9853515Y-4664936D01*
X9853515Y-4664936D02*
X9853515Y-4683984D01*
X9986848Y-4483984D02*
X10005896Y-4483984D01*
X10005896Y-4483984D02*
X10024944Y-4493508D01*
X10024944Y-4493508D02*
X10034468Y-4503031D01*
X10034468Y-4503031D02*
X10043991Y-4522079D01*
X10043991Y-4522079D02*
X10053515Y-4560174D01*
X10053515Y-4560174D02*
X10053515Y-4607793D01*
X10053515Y-4607793D02*
X10043991Y-4645889D01*
X10043991Y-4645889D02*
X10034468Y-4664936D01*
X10034468Y-4664936D02*
X10024944Y-4674460D01*
X10024944Y-4674460D02*
X10005896Y-4683984D01*
X10005896Y-4683984D02*
X9986848Y-4683984D01*
X9986848Y-4683984D02*
X9967801Y-4674460D01*
X9967801Y-4674460D02*
X9958277Y-4664936D01*
X9958277Y-4664936D02*
X9948753Y-4645889D01*
X9948753Y-4645889D02*
X9939229Y-4607793D01*
X9939229Y-4607793D02*
X9939229Y-4560174D01*
X9939229Y-4560174D02*
X9948753Y-4522079D01*
X9948753Y-4522079D02*
X9958277Y-4503031D01*
X9958277Y-4503031D02*
X9967801Y-4493508D01*
X9967801Y-4493508D02*
X9986848Y-4483984D01*
X10243991Y-4683984D02*
X10129706Y-4683984D01*
X10186848Y-4683984D02*
X10186848Y-4483984D01*
X10186848Y-4483984D02*
X10167801Y-4512555D01*
X10167801Y-4512555D02*
X10148753Y-4531603D01*
X10148753Y-4531603D02*
X10129706Y-4541127D01*
X10434468Y-4683984D02*
X10320182Y-4683984D01*
X10377325Y-4683984D02*
X10377325Y-4483984D01*
X10377325Y-4483984D02*
X10358277Y-4512555D01*
X10358277Y-4512555D02*
X10339229Y-4531603D01*
X10339229Y-4531603D02*
X10320182Y-4541127D01*
X10548753Y-4569698D02*
X10529706Y-4560174D01*
X10529706Y-4560174D02*
X10520182Y-4550650D01*
X10520182Y-4550650D02*
X10510658Y-4531603D01*
X10510658Y-4531603D02*
X10510658Y-4522079D01*
X10510658Y-4522079D02*
X10520182Y-4503031D01*
X10520182Y-4503031D02*
X10529706Y-4493508D01*
X10529706Y-4493508D02*
X10548753Y-4483984D01*
X10548753Y-4483984D02*
X10586849Y-4483984D01*
X10586849Y-4483984D02*
X10605896Y-4493508D01*
X10605896Y-4493508D02*
X10615420Y-4503031D01*
X10615420Y-4503031D02*
X10624944Y-4522079D01*
X10624944Y-4522079D02*
X10624944Y-4531603D01*
X10624944Y-4531603D02*
X10615420Y-4550650D01*
X10615420Y-4550650D02*
X10605896Y-4560174D01*
X10605896Y-4560174D02*
X10586849Y-4569698D01*
X10586849Y-4569698D02*
X10548753Y-4569698D01*
X10548753Y-4569698D02*
X10529706Y-4579222D01*
X10529706Y-4579222D02*
X10520182Y-4588746D01*
X10520182Y-4588746D02*
X10510658Y-4607793D01*
X10510658Y-4607793D02*
X10510658Y-4645889D01*
X10510658Y-4645889D02*
X10520182Y-4664936D01*
X10520182Y-4664936D02*
X10529706Y-4674460D01*
X10529706Y-4674460D02*
X10548753Y-4683984D01*
X10548753Y-4683984D02*
X10586849Y-4683984D01*
X10586849Y-4683984D02*
X10605896Y-4674460D01*
X10605896Y-4674460D02*
X10615420Y-4664936D01*
X10615420Y-4664936D02*
X10624944Y-4645889D01*
X10624944Y-4645889D02*
X10624944Y-4607793D01*
X10624944Y-4607793D02*
X10615420Y-4588746D01*
X10615420Y-4588746D02*
X10605896Y-4579222D01*
X10605896Y-4579222D02*
X10586849Y-4569698D01*
X10701134Y-4483984D02*
X10701134Y-4522079D01*
X10777325Y-4483984D02*
X10777325Y-4522079D01*
X11072563Y-4760174D02*
X11063039Y-4750650D01*
X11063039Y-4750650D02*
X11043991Y-4722079D01*
X11043991Y-4722079D02*
X11034468Y-4703031D01*
X11034468Y-4703031D02*
X11024944Y-4674460D01*
X11024944Y-4674460D02*
X11015420Y-4626841D01*
X11015420Y-4626841D02*
X11015420Y-4588746D01*
X11015420Y-4588746D02*
X11024944Y-4541127D01*
X11024944Y-4541127D02*
X11034468Y-4512555D01*
X11034468Y-4512555D02*
X11043991Y-4493508D01*
X11043991Y-4493508D02*
X11063039Y-4464936D01*
X11063039Y-4464936D02*
X11072563Y-4455412D01*
X11139230Y-4503031D02*
X11148753Y-4493508D01*
X11148753Y-4493508D02*
X11167801Y-4483984D01*
X11167801Y-4483984D02*
X11215420Y-4483984D01*
X11215420Y-4483984D02*
X11234468Y-4493508D01*
X11234468Y-4493508D02*
X11243991Y-4503031D01*
X11243991Y-4503031D02*
X11253515Y-4522079D01*
X11253515Y-4522079D02*
X11253515Y-4541127D01*
X11253515Y-4541127D02*
X11243991Y-4569698D01*
X11243991Y-4569698D02*
X11129706Y-4683984D01*
X11129706Y-4683984D02*
X11253515Y-4683984D01*
X11424944Y-4483984D02*
X11386848Y-4483984D01*
X11386848Y-4483984D02*
X11367801Y-4493508D01*
X11367801Y-4493508D02*
X11358277Y-4503031D01*
X11358277Y-4503031D02*
X11339229Y-4531603D01*
X11339229Y-4531603D02*
X11329706Y-4569698D01*
X11329706Y-4569698D02*
X11329706Y-4645889D01*
X11329706Y-4645889D02*
X11339229Y-4664936D01*
X11339229Y-4664936D02*
X11348753Y-4674460D01*
X11348753Y-4674460D02*
X11367801Y-4683984D01*
X11367801Y-4683984D02*
X11405896Y-4683984D01*
X11405896Y-4683984D02*
X11424944Y-4674460D01*
X11424944Y-4674460D02*
X11434468Y-4664936D01*
X11434468Y-4664936D02*
X11443991Y-4645889D01*
X11443991Y-4645889D02*
X11443991Y-4598270D01*
X11443991Y-4598270D02*
X11434468Y-4579222D01*
X11434468Y-4579222D02*
X11424944Y-4569698D01*
X11424944Y-4569698D02*
X11405896Y-4560174D01*
X11405896Y-4560174D02*
X11367801Y-4560174D01*
X11367801Y-4560174D02*
X11348753Y-4569698D01*
X11348753Y-4569698D02*
X11339229Y-4579222D01*
X11339229Y-4579222D02*
X11329706Y-4598270D01*
X11682087Y-4683984D02*
X11682087Y-4483984D01*
X11767801Y-4683984D02*
X11767801Y-4579222D01*
X11767801Y-4579222D02*
X11758277Y-4560174D01*
X11758277Y-4560174D02*
X11739230Y-4550650D01*
X11739230Y-4550650D02*
X11710658Y-4550650D01*
X11710658Y-4550650D02*
X11691610Y-4560174D01*
X11691610Y-4560174D02*
X11682087Y-4569698D01*
X11891610Y-4683984D02*
X11872563Y-4674460D01*
X11872563Y-4674460D02*
X11863039Y-4664936D01*
X11863039Y-4664936D02*
X11853515Y-4645889D01*
X11853515Y-4645889D02*
X11853515Y-4588746D01*
X11853515Y-4588746D02*
X11863039Y-4569698D01*
X11863039Y-4569698D02*
X11872563Y-4560174D01*
X11872563Y-4560174D02*
X11891610Y-4550650D01*
X11891610Y-4550650D02*
X11920182Y-4550650D01*
X11920182Y-4550650D02*
X11939230Y-4560174D01*
X11939230Y-4560174D02*
X11948753Y-4569698D01*
X11948753Y-4569698D02*
X11958277Y-4588746D01*
X11958277Y-4588746D02*
X11958277Y-4645889D01*
X11958277Y-4645889D02*
X11948753Y-4664936D01*
X11948753Y-4664936D02*
X11939230Y-4674460D01*
X11939230Y-4674460D02*
X11920182Y-4683984D01*
X11920182Y-4683984D02*
X11891610Y-4683984D01*
X12072563Y-4683984D02*
X12053515Y-4674460D01*
X12053515Y-4674460D02*
X12043991Y-4655412D01*
X12043991Y-4655412D02*
X12043991Y-4483984D01*
X12224944Y-4674460D02*
X12205896Y-4683984D01*
X12205896Y-4683984D02*
X12167801Y-4683984D01*
X12167801Y-4683984D02*
X12148753Y-4674460D01*
X12148753Y-4674460D02*
X12139230Y-4655412D01*
X12139230Y-4655412D02*
X12139230Y-4579222D01*
X12139230Y-4579222D02*
X12148753Y-4560174D01*
X12148753Y-4560174D02*
X12167801Y-4550650D01*
X12167801Y-4550650D02*
X12205896Y-4550650D01*
X12205896Y-4550650D02*
X12224944Y-4560174D01*
X12224944Y-4560174D02*
X12234468Y-4579222D01*
X12234468Y-4579222D02*
X12234468Y-4598270D01*
X12234468Y-4598270D02*
X12139230Y-4617317D01*
X12310658Y-4674460D02*
X12329706Y-4683984D01*
X12329706Y-4683984D02*
X12367801Y-4683984D01*
X12367801Y-4683984D02*
X12386849Y-4674460D01*
X12386849Y-4674460D02*
X12396372Y-4655412D01*
X12396372Y-4655412D02*
X12396372Y-4645889D01*
X12396372Y-4645889D02*
X12386849Y-4626841D01*
X12386849Y-4626841D02*
X12367801Y-4617317D01*
X12367801Y-4617317D02*
X12339230Y-4617317D01*
X12339230Y-4617317D02*
X12320182Y-4607793D01*
X12320182Y-4607793D02*
X12310658Y-4588746D01*
X12310658Y-4588746D02*
X12310658Y-4579222D01*
X12310658Y-4579222D02*
X12320182Y-4560174D01*
X12320182Y-4560174D02*
X12339230Y-4550650D01*
X12339230Y-4550650D02*
X12367801Y-4550650D01*
X12367801Y-4550650D02*
X12386849Y-4560174D01*
X12463039Y-4760174D02*
X12472563Y-4750650D01*
X12472563Y-4750650D02*
X12491611Y-4722079D01*
X12491611Y-4722079D02*
X12501134Y-4703031D01*
X12501134Y-4703031D02*
X12510658Y-4674460D01*
X12510658Y-4674460D02*
X12520182Y-4626841D01*
X12520182Y-4626841D02*
X12520182Y-4588746D01*
X12520182Y-4588746D02*
X12510658Y-4541127D01*
X12510658Y-4541127D02*
X12501134Y-4512555D01*
X12501134Y-4512555D02*
X12491611Y-4493508D01*
X12491611Y-4493508D02*
X12472563Y-4464936D01*
X12472563Y-4464936D02*
X12463039Y-4455412D01*
D12*
X7497500Y-4856500D02*
G75*
G02*
X7417500Y-4856500I-40000J0D01*
G01*
X7417500Y-4856500D02*
G75*
G02*
X7497500Y-4856500I40000J0D01*
G01*
D11*
X7796372Y-4747984D02*
X7815420Y-4747984D01*
X7815420Y-4747984D02*
X7834467Y-4757508D01*
X7834467Y-4757508D02*
X7843991Y-4767031D01*
X7843991Y-4767031D02*
X7853515Y-4786079D01*
X7853515Y-4786079D02*
X7863039Y-4824174D01*
X7863039Y-4824174D02*
X7863039Y-4871793D01*
X7863039Y-4871793D02*
X7853515Y-4909889D01*
X7853515Y-4909889D02*
X7843991Y-4928936D01*
X7843991Y-4928936D02*
X7834467Y-4938460D01*
X7834467Y-4938460D02*
X7815420Y-4947984D01*
X7815420Y-4947984D02*
X7796372Y-4947984D01*
X7796372Y-4947984D02*
X7777324Y-4938460D01*
X7777324Y-4938460D02*
X7767801Y-4928936D01*
X7767801Y-4928936D02*
X7758277Y-4909889D01*
X7758277Y-4909889D02*
X7748753Y-4871793D01*
X7748753Y-4871793D02*
X7748753Y-4824174D01*
X7748753Y-4824174D02*
X7758277Y-4786079D01*
X7758277Y-4786079D02*
X7767801Y-4767031D01*
X7767801Y-4767031D02*
X7777324Y-4757508D01*
X7777324Y-4757508D02*
X7796372Y-4747984D01*
X7948753Y-4928936D02*
X7958277Y-4938460D01*
X7958277Y-4938460D02*
X7948753Y-4947984D01*
X7948753Y-4947984D02*
X7939229Y-4938460D01*
X7939229Y-4938460D02*
X7948753Y-4928936D01*
X7948753Y-4928936D02*
X7948753Y-4947984D01*
X8072562Y-4833698D02*
X8053515Y-4824174D01*
X8053515Y-4824174D02*
X8043991Y-4814650D01*
X8043991Y-4814650D02*
X8034467Y-4795603D01*
X8034467Y-4795603D02*
X8034467Y-4786079D01*
X8034467Y-4786079D02*
X8043991Y-4767031D01*
X8043991Y-4767031D02*
X8053515Y-4757508D01*
X8053515Y-4757508D02*
X8072562Y-4747984D01*
X8072562Y-4747984D02*
X8110658Y-4747984D01*
X8110658Y-4747984D02*
X8129705Y-4757508D01*
X8129705Y-4757508D02*
X8139229Y-4767031D01*
X8139229Y-4767031D02*
X8148753Y-4786079D01*
X8148753Y-4786079D02*
X8148753Y-4795603D01*
X8148753Y-4795603D02*
X8139229Y-4814650D01*
X8139229Y-4814650D02*
X8129705Y-4824174D01*
X8129705Y-4824174D02*
X8110658Y-4833698D01*
X8110658Y-4833698D02*
X8072562Y-4833698D01*
X8072562Y-4833698D02*
X8053515Y-4843222D01*
X8053515Y-4843222D02*
X8043991Y-4852746D01*
X8043991Y-4852746D02*
X8034467Y-4871793D01*
X8034467Y-4871793D02*
X8034467Y-4909889D01*
X8034467Y-4909889D02*
X8043991Y-4928936D01*
X8043991Y-4928936D02*
X8053515Y-4938460D01*
X8053515Y-4938460D02*
X8072562Y-4947984D01*
X8072562Y-4947984D02*
X8110658Y-4947984D01*
X8110658Y-4947984D02*
X8129705Y-4938460D01*
X8129705Y-4938460D02*
X8139229Y-4928936D01*
X8139229Y-4928936D02*
X8148753Y-4909889D01*
X8148753Y-4909889D02*
X8148753Y-4871793D01*
X8148753Y-4871793D02*
X8139229Y-4852746D01*
X8139229Y-4852746D02*
X8129705Y-4843222D01*
X8129705Y-4843222D02*
X8110658Y-4833698D01*
X8272562Y-4747984D02*
X8291610Y-4747984D01*
X8291610Y-4747984D02*
X8310658Y-4757508D01*
X8310658Y-4757508D02*
X8320182Y-4767031D01*
X8320182Y-4767031D02*
X8329705Y-4786079D01*
X8329705Y-4786079D02*
X8339229Y-4824174D01*
X8339229Y-4824174D02*
X8339229Y-4871793D01*
X8339229Y-4871793D02*
X8329705Y-4909889D01*
X8329705Y-4909889D02*
X8320182Y-4928936D01*
X8320182Y-4928936D02*
X8310658Y-4938460D01*
X8310658Y-4938460D02*
X8291610Y-4947984D01*
X8291610Y-4947984D02*
X8272562Y-4947984D01*
X8272562Y-4947984D02*
X8253515Y-4938460D01*
X8253515Y-4938460D02*
X8243991Y-4928936D01*
X8243991Y-4928936D02*
X8234467Y-4909889D01*
X8234467Y-4909889D02*
X8224943Y-4871793D01*
X8224943Y-4871793D02*
X8224943Y-4824174D01*
X8224943Y-4824174D02*
X8234467Y-4786079D01*
X8234467Y-4786079D02*
X8243991Y-4767031D01*
X8243991Y-4767031D02*
X8253515Y-4757508D01*
X8253515Y-4757508D02*
X8272562Y-4747984D01*
X8463039Y-4747984D02*
X8482086Y-4747984D01*
X8482086Y-4747984D02*
X8501134Y-4757508D01*
X8501134Y-4757508D02*
X8510658Y-4767031D01*
X8510658Y-4767031D02*
X8520182Y-4786079D01*
X8520182Y-4786079D02*
X8529705Y-4824174D01*
X8529705Y-4824174D02*
X8529705Y-4871793D01*
X8529705Y-4871793D02*
X8520182Y-4909889D01*
X8520182Y-4909889D02*
X8510658Y-4928936D01*
X8510658Y-4928936D02*
X8501134Y-4938460D01*
X8501134Y-4938460D02*
X8482086Y-4947984D01*
X8482086Y-4947984D02*
X8463039Y-4947984D01*
X8463039Y-4947984D02*
X8443991Y-4938460D01*
X8443991Y-4938460D02*
X8434467Y-4928936D01*
X8434467Y-4928936D02*
X8424944Y-4909889D01*
X8424944Y-4909889D02*
X8415420Y-4871793D01*
X8415420Y-4871793D02*
X8415420Y-4824174D01*
X8415420Y-4824174D02*
X8424944Y-4786079D01*
X8424944Y-4786079D02*
X8434467Y-4767031D01*
X8434467Y-4767031D02*
X8443991Y-4757508D01*
X8443991Y-4757508D02*
X8463039Y-4747984D01*
X8615420Y-4947984D02*
X8615420Y-4814650D01*
X8615420Y-4833698D02*
X8624944Y-4824174D01*
X8624944Y-4824174D02*
X8643991Y-4814650D01*
X8643991Y-4814650D02*
X8672563Y-4814650D01*
X8672563Y-4814650D02*
X8691610Y-4824174D01*
X8691610Y-4824174D02*
X8701134Y-4843222D01*
X8701134Y-4843222D02*
X8701134Y-4947984D01*
X8701134Y-4843222D02*
X8710658Y-4824174D01*
X8710658Y-4824174D02*
X8729705Y-4814650D01*
X8729705Y-4814650D02*
X8758277Y-4814650D01*
X8758277Y-4814650D02*
X8777325Y-4824174D01*
X8777325Y-4824174D02*
X8786848Y-4843222D01*
X8786848Y-4843222D02*
X8786848Y-4947984D01*
X8882086Y-4947984D02*
X8882086Y-4814650D01*
X8882086Y-4833698D02*
X8891610Y-4824174D01*
X8891610Y-4824174D02*
X8910658Y-4814650D01*
X8910658Y-4814650D02*
X8939229Y-4814650D01*
X8939229Y-4814650D02*
X8958277Y-4824174D01*
X8958277Y-4824174D02*
X8967801Y-4843222D01*
X8967801Y-4843222D02*
X8967801Y-4947984D01*
X8967801Y-4843222D02*
X8977325Y-4824174D01*
X8977325Y-4824174D02*
X8996372Y-4814650D01*
X8996372Y-4814650D02*
X9024944Y-4814650D01*
X9024944Y-4814650D02*
X9043991Y-4824174D01*
X9043991Y-4824174D02*
X9053515Y-4843222D01*
X9053515Y-4843222D02*
X9053515Y-4947984D01*
X9443991Y-4738460D02*
X9272563Y-4995603D01*
X9701134Y-4747984D02*
X9720182Y-4747984D01*
X9720182Y-4747984D02*
X9739229Y-4757508D01*
X9739229Y-4757508D02*
X9748753Y-4767031D01*
X9748753Y-4767031D02*
X9758277Y-4786079D01*
X9758277Y-4786079D02*
X9767801Y-4824174D01*
X9767801Y-4824174D02*
X9767801Y-4871793D01*
X9767801Y-4871793D02*
X9758277Y-4909889D01*
X9758277Y-4909889D02*
X9748753Y-4928936D01*
X9748753Y-4928936D02*
X9739229Y-4938460D01*
X9739229Y-4938460D02*
X9720182Y-4947984D01*
X9720182Y-4947984D02*
X9701134Y-4947984D01*
X9701134Y-4947984D02*
X9682087Y-4938460D01*
X9682087Y-4938460D02*
X9672563Y-4928936D01*
X9672563Y-4928936D02*
X9663039Y-4909889D01*
X9663039Y-4909889D02*
X9653515Y-4871793D01*
X9653515Y-4871793D02*
X9653515Y-4824174D01*
X9653515Y-4824174D02*
X9663039Y-4786079D01*
X9663039Y-4786079D02*
X9672563Y-4767031D01*
X9672563Y-4767031D02*
X9682087Y-4757508D01*
X9682087Y-4757508D02*
X9701134Y-4747984D01*
X9853515Y-4928936D02*
X9863039Y-4938460D01*
X9863039Y-4938460D02*
X9853515Y-4947984D01*
X9853515Y-4947984D02*
X9843991Y-4938460D01*
X9843991Y-4938460D02*
X9853515Y-4928936D01*
X9853515Y-4928936D02*
X9853515Y-4947984D01*
X9986848Y-4747984D02*
X10005896Y-4747984D01*
X10005896Y-4747984D02*
X10024944Y-4757508D01*
X10024944Y-4757508D02*
X10034468Y-4767031D01*
X10034468Y-4767031D02*
X10043991Y-4786079D01*
X10043991Y-4786079D02*
X10053515Y-4824174D01*
X10053515Y-4824174D02*
X10053515Y-4871793D01*
X10053515Y-4871793D02*
X10043991Y-4909889D01*
X10043991Y-4909889D02*
X10034468Y-4928936D01*
X10034468Y-4928936D02*
X10024944Y-4938460D01*
X10024944Y-4938460D02*
X10005896Y-4947984D01*
X10005896Y-4947984D02*
X9986848Y-4947984D01*
X9986848Y-4947984D02*
X9967801Y-4938460D01*
X9967801Y-4938460D02*
X9958277Y-4928936D01*
X9958277Y-4928936D02*
X9948753Y-4909889D01*
X9948753Y-4909889D02*
X9939229Y-4871793D01*
X9939229Y-4871793D02*
X9939229Y-4824174D01*
X9939229Y-4824174D02*
X9948753Y-4786079D01*
X9948753Y-4786079D02*
X9958277Y-4767031D01*
X9958277Y-4767031D02*
X9967801Y-4757508D01*
X9967801Y-4757508D02*
X9986848Y-4747984D01*
X10120182Y-4747984D02*
X10243991Y-4747984D01*
X10243991Y-4747984D02*
X10177325Y-4824174D01*
X10177325Y-4824174D02*
X10205896Y-4824174D01*
X10205896Y-4824174D02*
X10224944Y-4833698D01*
X10224944Y-4833698D02*
X10234468Y-4843222D01*
X10234468Y-4843222D02*
X10243991Y-4862270D01*
X10243991Y-4862270D02*
X10243991Y-4909889D01*
X10243991Y-4909889D02*
X10234468Y-4928936D01*
X10234468Y-4928936D02*
X10224944Y-4938460D01*
X10224944Y-4938460D02*
X10205896Y-4947984D01*
X10205896Y-4947984D02*
X10148753Y-4947984D01*
X10148753Y-4947984D02*
X10129706Y-4938460D01*
X10129706Y-4938460D02*
X10120182Y-4928936D01*
X10434468Y-4947984D02*
X10320182Y-4947984D01*
X10377325Y-4947984D02*
X10377325Y-4747984D01*
X10377325Y-4747984D02*
X10358277Y-4776555D01*
X10358277Y-4776555D02*
X10339229Y-4795603D01*
X10339229Y-4795603D02*
X10320182Y-4805127D01*
X10615420Y-4747984D02*
X10520182Y-4747984D01*
X10520182Y-4747984D02*
X10510658Y-4843222D01*
X10510658Y-4843222D02*
X10520182Y-4833698D01*
X10520182Y-4833698D02*
X10539229Y-4824174D01*
X10539229Y-4824174D02*
X10586849Y-4824174D01*
X10586849Y-4824174D02*
X10605896Y-4833698D01*
X10605896Y-4833698D02*
X10615420Y-4843222D01*
X10615420Y-4843222D02*
X10624944Y-4862270D01*
X10624944Y-4862270D02*
X10624944Y-4909889D01*
X10624944Y-4909889D02*
X10615420Y-4928936D01*
X10615420Y-4928936D02*
X10605896Y-4938460D01*
X10605896Y-4938460D02*
X10586849Y-4947984D01*
X10586849Y-4947984D02*
X10539229Y-4947984D01*
X10539229Y-4947984D02*
X10520182Y-4938460D01*
X10520182Y-4938460D02*
X10510658Y-4928936D01*
X10701134Y-4747984D02*
X10701134Y-4786079D01*
X10777325Y-4747984D02*
X10777325Y-4786079D01*
X11072563Y-5024174D02*
X11063039Y-5014650D01*
X11063039Y-5014650D02*
X11043991Y-4986079D01*
X11043991Y-4986079D02*
X11034468Y-4967031D01*
X11034468Y-4967031D02*
X11024944Y-4938460D01*
X11024944Y-4938460D02*
X11015420Y-4890841D01*
X11015420Y-4890841D02*
X11015420Y-4852746D01*
X11015420Y-4852746D02*
X11024944Y-4805127D01*
X11024944Y-4805127D02*
X11034468Y-4776555D01*
X11034468Y-4776555D02*
X11043991Y-4757508D01*
X11043991Y-4757508D02*
X11063039Y-4728936D01*
X11063039Y-4728936D02*
X11072563Y-4719412D01*
X11129706Y-4747984D02*
X11253515Y-4747984D01*
X11253515Y-4747984D02*
X11186848Y-4824174D01*
X11186848Y-4824174D02*
X11215420Y-4824174D01*
X11215420Y-4824174D02*
X11234468Y-4833698D01*
X11234468Y-4833698D02*
X11243991Y-4843222D01*
X11243991Y-4843222D02*
X11253515Y-4862270D01*
X11253515Y-4862270D02*
X11253515Y-4909889D01*
X11253515Y-4909889D02*
X11243991Y-4928936D01*
X11243991Y-4928936D02*
X11234468Y-4938460D01*
X11234468Y-4938460D02*
X11215420Y-4947984D01*
X11215420Y-4947984D02*
X11158277Y-4947984D01*
X11158277Y-4947984D02*
X11139230Y-4938460D01*
X11139230Y-4938460D02*
X11129706Y-4928936D01*
X11367801Y-4833698D02*
X11348753Y-4824174D01*
X11348753Y-4824174D02*
X11339229Y-4814650D01*
X11339229Y-4814650D02*
X11329706Y-4795603D01*
X11329706Y-4795603D02*
X11329706Y-4786079D01*
X11329706Y-4786079D02*
X11339229Y-4767031D01*
X11339229Y-4767031D02*
X11348753Y-4757508D01*
X11348753Y-4757508D02*
X11367801Y-4747984D01*
X11367801Y-4747984D02*
X11405896Y-4747984D01*
X11405896Y-4747984D02*
X11424944Y-4757508D01*
X11424944Y-4757508D02*
X11434468Y-4767031D01*
X11434468Y-4767031D02*
X11443991Y-4786079D01*
X11443991Y-4786079D02*
X11443991Y-4795603D01*
X11443991Y-4795603D02*
X11434468Y-4814650D01*
X11434468Y-4814650D02*
X11424944Y-4824174D01*
X11424944Y-4824174D02*
X11405896Y-4833698D01*
X11405896Y-4833698D02*
X11367801Y-4833698D01*
X11367801Y-4833698D02*
X11348753Y-4843222D01*
X11348753Y-4843222D02*
X11339229Y-4852746D01*
X11339229Y-4852746D02*
X11329706Y-4871793D01*
X11329706Y-4871793D02*
X11329706Y-4909889D01*
X11329706Y-4909889D02*
X11339229Y-4928936D01*
X11339229Y-4928936D02*
X11348753Y-4938460D01*
X11348753Y-4938460D02*
X11367801Y-4947984D01*
X11367801Y-4947984D02*
X11405896Y-4947984D01*
X11405896Y-4947984D02*
X11424944Y-4938460D01*
X11424944Y-4938460D02*
X11434468Y-4928936D01*
X11434468Y-4928936D02*
X11443991Y-4909889D01*
X11443991Y-4909889D02*
X11443991Y-4871793D01*
X11443991Y-4871793D02*
X11434468Y-4852746D01*
X11434468Y-4852746D02*
X11424944Y-4843222D01*
X11424944Y-4843222D02*
X11405896Y-4833698D01*
X11682087Y-4947984D02*
X11682087Y-4747984D01*
X11767801Y-4947984D02*
X11767801Y-4843222D01*
X11767801Y-4843222D02*
X11758277Y-4824174D01*
X11758277Y-4824174D02*
X11739230Y-4814650D01*
X11739230Y-4814650D02*
X11710658Y-4814650D01*
X11710658Y-4814650D02*
X11691610Y-4824174D01*
X11691610Y-4824174D02*
X11682087Y-4833698D01*
X11891610Y-4947984D02*
X11872563Y-4938460D01*
X11872563Y-4938460D02*
X11863039Y-4928936D01*
X11863039Y-4928936D02*
X11853515Y-4909889D01*
X11853515Y-4909889D02*
X11853515Y-4852746D01*
X11853515Y-4852746D02*
X11863039Y-4833698D01*
X11863039Y-4833698D02*
X11872563Y-4824174D01*
X11872563Y-4824174D02*
X11891610Y-4814650D01*
X11891610Y-4814650D02*
X11920182Y-4814650D01*
X11920182Y-4814650D02*
X11939230Y-4824174D01*
X11939230Y-4824174D02*
X11948753Y-4833698D01*
X11948753Y-4833698D02*
X11958277Y-4852746D01*
X11958277Y-4852746D02*
X11958277Y-4909889D01*
X11958277Y-4909889D02*
X11948753Y-4928936D01*
X11948753Y-4928936D02*
X11939230Y-4938460D01*
X11939230Y-4938460D02*
X11920182Y-4947984D01*
X11920182Y-4947984D02*
X11891610Y-4947984D01*
X12072563Y-4947984D02*
X12053515Y-4938460D01*
X12053515Y-4938460D02*
X12043991Y-4919412D01*
X12043991Y-4919412D02*
X12043991Y-4747984D01*
X12224944Y-4938460D02*
X12205896Y-4947984D01*
X12205896Y-4947984D02*
X12167801Y-4947984D01*
X12167801Y-4947984D02*
X12148753Y-4938460D01*
X12148753Y-4938460D02*
X12139230Y-4919412D01*
X12139230Y-4919412D02*
X12139230Y-4843222D01*
X12139230Y-4843222D02*
X12148753Y-4824174D01*
X12148753Y-4824174D02*
X12167801Y-4814650D01*
X12167801Y-4814650D02*
X12205896Y-4814650D01*
X12205896Y-4814650D02*
X12224944Y-4824174D01*
X12224944Y-4824174D02*
X12234468Y-4843222D01*
X12234468Y-4843222D02*
X12234468Y-4862270D01*
X12234468Y-4862270D02*
X12139230Y-4881317D01*
X12310658Y-4938460D02*
X12329706Y-4947984D01*
X12329706Y-4947984D02*
X12367801Y-4947984D01*
X12367801Y-4947984D02*
X12386849Y-4938460D01*
X12386849Y-4938460D02*
X12396372Y-4919412D01*
X12396372Y-4919412D02*
X12396372Y-4909889D01*
X12396372Y-4909889D02*
X12386849Y-4890841D01*
X12386849Y-4890841D02*
X12367801Y-4881317D01*
X12367801Y-4881317D02*
X12339230Y-4881317D01*
X12339230Y-4881317D02*
X12320182Y-4871793D01*
X12320182Y-4871793D02*
X12310658Y-4852746D01*
X12310658Y-4852746D02*
X12310658Y-4843222D01*
X12310658Y-4843222D02*
X12320182Y-4824174D01*
X12320182Y-4824174D02*
X12339230Y-4814650D01*
X12339230Y-4814650D02*
X12367801Y-4814650D01*
X12367801Y-4814650D02*
X12386849Y-4824174D01*
X12463039Y-5024174D02*
X12472563Y-5014650D01*
X12472563Y-5014650D02*
X12491611Y-4986079D01*
X12491611Y-4986079D02*
X12501134Y-4967031D01*
X12501134Y-4967031D02*
X12510658Y-4938460D01*
X12510658Y-4938460D02*
X12520182Y-4890841D01*
X12520182Y-4890841D02*
X12520182Y-4852746D01*
X12520182Y-4852746D02*
X12510658Y-4805127D01*
X12510658Y-4805127D02*
X12501134Y-4776555D01*
X12501134Y-4776555D02*
X12491611Y-4757508D01*
X12491611Y-4757508D02*
X12472563Y-4728936D01*
X12472563Y-4728936D02*
X12463039Y-4719412D01*
D12*
X7447500Y-5070500D02*
X7447500Y-5170500D01*
X7397500Y-5120500D02*
X7497500Y-5120500D01*
D11*
X7863039Y-5211984D02*
X7748753Y-5211984D01*
X7805896Y-5211984D02*
X7805896Y-5011984D01*
X7805896Y-5011984D02*
X7786848Y-5040555D01*
X7786848Y-5040555D02*
X7767801Y-5059603D01*
X7767801Y-5059603D02*
X7748753Y-5069127D01*
X7948753Y-5192936D02*
X7958277Y-5202460D01*
X7958277Y-5202460D02*
X7948753Y-5211984D01*
X7948753Y-5211984D02*
X7939229Y-5202460D01*
X7939229Y-5202460D02*
X7948753Y-5192936D01*
X7948753Y-5192936D02*
X7948753Y-5211984D01*
X8082086Y-5011984D02*
X8101134Y-5011984D01*
X8101134Y-5011984D02*
X8120182Y-5021508D01*
X8120182Y-5021508D02*
X8129705Y-5031031D01*
X8129705Y-5031031D02*
X8139229Y-5050079D01*
X8139229Y-5050079D02*
X8148753Y-5088174D01*
X8148753Y-5088174D02*
X8148753Y-5135793D01*
X8148753Y-5135793D02*
X8139229Y-5173889D01*
X8139229Y-5173889D02*
X8129705Y-5192936D01*
X8129705Y-5192936D02*
X8120182Y-5202460D01*
X8120182Y-5202460D02*
X8101134Y-5211984D01*
X8101134Y-5211984D02*
X8082086Y-5211984D01*
X8082086Y-5211984D02*
X8063039Y-5202460D01*
X8063039Y-5202460D02*
X8053515Y-5192936D01*
X8053515Y-5192936D02*
X8043991Y-5173889D01*
X8043991Y-5173889D02*
X8034467Y-5135793D01*
X8034467Y-5135793D02*
X8034467Y-5088174D01*
X8034467Y-5088174D02*
X8043991Y-5050079D01*
X8043991Y-5050079D02*
X8053515Y-5031031D01*
X8053515Y-5031031D02*
X8063039Y-5021508D01*
X8063039Y-5021508D02*
X8082086Y-5011984D01*
X8272562Y-5011984D02*
X8291610Y-5011984D01*
X8291610Y-5011984D02*
X8310658Y-5021508D01*
X8310658Y-5021508D02*
X8320182Y-5031031D01*
X8320182Y-5031031D02*
X8329705Y-5050079D01*
X8329705Y-5050079D02*
X8339229Y-5088174D01*
X8339229Y-5088174D02*
X8339229Y-5135793D01*
X8339229Y-5135793D02*
X8329705Y-5173889D01*
X8329705Y-5173889D02*
X8320182Y-5192936D01*
X8320182Y-5192936D02*
X8310658Y-5202460D01*
X8310658Y-5202460D02*
X8291610Y-5211984D01*
X8291610Y-5211984D02*
X8272562Y-5211984D01*
X8272562Y-5211984D02*
X8253515Y-5202460D01*
X8253515Y-5202460D02*
X8243991Y-5192936D01*
X8243991Y-5192936D02*
X8234467Y-5173889D01*
X8234467Y-5173889D02*
X8224943Y-5135793D01*
X8224943Y-5135793D02*
X8224943Y-5088174D01*
X8224943Y-5088174D02*
X8234467Y-5050079D01*
X8234467Y-5050079D02*
X8243991Y-5031031D01*
X8243991Y-5031031D02*
X8253515Y-5021508D01*
X8253515Y-5021508D02*
X8272562Y-5011984D01*
X8463039Y-5011984D02*
X8482086Y-5011984D01*
X8482086Y-5011984D02*
X8501134Y-5021508D01*
X8501134Y-5021508D02*
X8510658Y-5031031D01*
X8510658Y-5031031D02*
X8520182Y-5050079D01*
X8520182Y-5050079D02*
X8529705Y-5088174D01*
X8529705Y-5088174D02*
X8529705Y-5135793D01*
X8529705Y-5135793D02*
X8520182Y-5173889D01*
X8520182Y-5173889D02*
X8510658Y-5192936D01*
X8510658Y-5192936D02*
X8501134Y-5202460D01*
X8501134Y-5202460D02*
X8482086Y-5211984D01*
X8482086Y-5211984D02*
X8463039Y-5211984D01*
X8463039Y-5211984D02*
X8443991Y-5202460D01*
X8443991Y-5202460D02*
X8434467Y-5192936D01*
X8434467Y-5192936D02*
X8424944Y-5173889D01*
X8424944Y-5173889D02*
X8415420Y-5135793D01*
X8415420Y-5135793D02*
X8415420Y-5088174D01*
X8415420Y-5088174D02*
X8424944Y-5050079D01*
X8424944Y-5050079D02*
X8434467Y-5031031D01*
X8434467Y-5031031D02*
X8443991Y-5021508D01*
X8443991Y-5021508D02*
X8463039Y-5011984D01*
X8615420Y-5211984D02*
X8615420Y-5078650D01*
X8615420Y-5097698D02*
X8624944Y-5088174D01*
X8624944Y-5088174D02*
X8643991Y-5078650D01*
X8643991Y-5078650D02*
X8672563Y-5078650D01*
X8672563Y-5078650D02*
X8691610Y-5088174D01*
X8691610Y-5088174D02*
X8701134Y-5107222D01*
X8701134Y-5107222D02*
X8701134Y-5211984D01*
X8701134Y-5107222D02*
X8710658Y-5088174D01*
X8710658Y-5088174D02*
X8729705Y-5078650D01*
X8729705Y-5078650D02*
X8758277Y-5078650D01*
X8758277Y-5078650D02*
X8777325Y-5088174D01*
X8777325Y-5088174D02*
X8786848Y-5107222D01*
X8786848Y-5107222D02*
X8786848Y-5211984D01*
X8882086Y-5211984D02*
X8882086Y-5078650D01*
X8882086Y-5097698D02*
X8891610Y-5088174D01*
X8891610Y-5088174D02*
X8910658Y-5078650D01*
X8910658Y-5078650D02*
X8939229Y-5078650D01*
X8939229Y-5078650D02*
X8958277Y-5088174D01*
X8958277Y-5088174D02*
X8967801Y-5107222D01*
X8967801Y-5107222D02*
X8967801Y-5211984D01*
X8967801Y-5107222D02*
X8977325Y-5088174D01*
X8977325Y-5088174D02*
X8996372Y-5078650D01*
X8996372Y-5078650D02*
X9024944Y-5078650D01*
X9024944Y-5078650D02*
X9043991Y-5088174D01*
X9043991Y-5088174D02*
X9053515Y-5107222D01*
X9053515Y-5107222D02*
X9053515Y-5211984D01*
X9443991Y-5002460D02*
X9272563Y-5259603D01*
X9701134Y-5011984D02*
X9720182Y-5011984D01*
X9720182Y-5011984D02*
X9739229Y-5021508D01*
X9739229Y-5021508D02*
X9748753Y-5031031D01*
X9748753Y-5031031D02*
X9758277Y-5050079D01*
X9758277Y-5050079D02*
X9767801Y-5088174D01*
X9767801Y-5088174D02*
X9767801Y-5135793D01*
X9767801Y-5135793D02*
X9758277Y-5173889D01*
X9758277Y-5173889D02*
X9748753Y-5192936D01*
X9748753Y-5192936D02*
X9739229Y-5202460D01*
X9739229Y-5202460D02*
X9720182Y-5211984D01*
X9720182Y-5211984D02*
X9701134Y-5211984D01*
X9701134Y-5211984D02*
X9682087Y-5202460D01*
X9682087Y-5202460D02*
X9672563Y-5192936D01*
X9672563Y-5192936D02*
X9663039Y-5173889D01*
X9663039Y-5173889D02*
X9653515Y-5135793D01*
X9653515Y-5135793D02*
X9653515Y-5088174D01*
X9653515Y-5088174D02*
X9663039Y-5050079D01*
X9663039Y-5050079D02*
X9672563Y-5031031D01*
X9672563Y-5031031D02*
X9682087Y-5021508D01*
X9682087Y-5021508D02*
X9701134Y-5011984D01*
X9853515Y-5192936D02*
X9863039Y-5202460D01*
X9863039Y-5202460D02*
X9853515Y-5211984D01*
X9853515Y-5211984D02*
X9843991Y-5202460D01*
X9843991Y-5202460D02*
X9853515Y-5192936D01*
X9853515Y-5192936D02*
X9853515Y-5211984D01*
X9986848Y-5011984D02*
X10005896Y-5011984D01*
X10005896Y-5011984D02*
X10024944Y-5021508D01*
X10024944Y-5021508D02*
X10034468Y-5031031D01*
X10034468Y-5031031D02*
X10043991Y-5050079D01*
X10043991Y-5050079D02*
X10053515Y-5088174D01*
X10053515Y-5088174D02*
X10053515Y-5135793D01*
X10053515Y-5135793D02*
X10043991Y-5173889D01*
X10043991Y-5173889D02*
X10034468Y-5192936D01*
X10034468Y-5192936D02*
X10024944Y-5202460D01*
X10024944Y-5202460D02*
X10005896Y-5211984D01*
X10005896Y-5211984D02*
X9986848Y-5211984D01*
X9986848Y-5211984D02*
X9967801Y-5202460D01*
X9967801Y-5202460D02*
X9958277Y-5192936D01*
X9958277Y-5192936D02*
X9948753Y-5173889D01*
X9948753Y-5173889D02*
X9939229Y-5135793D01*
X9939229Y-5135793D02*
X9939229Y-5088174D01*
X9939229Y-5088174D02*
X9948753Y-5050079D01*
X9948753Y-5050079D02*
X9958277Y-5031031D01*
X9958277Y-5031031D02*
X9967801Y-5021508D01*
X9967801Y-5021508D02*
X9986848Y-5011984D01*
X10120182Y-5011984D02*
X10243991Y-5011984D01*
X10243991Y-5011984D02*
X10177325Y-5088174D01*
X10177325Y-5088174D02*
X10205896Y-5088174D01*
X10205896Y-5088174D02*
X10224944Y-5097698D01*
X10224944Y-5097698D02*
X10234468Y-5107222D01*
X10234468Y-5107222D02*
X10243991Y-5126270D01*
X10243991Y-5126270D02*
X10243991Y-5173889D01*
X10243991Y-5173889D02*
X10234468Y-5192936D01*
X10234468Y-5192936D02*
X10224944Y-5202460D01*
X10224944Y-5202460D02*
X10205896Y-5211984D01*
X10205896Y-5211984D02*
X10148753Y-5211984D01*
X10148753Y-5211984D02*
X10129706Y-5202460D01*
X10129706Y-5202460D02*
X10120182Y-5192936D01*
X10339229Y-5211984D02*
X10377325Y-5211984D01*
X10377325Y-5211984D02*
X10396372Y-5202460D01*
X10396372Y-5202460D02*
X10405896Y-5192936D01*
X10405896Y-5192936D02*
X10424944Y-5164365D01*
X10424944Y-5164365D02*
X10434468Y-5126270D01*
X10434468Y-5126270D02*
X10434468Y-5050079D01*
X10434468Y-5050079D02*
X10424944Y-5031031D01*
X10424944Y-5031031D02*
X10415420Y-5021508D01*
X10415420Y-5021508D02*
X10396372Y-5011984D01*
X10396372Y-5011984D02*
X10358277Y-5011984D01*
X10358277Y-5011984D02*
X10339229Y-5021508D01*
X10339229Y-5021508D02*
X10329706Y-5031031D01*
X10329706Y-5031031D02*
X10320182Y-5050079D01*
X10320182Y-5050079D02*
X10320182Y-5097698D01*
X10320182Y-5097698D02*
X10329706Y-5116746D01*
X10329706Y-5116746D02*
X10339229Y-5126270D01*
X10339229Y-5126270D02*
X10358277Y-5135793D01*
X10358277Y-5135793D02*
X10396372Y-5135793D01*
X10396372Y-5135793D02*
X10415420Y-5126270D01*
X10415420Y-5126270D02*
X10424944Y-5116746D01*
X10424944Y-5116746D02*
X10434468Y-5097698D01*
X10605896Y-5078650D02*
X10605896Y-5211984D01*
X10558277Y-5002460D02*
X10510658Y-5145317D01*
X10510658Y-5145317D02*
X10634468Y-5145317D01*
X10701134Y-5011984D02*
X10701134Y-5050079D01*
X10777325Y-5011984D02*
X10777325Y-5050079D01*
X11072563Y-5288174D02*
X11063039Y-5278650D01*
X11063039Y-5278650D02*
X11043991Y-5250079D01*
X11043991Y-5250079D02*
X11034468Y-5231031D01*
X11034468Y-5231031D02*
X11024944Y-5202460D01*
X11024944Y-5202460D02*
X11015420Y-5154841D01*
X11015420Y-5154841D02*
X11015420Y-5116746D01*
X11015420Y-5116746D02*
X11024944Y-5069127D01*
X11024944Y-5069127D02*
X11034468Y-5040555D01*
X11034468Y-5040555D02*
X11043991Y-5021508D01*
X11043991Y-5021508D02*
X11063039Y-4992936D01*
X11063039Y-4992936D02*
X11072563Y-4983412D01*
X11129706Y-5011984D02*
X11263039Y-5011984D01*
X11263039Y-5011984D02*
X11177325Y-5211984D01*
X11320182Y-5011984D02*
X11453515Y-5011984D01*
X11453515Y-5011984D02*
X11367801Y-5211984D01*
X11682087Y-5211984D02*
X11682087Y-5011984D01*
X11767801Y-5211984D02*
X11767801Y-5107222D01*
X11767801Y-5107222D02*
X11758277Y-5088174D01*
X11758277Y-5088174D02*
X11739230Y-5078650D01*
X11739230Y-5078650D02*
X11710658Y-5078650D01*
X11710658Y-5078650D02*
X11691610Y-5088174D01*
X11691610Y-5088174D02*
X11682087Y-5097698D01*
X11891610Y-5211984D02*
X11872563Y-5202460D01*
X11872563Y-5202460D02*
X11863039Y-5192936D01*
X11863039Y-5192936D02*
X11853515Y-5173889D01*
X11853515Y-5173889D02*
X11853515Y-5116746D01*
X11853515Y-5116746D02*
X11863039Y-5097698D01*
X11863039Y-5097698D02*
X11872563Y-5088174D01*
X11872563Y-5088174D02*
X11891610Y-5078650D01*
X11891610Y-5078650D02*
X11920182Y-5078650D01*
X11920182Y-5078650D02*
X11939230Y-5088174D01*
X11939230Y-5088174D02*
X11948753Y-5097698D01*
X11948753Y-5097698D02*
X11958277Y-5116746D01*
X11958277Y-5116746D02*
X11958277Y-5173889D01*
X11958277Y-5173889D02*
X11948753Y-5192936D01*
X11948753Y-5192936D02*
X11939230Y-5202460D01*
X11939230Y-5202460D02*
X11920182Y-5211984D01*
X11920182Y-5211984D02*
X11891610Y-5211984D01*
X12072563Y-5211984D02*
X12053515Y-5202460D01*
X12053515Y-5202460D02*
X12043991Y-5183412D01*
X12043991Y-5183412D02*
X12043991Y-5011984D01*
X12224944Y-5202460D02*
X12205896Y-5211984D01*
X12205896Y-5211984D02*
X12167801Y-5211984D01*
X12167801Y-5211984D02*
X12148753Y-5202460D01*
X12148753Y-5202460D02*
X12139230Y-5183412D01*
X12139230Y-5183412D02*
X12139230Y-5107222D01*
X12139230Y-5107222D02*
X12148753Y-5088174D01*
X12148753Y-5088174D02*
X12167801Y-5078650D01*
X12167801Y-5078650D02*
X12205896Y-5078650D01*
X12205896Y-5078650D02*
X12224944Y-5088174D01*
X12224944Y-5088174D02*
X12234468Y-5107222D01*
X12234468Y-5107222D02*
X12234468Y-5126270D01*
X12234468Y-5126270D02*
X12139230Y-5145317D01*
X12310658Y-5202460D02*
X12329706Y-5211984D01*
X12329706Y-5211984D02*
X12367801Y-5211984D01*
X12367801Y-5211984D02*
X12386849Y-5202460D01*
X12386849Y-5202460D02*
X12396372Y-5183412D01*
X12396372Y-5183412D02*
X12396372Y-5173889D01*
X12396372Y-5173889D02*
X12386849Y-5154841D01*
X12386849Y-5154841D02*
X12367801Y-5145317D01*
X12367801Y-5145317D02*
X12339230Y-5145317D01*
X12339230Y-5145317D02*
X12320182Y-5135793D01*
X12320182Y-5135793D02*
X12310658Y-5116746D01*
X12310658Y-5116746D02*
X12310658Y-5107222D01*
X12310658Y-5107222D02*
X12320182Y-5088174D01*
X12320182Y-5088174D02*
X12339230Y-5078650D01*
X12339230Y-5078650D02*
X12367801Y-5078650D01*
X12367801Y-5078650D02*
X12386849Y-5088174D01*
X12463039Y-5288174D02*
X12472563Y-5278650D01*
X12472563Y-5278650D02*
X12491611Y-5250079D01*
X12491611Y-5250079D02*
X12501134Y-5231031D01*
X12501134Y-5231031D02*
X12510658Y-5202460D01*
X12510658Y-5202460D02*
X12520182Y-5154841D01*
X12520182Y-5154841D02*
X12520182Y-5116746D01*
X12520182Y-5116746D02*
X12510658Y-5069127D01*
X12510658Y-5069127D02*
X12501134Y-5040555D01*
X12501134Y-5040555D02*
X12491611Y-5021508D01*
X12491611Y-5021508D02*
X12472563Y-4992936D01*
X12472563Y-4992936D02*
X12463039Y-4983412D01*
M02*
