%TF.GenerationSoftware,KiCad,Pcbnew,8.0.8*%
%TF.CreationDate,2025-10-24T15:06:34-04:00*%
%TF.ProjectId,InSystemROMProg,496e5379-7374-4656-9d52-4f4d50726f67,rev?*%
%TF.SameCoordinates,Original*%
%TF.FileFunction,Drillmap*%
%TF.FilePolarity,Positive*%
%FSLAX45Y45*%
G04 Gerber Fmt 4.5, Leading zero omitted, Abs format (unit mm)*
G04 Created by KiCad (PCBNEW 8.0.8) date 2025-10-24 15:06:34*
%MOMM*%
%LPD*%
G01*
G04 APERTURE LIST*
%ADD10C,0.050000*%
%ADD11C,0.200000*%
G04 APERTURE END LIST*
D10*
X7740000Y1870000D02*
X12560000Y1870000D01*
X12560000Y-4640000D01*
X7740000Y-4640000D01*
X7740000Y1870000D01*
D11*
X7998277Y-4953984D02*
X7998277Y-4753984D01*
X7998277Y-4753984D02*
X8045896Y-4753984D01*
X8045896Y-4753984D02*
X8074467Y-4763508D01*
X8074467Y-4763508D02*
X8093515Y-4782555D01*
X8093515Y-4782555D02*
X8103039Y-4801603D01*
X8103039Y-4801603D02*
X8112562Y-4839698D01*
X8112562Y-4839698D02*
X8112562Y-4868270D01*
X8112562Y-4868270D02*
X8103039Y-4906365D01*
X8103039Y-4906365D02*
X8093515Y-4925412D01*
X8093515Y-4925412D02*
X8074467Y-4944460D01*
X8074467Y-4944460D02*
X8045896Y-4953984D01*
X8045896Y-4953984D02*
X7998277Y-4953984D01*
X8198277Y-4953984D02*
X8198277Y-4820650D01*
X8198277Y-4858746D02*
X8207801Y-4839698D01*
X8207801Y-4839698D02*
X8217324Y-4830174D01*
X8217324Y-4830174D02*
X8236372Y-4820650D01*
X8236372Y-4820650D02*
X8255420Y-4820650D01*
X8322086Y-4953984D02*
X8322086Y-4820650D01*
X8322086Y-4753984D02*
X8312562Y-4763508D01*
X8312562Y-4763508D02*
X8322086Y-4773031D01*
X8322086Y-4773031D02*
X8331610Y-4763508D01*
X8331610Y-4763508D02*
X8322086Y-4753984D01*
X8322086Y-4753984D02*
X8322086Y-4773031D01*
X8445896Y-4953984D02*
X8426848Y-4944460D01*
X8426848Y-4944460D02*
X8417324Y-4925412D01*
X8417324Y-4925412D02*
X8417324Y-4753984D01*
X8550658Y-4953984D02*
X8531610Y-4944460D01*
X8531610Y-4944460D02*
X8522086Y-4925412D01*
X8522086Y-4925412D02*
X8522086Y-4753984D01*
X8779229Y-4953984D02*
X8779229Y-4753984D01*
X8779229Y-4753984D02*
X8845896Y-4896841D01*
X8845896Y-4896841D02*
X8912563Y-4753984D01*
X8912563Y-4753984D02*
X8912563Y-4953984D01*
X9093515Y-4953984D02*
X9093515Y-4849222D01*
X9093515Y-4849222D02*
X9083991Y-4830174D01*
X9083991Y-4830174D02*
X9064944Y-4820650D01*
X9064944Y-4820650D02*
X9026848Y-4820650D01*
X9026848Y-4820650D02*
X9007801Y-4830174D01*
X9093515Y-4944460D02*
X9074467Y-4953984D01*
X9074467Y-4953984D02*
X9026848Y-4953984D01*
X9026848Y-4953984D02*
X9007801Y-4944460D01*
X9007801Y-4944460D02*
X8998277Y-4925412D01*
X8998277Y-4925412D02*
X8998277Y-4906365D01*
X8998277Y-4906365D02*
X9007801Y-4887317D01*
X9007801Y-4887317D02*
X9026848Y-4877793D01*
X9026848Y-4877793D02*
X9074467Y-4877793D01*
X9074467Y-4877793D02*
X9093515Y-4868270D01*
X9188753Y-4820650D02*
X9188753Y-5020650D01*
X9188753Y-4830174D02*
X9207801Y-4820650D01*
X9207801Y-4820650D02*
X9245896Y-4820650D01*
X9245896Y-4820650D02*
X9264944Y-4830174D01*
X9264944Y-4830174D02*
X9274467Y-4839698D01*
X9274467Y-4839698D02*
X9283991Y-4858746D01*
X9283991Y-4858746D02*
X9283991Y-4915889D01*
X9283991Y-4915889D02*
X9274467Y-4934936D01*
X9274467Y-4934936D02*
X9264944Y-4944460D01*
X9264944Y-4944460D02*
X9245896Y-4953984D01*
X9245896Y-4953984D02*
X9207801Y-4953984D01*
X9207801Y-4953984D02*
X9188753Y-4944460D01*
X9369705Y-4934936D02*
X9379229Y-4944460D01*
X9379229Y-4944460D02*
X9369705Y-4953984D01*
X9369705Y-4953984D02*
X9360182Y-4944460D01*
X9360182Y-4944460D02*
X9369705Y-4934936D01*
X9369705Y-4934936D02*
X9369705Y-4953984D01*
X9369705Y-4830174D02*
X9379229Y-4839698D01*
X9379229Y-4839698D02*
X9369705Y-4849222D01*
X9369705Y-4849222D02*
X9360182Y-4839698D01*
X9360182Y-4839698D02*
X9369705Y-4830174D01*
X9369705Y-4830174D02*
X9369705Y-4849222D01*
M02*
