M48
; DRILL file {KiCad 8.0.8} date 2025-10-24T15:06:32-0400
; FORMAT={-:-/ absolute / metric / decimal}
; #@! TF.CreationDate,2025-10-24T15:06:32-04:00
; #@! TF.GenerationSoftware,Kicad,Pcbnew,8.0.8
; #@! TF.FileFunction,Plated,1,2,PTH
FMAT,2
METRIC
; #@! TA.AperFunction,Plated,PTH,ViaDrill
T1C0.300
; #@! TA.AperFunction,Plated,PTH,ComponentDrill
T2C0.800
; #@! TA.AperFunction,Plated,PTH,ComponentDrill
T3C1.000
%
G90
G05
T1
X89.789Y-29.34
X90.23Y-34.449
X94.633Y-27.215
X95.33Y-12.92
X96.752Y-2.397
X101.306Y6.194
X102.427Y2.968
X104.336Y5.818
X105.081Y-33.764
X105.171Y-31.186
X109.142Y12.257
X109.376Y-6.666
X109.759Y-31.405
X111.202Y-22.686
X111.742Y-26.303
X111.84Y0.731
X112.085Y-8.469
X112.216Y-18.181
X114.533Y-20.495
X115.947Y-27.114
X117.469Y-10.323
X122.741Y-34.342
T2
X92.76Y4.94
X92.76Y2.4
X92.76Y-0.14
X92.76Y-2.68
X92.76Y-5.22
X92.76Y-7.76
X92.76Y-10.3
X92.76Y-12.84
X92.76Y-15.38
X92.76Y-17.92
X92.76Y-20.46
X92.76Y-23.0
X92.76Y-25.54
X92.76Y-28.08
X92.76Y-30.62
X92.76Y-33.16
X106.69Y12.6
X106.69Y8.9
X108.0Y4.94
X108.0Y2.4
X108.0Y-0.14
X108.0Y-2.68
X108.0Y-5.22
X108.0Y-7.76
X108.0Y-10.3
X108.0Y-12.84
X108.0Y-15.38
X108.0Y-17.92
X108.0Y-20.46
X108.0Y-23.0
X108.0Y-25.54
X108.0Y-28.08
X108.0Y-30.62
X108.0Y-33.16
X114.31Y12.6
X114.31Y8.9
T3
X84.3Y4.96
X84.3Y2.42
X84.3Y-0.12
X84.3Y-2.66
X84.3Y-5.2
X84.3Y-7.74
X84.3Y-10.28
X84.3Y-12.82
X84.3Y-15.36
X84.3Y-17.9
X84.3Y-20.44
X84.3Y-22.98
X84.3Y-25.52
X84.3Y-28.06
X84.3Y-30.6
X84.3Y-33.14
X99.54Y4.96
X99.54Y2.42
X99.54Y-0.12
X99.54Y-2.66
X99.54Y-5.2
X99.54Y-7.74
X99.54Y-10.28
X99.54Y-12.82
X99.54Y-15.36
X99.54Y-17.9
X99.54Y-20.44
X99.54Y-22.98
X99.54Y-25.52
X99.54Y-28.06
X99.54Y-30.6
X99.54Y-33.14
X112.38Y-37.8
X114.92Y-37.8
X117.46Y-37.8
X120.0Y15.42
X120.0Y12.88
X120.0Y10.34
X120.0Y7.8
X120.0Y5.26
X120.0Y2.72
X120.0Y0.18
X120.0Y-2.36
X120.0Y-4.9
X120.0Y-7.44
X120.0Y-9.98
X120.0Y-12.52
X120.0Y-15.06
X120.0Y-17.6
X120.0Y-20.14
X120.0Y-22.68
X120.0Y-25.22
X120.0Y-27.76
X120.0Y-30.3
X120.0Y-32.84
X120.0Y-37.8
X122.54Y15.42
X122.54Y12.88
X122.54Y10.34
X122.54Y7.8
X122.54Y5.26
X122.54Y2.72
X122.54Y0.18
X122.54Y-2.36
X122.54Y-4.9
X122.54Y-7.44
X122.54Y-9.98
X122.54Y-12.52
X122.54Y-15.06
X122.54Y-17.6
X122.54Y-20.14
X122.54Y-22.68
X122.54Y-25.22
X122.54Y-27.76
X122.54Y-30.3
X122.54Y-32.84
X122.54Y-37.8
M30
