G04 #@! TF.GenerationSoftware,KiCad,Pcbnew,8.0.8*
G04 #@! TF.CreationDate,2025-10-24T15:06:27-04:00*
G04 #@! TF.ProjectId,InSystemROMProg,496e5379-7374-4656-9d52-4f4d50726f67,rev?*
G04 #@! TF.SameCoordinates,Original*
G04 #@! TF.FileFunction,Soldermask,Bot*
G04 #@! TF.FilePolarity,Negative*
%FSLAX46Y46*%
G04 Gerber Fmt 4.6, Leading zero omitted, Abs format (unit mm)*
G04 Created by KiCad (PCBNEW 8.0.8) date 2025-10-24 15:06:27*
%MOMM*%
%LPD*%
G01*
G04 APERTURE LIST*
G04 APERTURE END LIST*
G36*
X123404542Y-36914893D02*
G01*
X123416870Y-36923130D01*
X123425107Y-36935458D01*
X123428000Y-36950000D01*
X123428000Y-38650000D01*
X123425107Y-38664542D01*
X123416870Y-38676870D01*
X123404542Y-38685107D01*
X123390000Y-38688000D01*
X121690000Y-38688000D01*
X121675458Y-38685107D01*
X121663130Y-38676870D01*
X121654893Y-38664542D01*
X121652000Y-38650000D01*
X121652000Y-36950000D01*
X121654893Y-36935458D01*
X121663130Y-36923130D01*
X121675458Y-36914893D01*
X121690000Y-36912000D01*
X123390000Y-36912000D01*
X123404542Y-36914893D01*
G37*
G36*
X112654407Y-36955462D02*
G01*
X112824000Y-37030969D01*
X112974188Y-37140087D01*
X113098407Y-37278047D01*
X113191228Y-37438818D01*
X113248595Y-37615374D01*
X113268000Y-37800000D01*
X113248595Y-37984626D01*
X113191228Y-38161182D01*
X113098407Y-38321953D01*
X112974188Y-38459913D01*
X112824000Y-38569031D01*
X112654407Y-38644538D01*
X112472821Y-38683135D01*
X112287179Y-38683135D01*
X112105593Y-38644538D01*
X111936000Y-38569031D01*
X111785812Y-38459913D01*
X111661593Y-38321953D01*
X111568772Y-38161182D01*
X111511405Y-37984626D01*
X111492000Y-37800000D01*
X111511405Y-37615374D01*
X111568772Y-37438818D01*
X111661593Y-37278047D01*
X111785812Y-37140087D01*
X111936000Y-37030969D01*
X112105593Y-36955462D01*
X112287179Y-36916865D01*
X112472821Y-36916865D01*
X112654407Y-36955462D01*
G37*
G36*
X115194407Y-36955462D02*
G01*
X115364000Y-37030969D01*
X115514188Y-37140087D01*
X115638407Y-37278047D01*
X115731228Y-37438818D01*
X115788595Y-37615374D01*
X115808000Y-37800000D01*
X115788595Y-37984626D01*
X115731228Y-38161182D01*
X115638407Y-38321953D01*
X115514188Y-38459913D01*
X115364000Y-38569031D01*
X115194407Y-38644538D01*
X115012821Y-38683135D01*
X114827179Y-38683135D01*
X114645593Y-38644538D01*
X114476000Y-38569031D01*
X114325812Y-38459913D01*
X114201593Y-38321953D01*
X114108772Y-38161182D01*
X114051405Y-37984626D01*
X114032000Y-37800000D01*
X114051405Y-37615374D01*
X114108772Y-37438818D01*
X114201593Y-37278047D01*
X114325812Y-37140087D01*
X114476000Y-37030969D01*
X114645593Y-36955462D01*
X114827179Y-36916865D01*
X115012821Y-36916865D01*
X115194407Y-36955462D01*
G37*
G36*
X117734407Y-36955462D02*
G01*
X117904000Y-37030969D01*
X118054188Y-37140087D01*
X118178407Y-37278047D01*
X118271228Y-37438818D01*
X118328595Y-37615374D01*
X118348000Y-37800000D01*
X118328595Y-37984626D01*
X118271228Y-38161182D01*
X118178407Y-38321953D01*
X118054188Y-38459913D01*
X117904000Y-38569031D01*
X117734407Y-38644538D01*
X117552821Y-38683135D01*
X117367179Y-38683135D01*
X117185593Y-38644538D01*
X117016000Y-38569031D01*
X116865812Y-38459913D01*
X116741593Y-38321953D01*
X116648772Y-38161182D01*
X116591405Y-37984626D01*
X116572000Y-37800000D01*
X116591405Y-37615374D01*
X116648772Y-37438818D01*
X116741593Y-37278047D01*
X116865812Y-37140087D01*
X117016000Y-37030969D01*
X117185593Y-36955462D01*
X117367179Y-36916865D01*
X117552821Y-36916865D01*
X117734407Y-36955462D01*
G37*
G36*
X120274407Y-36955462D02*
G01*
X120444000Y-37030969D01*
X120594188Y-37140087D01*
X120718407Y-37278047D01*
X120811228Y-37438818D01*
X120868595Y-37615374D01*
X120888000Y-37800000D01*
X120868595Y-37984626D01*
X120811228Y-38161182D01*
X120718407Y-38321953D01*
X120594188Y-38459913D01*
X120444000Y-38569031D01*
X120274407Y-38644538D01*
X120092821Y-38683135D01*
X119907179Y-38683135D01*
X119725593Y-38644538D01*
X119556000Y-38569031D01*
X119405812Y-38459913D01*
X119281593Y-38321953D01*
X119188772Y-38161182D01*
X119131405Y-37984626D01*
X119112000Y-37800000D01*
X119131405Y-37615374D01*
X119188772Y-37438818D01*
X119281593Y-37278047D01*
X119405812Y-37140087D01*
X119556000Y-37030969D01*
X119725593Y-36955462D01*
X119907179Y-36916865D01*
X120092821Y-36916865D01*
X120274407Y-36955462D01*
G37*
G36*
X93242138Y-32326035D02*
G01*
X93403259Y-32358084D01*
X93555030Y-32420950D01*
X93691622Y-32512217D01*
X93807783Y-32628378D01*
X93899050Y-32764970D01*
X93961916Y-32916741D01*
X93993965Y-33077862D01*
X93993965Y-33242138D01*
X93961916Y-33403259D01*
X93899050Y-33555030D01*
X93807783Y-33691622D01*
X93691622Y-33807783D01*
X93555030Y-33899050D01*
X93403259Y-33961916D01*
X93242138Y-33993965D01*
X93160000Y-33998000D01*
X93158768Y-33998000D01*
X92361232Y-33998000D01*
X92360000Y-33998000D01*
X92277862Y-33993965D01*
X92116741Y-33961916D01*
X91964970Y-33899050D01*
X91828378Y-33807783D01*
X91712217Y-33691622D01*
X91620950Y-33555030D01*
X91558084Y-33403259D01*
X91526035Y-33242138D01*
X91526035Y-33077862D01*
X91558084Y-32916741D01*
X91620950Y-32764970D01*
X91712217Y-32628378D01*
X91828378Y-32512217D01*
X91964970Y-32420950D01*
X92116741Y-32358084D01*
X92277862Y-32326035D01*
X92360000Y-32322000D01*
X93160000Y-32322000D01*
X93242138Y-32326035D01*
G37*
G36*
X108482138Y-32326035D02*
G01*
X108643259Y-32358084D01*
X108795030Y-32420950D01*
X108931622Y-32512217D01*
X109047783Y-32628378D01*
X109139050Y-32764970D01*
X109201916Y-32916741D01*
X109233965Y-33077862D01*
X109233965Y-33242138D01*
X109201916Y-33403259D01*
X109139050Y-33555030D01*
X109047783Y-33691622D01*
X108931622Y-33807783D01*
X108795030Y-33899050D01*
X108643259Y-33961916D01*
X108482138Y-33993965D01*
X108400000Y-33998000D01*
X108398768Y-33998000D01*
X107601232Y-33998000D01*
X107600000Y-33998000D01*
X107517862Y-33993965D01*
X107356741Y-33961916D01*
X107204970Y-33899050D01*
X107068378Y-33807783D01*
X106952217Y-33691622D01*
X106860950Y-33555030D01*
X106798084Y-33403259D01*
X106766035Y-33242138D01*
X106766035Y-33077862D01*
X106798084Y-32916741D01*
X106860950Y-32764970D01*
X106952217Y-32628378D01*
X107068378Y-32512217D01*
X107204970Y-32420950D01*
X107356741Y-32358084D01*
X107517862Y-32326035D01*
X107600000Y-32322000D01*
X108400000Y-32322000D01*
X108482138Y-32326035D01*
G37*
G36*
X85127238Y-32355794D02*
G01*
X85278744Y-32385931D01*
X85421461Y-32445046D01*
X85549902Y-32530868D01*
X85659132Y-32640098D01*
X85744954Y-32768539D01*
X85804069Y-32911256D01*
X85834206Y-33062762D01*
X85834206Y-33217238D01*
X85804069Y-33368744D01*
X85744954Y-33511461D01*
X85659132Y-33639902D01*
X85549902Y-33749132D01*
X85421461Y-33834954D01*
X85278744Y-33894069D01*
X85127238Y-33924206D01*
X85050000Y-33928000D01*
X85048768Y-33928000D01*
X83551232Y-33928000D01*
X83550000Y-33928000D01*
X83472762Y-33924206D01*
X83321256Y-33894069D01*
X83178539Y-33834954D01*
X83050098Y-33749132D01*
X82940868Y-33639902D01*
X82855046Y-33511461D01*
X82795931Y-33368744D01*
X82765794Y-33217238D01*
X82765794Y-33062762D01*
X82795931Y-32911256D01*
X82855046Y-32768539D01*
X82940868Y-32640098D01*
X83050098Y-32530868D01*
X83178539Y-32445046D01*
X83321256Y-32385931D01*
X83472762Y-32355794D01*
X83550000Y-32352000D01*
X85050000Y-32352000D01*
X85127238Y-32355794D01*
G37*
G36*
X100367238Y-32355794D02*
G01*
X100518744Y-32385931D01*
X100661461Y-32445046D01*
X100789902Y-32530868D01*
X100899132Y-32640098D01*
X100984954Y-32768539D01*
X101044069Y-32911256D01*
X101074206Y-33062762D01*
X101074206Y-33217238D01*
X101044069Y-33368744D01*
X100984954Y-33511461D01*
X100899132Y-33639902D01*
X100789902Y-33749132D01*
X100661461Y-33834954D01*
X100518744Y-33894069D01*
X100367238Y-33924206D01*
X100290000Y-33928000D01*
X100288768Y-33928000D01*
X98791232Y-33928000D01*
X98790000Y-33928000D01*
X98712762Y-33924206D01*
X98561256Y-33894069D01*
X98418539Y-33834954D01*
X98290098Y-33749132D01*
X98180868Y-33639902D01*
X98095046Y-33511461D01*
X98035931Y-33368744D01*
X98005794Y-33217238D01*
X98005794Y-33062762D01*
X98035931Y-32911256D01*
X98095046Y-32768539D01*
X98180868Y-32640098D01*
X98290098Y-32530868D01*
X98418539Y-32445046D01*
X98561256Y-32385931D01*
X98712762Y-32355794D01*
X98790000Y-32352000D01*
X100290000Y-32352000D01*
X100367238Y-32355794D01*
G37*
G36*
X120274407Y-31995462D02*
G01*
X120444000Y-32070969D01*
X120594188Y-32180087D01*
X120718407Y-32318047D01*
X120811228Y-32478818D01*
X120868595Y-32655374D01*
X120888000Y-32840000D01*
X120868595Y-33024626D01*
X120811228Y-33201182D01*
X120718407Y-33361953D01*
X120594188Y-33499913D01*
X120444000Y-33609031D01*
X120274407Y-33684538D01*
X120092821Y-33723135D01*
X119907179Y-33723135D01*
X119725593Y-33684538D01*
X119556000Y-33609031D01*
X119405812Y-33499913D01*
X119281593Y-33361953D01*
X119188772Y-33201182D01*
X119131405Y-33024626D01*
X119112000Y-32840000D01*
X119131405Y-32655374D01*
X119188772Y-32478818D01*
X119281593Y-32318047D01*
X119405812Y-32180087D01*
X119556000Y-32070969D01*
X119725593Y-31995462D01*
X119907179Y-31956865D01*
X120092821Y-31956865D01*
X120274407Y-31995462D01*
G37*
G36*
X122814407Y-31995462D02*
G01*
X122984000Y-32070969D01*
X123134188Y-32180087D01*
X123258407Y-32318047D01*
X123351228Y-32478818D01*
X123408595Y-32655374D01*
X123428000Y-32840000D01*
X123408595Y-33024626D01*
X123351228Y-33201182D01*
X123258407Y-33361953D01*
X123134188Y-33499913D01*
X122984000Y-33609031D01*
X122814407Y-33684538D01*
X122632821Y-33723135D01*
X122447179Y-33723135D01*
X122265593Y-33684538D01*
X122096000Y-33609031D01*
X121945812Y-33499913D01*
X121821593Y-33361953D01*
X121728772Y-33201182D01*
X121671405Y-33024626D01*
X121652000Y-32840000D01*
X121671405Y-32655374D01*
X121728772Y-32478818D01*
X121821593Y-32318047D01*
X121945812Y-32180087D01*
X122096000Y-32070969D01*
X122265593Y-31995462D01*
X122447179Y-31956865D01*
X122632821Y-31956865D01*
X122814407Y-31995462D01*
G37*
G36*
X93242138Y-29786035D02*
G01*
X93403259Y-29818084D01*
X93555030Y-29880950D01*
X93691622Y-29972217D01*
X93807783Y-30088378D01*
X93899050Y-30224970D01*
X93961916Y-30376741D01*
X93993965Y-30537862D01*
X93993965Y-30702138D01*
X93961916Y-30863259D01*
X93899050Y-31015030D01*
X93807783Y-31151622D01*
X93691622Y-31267783D01*
X93555030Y-31359050D01*
X93403259Y-31421916D01*
X93242138Y-31453965D01*
X93160000Y-31458000D01*
X93158768Y-31458000D01*
X92361232Y-31458000D01*
X92360000Y-31458000D01*
X92277862Y-31453965D01*
X92116741Y-31421916D01*
X91964970Y-31359050D01*
X91828378Y-31267783D01*
X91712217Y-31151622D01*
X91620950Y-31015030D01*
X91558084Y-30863259D01*
X91526035Y-30702138D01*
X91526035Y-30537862D01*
X91558084Y-30376741D01*
X91620950Y-30224970D01*
X91712217Y-30088378D01*
X91828378Y-29972217D01*
X91964970Y-29880950D01*
X92116741Y-29818084D01*
X92277862Y-29786035D01*
X92360000Y-29782000D01*
X93160000Y-29782000D01*
X93242138Y-29786035D01*
G37*
G36*
X108482138Y-29786035D02*
G01*
X108643259Y-29818084D01*
X108795030Y-29880950D01*
X108931622Y-29972217D01*
X109047783Y-30088378D01*
X109139050Y-30224970D01*
X109201916Y-30376741D01*
X109233965Y-30537862D01*
X109233965Y-30702138D01*
X109201916Y-30863259D01*
X109139050Y-31015030D01*
X109047783Y-31151622D01*
X108931622Y-31267783D01*
X108795030Y-31359050D01*
X108643259Y-31421916D01*
X108482138Y-31453965D01*
X108400000Y-31458000D01*
X108398768Y-31458000D01*
X107601232Y-31458000D01*
X107600000Y-31458000D01*
X107517862Y-31453965D01*
X107356741Y-31421916D01*
X107204970Y-31359050D01*
X107068378Y-31267783D01*
X106952217Y-31151622D01*
X106860950Y-31015030D01*
X106798084Y-30863259D01*
X106766035Y-30702138D01*
X106766035Y-30537862D01*
X106798084Y-30376741D01*
X106860950Y-30224970D01*
X106952217Y-30088378D01*
X107068378Y-29972217D01*
X107204970Y-29880950D01*
X107356741Y-29818084D01*
X107517862Y-29786035D01*
X107600000Y-29782000D01*
X108400000Y-29782000D01*
X108482138Y-29786035D01*
G37*
G36*
X85127238Y-29815794D02*
G01*
X85278744Y-29845931D01*
X85421461Y-29905046D01*
X85549902Y-29990868D01*
X85659132Y-30100098D01*
X85744954Y-30228539D01*
X85804069Y-30371256D01*
X85834206Y-30522762D01*
X85834206Y-30677238D01*
X85804069Y-30828744D01*
X85744954Y-30971461D01*
X85659132Y-31099902D01*
X85549902Y-31209132D01*
X85421461Y-31294954D01*
X85278744Y-31354069D01*
X85127238Y-31384206D01*
X85050000Y-31388000D01*
X85048768Y-31388000D01*
X83551232Y-31388000D01*
X83550000Y-31388000D01*
X83472762Y-31384206D01*
X83321256Y-31354069D01*
X83178539Y-31294954D01*
X83050098Y-31209132D01*
X82940868Y-31099902D01*
X82855046Y-30971461D01*
X82795931Y-30828744D01*
X82765794Y-30677238D01*
X82765794Y-30522762D01*
X82795931Y-30371256D01*
X82855046Y-30228539D01*
X82940868Y-30100098D01*
X83050098Y-29990868D01*
X83178539Y-29905046D01*
X83321256Y-29845931D01*
X83472762Y-29815794D01*
X83550000Y-29812000D01*
X85050000Y-29812000D01*
X85127238Y-29815794D01*
G37*
G36*
X100367238Y-29815794D02*
G01*
X100518744Y-29845931D01*
X100661461Y-29905046D01*
X100789902Y-29990868D01*
X100899132Y-30100098D01*
X100984954Y-30228539D01*
X101044069Y-30371256D01*
X101074206Y-30522762D01*
X101074206Y-30677238D01*
X101044069Y-30828744D01*
X100984954Y-30971461D01*
X100899132Y-31099902D01*
X100789902Y-31209132D01*
X100661461Y-31294954D01*
X100518744Y-31354069D01*
X100367238Y-31384206D01*
X100290000Y-31388000D01*
X100288768Y-31388000D01*
X98791232Y-31388000D01*
X98790000Y-31388000D01*
X98712762Y-31384206D01*
X98561256Y-31354069D01*
X98418539Y-31294954D01*
X98290098Y-31209132D01*
X98180868Y-31099902D01*
X98095046Y-30971461D01*
X98035931Y-30828744D01*
X98005794Y-30677238D01*
X98005794Y-30522762D01*
X98035931Y-30371256D01*
X98095046Y-30228539D01*
X98180868Y-30100098D01*
X98290098Y-29990868D01*
X98418539Y-29905046D01*
X98561256Y-29845931D01*
X98712762Y-29815794D01*
X98790000Y-29812000D01*
X100290000Y-29812000D01*
X100367238Y-29815794D01*
G37*
G36*
X120274407Y-29455462D02*
G01*
X120444000Y-29530969D01*
X120594188Y-29640087D01*
X120718407Y-29778047D01*
X120811228Y-29938818D01*
X120868595Y-30115374D01*
X120888000Y-30300000D01*
X120868595Y-30484626D01*
X120811228Y-30661182D01*
X120718407Y-30821953D01*
X120594188Y-30959913D01*
X120444000Y-31069031D01*
X120274407Y-31144538D01*
X120092821Y-31183135D01*
X119907179Y-31183135D01*
X119725593Y-31144538D01*
X119556000Y-31069031D01*
X119405812Y-30959913D01*
X119281593Y-30821953D01*
X119188772Y-30661182D01*
X119131405Y-30484626D01*
X119112000Y-30300000D01*
X119131405Y-30115374D01*
X119188772Y-29938818D01*
X119281593Y-29778047D01*
X119405812Y-29640087D01*
X119556000Y-29530969D01*
X119725593Y-29455462D01*
X119907179Y-29416865D01*
X120092821Y-29416865D01*
X120274407Y-29455462D01*
G37*
G36*
X122814407Y-29455462D02*
G01*
X122984000Y-29530969D01*
X123134188Y-29640087D01*
X123258407Y-29778047D01*
X123351228Y-29938818D01*
X123408595Y-30115374D01*
X123428000Y-30300000D01*
X123408595Y-30484626D01*
X123351228Y-30661182D01*
X123258407Y-30821953D01*
X123134188Y-30959913D01*
X122984000Y-31069031D01*
X122814407Y-31144538D01*
X122632821Y-31183135D01*
X122447179Y-31183135D01*
X122265593Y-31144538D01*
X122096000Y-31069031D01*
X121945812Y-30959913D01*
X121821593Y-30821953D01*
X121728772Y-30661182D01*
X121671405Y-30484626D01*
X121652000Y-30300000D01*
X121671405Y-30115374D01*
X121728772Y-29938818D01*
X121821593Y-29778047D01*
X121945812Y-29640087D01*
X122096000Y-29530969D01*
X122265593Y-29455462D01*
X122447179Y-29416865D01*
X122632821Y-29416865D01*
X122814407Y-29455462D01*
G37*
G36*
X93242138Y-27246035D02*
G01*
X93403259Y-27278084D01*
X93555030Y-27340950D01*
X93691622Y-27432217D01*
X93807783Y-27548378D01*
X93899050Y-27684970D01*
X93961916Y-27836741D01*
X93993965Y-27997862D01*
X93993965Y-28162138D01*
X93961916Y-28323259D01*
X93899050Y-28475030D01*
X93807783Y-28611622D01*
X93691622Y-28727783D01*
X93555030Y-28819050D01*
X93403259Y-28881916D01*
X93242138Y-28913965D01*
X93160000Y-28918000D01*
X93158768Y-28918000D01*
X92361232Y-28918000D01*
X92360000Y-28918000D01*
X92277862Y-28913965D01*
X92116741Y-28881916D01*
X91964970Y-28819050D01*
X91828378Y-28727783D01*
X91712217Y-28611622D01*
X91620950Y-28475030D01*
X91558084Y-28323259D01*
X91526035Y-28162138D01*
X91526035Y-27997862D01*
X91558084Y-27836741D01*
X91620950Y-27684970D01*
X91712217Y-27548378D01*
X91828378Y-27432217D01*
X91964970Y-27340950D01*
X92116741Y-27278084D01*
X92277862Y-27246035D01*
X92360000Y-27242000D01*
X93160000Y-27242000D01*
X93242138Y-27246035D01*
G37*
G36*
X108482138Y-27246035D02*
G01*
X108643259Y-27278084D01*
X108795030Y-27340950D01*
X108931622Y-27432217D01*
X109047783Y-27548378D01*
X109139050Y-27684970D01*
X109201916Y-27836741D01*
X109233965Y-27997862D01*
X109233965Y-28162138D01*
X109201916Y-28323259D01*
X109139050Y-28475030D01*
X109047783Y-28611622D01*
X108931622Y-28727783D01*
X108795030Y-28819050D01*
X108643259Y-28881916D01*
X108482138Y-28913965D01*
X108400000Y-28918000D01*
X108398768Y-28918000D01*
X107601232Y-28918000D01*
X107600000Y-28918000D01*
X107517862Y-28913965D01*
X107356741Y-28881916D01*
X107204970Y-28819050D01*
X107068378Y-28727783D01*
X106952217Y-28611622D01*
X106860950Y-28475030D01*
X106798084Y-28323259D01*
X106766035Y-28162138D01*
X106766035Y-27997862D01*
X106798084Y-27836741D01*
X106860950Y-27684970D01*
X106952217Y-27548378D01*
X107068378Y-27432217D01*
X107204970Y-27340950D01*
X107356741Y-27278084D01*
X107517862Y-27246035D01*
X107600000Y-27242000D01*
X108400000Y-27242000D01*
X108482138Y-27246035D01*
G37*
G36*
X85127238Y-27275794D02*
G01*
X85278744Y-27305931D01*
X85421461Y-27365046D01*
X85549902Y-27450868D01*
X85659132Y-27560098D01*
X85744954Y-27688539D01*
X85804069Y-27831256D01*
X85834206Y-27982762D01*
X85834206Y-28137238D01*
X85804069Y-28288744D01*
X85744954Y-28431461D01*
X85659132Y-28559902D01*
X85549902Y-28669132D01*
X85421461Y-28754954D01*
X85278744Y-28814069D01*
X85127238Y-28844206D01*
X85050000Y-28848000D01*
X85048768Y-28848000D01*
X83551232Y-28848000D01*
X83550000Y-28848000D01*
X83472762Y-28844206D01*
X83321256Y-28814069D01*
X83178539Y-28754954D01*
X83050098Y-28669132D01*
X82940868Y-28559902D01*
X82855046Y-28431461D01*
X82795931Y-28288744D01*
X82765794Y-28137238D01*
X82765794Y-27982762D01*
X82795931Y-27831256D01*
X82855046Y-27688539D01*
X82940868Y-27560098D01*
X83050098Y-27450868D01*
X83178539Y-27365046D01*
X83321256Y-27305931D01*
X83472762Y-27275794D01*
X83550000Y-27272000D01*
X85050000Y-27272000D01*
X85127238Y-27275794D01*
G37*
G36*
X100367238Y-27275794D02*
G01*
X100518744Y-27305931D01*
X100661461Y-27365046D01*
X100789902Y-27450868D01*
X100899132Y-27560098D01*
X100984954Y-27688539D01*
X101044069Y-27831256D01*
X101074206Y-27982762D01*
X101074206Y-28137238D01*
X101044069Y-28288744D01*
X100984954Y-28431461D01*
X100899132Y-28559902D01*
X100789902Y-28669132D01*
X100661461Y-28754954D01*
X100518744Y-28814069D01*
X100367238Y-28844206D01*
X100290000Y-28848000D01*
X100288768Y-28848000D01*
X98791232Y-28848000D01*
X98790000Y-28848000D01*
X98712762Y-28844206D01*
X98561256Y-28814069D01*
X98418539Y-28754954D01*
X98290098Y-28669132D01*
X98180868Y-28559902D01*
X98095046Y-28431461D01*
X98035931Y-28288744D01*
X98005794Y-28137238D01*
X98005794Y-27982762D01*
X98035931Y-27831256D01*
X98095046Y-27688539D01*
X98180868Y-27560098D01*
X98290098Y-27450868D01*
X98418539Y-27365046D01*
X98561256Y-27305931D01*
X98712762Y-27275794D01*
X98790000Y-27272000D01*
X100290000Y-27272000D01*
X100367238Y-27275794D01*
G37*
G36*
X120274407Y-26915462D02*
G01*
X120444000Y-26990969D01*
X120594188Y-27100087D01*
X120718407Y-27238047D01*
X120811228Y-27398818D01*
X120868595Y-27575374D01*
X120888000Y-27760000D01*
X120868595Y-27944626D01*
X120811228Y-28121182D01*
X120718407Y-28281953D01*
X120594188Y-28419913D01*
X120444000Y-28529031D01*
X120274407Y-28604538D01*
X120092821Y-28643135D01*
X119907179Y-28643135D01*
X119725593Y-28604538D01*
X119556000Y-28529031D01*
X119405812Y-28419913D01*
X119281593Y-28281953D01*
X119188772Y-28121182D01*
X119131405Y-27944626D01*
X119112000Y-27760000D01*
X119131405Y-27575374D01*
X119188772Y-27398818D01*
X119281593Y-27238047D01*
X119405812Y-27100087D01*
X119556000Y-26990969D01*
X119725593Y-26915462D01*
X119907179Y-26876865D01*
X120092821Y-26876865D01*
X120274407Y-26915462D01*
G37*
G36*
X122814407Y-26915462D02*
G01*
X122984000Y-26990969D01*
X123134188Y-27100087D01*
X123258407Y-27238047D01*
X123351228Y-27398818D01*
X123408595Y-27575374D01*
X123428000Y-27760000D01*
X123408595Y-27944626D01*
X123351228Y-28121182D01*
X123258407Y-28281953D01*
X123134188Y-28419913D01*
X122984000Y-28529031D01*
X122814407Y-28604538D01*
X122632821Y-28643135D01*
X122447179Y-28643135D01*
X122265593Y-28604538D01*
X122096000Y-28529031D01*
X121945812Y-28419913D01*
X121821593Y-28281953D01*
X121728772Y-28121182D01*
X121671405Y-27944626D01*
X121652000Y-27760000D01*
X121671405Y-27575374D01*
X121728772Y-27398818D01*
X121821593Y-27238047D01*
X121945812Y-27100087D01*
X122096000Y-26990969D01*
X122265593Y-26915462D01*
X122447179Y-26876865D01*
X122632821Y-26876865D01*
X122814407Y-26915462D01*
G37*
G36*
X93242138Y-24706035D02*
G01*
X93403259Y-24738084D01*
X93555030Y-24800950D01*
X93691622Y-24892217D01*
X93807783Y-25008378D01*
X93899050Y-25144970D01*
X93961916Y-25296741D01*
X93993965Y-25457862D01*
X93993965Y-25622138D01*
X93961916Y-25783259D01*
X93899050Y-25935030D01*
X93807783Y-26071622D01*
X93691622Y-26187783D01*
X93555030Y-26279050D01*
X93403259Y-26341916D01*
X93242138Y-26373965D01*
X93160000Y-26378000D01*
X93158768Y-26378000D01*
X92361232Y-26378000D01*
X92360000Y-26378000D01*
X92277862Y-26373965D01*
X92116741Y-26341916D01*
X91964970Y-26279050D01*
X91828378Y-26187783D01*
X91712217Y-26071622D01*
X91620950Y-25935030D01*
X91558084Y-25783259D01*
X91526035Y-25622138D01*
X91526035Y-25457862D01*
X91558084Y-25296741D01*
X91620950Y-25144970D01*
X91712217Y-25008378D01*
X91828378Y-24892217D01*
X91964970Y-24800950D01*
X92116741Y-24738084D01*
X92277862Y-24706035D01*
X92360000Y-24702000D01*
X93160000Y-24702000D01*
X93242138Y-24706035D01*
G37*
G36*
X108482138Y-24706035D02*
G01*
X108643259Y-24738084D01*
X108795030Y-24800950D01*
X108931622Y-24892217D01*
X109047783Y-25008378D01*
X109139050Y-25144970D01*
X109201916Y-25296741D01*
X109233965Y-25457862D01*
X109233965Y-25622138D01*
X109201916Y-25783259D01*
X109139050Y-25935030D01*
X109047783Y-26071622D01*
X108931622Y-26187783D01*
X108795030Y-26279050D01*
X108643259Y-26341916D01*
X108482138Y-26373965D01*
X108400000Y-26378000D01*
X108398768Y-26378000D01*
X107601232Y-26378000D01*
X107600000Y-26378000D01*
X107517862Y-26373965D01*
X107356741Y-26341916D01*
X107204970Y-26279050D01*
X107068378Y-26187783D01*
X106952217Y-26071622D01*
X106860950Y-25935030D01*
X106798084Y-25783259D01*
X106766035Y-25622138D01*
X106766035Y-25457862D01*
X106798084Y-25296741D01*
X106860950Y-25144970D01*
X106952217Y-25008378D01*
X107068378Y-24892217D01*
X107204970Y-24800950D01*
X107356741Y-24738084D01*
X107517862Y-24706035D01*
X107600000Y-24702000D01*
X108400000Y-24702000D01*
X108482138Y-24706035D01*
G37*
G36*
X85127238Y-24735794D02*
G01*
X85278744Y-24765931D01*
X85421461Y-24825046D01*
X85549902Y-24910868D01*
X85659132Y-25020098D01*
X85744954Y-25148539D01*
X85804069Y-25291256D01*
X85834206Y-25442762D01*
X85834206Y-25597238D01*
X85804069Y-25748744D01*
X85744954Y-25891461D01*
X85659132Y-26019902D01*
X85549902Y-26129132D01*
X85421461Y-26214954D01*
X85278744Y-26274069D01*
X85127238Y-26304206D01*
X85050000Y-26308000D01*
X85048768Y-26308000D01*
X83551232Y-26308000D01*
X83550000Y-26308000D01*
X83472762Y-26304206D01*
X83321256Y-26274069D01*
X83178539Y-26214954D01*
X83050098Y-26129132D01*
X82940868Y-26019902D01*
X82855046Y-25891461D01*
X82795931Y-25748744D01*
X82765794Y-25597238D01*
X82765794Y-25442762D01*
X82795931Y-25291256D01*
X82855046Y-25148539D01*
X82940868Y-25020098D01*
X83050098Y-24910868D01*
X83178539Y-24825046D01*
X83321256Y-24765931D01*
X83472762Y-24735794D01*
X83550000Y-24732000D01*
X85050000Y-24732000D01*
X85127238Y-24735794D01*
G37*
G36*
X100367238Y-24735794D02*
G01*
X100518744Y-24765931D01*
X100661461Y-24825046D01*
X100789902Y-24910868D01*
X100899132Y-25020098D01*
X100984954Y-25148539D01*
X101044069Y-25291256D01*
X101074206Y-25442762D01*
X101074206Y-25597238D01*
X101044069Y-25748744D01*
X100984954Y-25891461D01*
X100899132Y-26019902D01*
X100789902Y-26129132D01*
X100661461Y-26214954D01*
X100518744Y-26274069D01*
X100367238Y-26304206D01*
X100290000Y-26308000D01*
X100288768Y-26308000D01*
X98791232Y-26308000D01*
X98790000Y-26308000D01*
X98712762Y-26304206D01*
X98561256Y-26274069D01*
X98418539Y-26214954D01*
X98290098Y-26129132D01*
X98180868Y-26019902D01*
X98095046Y-25891461D01*
X98035931Y-25748744D01*
X98005794Y-25597238D01*
X98005794Y-25442762D01*
X98035931Y-25291256D01*
X98095046Y-25148539D01*
X98180868Y-25020098D01*
X98290098Y-24910868D01*
X98418539Y-24825046D01*
X98561256Y-24765931D01*
X98712762Y-24735794D01*
X98790000Y-24732000D01*
X100290000Y-24732000D01*
X100367238Y-24735794D01*
G37*
G36*
X120274407Y-24375462D02*
G01*
X120444000Y-24450969D01*
X120594188Y-24560087D01*
X120718407Y-24698047D01*
X120811228Y-24858818D01*
X120868595Y-25035374D01*
X120888000Y-25220000D01*
X120868595Y-25404626D01*
X120811228Y-25581182D01*
X120718407Y-25741953D01*
X120594188Y-25879913D01*
X120444000Y-25989031D01*
X120274407Y-26064538D01*
X120092821Y-26103135D01*
X119907179Y-26103135D01*
X119725593Y-26064538D01*
X119556000Y-25989031D01*
X119405812Y-25879913D01*
X119281593Y-25741953D01*
X119188772Y-25581182D01*
X119131405Y-25404626D01*
X119112000Y-25220000D01*
X119131405Y-25035374D01*
X119188772Y-24858818D01*
X119281593Y-24698047D01*
X119405812Y-24560087D01*
X119556000Y-24450969D01*
X119725593Y-24375462D01*
X119907179Y-24336865D01*
X120092821Y-24336865D01*
X120274407Y-24375462D01*
G37*
G36*
X122814407Y-24375462D02*
G01*
X122984000Y-24450969D01*
X123134188Y-24560087D01*
X123258407Y-24698047D01*
X123351228Y-24858818D01*
X123408595Y-25035374D01*
X123428000Y-25220000D01*
X123408595Y-25404626D01*
X123351228Y-25581182D01*
X123258407Y-25741953D01*
X123134188Y-25879913D01*
X122984000Y-25989031D01*
X122814407Y-26064538D01*
X122632821Y-26103135D01*
X122447179Y-26103135D01*
X122265593Y-26064538D01*
X122096000Y-25989031D01*
X121945812Y-25879913D01*
X121821593Y-25741953D01*
X121728772Y-25581182D01*
X121671405Y-25404626D01*
X121652000Y-25220000D01*
X121671405Y-25035374D01*
X121728772Y-24858818D01*
X121821593Y-24698047D01*
X121945812Y-24560087D01*
X122096000Y-24450969D01*
X122265593Y-24375462D01*
X122447179Y-24336865D01*
X122632821Y-24336865D01*
X122814407Y-24375462D01*
G37*
G36*
X93242138Y-22166035D02*
G01*
X93403259Y-22198084D01*
X93555030Y-22260950D01*
X93691622Y-22352217D01*
X93807783Y-22468378D01*
X93899050Y-22604970D01*
X93961916Y-22756741D01*
X93993965Y-22917862D01*
X93993965Y-23082138D01*
X93961916Y-23243259D01*
X93899050Y-23395030D01*
X93807783Y-23531622D01*
X93691622Y-23647783D01*
X93555030Y-23739050D01*
X93403259Y-23801916D01*
X93242138Y-23833965D01*
X93160000Y-23838000D01*
X93158768Y-23838000D01*
X92361232Y-23838000D01*
X92360000Y-23838000D01*
X92277862Y-23833965D01*
X92116741Y-23801916D01*
X91964970Y-23739050D01*
X91828378Y-23647783D01*
X91712217Y-23531622D01*
X91620950Y-23395030D01*
X91558084Y-23243259D01*
X91526035Y-23082138D01*
X91526035Y-22917862D01*
X91558084Y-22756741D01*
X91620950Y-22604970D01*
X91712217Y-22468378D01*
X91828378Y-22352217D01*
X91964970Y-22260950D01*
X92116741Y-22198084D01*
X92277862Y-22166035D01*
X92360000Y-22162000D01*
X93160000Y-22162000D01*
X93242138Y-22166035D01*
G37*
G36*
X108482138Y-22166035D02*
G01*
X108643259Y-22198084D01*
X108795030Y-22260950D01*
X108931622Y-22352217D01*
X109047783Y-22468378D01*
X109139050Y-22604970D01*
X109201916Y-22756741D01*
X109233965Y-22917862D01*
X109233965Y-23082138D01*
X109201916Y-23243259D01*
X109139050Y-23395030D01*
X109047783Y-23531622D01*
X108931622Y-23647783D01*
X108795030Y-23739050D01*
X108643259Y-23801916D01*
X108482138Y-23833965D01*
X108400000Y-23838000D01*
X108398768Y-23838000D01*
X107601232Y-23838000D01*
X107600000Y-23838000D01*
X107517862Y-23833965D01*
X107356741Y-23801916D01*
X107204970Y-23739050D01*
X107068378Y-23647783D01*
X106952217Y-23531622D01*
X106860950Y-23395030D01*
X106798084Y-23243259D01*
X106766035Y-23082138D01*
X106766035Y-22917862D01*
X106798084Y-22756741D01*
X106860950Y-22604970D01*
X106952217Y-22468378D01*
X107068378Y-22352217D01*
X107204970Y-22260950D01*
X107356741Y-22198084D01*
X107517862Y-22166035D01*
X107600000Y-22162000D01*
X108400000Y-22162000D01*
X108482138Y-22166035D01*
G37*
G36*
X85127238Y-22195794D02*
G01*
X85278744Y-22225931D01*
X85421461Y-22285046D01*
X85549902Y-22370868D01*
X85659132Y-22480098D01*
X85744954Y-22608539D01*
X85804069Y-22751256D01*
X85834206Y-22902762D01*
X85834206Y-23057238D01*
X85804069Y-23208744D01*
X85744954Y-23351461D01*
X85659132Y-23479902D01*
X85549902Y-23589132D01*
X85421461Y-23674954D01*
X85278744Y-23734069D01*
X85127238Y-23764206D01*
X85050000Y-23768000D01*
X85048768Y-23768000D01*
X83551232Y-23768000D01*
X83550000Y-23768000D01*
X83472762Y-23764206D01*
X83321256Y-23734069D01*
X83178539Y-23674954D01*
X83050098Y-23589132D01*
X82940868Y-23479902D01*
X82855046Y-23351461D01*
X82795931Y-23208744D01*
X82765794Y-23057238D01*
X82765794Y-22902762D01*
X82795931Y-22751256D01*
X82855046Y-22608539D01*
X82940868Y-22480098D01*
X83050098Y-22370868D01*
X83178539Y-22285046D01*
X83321256Y-22225931D01*
X83472762Y-22195794D01*
X83550000Y-22192000D01*
X85050000Y-22192000D01*
X85127238Y-22195794D01*
G37*
G36*
X100367238Y-22195794D02*
G01*
X100518744Y-22225931D01*
X100661461Y-22285046D01*
X100789902Y-22370868D01*
X100899132Y-22480098D01*
X100984954Y-22608539D01*
X101044069Y-22751256D01*
X101074206Y-22902762D01*
X101074206Y-23057238D01*
X101044069Y-23208744D01*
X100984954Y-23351461D01*
X100899132Y-23479902D01*
X100789902Y-23589132D01*
X100661461Y-23674954D01*
X100518744Y-23734069D01*
X100367238Y-23764206D01*
X100290000Y-23768000D01*
X100288768Y-23768000D01*
X98791232Y-23768000D01*
X98790000Y-23768000D01*
X98712762Y-23764206D01*
X98561256Y-23734069D01*
X98418539Y-23674954D01*
X98290098Y-23589132D01*
X98180868Y-23479902D01*
X98095046Y-23351461D01*
X98035931Y-23208744D01*
X98005794Y-23057238D01*
X98005794Y-22902762D01*
X98035931Y-22751256D01*
X98095046Y-22608539D01*
X98180868Y-22480098D01*
X98290098Y-22370868D01*
X98418539Y-22285046D01*
X98561256Y-22225931D01*
X98712762Y-22195794D01*
X98790000Y-22192000D01*
X100290000Y-22192000D01*
X100367238Y-22195794D01*
G37*
G36*
X120274407Y-21835462D02*
G01*
X120444000Y-21910969D01*
X120594188Y-22020087D01*
X120718407Y-22158047D01*
X120811228Y-22318818D01*
X120868595Y-22495374D01*
X120888000Y-22680000D01*
X120868595Y-22864626D01*
X120811228Y-23041182D01*
X120718407Y-23201953D01*
X120594188Y-23339913D01*
X120444000Y-23449031D01*
X120274407Y-23524538D01*
X120092821Y-23563135D01*
X119907179Y-23563135D01*
X119725593Y-23524538D01*
X119556000Y-23449031D01*
X119405812Y-23339913D01*
X119281593Y-23201953D01*
X119188772Y-23041182D01*
X119131405Y-22864626D01*
X119112000Y-22680000D01*
X119131405Y-22495374D01*
X119188772Y-22318818D01*
X119281593Y-22158047D01*
X119405812Y-22020087D01*
X119556000Y-21910969D01*
X119725593Y-21835462D01*
X119907179Y-21796865D01*
X120092821Y-21796865D01*
X120274407Y-21835462D01*
G37*
G36*
X122814407Y-21835462D02*
G01*
X122984000Y-21910969D01*
X123134188Y-22020087D01*
X123258407Y-22158047D01*
X123351228Y-22318818D01*
X123408595Y-22495374D01*
X123428000Y-22680000D01*
X123408595Y-22864626D01*
X123351228Y-23041182D01*
X123258407Y-23201953D01*
X123134188Y-23339913D01*
X122984000Y-23449031D01*
X122814407Y-23524538D01*
X122632821Y-23563135D01*
X122447179Y-23563135D01*
X122265593Y-23524538D01*
X122096000Y-23449031D01*
X121945812Y-23339913D01*
X121821593Y-23201953D01*
X121728772Y-23041182D01*
X121671405Y-22864626D01*
X121652000Y-22680000D01*
X121671405Y-22495374D01*
X121728772Y-22318818D01*
X121821593Y-22158047D01*
X121945812Y-22020087D01*
X122096000Y-21910969D01*
X122265593Y-21835462D01*
X122447179Y-21796865D01*
X122632821Y-21796865D01*
X122814407Y-21835462D01*
G37*
G36*
X93242138Y-19626035D02*
G01*
X93403259Y-19658084D01*
X93555030Y-19720950D01*
X93691622Y-19812217D01*
X93807783Y-19928378D01*
X93899050Y-20064970D01*
X93961916Y-20216741D01*
X93993965Y-20377862D01*
X93993965Y-20542138D01*
X93961916Y-20703259D01*
X93899050Y-20855030D01*
X93807783Y-20991622D01*
X93691622Y-21107783D01*
X93555030Y-21199050D01*
X93403259Y-21261916D01*
X93242138Y-21293965D01*
X93160000Y-21298000D01*
X93158768Y-21298000D01*
X92361232Y-21298000D01*
X92360000Y-21298000D01*
X92277862Y-21293965D01*
X92116741Y-21261916D01*
X91964970Y-21199050D01*
X91828378Y-21107783D01*
X91712217Y-20991622D01*
X91620950Y-20855030D01*
X91558084Y-20703259D01*
X91526035Y-20542138D01*
X91526035Y-20377862D01*
X91558084Y-20216741D01*
X91620950Y-20064970D01*
X91712217Y-19928378D01*
X91828378Y-19812217D01*
X91964970Y-19720950D01*
X92116741Y-19658084D01*
X92277862Y-19626035D01*
X92360000Y-19622000D01*
X93160000Y-19622000D01*
X93242138Y-19626035D01*
G37*
G36*
X108482138Y-19626035D02*
G01*
X108643259Y-19658084D01*
X108795030Y-19720950D01*
X108931622Y-19812217D01*
X109047783Y-19928378D01*
X109139050Y-20064970D01*
X109201916Y-20216741D01*
X109233965Y-20377862D01*
X109233965Y-20542138D01*
X109201916Y-20703259D01*
X109139050Y-20855030D01*
X109047783Y-20991622D01*
X108931622Y-21107783D01*
X108795030Y-21199050D01*
X108643259Y-21261916D01*
X108482138Y-21293965D01*
X108400000Y-21298000D01*
X108398768Y-21298000D01*
X107601232Y-21298000D01*
X107600000Y-21298000D01*
X107517862Y-21293965D01*
X107356741Y-21261916D01*
X107204970Y-21199050D01*
X107068378Y-21107783D01*
X106952217Y-20991622D01*
X106860950Y-20855030D01*
X106798084Y-20703259D01*
X106766035Y-20542138D01*
X106766035Y-20377862D01*
X106798084Y-20216741D01*
X106860950Y-20064970D01*
X106952217Y-19928378D01*
X107068378Y-19812217D01*
X107204970Y-19720950D01*
X107356741Y-19658084D01*
X107517862Y-19626035D01*
X107600000Y-19622000D01*
X108400000Y-19622000D01*
X108482138Y-19626035D01*
G37*
G36*
X85127238Y-19655794D02*
G01*
X85278744Y-19685931D01*
X85421461Y-19745046D01*
X85549902Y-19830868D01*
X85659132Y-19940098D01*
X85744954Y-20068539D01*
X85804069Y-20211256D01*
X85834206Y-20362762D01*
X85834206Y-20517238D01*
X85804069Y-20668744D01*
X85744954Y-20811461D01*
X85659132Y-20939902D01*
X85549902Y-21049132D01*
X85421461Y-21134954D01*
X85278744Y-21194069D01*
X85127238Y-21224206D01*
X85050000Y-21228000D01*
X85048768Y-21228000D01*
X83551232Y-21228000D01*
X83550000Y-21228000D01*
X83472762Y-21224206D01*
X83321256Y-21194069D01*
X83178539Y-21134954D01*
X83050098Y-21049132D01*
X82940868Y-20939902D01*
X82855046Y-20811461D01*
X82795931Y-20668744D01*
X82765794Y-20517238D01*
X82765794Y-20362762D01*
X82795931Y-20211256D01*
X82855046Y-20068539D01*
X82940868Y-19940098D01*
X83050098Y-19830868D01*
X83178539Y-19745046D01*
X83321256Y-19685931D01*
X83472762Y-19655794D01*
X83550000Y-19652000D01*
X85050000Y-19652000D01*
X85127238Y-19655794D01*
G37*
G36*
X100367238Y-19655794D02*
G01*
X100518744Y-19685931D01*
X100661461Y-19745046D01*
X100789902Y-19830868D01*
X100899132Y-19940098D01*
X100984954Y-20068539D01*
X101044069Y-20211256D01*
X101074206Y-20362762D01*
X101074206Y-20517238D01*
X101044069Y-20668744D01*
X100984954Y-20811461D01*
X100899132Y-20939902D01*
X100789902Y-21049132D01*
X100661461Y-21134954D01*
X100518744Y-21194069D01*
X100367238Y-21224206D01*
X100290000Y-21228000D01*
X100288768Y-21228000D01*
X98791232Y-21228000D01*
X98790000Y-21228000D01*
X98712762Y-21224206D01*
X98561256Y-21194069D01*
X98418539Y-21134954D01*
X98290098Y-21049132D01*
X98180868Y-20939902D01*
X98095046Y-20811461D01*
X98035931Y-20668744D01*
X98005794Y-20517238D01*
X98005794Y-20362762D01*
X98035931Y-20211256D01*
X98095046Y-20068539D01*
X98180868Y-19940098D01*
X98290098Y-19830868D01*
X98418539Y-19745046D01*
X98561256Y-19685931D01*
X98712762Y-19655794D01*
X98790000Y-19652000D01*
X100290000Y-19652000D01*
X100367238Y-19655794D01*
G37*
G36*
X120274407Y-19295462D02*
G01*
X120444000Y-19370969D01*
X120594188Y-19480087D01*
X120718407Y-19618047D01*
X120811228Y-19778818D01*
X120868595Y-19955374D01*
X120888000Y-20140000D01*
X120868595Y-20324626D01*
X120811228Y-20501182D01*
X120718407Y-20661953D01*
X120594188Y-20799913D01*
X120444000Y-20909031D01*
X120274407Y-20984538D01*
X120092821Y-21023135D01*
X119907179Y-21023135D01*
X119725593Y-20984538D01*
X119556000Y-20909031D01*
X119405812Y-20799913D01*
X119281593Y-20661953D01*
X119188772Y-20501182D01*
X119131405Y-20324626D01*
X119112000Y-20140000D01*
X119131405Y-19955374D01*
X119188772Y-19778818D01*
X119281593Y-19618047D01*
X119405812Y-19480087D01*
X119556000Y-19370969D01*
X119725593Y-19295462D01*
X119907179Y-19256865D01*
X120092821Y-19256865D01*
X120274407Y-19295462D01*
G37*
G36*
X122814407Y-19295462D02*
G01*
X122984000Y-19370969D01*
X123134188Y-19480087D01*
X123258407Y-19618047D01*
X123351228Y-19778818D01*
X123408595Y-19955374D01*
X123428000Y-20140000D01*
X123408595Y-20324626D01*
X123351228Y-20501182D01*
X123258407Y-20661953D01*
X123134188Y-20799913D01*
X122984000Y-20909031D01*
X122814407Y-20984538D01*
X122632821Y-21023135D01*
X122447179Y-21023135D01*
X122265593Y-20984538D01*
X122096000Y-20909031D01*
X121945812Y-20799913D01*
X121821593Y-20661953D01*
X121728772Y-20501182D01*
X121671405Y-20324626D01*
X121652000Y-20140000D01*
X121671405Y-19955374D01*
X121728772Y-19778818D01*
X121821593Y-19618047D01*
X121945812Y-19480087D01*
X122096000Y-19370969D01*
X122265593Y-19295462D01*
X122447179Y-19256865D01*
X122632821Y-19256865D01*
X122814407Y-19295462D01*
G37*
G36*
X93242138Y-17086035D02*
G01*
X93403259Y-17118084D01*
X93555030Y-17180950D01*
X93691622Y-17272217D01*
X93807783Y-17388378D01*
X93899050Y-17524970D01*
X93961916Y-17676741D01*
X93993965Y-17837862D01*
X93993965Y-18002138D01*
X93961916Y-18163259D01*
X93899050Y-18315030D01*
X93807783Y-18451622D01*
X93691622Y-18567783D01*
X93555030Y-18659050D01*
X93403259Y-18721916D01*
X93242138Y-18753965D01*
X93160000Y-18758000D01*
X93158768Y-18758000D01*
X92361232Y-18758000D01*
X92360000Y-18758000D01*
X92277862Y-18753965D01*
X92116741Y-18721916D01*
X91964970Y-18659050D01*
X91828378Y-18567783D01*
X91712217Y-18451622D01*
X91620950Y-18315030D01*
X91558084Y-18163259D01*
X91526035Y-18002138D01*
X91526035Y-17837862D01*
X91558084Y-17676741D01*
X91620950Y-17524970D01*
X91712217Y-17388378D01*
X91828378Y-17272217D01*
X91964970Y-17180950D01*
X92116741Y-17118084D01*
X92277862Y-17086035D01*
X92360000Y-17082000D01*
X93160000Y-17082000D01*
X93242138Y-17086035D01*
G37*
G36*
X108482138Y-17086035D02*
G01*
X108643259Y-17118084D01*
X108795030Y-17180950D01*
X108931622Y-17272217D01*
X109047783Y-17388378D01*
X109139050Y-17524970D01*
X109201916Y-17676741D01*
X109233965Y-17837862D01*
X109233965Y-18002138D01*
X109201916Y-18163259D01*
X109139050Y-18315030D01*
X109047783Y-18451622D01*
X108931622Y-18567783D01*
X108795030Y-18659050D01*
X108643259Y-18721916D01*
X108482138Y-18753965D01*
X108400000Y-18758000D01*
X108398768Y-18758000D01*
X107601232Y-18758000D01*
X107600000Y-18758000D01*
X107517862Y-18753965D01*
X107356741Y-18721916D01*
X107204970Y-18659050D01*
X107068378Y-18567783D01*
X106952217Y-18451622D01*
X106860950Y-18315030D01*
X106798084Y-18163259D01*
X106766035Y-18002138D01*
X106766035Y-17837862D01*
X106798084Y-17676741D01*
X106860950Y-17524970D01*
X106952217Y-17388378D01*
X107068378Y-17272217D01*
X107204970Y-17180950D01*
X107356741Y-17118084D01*
X107517862Y-17086035D01*
X107600000Y-17082000D01*
X108400000Y-17082000D01*
X108482138Y-17086035D01*
G37*
G36*
X85127238Y-17115794D02*
G01*
X85278744Y-17145931D01*
X85421461Y-17205046D01*
X85549902Y-17290868D01*
X85659132Y-17400098D01*
X85744954Y-17528539D01*
X85804069Y-17671256D01*
X85834206Y-17822762D01*
X85834206Y-17977238D01*
X85804069Y-18128744D01*
X85744954Y-18271461D01*
X85659132Y-18399902D01*
X85549902Y-18509132D01*
X85421461Y-18594954D01*
X85278744Y-18654069D01*
X85127238Y-18684206D01*
X85050000Y-18688000D01*
X85048768Y-18688000D01*
X83551232Y-18688000D01*
X83550000Y-18688000D01*
X83472762Y-18684206D01*
X83321256Y-18654069D01*
X83178539Y-18594954D01*
X83050098Y-18509132D01*
X82940868Y-18399902D01*
X82855046Y-18271461D01*
X82795931Y-18128744D01*
X82765794Y-17977238D01*
X82765794Y-17822762D01*
X82795931Y-17671256D01*
X82855046Y-17528539D01*
X82940868Y-17400098D01*
X83050098Y-17290868D01*
X83178539Y-17205046D01*
X83321256Y-17145931D01*
X83472762Y-17115794D01*
X83550000Y-17112000D01*
X85050000Y-17112000D01*
X85127238Y-17115794D01*
G37*
G36*
X100367238Y-17115794D02*
G01*
X100518744Y-17145931D01*
X100661461Y-17205046D01*
X100789902Y-17290868D01*
X100899132Y-17400098D01*
X100984954Y-17528539D01*
X101044069Y-17671256D01*
X101074206Y-17822762D01*
X101074206Y-17977238D01*
X101044069Y-18128744D01*
X100984954Y-18271461D01*
X100899132Y-18399902D01*
X100789902Y-18509132D01*
X100661461Y-18594954D01*
X100518744Y-18654069D01*
X100367238Y-18684206D01*
X100290000Y-18688000D01*
X100288768Y-18688000D01*
X98791232Y-18688000D01*
X98790000Y-18688000D01*
X98712762Y-18684206D01*
X98561256Y-18654069D01*
X98418539Y-18594954D01*
X98290098Y-18509132D01*
X98180868Y-18399902D01*
X98095046Y-18271461D01*
X98035931Y-18128744D01*
X98005794Y-17977238D01*
X98005794Y-17822762D01*
X98035931Y-17671256D01*
X98095046Y-17528539D01*
X98180868Y-17400098D01*
X98290098Y-17290868D01*
X98418539Y-17205046D01*
X98561256Y-17145931D01*
X98712762Y-17115794D01*
X98790000Y-17112000D01*
X100290000Y-17112000D01*
X100367238Y-17115794D01*
G37*
G36*
X120274407Y-16755462D02*
G01*
X120444000Y-16830969D01*
X120594188Y-16940087D01*
X120718407Y-17078047D01*
X120811228Y-17238818D01*
X120868595Y-17415374D01*
X120888000Y-17600000D01*
X120868595Y-17784626D01*
X120811228Y-17961182D01*
X120718407Y-18121953D01*
X120594188Y-18259913D01*
X120444000Y-18369031D01*
X120274407Y-18444538D01*
X120092821Y-18483135D01*
X119907179Y-18483135D01*
X119725593Y-18444538D01*
X119556000Y-18369031D01*
X119405812Y-18259913D01*
X119281593Y-18121953D01*
X119188772Y-17961182D01*
X119131405Y-17784626D01*
X119112000Y-17600000D01*
X119131405Y-17415374D01*
X119188772Y-17238818D01*
X119281593Y-17078047D01*
X119405812Y-16940087D01*
X119556000Y-16830969D01*
X119725593Y-16755462D01*
X119907179Y-16716865D01*
X120092821Y-16716865D01*
X120274407Y-16755462D01*
G37*
G36*
X122814407Y-16755462D02*
G01*
X122984000Y-16830969D01*
X123134188Y-16940087D01*
X123258407Y-17078047D01*
X123351228Y-17238818D01*
X123408595Y-17415374D01*
X123428000Y-17600000D01*
X123408595Y-17784626D01*
X123351228Y-17961182D01*
X123258407Y-18121953D01*
X123134188Y-18259913D01*
X122984000Y-18369031D01*
X122814407Y-18444538D01*
X122632821Y-18483135D01*
X122447179Y-18483135D01*
X122265593Y-18444538D01*
X122096000Y-18369031D01*
X121945812Y-18259913D01*
X121821593Y-18121953D01*
X121728772Y-17961182D01*
X121671405Y-17784626D01*
X121652000Y-17600000D01*
X121671405Y-17415374D01*
X121728772Y-17238818D01*
X121821593Y-17078047D01*
X121945812Y-16940087D01*
X122096000Y-16830969D01*
X122265593Y-16755462D01*
X122447179Y-16716865D01*
X122632821Y-16716865D01*
X122814407Y-16755462D01*
G37*
G36*
X93242138Y-14546035D02*
G01*
X93403259Y-14578084D01*
X93555030Y-14640950D01*
X93691622Y-14732217D01*
X93807783Y-14848378D01*
X93899050Y-14984970D01*
X93961916Y-15136741D01*
X93993965Y-15297862D01*
X93993965Y-15462138D01*
X93961916Y-15623259D01*
X93899050Y-15775030D01*
X93807783Y-15911622D01*
X93691622Y-16027783D01*
X93555030Y-16119050D01*
X93403259Y-16181916D01*
X93242138Y-16213965D01*
X93160000Y-16218000D01*
X93158768Y-16218000D01*
X92361232Y-16218000D01*
X92360000Y-16218000D01*
X92277862Y-16213965D01*
X92116741Y-16181916D01*
X91964970Y-16119050D01*
X91828378Y-16027783D01*
X91712217Y-15911622D01*
X91620950Y-15775030D01*
X91558084Y-15623259D01*
X91526035Y-15462138D01*
X91526035Y-15297862D01*
X91558084Y-15136741D01*
X91620950Y-14984970D01*
X91712217Y-14848378D01*
X91828378Y-14732217D01*
X91964970Y-14640950D01*
X92116741Y-14578084D01*
X92277862Y-14546035D01*
X92360000Y-14542000D01*
X93160000Y-14542000D01*
X93242138Y-14546035D01*
G37*
G36*
X108482138Y-14546035D02*
G01*
X108643259Y-14578084D01*
X108795030Y-14640950D01*
X108931622Y-14732217D01*
X109047783Y-14848378D01*
X109139050Y-14984970D01*
X109201916Y-15136741D01*
X109233965Y-15297862D01*
X109233965Y-15462138D01*
X109201916Y-15623259D01*
X109139050Y-15775030D01*
X109047783Y-15911622D01*
X108931622Y-16027783D01*
X108795030Y-16119050D01*
X108643259Y-16181916D01*
X108482138Y-16213965D01*
X108400000Y-16218000D01*
X108398768Y-16218000D01*
X107601232Y-16218000D01*
X107600000Y-16218000D01*
X107517862Y-16213965D01*
X107356741Y-16181916D01*
X107204970Y-16119050D01*
X107068378Y-16027783D01*
X106952217Y-15911622D01*
X106860950Y-15775030D01*
X106798084Y-15623259D01*
X106766035Y-15462138D01*
X106766035Y-15297862D01*
X106798084Y-15136741D01*
X106860950Y-14984970D01*
X106952217Y-14848378D01*
X107068378Y-14732217D01*
X107204970Y-14640950D01*
X107356741Y-14578084D01*
X107517862Y-14546035D01*
X107600000Y-14542000D01*
X108400000Y-14542000D01*
X108482138Y-14546035D01*
G37*
G36*
X85127238Y-14575794D02*
G01*
X85278744Y-14605931D01*
X85421461Y-14665046D01*
X85549902Y-14750868D01*
X85659132Y-14860098D01*
X85744954Y-14988539D01*
X85804069Y-15131256D01*
X85834206Y-15282762D01*
X85834206Y-15437238D01*
X85804069Y-15588744D01*
X85744954Y-15731461D01*
X85659132Y-15859902D01*
X85549902Y-15969132D01*
X85421461Y-16054954D01*
X85278744Y-16114069D01*
X85127238Y-16144206D01*
X85050000Y-16148000D01*
X85048768Y-16148000D01*
X83551232Y-16148000D01*
X83550000Y-16148000D01*
X83472762Y-16144206D01*
X83321256Y-16114069D01*
X83178539Y-16054954D01*
X83050098Y-15969132D01*
X82940868Y-15859902D01*
X82855046Y-15731461D01*
X82795931Y-15588744D01*
X82765794Y-15437238D01*
X82765794Y-15282762D01*
X82795931Y-15131256D01*
X82855046Y-14988539D01*
X82940868Y-14860098D01*
X83050098Y-14750868D01*
X83178539Y-14665046D01*
X83321256Y-14605931D01*
X83472762Y-14575794D01*
X83550000Y-14572000D01*
X85050000Y-14572000D01*
X85127238Y-14575794D01*
G37*
G36*
X100367238Y-14575794D02*
G01*
X100518744Y-14605931D01*
X100661461Y-14665046D01*
X100789902Y-14750868D01*
X100899132Y-14860098D01*
X100984954Y-14988539D01*
X101044069Y-15131256D01*
X101074206Y-15282762D01*
X101074206Y-15437238D01*
X101044069Y-15588744D01*
X100984954Y-15731461D01*
X100899132Y-15859902D01*
X100789902Y-15969132D01*
X100661461Y-16054954D01*
X100518744Y-16114069D01*
X100367238Y-16144206D01*
X100290000Y-16148000D01*
X100288768Y-16148000D01*
X98791232Y-16148000D01*
X98790000Y-16148000D01*
X98712762Y-16144206D01*
X98561256Y-16114069D01*
X98418539Y-16054954D01*
X98290098Y-15969132D01*
X98180868Y-15859902D01*
X98095046Y-15731461D01*
X98035931Y-15588744D01*
X98005794Y-15437238D01*
X98005794Y-15282762D01*
X98035931Y-15131256D01*
X98095046Y-14988539D01*
X98180868Y-14860098D01*
X98290098Y-14750868D01*
X98418539Y-14665046D01*
X98561256Y-14605931D01*
X98712762Y-14575794D01*
X98790000Y-14572000D01*
X100290000Y-14572000D01*
X100367238Y-14575794D01*
G37*
G36*
X120274407Y-14215462D02*
G01*
X120444000Y-14290969D01*
X120594188Y-14400087D01*
X120718407Y-14538047D01*
X120811228Y-14698818D01*
X120868595Y-14875374D01*
X120888000Y-15060000D01*
X120868595Y-15244626D01*
X120811228Y-15421182D01*
X120718407Y-15581953D01*
X120594188Y-15719913D01*
X120444000Y-15829031D01*
X120274407Y-15904538D01*
X120092821Y-15943135D01*
X119907179Y-15943135D01*
X119725593Y-15904538D01*
X119556000Y-15829031D01*
X119405812Y-15719913D01*
X119281593Y-15581953D01*
X119188772Y-15421182D01*
X119131405Y-15244626D01*
X119112000Y-15060000D01*
X119131405Y-14875374D01*
X119188772Y-14698818D01*
X119281593Y-14538047D01*
X119405812Y-14400087D01*
X119556000Y-14290969D01*
X119725593Y-14215462D01*
X119907179Y-14176865D01*
X120092821Y-14176865D01*
X120274407Y-14215462D01*
G37*
G36*
X122814407Y-14215462D02*
G01*
X122984000Y-14290969D01*
X123134188Y-14400087D01*
X123258407Y-14538047D01*
X123351228Y-14698818D01*
X123408595Y-14875374D01*
X123428000Y-15060000D01*
X123408595Y-15244626D01*
X123351228Y-15421182D01*
X123258407Y-15581953D01*
X123134188Y-15719913D01*
X122984000Y-15829031D01*
X122814407Y-15904538D01*
X122632821Y-15943135D01*
X122447179Y-15943135D01*
X122265593Y-15904538D01*
X122096000Y-15829031D01*
X121945812Y-15719913D01*
X121821593Y-15581953D01*
X121728772Y-15421182D01*
X121671405Y-15244626D01*
X121652000Y-15060000D01*
X121671405Y-14875374D01*
X121728772Y-14698818D01*
X121821593Y-14538047D01*
X121945812Y-14400087D01*
X122096000Y-14290969D01*
X122265593Y-14215462D01*
X122447179Y-14176865D01*
X122632821Y-14176865D01*
X122814407Y-14215462D01*
G37*
G36*
X93242138Y-12006035D02*
G01*
X93403259Y-12038084D01*
X93555030Y-12100950D01*
X93691622Y-12192217D01*
X93807783Y-12308378D01*
X93899050Y-12444970D01*
X93961916Y-12596741D01*
X93993965Y-12757862D01*
X93993965Y-12922138D01*
X93961916Y-13083259D01*
X93899050Y-13235030D01*
X93807783Y-13371622D01*
X93691622Y-13487783D01*
X93555030Y-13579050D01*
X93403259Y-13641916D01*
X93242138Y-13673965D01*
X93160000Y-13678000D01*
X93158768Y-13678000D01*
X92361232Y-13678000D01*
X92360000Y-13678000D01*
X92277862Y-13673965D01*
X92116741Y-13641916D01*
X91964970Y-13579050D01*
X91828378Y-13487783D01*
X91712217Y-13371622D01*
X91620950Y-13235030D01*
X91558084Y-13083259D01*
X91526035Y-12922138D01*
X91526035Y-12757862D01*
X91558084Y-12596741D01*
X91620950Y-12444970D01*
X91712217Y-12308378D01*
X91828378Y-12192217D01*
X91964970Y-12100950D01*
X92116741Y-12038084D01*
X92277862Y-12006035D01*
X92360000Y-12002000D01*
X93160000Y-12002000D01*
X93242138Y-12006035D01*
G37*
G36*
X108482138Y-12006035D02*
G01*
X108643259Y-12038084D01*
X108795030Y-12100950D01*
X108931622Y-12192217D01*
X109047783Y-12308378D01*
X109139050Y-12444970D01*
X109201916Y-12596741D01*
X109233965Y-12757862D01*
X109233965Y-12922138D01*
X109201916Y-13083259D01*
X109139050Y-13235030D01*
X109047783Y-13371622D01*
X108931622Y-13487783D01*
X108795030Y-13579050D01*
X108643259Y-13641916D01*
X108482138Y-13673965D01*
X108400000Y-13678000D01*
X108398768Y-13678000D01*
X107601232Y-13678000D01*
X107600000Y-13678000D01*
X107517862Y-13673965D01*
X107356741Y-13641916D01*
X107204970Y-13579050D01*
X107068378Y-13487783D01*
X106952217Y-13371622D01*
X106860950Y-13235030D01*
X106798084Y-13083259D01*
X106766035Y-12922138D01*
X106766035Y-12757862D01*
X106798084Y-12596741D01*
X106860950Y-12444970D01*
X106952217Y-12308378D01*
X107068378Y-12192217D01*
X107204970Y-12100950D01*
X107356741Y-12038084D01*
X107517862Y-12006035D01*
X107600000Y-12002000D01*
X108400000Y-12002000D01*
X108482138Y-12006035D01*
G37*
G36*
X85127238Y-12035794D02*
G01*
X85278744Y-12065931D01*
X85421461Y-12125046D01*
X85549902Y-12210868D01*
X85659132Y-12320098D01*
X85744954Y-12448539D01*
X85804069Y-12591256D01*
X85834206Y-12742762D01*
X85834206Y-12897238D01*
X85804069Y-13048744D01*
X85744954Y-13191461D01*
X85659132Y-13319902D01*
X85549902Y-13429132D01*
X85421461Y-13514954D01*
X85278744Y-13574069D01*
X85127238Y-13604206D01*
X85050000Y-13608000D01*
X85048768Y-13608000D01*
X83551232Y-13608000D01*
X83550000Y-13608000D01*
X83472762Y-13604206D01*
X83321256Y-13574069D01*
X83178539Y-13514954D01*
X83050098Y-13429132D01*
X82940868Y-13319902D01*
X82855046Y-13191461D01*
X82795931Y-13048744D01*
X82765794Y-12897238D01*
X82765794Y-12742762D01*
X82795931Y-12591256D01*
X82855046Y-12448539D01*
X82940868Y-12320098D01*
X83050098Y-12210868D01*
X83178539Y-12125046D01*
X83321256Y-12065931D01*
X83472762Y-12035794D01*
X83550000Y-12032000D01*
X85050000Y-12032000D01*
X85127238Y-12035794D01*
G37*
G36*
X100367238Y-12035794D02*
G01*
X100518744Y-12065931D01*
X100661461Y-12125046D01*
X100789902Y-12210868D01*
X100899132Y-12320098D01*
X100984954Y-12448539D01*
X101044069Y-12591256D01*
X101074206Y-12742762D01*
X101074206Y-12897238D01*
X101044069Y-13048744D01*
X100984954Y-13191461D01*
X100899132Y-13319902D01*
X100789902Y-13429132D01*
X100661461Y-13514954D01*
X100518744Y-13574069D01*
X100367238Y-13604206D01*
X100290000Y-13608000D01*
X100288768Y-13608000D01*
X98791232Y-13608000D01*
X98790000Y-13608000D01*
X98712762Y-13604206D01*
X98561256Y-13574069D01*
X98418539Y-13514954D01*
X98290098Y-13429132D01*
X98180868Y-13319902D01*
X98095046Y-13191461D01*
X98035931Y-13048744D01*
X98005794Y-12897238D01*
X98005794Y-12742762D01*
X98035931Y-12591256D01*
X98095046Y-12448539D01*
X98180868Y-12320098D01*
X98290098Y-12210868D01*
X98418539Y-12125046D01*
X98561256Y-12065931D01*
X98712762Y-12035794D01*
X98790000Y-12032000D01*
X100290000Y-12032000D01*
X100367238Y-12035794D01*
G37*
G36*
X120274407Y-11675462D02*
G01*
X120444000Y-11750969D01*
X120594188Y-11860087D01*
X120718407Y-11998047D01*
X120811228Y-12158818D01*
X120868595Y-12335374D01*
X120888000Y-12520000D01*
X120868595Y-12704626D01*
X120811228Y-12881182D01*
X120718407Y-13041953D01*
X120594188Y-13179913D01*
X120444000Y-13289031D01*
X120274407Y-13364538D01*
X120092821Y-13403135D01*
X119907179Y-13403135D01*
X119725593Y-13364538D01*
X119556000Y-13289031D01*
X119405812Y-13179913D01*
X119281593Y-13041953D01*
X119188772Y-12881182D01*
X119131405Y-12704626D01*
X119112000Y-12520000D01*
X119131405Y-12335374D01*
X119188772Y-12158818D01*
X119281593Y-11998047D01*
X119405812Y-11860087D01*
X119556000Y-11750969D01*
X119725593Y-11675462D01*
X119907179Y-11636865D01*
X120092821Y-11636865D01*
X120274407Y-11675462D01*
G37*
G36*
X122814407Y-11675462D02*
G01*
X122984000Y-11750969D01*
X123134188Y-11860087D01*
X123258407Y-11998047D01*
X123351228Y-12158818D01*
X123408595Y-12335374D01*
X123428000Y-12520000D01*
X123408595Y-12704626D01*
X123351228Y-12881182D01*
X123258407Y-13041953D01*
X123134188Y-13179913D01*
X122984000Y-13289031D01*
X122814407Y-13364538D01*
X122632821Y-13403135D01*
X122447179Y-13403135D01*
X122265593Y-13364538D01*
X122096000Y-13289031D01*
X121945812Y-13179913D01*
X121821593Y-13041953D01*
X121728772Y-12881182D01*
X121671405Y-12704626D01*
X121652000Y-12520000D01*
X121671405Y-12335374D01*
X121728772Y-12158818D01*
X121821593Y-11998047D01*
X121945812Y-11860087D01*
X122096000Y-11750969D01*
X122265593Y-11675462D01*
X122447179Y-11636865D01*
X122632821Y-11636865D01*
X122814407Y-11675462D01*
G37*
G36*
X93242138Y-9466035D02*
G01*
X93403259Y-9498084D01*
X93555030Y-9560950D01*
X93691622Y-9652217D01*
X93807783Y-9768378D01*
X93899050Y-9904970D01*
X93961916Y-10056741D01*
X93993965Y-10217862D01*
X93993965Y-10382138D01*
X93961916Y-10543259D01*
X93899050Y-10695030D01*
X93807783Y-10831622D01*
X93691622Y-10947783D01*
X93555030Y-11039050D01*
X93403259Y-11101916D01*
X93242138Y-11133965D01*
X93160000Y-11138000D01*
X93158768Y-11138000D01*
X92361232Y-11138000D01*
X92360000Y-11138000D01*
X92277862Y-11133965D01*
X92116741Y-11101916D01*
X91964970Y-11039050D01*
X91828378Y-10947783D01*
X91712217Y-10831622D01*
X91620950Y-10695030D01*
X91558084Y-10543259D01*
X91526035Y-10382138D01*
X91526035Y-10217862D01*
X91558084Y-10056741D01*
X91620950Y-9904970D01*
X91712217Y-9768378D01*
X91828378Y-9652217D01*
X91964970Y-9560950D01*
X92116741Y-9498084D01*
X92277862Y-9466035D01*
X92360000Y-9462000D01*
X93160000Y-9462000D01*
X93242138Y-9466035D01*
G37*
G36*
X108482138Y-9466035D02*
G01*
X108643259Y-9498084D01*
X108795030Y-9560950D01*
X108931622Y-9652217D01*
X109047783Y-9768378D01*
X109139050Y-9904970D01*
X109201916Y-10056741D01*
X109233965Y-10217862D01*
X109233965Y-10382138D01*
X109201916Y-10543259D01*
X109139050Y-10695030D01*
X109047783Y-10831622D01*
X108931622Y-10947783D01*
X108795030Y-11039050D01*
X108643259Y-11101916D01*
X108482138Y-11133965D01*
X108400000Y-11138000D01*
X108398768Y-11138000D01*
X107601232Y-11138000D01*
X107600000Y-11138000D01*
X107517862Y-11133965D01*
X107356741Y-11101916D01*
X107204970Y-11039050D01*
X107068378Y-10947783D01*
X106952217Y-10831622D01*
X106860950Y-10695030D01*
X106798084Y-10543259D01*
X106766035Y-10382138D01*
X106766035Y-10217862D01*
X106798084Y-10056741D01*
X106860950Y-9904970D01*
X106952217Y-9768378D01*
X107068378Y-9652217D01*
X107204970Y-9560950D01*
X107356741Y-9498084D01*
X107517862Y-9466035D01*
X107600000Y-9462000D01*
X108400000Y-9462000D01*
X108482138Y-9466035D01*
G37*
G36*
X85127238Y-9495794D02*
G01*
X85278744Y-9525931D01*
X85421461Y-9585046D01*
X85549902Y-9670868D01*
X85659132Y-9780098D01*
X85744954Y-9908539D01*
X85804069Y-10051256D01*
X85834206Y-10202762D01*
X85834206Y-10357238D01*
X85804069Y-10508744D01*
X85744954Y-10651461D01*
X85659132Y-10779902D01*
X85549902Y-10889132D01*
X85421461Y-10974954D01*
X85278744Y-11034069D01*
X85127238Y-11064206D01*
X85050000Y-11068000D01*
X85048768Y-11068000D01*
X83551232Y-11068000D01*
X83550000Y-11068000D01*
X83472762Y-11064206D01*
X83321256Y-11034069D01*
X83178539Y-10974954D01*
X83050098Y-10889132D01*
X82940868Y-10779902D01*
X82855046Y-10651461D01*
X82795931Y-10508744D01*
X82765794Y-10357238D01*
X82765794Y-10202762D01*
X82795931Y-10051256D01*
X82855046Y-9908539D01*
X82940868Y-9780098D01*
X83050098Y-9670868D01*
X83178539Y-9585046D01*
X83321256Y-9525931D01*
X83472762Y-9495794D01*
X83550000Y-9492000D01*
X85050000Y-9492000D01*
X85127238Y-9495794D01*
G37*
G36*
X100367238Y-9495794D02*
G01*
X100518744Y-9525931D01*
X100661461Y-9585046D01*
X100789902Y-9670868D01*
X100899132Y-9780098D01*
X100984954Y-9908539D01*
X101044069Y-10051256D01*
X101074206Y-10202762D01*
X101074206Y-10357238D01*
X101044069Y-10508744D01*
X100984954Y-10651461D01*
X100899132Y-10779902D01*
X100789902Y-10889132D01*
X100661461Y-10974954D01*
X100518744Y-11034069D01*
X100367238Y-11064206D01*
X100290000Y-11068000D01*
X100288768Y-11068000D01*
X98791232Y-11068000D01*
X98790000Y-11068000D01*
X98712762Y-11064206D01*
X98561256Y-11034069D01*
X98418539Y-10974954D01*
X98290098Y-10889132D01*
X98180868Y-10779902D01*
X98095046Y-10651461D01*
X98035931Y-10508744D01*
X98005794Y-10357238D01*
X98005794Y-10202762D01*
X98035931Y-10051256D01*
X98095046Y-9908539D01*
X98180868Y-9780098D01*
X98290098Y-9670868D01*
X98418539Y-9585046D01*
X98561256Y-9525931D01*
X98712762Y-9495794D01*
X98790000Y-9492000D01*
X100290000Y-9492000D01*
X100367238Y-9495794D01*
G37*
G36*
X120274407Y-9135462D02*
G01*
X120444000Y-9210969D01*
X120594188Y-9320087D01*
X120718407Y-9458047D01*
X120811228Y-9618818D01*
X120868595Y-9795374D01*
X120888000Y-9980000D01*
X120868595Y-10164626D01*
X120811228Y-10341182D01*
X120718407Y-10501953D01*
X120594188Y-10639913D01*
X120444000Y-10749031D01*
X120274407Y-10824538D01*
X120092821Y-10863135D01*
X119907179Y-10863135D01*
X119725593Y-10824538D01*
X119556000Y-10749031D01*
X119405812Y-10639913D01*
X119281593Y-10501953D01*
X119188772Y-10341182D01*
X119131405Y-10164626D01*
X119112000Y-9980000D01*
X119131405Y-9795374D01*
X119188772Y-9618818D01*
X119281593Y-9458047D01*
X119405812Y-9320087D01*
X119556000Y-9210969D01*
X119725593Y-9135462D01*
X119907179Y-9096865D01*
X120092821Y-9096865D01*
X120274407Y-9135462D01*
G37*
G36*
X122814407Y-9135462D02*
G01*
X122984000Y-9210969D01*
X123134188Y-9320087D01*
X123258407Y-9458047D01*
X123351228Y-9618818D01*
X123408595Y-9795374D01*
X123428000Y-9980000D01*
X123408595Y-10164626D01*
X123351228Y-10341182D01*
X123258407Y-10501953D01*
X123134188Y-10639913D01*
X122984000Y-10749031D01*
X122814407Y-10824538D01*
X122632821Y-10863135D01*
X122447179Y-10863135D01*
X122265593Y-10824538D01*
X122096000Y-10749031D01*
X121945812Y-10639913D01*
X121821593Y-10501953D01*
X121728772Y-10341182D01*
X121671405Y-10164626D01*
X121652000Y-9980000D01*
X121671405Y-9795374D01*
X121728772Y-9618818D01*
X121821593Y-9458047D01*
X121945812Y-9320087D01*
X122096000Y-9210969D01*
X122265593Y-9135462D01*
X122447179Y-9096865D01*
X122632821Y-9096865D01*
X122814407Y-9135462D01*
G37*
G36*
X93242138Y-6926035D02*
G01*
X93403259Y-6958084D01*
X93555030Y-7020950D01*
X93691622Y-7112217D01*
X93807783Y-7228378D01*
X93899050Y-7364970D01*
X93961916Y-7516741D01*
X93993965Y-7677862D01*
X93993965Y-7842138D01*
X93961916Y-8003259D01*
X93899050Y-8155030D01*
X93807783Y-8291622D01*
X93691622Y-8407783D01*
X93555030Y-8499050D01*
X93403259Y-8561916D01*
X93242138Y-8593965D01*
X93160000Y-8598000D01*
X93158768Y-8598000D01*
X92361232Y-8598000D01*
X92360000Y-8598000D01*
X92277862Y-8593965D01*
X92116741Y-8561916D01*
X91964970Y-8499050D01*
X91828378Y-8407783D01*
X91712217Y-8291622D01*
X91620950Y-8155030D01*
X91558084Y-8003259D01*
X91526035Y-7842138D01*
X91526035Y-7677862D01*
X91558084Y-7516741D01*
X91620950Y-7364970D01*
X91712217Y-7228378D01*
X91828378Y-7112217D01*
X91964970Y-7020950D01*
X92116741Y-6958084D01*
X92277862Y-6926035D01*
X92360000Y-6922000D01*
X93160000Y-6922000D01*
X93242138Y-6926035D01*
G37*
G36*
X108482138Y-6926035D02*
G01*
X108643259Y-6958084D01*
X108795030Y-7020950D01*
X108931622Y-7112217D01*
X109047783Y-7228378D01*
X109139050Y-7364970D01*
X109201916Y-7516741D01*
X109233965Y-7677862D01*
X109233965Y-7842138D01*
X109201916Y-8003259D01*
X109139050Y-8155030D01*
X109047783Y-8291622D01*
X108931622Y-8407783D01*
X108795030Y-8499050D01*
X108643259Y-8561916D01*
X108482138Y-8593965D01*
X108400000Y-8598000D01*
X108398768Y-8598000D01*
X107601232Y-8598000D01*
X107600000Y-8598000D01*
X107517862Y-8593965D01*
X107356741Y-8561916D01*
X107204970Y-8499050D01*
X107068378Y-8407783D01*
X106952217Y-8291622D01*
X106860950Y-8155030D01*
X106798084Y-8003259D01*
X106766035Y-7842138D01*
X106766035Y-7677862D01*
X106798084Y-7516741D01*
X106860950Y-7364970D01*
X106952217Y-7228378D01*
X107068378Y-7112217D01*
X107204970Y-7020950D01*
X107356741Y-6958084D01*
X107517862Y-6926035D01*
X107600000Y-6922000D01*
X108400000Y-6922000D01*
X108482138Y-6926035D01*
G37*
G36*
X85127238Y-6955794D02*
G01*
X85278744Y-6985931D01*
X85421461Y-7045046D01*
X85549902Y-7130868D01*
X85659132Y-7240098D01*
X85744954Y-7368539D01*
X85804069Y-7511256D01*
X85834206Y-7662762D01*
X85834206Y-7817238D01*
X85804069Y-7968744D01*
X85744954Y-8111461D01*
X85659132Y-8239902D01*
X85549902Y-8349132D01*
X85421461Y-8434954D01*
X85278744Y-8494069D01*
X85127238Y-8524206D01*
X85050000Y-8528000D01*
X85048768Y-8528000D01*
X83551232Y-8528000D01*
X83550000Y-8528000D01*
X83472762Y-8524206D01*
X83321256Y-8494069D01*
X83178539Y-8434954D01*
X83050098Y-8349132D01*
X82940868Y-8239902D01*
X82855046Y-8111461D01*
X82795931Y-7968744D01*
X82765794Y-7817238D01*
X82765794Y-7662762D01*
X82795931Y-7511256D01*
X82855046Y-7368539D01*
X82940868Y-7240098D01*
X83050098Y-7130868D01*
X83178539Y-7045046D01*
X83321256Y-6985931D01*
X83472762Y-6955794D01*
X83550000Y-6952000D01*
X85050000Y-6952000D01*
X85127238Y-6955794D01*
G37*
G36*
X100367238Y-6955794D02*
G01*
X100518744Y-6985931D01*
X100661461Y-7045046D01*
X100789902Y-7130868D01*
X100899132Y-7240098D01*
X100984954Y-7368539D01*
X101044069Y-7511256D01*
X101074206Y-7662762D01*
X101074206Y-7817238D01*
X101044069Y-7968744D01*
X100984954Y-8111461D01*
X100899132Y-8239902D01*
X100789902Y-8349132D01*
X100661461Y-8434954D01*
X100518744Y-8494069D01*
X100367238Y-8524206D01*
X100290000Y-8528000D01*
X100288768Y-8528000D01*
X98791232Y-8528000D01*
X98790000Y-8528000D01*
X98712762Y-8524206D01*
X98561256Y-8494069D01*
X98418539Y-8434954D01*
X98290098Y-8349132D01*
X98180868Y-8239902D01*
X98095046Y-8111461D01*
X98035931Y-7968744D01*
X98005794Y-7817238D01*
X98005794Y-7662762D01*
X98035931Y-7511256D01*
X98095046Y-7368539D01*
X98180868Y-7240098D01*
X98290098Y-7130868D01*
X98418539Y-7045046D01*
X98561256Y-6985931D01*
X98712762Y-6955794D01*
X98790000Y-6952000D01*
X100290000Y-6952000D01*
X100367238Y-6955794D01*
G37*
G36*
X120274407Y-6595462D02*
G01*
X120444000Y-6670969D01*
X120594188Y-6780087D01*
X120718407Y-6918047D01*
X120811228Y-7078818D01*
X120868595Y-7255374D01*
X120888000Y-7440000D01*
X120868595Y-7624626D01*
X120811228Y-7801182D01*
X120718407Y-7961953D01*
X120594188Y-8099913D01*
X120444000Y-8209031D01*
X120274407Y-8284538D01*
X120092821Y-8323135D01*
X119907179Y-8323135D01*
X119725593Y-8284538D01*
X119556000Y-8209031D01*
X119405812Y-8099913D01*
X119281593Y-7961953D01*
X119188772Y-7801182D01*
X119131405Y-7624626D01*
X119112000Y-7440000D01*
X119131405Y-7255374D01*
X119188772Y-7078818D01*
X119281593Y-6918047D01*
X119405812Y-6780087D01*
X119556000Y-6670969D01*
X119725593Y-6595462D01*
X119907179Y-6556865D01*
X120092821Y-6556865D01*
X120274407Y-6595462D01*
G37*
G36*
X122814407Y-6595462D02*
G01*
X122984000Y-6670969D01*
X123134188Y-6780087D01*
X123258407Y-6918047D01*
X123351228Y-7078818D01*
X123408595Y-7255374D01*
X123428000Y-7440000D01*
X123408595Y-7624626D01*
X123351228Y-7801182D01*
X123258407Y-7961953D01*
X123134188Y-8099913D01*
X122984000Y-8209031D01*
X122814407Y-8284538D01*
X122632821Y-8323135D01*
X122447179Y-8323135D01*
X122265593Y-8284538D01*
X122096000Y-8209031D01*
X121945812Y-8099913D01*
X121821593Y-7961953D01*
X121728772Y-7801182D01*
X121671405Y-7624626D01*
X121652000Y-7440000D01*
X121671405Y-7255374D01*
X121728772Y-7078818D01*
X121821593Y-6918047D01*
X121945812Y-6780087D01*
X122096000Y-6670969D01*
X122265593Y-6595462D01*
X122447179Y-6556865D01*
X122632821Y-6556865D01*
X122814407Y-6595462D01*
G37*
G36*
X93242138Y-4386035D02*
G01*
X93403259Y-4418084D01*
X93555030Y-4480950D01*
X93691622Y-4572217D01*
X93807783Y-4688378D01*
X93899050Y-4824970D01*
X93961916Y-4976741D01*
X93993965Y-5137862D01*
X93993965Y-5302138D01*
X93961916Y-5463259D01*
X93899050Y-5615030D01*
X93807783Y-5751622D01*
X93691622Y-5867783D01*
X93555030Y-5959050D01*
X93403259Y-6021916D01*
X93242138Y-6053965D01*
X93160000Y-6058000D01*
X93158768Y-6058000D01*
X92361232Y-6058000D01*
X92360000Y-6058000D01*
X92277862Y-6053965D01*
X92116741Y-6021916D01*
X91964970Y-5959050D01*
X91828378Y-5867783D01*
X91712217Y-5751622D01*
X91620950Y-5615030D01*
X91558084Y-5463259D01*
X91526035Y-5302138D01*
X91526035Y-5137862D01*
X91558084Y-4976741D01*
X91620950Y-4824970D01*
X91712217Y-4688378D01*
X91828378Y-4572217D01*
X91964970Y-4480950D01*
X92116741Y-4418084D01*
X92277862Y-4386035D01*
X92360000Y-4382000D01*
X93160000Y-4382000D01*
X93242138Y-4386035D01*
G37*
G36*
X108482138Y-4386035D02*
G01*
X108643259Y-4418084D01*
X108795030Y-4480950D01*
X108931622Y-4572217D01*
X109047783Y-4688378D01*
X109139050Y-4824970D01*
X109201916Y-4976741D01*
X109233965Y-5137862D01*
X109233965Y-5302138D01*
X109201916Y-5463259D01*
X109139050Y-5615030D01*
X109047783Y-5751622D01*
X108931622Y-5867783D01*
X108795030Y-5959050D01*
X108643259Y-6021916D01*
X108482138Y-6053965D01*
X108400000Y-6058000D01*
X108398768Y-6058000D01*
X107601232Y-6058000D01*
X107600000Y-6058000D01*
X107517862Y-6053965D01*
X107356741Y-6021916D01*
X107204970Y-5959050D01*
X107068378Y-5867783D01*
X106952217Y-5751622D01*
X106860950Y-5615030D01*
X106798084Y-5463259D01*
X106766035Y-5302138D01*
X106766035Y-5137862D01*
X106798084Y-4976741D01*
X106860950Y-4824970D01*
X106952217Y-4688378D01*
X107068378Y-4572217D01*
X107204970Y-4480950D01*
X107356741Y-4418084D01*
X107517862Y-4386035D01*
X107600000Y-4382000D01*
X108400000Y-4382000D01*
X108482138Y-4386035D01*
G37*
G36*
X85127238Y-4415794D02*
G01*
X85278744Y-4445931D01*
X85421461Y-4505046D01*
X85549902Y-4590868D01*
X85659132Y-4700098D01*
X85744954Y-4828539D01*
X85804069Y-4971256D01*
X85834206Y-5122762D01*
X85834206Y-5277238D01*
X85804069Y-5428744D01*
X85744954Y-5571461D01*
X85659132Y-5699902D01*
X85549902Y-5809132D01*
X85421461Y-5894954D01*
X85278744Y-5954069D01*
X85127238Y-5984206D01*
X85050000Y-5988000D01*
X85048768Y-5988000D01*
X83551232Y-5988000D01*
X83550000Y-5988000D01*
X83472762Y-5984206D01*
X83321256Y-5954069D01*
X83178539Y-5894954D01*
X83050098Y-5809132D01*
X82940868Y-5699902D01*
X82855046Y-5571461D01*
X82795931Y-5428744D01*
X82765794Y-5277238D01*
X82765794Y-5122762D01*
X82795931Y-4971256D01*
X82855046Y-4828539D01*
X82940868Y-4700098D01*
X83050098Y-4590868D01*
X83178539Y-4505046D01*
X83321256Y-4445931D01*
X83472762Y-4415794D01*
X83550000Y-4412000D01*
X85050000Y-4412000D01*
X85127238Y-4415794D01*
G37*
G36*
X100367238Y-4415794D02*
G01*
X100518744Y-4445931D01*
X100661461Y-4505046D01*
X100789902Y-4590868D01*
X100899132Y-4700098D01*
X100984954Y-4828539D01*
X101044069Y-4971256D01*
X101074206Y-5122762D01*
X101074206Y-5277238D01*
X101044069Y-5428744D01*
X100984954Y-5571461D01*
X100899132Y-5699902D01*
X100789902Y-5809132D01*
X100661461Y-5894954D01*
X100518744Y-5954069D01*
X100367238Y-5984206D01*
X100290000Y-5988000D01*
X100288768Y-5988000D01*
X98791232Y-5988000D01*
X98790000Y-5988000D01*
X98712762Y-5984206D01*
X98561256Y-5954069D01*
X98418539Y-5894954D01*
X98290098Y-5809132D01*
X98180868Y-5699902D01*
X98095046Y-5571461D01*
X98035931Y-5428744D01*
X98005794Y-5277238D01*
X98005794Y-5122762D01*
X98035931Y-4971256D01*
X98095046Y-4828539D01*
X98180868Y-4700098D01*
X98290098Y-4590868D01*
X98418539Y-4505046D01*
X98561256Y-4445931D01*
X98712762Y-4415794D01*
X98790000Y-4412000D01*
X100290000Y-4412000D01*
X100367238Y-4415794D01*
G37*
G36*
X120274407Y-4055462D02*
G01*
X120444000Y-4130969D01*
X120594188Y-4240087D01*
X120718407Y-4378047D01*
X120811228Y-4538818D01*
X120868595Y-4715374D01*
X120888000Y-4900000D01*
X120868595Y-5084626D01*
X120811228Y-5261182D01*
X120718407Y-5421953D01*
X120594188Y-5559913D01*
X120444000Y-5669031D01*
X120274407Y-5744538D01*
X120092821Y-5783135D01*
X119907179Y-5783135D01*
X119725593Y-5744538D01*
X119556000Y-5669031D01*
X119405812Y-5559913D01*
X119281593Y-5421953D01*
X119188772Y-5261182D01*
X119131405Y-5084626D01*
X119112000Y-4900000D01*
X119131405Y-4715374D01*
X119188772Y-4538818D01*
X119281593Y-4378047D01*
X119405812Y-4240087D01*
X119556000Y-4130969D01*
X119725593Y-4055462D01*
X119907179Y-4016865D01*
X120092821Y-4016865D01*
X120274407Y-4055462D01*
G37*
G36*
X122814407Y-4055462D02*
G01*
X122984000Y-4130969D01*
X123134188Y-4240087D01*
X123258407Y-4378047D01*
X123351228Y-4538818D01*
X123408595Y-4715374D01*
X123428000Y-4900000D01*
X123408595Y-5084626D01*
X123351228Y-5261182D01*
X123258407Y-5421953D01*
X123134188Y-5559913D01*
X122984000Y-5669031D01*
X122814407Y-5744538D01*
X122632821Y-5783135D01*
X122447179Y-5783135D01*
X122265593Y-5744538D01*
X122096000Y-5669031D01*
X121945812Y-5559913D01*
X121821593Y-5421953D01*
X121728772Y-5261182D01*
X121671405Y-5084626D01*
X121652000Y-4900000D01*
X121671405Y-4715374D01*
X121728772Y-4538818D01*
X121821593Y-4378047D01*
X121945812Y-4240087D01*
X122096000Y-4130969D01*
X122265593Y-4055462D01*
X122447179Y-4016865D01*
X122632821Y-4016865D01*
X122814407Y-4055462D01*
G37*
G36*
X93242138Y-1846035D02*
G01*
X93403259Y-1878084D01*
X93555030Y-1940950D01*
X93691622Y-2032217D01*
X93807783Y-2148378D01*
X93899050Y-2284970D01*
X93961916Y-2436741D01*
X93993965Y-2597862D01*
X93993965Y-2762138D01*
X93961916Y-2923259D01*
X93899050Y-3075030D01*
X93807783Y-3211622D01*
X93691622Y-3327783D01*
X93555030Y-3419050D01*
X93403259Y-3481916D01*
X93242138Y-3513965D01*
X93160000Y-3518000D01*
X93158768Y-3518000D01*
X92361232Y-3518000D01*
X92360000Y-3518000D01*
X92277862Y-3513965D01*
X92116741Y-3481916D01*
X91964970Y-3419050D01*
X91828378Y-3327783D01*
X91712217Y-3211622D01*
X91620950Y-3075030D01*
X91558084Y-2923259D01*
X91526035Y-2762138D01*
X91526035Y-2597862D01*
X91558084Y-2436741D01*
X91620950Y-2284970D01*
X91712217Y-2148378D01*
X91828378Y-2032217D01*
X91964970Y-1940950D01*
X92116741Y-1878084D01*
X92277862Y-1846035D01*
X92360000Y-1842000D01*
X93160000Y-1842000D01*
X93242138Y-1846035D01*
G37*
G36*
X108482138Y-1846035D02*
G01*
X108643259Y-1878084D01*
X108795030Y-1940950D01*
X108931622Y-2032217D01*
X109047783Y-2148378D01*
X109139050Y-2284970D01*
X109201916Y-2436741D01*
X109233965Y-2597862D01*
X109233965Y-2762138D01*
X109201916Y-2923259D01*
X109139050Y-3075030D01*
X109047783Y-3211622D01*
X108931622Y-3327783D01*
X108795030Y-3419050D01*
X108643259Y-3481916D01*
X108482138Y-3513965D01*
X108400000Y-3518000D01*
X108398768Y-3518000D01*
X107601232Y-3518000D01*
X107600000Y-3518000D01*
X107517862Y-3513965D01*
X107356741Y-3481916D01*
X107204970Y-3419050D01*
X107068378Y-3327783D01*
X106952217Y-3211622D01*
X106860950Y-3075030D01*
X106798084Y-2923259D01*
X106766035Y-2762138D01*
X106766035Y-2597862D01*
X106798084Y-2436741D01*
X106860950Y-2284970D01*
X106952217Y-2148378D01*
X107068378Y-2032217D01*
X107204970Y-1940950D01*
X107356741Y-1878084D01*
X107517862Y-1846035D01*
X107600000Y-1842000D01*
X108400000Y-1842000D01*
X108482138Y-1846035D01*
G37*
G36*
X85127238Y-1875794D02*
G01*
X85278744Y-1905931D01*
X85421461Y-1965046D01*
X85549902Y-2050868D01*
X85659132Y-2160098D01*
X85744954Y-2288539D01*
X85804069Y-2431256D01*
X85834206Y-2582762D01*
X85834206Y-2737238D01*
X85804069Y-2888744D01*
X85744954Y-3031461D01*
X85659132Y-3159902D01*
X85549902Y-3269132D01*
X85421461Y-3354954D01*
X85278744Y-3414069D01*
X85127238Y-3444206D01*
X85050000Y-3448000D01*
X85048768Y-3448000D01*
X83551232Y-3448000D01*
X83550000Y-3448000D01*
X83472762Y-3444206D01*
X83321256Y-3414069D01*
X83178539Y-3354954D01*
X83050098Y-3269132D01*
X82940868Y-3159902D01*
X82855046Y-3031461D01*
X82795931Y-2888744D01*
X82765794Y-2737238D01*
X82765794Y-2582762D01*
X82795931Y-2431256D01*
X82855046Y-2288539D01*
X82940868Y-2160098D01*
X83050098Y-2050868D01*
X83178539Y-1965046D01*
X83321256Y-1905931D01*
X83472762Y-1875794D01*
X83550000Y-1872000D01*
X85050000Y-1872000D01*
X85127238Y-1875794D01*
G37*
G36*
X100367238Y-1875794D02*
G01*
X100518744Y-1905931D01*
X100661461Y-1965046D01*
X100789902Y-2050868D01*
X100899132Y-2160098D01*
X100984954Y-2288539D01*
X101044069Y-2431256D01*
X101074206Y-2582762D01*
X101074206Y-2737238D01*
X101044069Y-2888744D01*
X100984954Y-3031461D01*
X100899132Y-3159902D01*
X100789902Y-3269132D01*
X100661461Y-3354954D01*
X100518744Y-3414069D01*
X100367238Y-3444206D01*
X100290000Y-3448000D01*
X100288768Y-3448000D01*
X98791232Y-3448000D01*
X98790000Y-3448000D01*
X98712762Y-3444206D01*
X98561256Y-3414069D01*
X98418539Y-3354954D01*
X98290098Y-3269132D01*
X98180868Y-3159902D01*
X98095046Y-3031461D01*
X98035931Y-2888744D01*
X98005794Y-2737238D01*
X98005794Y-2582762D01*
X98035931Y-2431256D01*
X98095046Y-2288539D01*
X98180868Y-2160098D01*
X98290098Y-2050868D01*
X98418539Y-1965046D01*
X98561256Y-1905931D01*
X98712762Y-1875794D01*
X98790000Y-1872000D01*
X100290000Y-1872000D01*
X100367238Y-1875794D01*
G37*
G36*
X120274407Y-1515462D02*
G01*
X120444000Y-1590969D01*
X120594188Y-1700087D01*
X120718407Y-1838047D01*
X120811228Y-1998818D01*
X120868595Y-2175374D01*
X120888000Y-2360000D01*
X120868595Y-2544626D01*
X120811228Y-2721182D01*
X120718407Y-2881953D01*
X120594188Y-3019913D01*
X120444000Y-3129031D01*
X120274407Y-3204538D01*
X120092821Y-3243135D01*
X119907179Y-3243135D01*
X119725593Y-3204538D01*
X119556000Y-3129031D01*
X119405812Y-3019913D01*
X119281593Y-2881953D01*
X119188772Y-2721182D01*
X119131405Y-2544626D01*
X119112000Y-2360000D01*
X119131405Y-2175374D01*
X119188772Y-1998818D01*
X119281593Y-1838047D01*
X119405812Y-1700087D01*
X119556000Y-1590969D01*
X119725593Y-1515462D01*
X119907179Y-1476865D01*
X120092821Y-1476865D01*
X120274407Y-1515462D01*
G37*
G36*
X122814407Y-1515462D02*
G01*
X122984000Y-1590969D01*
X123134188Y-1700087D01*
X123258407Y-1838047D01*
X123351228Y-1998818D01*
X123408595Y-2175374D01*
X123428000Y-2360000D01*
X123408595Y-2544626D01*
X123351228Y-2721182D01*
X123258407Y-2881953D01*
X123134188Y-3019913D01*
X122984000Y-3129031D01*
X122814407Y-3204538D01*
X122632821Y-3243135D01*
X122447179Y-3243135D01*
X122265593Y-3204538D01*
X122096000Y-3129031D01*
X121945812Y-3019913D01*
X121821593Y-2881953D01*
X121728772Y-2721182D01*
X121671405Y-2544626D01*
X121652000Y-2360000D01*
X121671405Y-2175374D01*
X121728772Y-1998818D01*
X121821593Y-1838047D01*
X121945812Y-1700087D01*
X122096000Y-1590969D01*
X122265593Y-1515462D01*
X122447179Y-1476865D01*
X122632821Y-1476865D01*
X122814407Y-1515462D01*
G37*
G36*
X93242138Y693965D02*
G01*
X93403259Y661916D01*
X93555030Y599050D01*
X93691622Y507783D01*
X93807783Y391622D01*
X93899050Y255030D01*
X93961916Y103259D01*
X93993965Y-57862D01*
X93993965Y-222138D01*
X93961916Y-383259D01*
X93899050Y-535030D01*
X93807783Y-671622D01*
X93691622Y-787783D01*
X93555030Y-879050D01*
X93403259Y-941916D01*
X93242138Y-973965D01*
X93160000Y-978000D01*
X93158768Y-978000D01*
X92361232Y-978000D01*
X92360000Y-978000D01*
X92277862Y-973965D01*
X92116741Y-941916D01*
X91964970Y-879050D01*
X91828378Y-787783D01*
X91712217Y-671622D01*
X91620950Y-535030D01*
X91558084Y-383259D01*
X91526035Y-222138D01*
X91526035Y-57862D01*
X91558084Y103259D01*
X91620950Y255030D01*
X91712217Y391622D01*
X91828378Y507783D01*
X91964970Y599050D01*
X92116741Y661916D01*
X92277862Y693965D01*
X92360000Y698000D01*
X93160000Y698000D01*
X93242138Y693965D01*
G37*
G36*
X108482138Y693965D02*
G01*
X108643259Y661916D01*
X108795030Y599050D01*
X108931622Y507783D01*
X109047783Y391622D01*
X109139050Y255030D01*
X109201916Y103259D01*
X109233965Y-57862D01*
X109233965Y-222138D01*
X109201916Y-383259D01*
X109139050Y-535030D01*
X109047783Y-671622D01*
X108931622Y-787783D01*
X108795030Y-879050D01*
X108643259Y-941916D01*
X108482138Y-973965D01*
X108400000Y-978000D01*
X108398768Y-978000D01*
X107601232Y-978000D01*
X107600000Y-978000D01*
X107517862Y-973965D01*
X107356741Y-941916D01*
X107204970Y-879050D01*
X107068378Y-787783D01*
X106952217Y-671622D01*
X106860950Y-535030D01*
X106798084Y-383259D01*
X106766035Y-222138D01*
X106766035Y-57862D01*
X106798084Y103259D01*
X106860950Y255030D01*
X106952217Y391622D01*
X107068378Y507783D01*
X107204970Y599050D01*
X107356741Y661916D01*
X107517862Y693965D01*
X107600000Y698000D01*
X108400000Y698000D01*
X108482138Y693965D01*
G37*
G36*
X85127238Y664206D02*
G01*
X85278744Y634069D01*
X85421461Y574954D01*
X85549902Y489132D01*
X85659132Y379902D01*
X85744954Y251461D01*
X85804069Y108744D01*
X85834206Y-42762D01*
X85834206Y-197238D01*
X85804069Y-348744D01*
X85744954Y-491461D01*
X85659132Y-619902D01*
X85549902Y-729132D01*
X85421461Y-814954D01*
X85278744Y-874069D01*
X85127238Y-904206D01*
X85050000Y-908000D01*
X85048768Y-908000D01*
X83551232Y-908000D01*
X83550000Y-908000D01*
X83472762Y-904206D01*
X83321256Y-874069D01*
X83178539Y-814954D01*
X83050098Y-729132D01*
X82940868Y-619902D01*
X82855046Y-491461D01*
X82795931Y-348744D01*
X82765794Y-197238D01*
X82765794Y-42762D01*
X82795931Y108744D01*
X82855046Y251461D01*
X82940868Y379902D01*
X83050098Y489132D01*
X83178539Y574954D01*
X83321256Y634069D01*
X83472762Y664206D01*
X83550000Y668000D01*
X85050000Y668000D01*
X85127238Y664206D01*
G37*
G36*
X100367238Y664206D02*
G01*
X100518744Y634069D01*
X100661461Y574954D01*
X100789902Y489132D01*
X100899132Y379902D01*
X100984954Y251461D01*
X101044069Y108744D01*
X101074206Y-42762D01*
X101074206Y-197238D01*
X101044069Y-348744D01*
X100984954Y-491461D01*
X100899132Y-619902D01*
X100789902Y-729132D01*
X100661461Y-814954D01*
X100518744Y-874069D01*
X100367238Y-904206D01*
X100290000Y-908000D01*
X100288768Y-908000D01*
X98791232Y-908000D01*
X98790000Y-908000D01*
X98712762Y-904206D01*
X98561256Y-874069D01*
X98418539Y-814954D01*
X98290098Y-729132D01*
X98180868Y-619902D01*
X98095046Y-491461D01*
X98035931Y-348744D01*
X98005794Y-197238D01*
X98005794Y-42762D01*
X98035931Y108744D01*
X98095046Y251461D01*
X98180868Y379902D01*
X98290098Y489132D01*
X98418539Y574954D01*
X98561256Y634069D01*
X98712762Y664206D01*
X98790000Y668000D01*
X100290000Y668000D01*
X100367238Y664206D01*
G37*
G36*
X120274407Y1024538D02*
G01*
X120444000Y949031D01*
X120594188Y839913D01*
X120718407Y701953D01*
X120811228Y541182D01*
X120868595Y364626D01*
X120888000Y180000D01*
X120868595Y-4626D01*
X120811228Y-181182D01*
X120718407Y-341953D01*
X120594188Y-479913D01*
X120444000Y-589031D01*
X120274407Y-664538D01*
X120092821Y-703135D01*
X119907179Y-703135D01*
X119725593Y-664538D01*
X119556000Y-589031D01*
X119405812Y-479913D01*
X119281593Y-341953D01*
X119188772Y-181182D01*
X119131405Y-4626D01*
X119112000Y180000D01*
X119131405Y364626D01*
X119188772Y541182D01*
X119281593Y701953D01*
X119405812Y839913D01*
X119556000Y949031D01*
X119725593Y1024538D01*
X119907179Y1063135D01*
X120092821Y1063135D01*
X120274407Y1024538D01*
G37*
G36*
X122814407Y1024538D02*
G01*
X122984000Y949031D01*
X123134188Y839913D01*
X123258407Y701953D01*
X123351228Y541182D01*
X123408595Y364626D01*
X123428000Y180000D01*
X123408595Y-4626D01*
X123351228Y-181182D01*
X123258407Y-341953D01*
X123134188Y-479913D01*
X122984000Y-589031D01*
X122814407Y-664538D01*
X122632821Y-703135D01*
X122447179Y-703135D01*
X122265593Y-664538D01*
X122096000Y-589031D01*
X121945812Y-479913D01*
X121821593Y-341953D01*
X121728772Y-181182D01*
X121671405Y-4626D01*
X121652000Y180000D01*
X121671405Y364626D01*
X121728772Y541182D01*
X121821593Y701953D01*
X121945812Y839913D01*
X122096000Y949031D01*
X122265593Y1024538D01*
X122447179Y1063135D01*
X122632821Y1063135D01*
X122814407Y1024538D01*
G37*
G36*
X93242138Y3233965D02*
G01*
X93403259Y3201916D01*
X93555030Y3139050D01*
X93691622Y3047783D01*
X93807783Y2931622D01*
X93899050Y2795030D01*
X93961916Y2643259D01*
X93993965Y2482138D01*
X93993965Y2317862D01*
X93961916Y2156741D01*
X93899050Y2004970D01*
X93807783Y1868378D01*
X93691622Y1752217D01*
X93555030Y1660950D01*
X93403259Y1598084D01*
X93242138Y1566035D01*
X93160000Y1562000D01*
X93158768Y1562000D01*
X92361232Y1562000D01*
X92360000Y1562000D01*
X92277862Y1566035D01*
X92116741Y1598084D01*
X91964970Y1660950D01*
X91828378Y1752217D01*
X91712217Y1868378D01*
X91620950Y2004970D01*
X91558084Y2156741D01*
X91526035Y2317862D01*
X91526035Y2482138D01*
X91558084Y2643259D01*
X91620950Y2795030D01*
X91712217Y2931622D01*
X91828378Y3047783D01*
X91964970Y3139050D01*
X92116741Y3201916D01*
X92277862Y3233965D01*
X92360000Y3238000D01*
X93160000Y3238000D01*
X93242138Y3233965D01*
G37*
G36*
X108482138Y3233965D02*
G01*
X108643259Y3201916D01*
X108795030Y3139050D01*
X108931622Y3047783D01*
X109047783Y2931622D01*
X109139050Y2795030D01*
X109201916Y2643259D01*
X109233965Y2482138D01*
X109233965Y2317862D01*
X109201916Y2156741D01*
X109139050Y2004970D01*
X109047783Y1868378D01*
X108931622Y1752217D01*
X108795030Y1660950D01*
X108643259Y1598084D01*
X108482138Y1566035D01*
X108400000Y1562000D01*
X108398768Y1562000D01*
X107601232Y1562000D01*
X107600000Y1562000D01*
X107517862Y1566035D01*
X107356741Y1598084D01*
X107204970Y1660950D01*
X107068378Y1752217D01*
X106952217Y1868378D01*
X106860950Y2004970D01*
X106798084Y2156741D01*
X106766035Y2317862D01*
X106766035Y2482138D01*
X106798084Y2643259D01*
X106860950Y2795030D01*
X106952217Y2931622D01*
X107068378Y3047783D01*
X107204970Y3139050D01*
X107356741Y3201916D01*
X107517862Y3233965D01*
X107600000Y3238000D01*
X108400000Y3238000D01*
X108482138Y3233965D01*
G37*
G36*
X85127238Y3204206D02*
G01*
X85278744Y3174069D01*
X85421461Y3114954D01*
X85549902Y3029132D01*
X85659132Y2919902D01*
X85744954Y2791461D01*
X85804069Y2648744D01*
X85834206Y2497238D01*
X85834206Y2342762D01*
X85804069Y2191256D01*
X85744954Y2048539D01*
X85659132Y1920098D01*
X85549902Y1810868D01*
X85421461Y1725046D01*
X85278744Y1665931D01*
X85127238Y1635794D01*
X85050000Y1632000D01*
X85048768Y1632000D01*
X83551232Y1632000D01*
X83550000Y1632000D01*
X83472762Y1635794D01*
X83321256Y1665931D01*
X83178539Y1725046D01*
X83050098Y1810868D01*
X82940868Y1920098D01*
X82855046Y2048539D01*
X82795931Y2191256D01*
X82765794Y2342762D01*
X82765794Y2497238D01*
X82795931Y2648744D01*
X82855046Y2791461D01*
X82940868Y2919902D01*
X83050098Y3029132D01*
X83178539Y3114954D01*
X83321256Y3174069D01*
X83472762Y3204206D01*
X83550000Y3208000D01*
X85050000Y3208000D01*
X85127238Y3204206D01*
G37*
G36*
X100367238Y3204206D02*
G01*
X100518744Y3174069D01*
X100661461Y3114954D01*
X100789902Y3029132D01*
X100899132Y2919902D01*
X100984954Y2791461D01*
X101044069Y2648744D01*
X101074206Y2497238D01*
X101074206Y2342762D01*
X101044069Y2191256D01*
X100984954Y2048539D01*
X100899132Y1920098D01*
X100789902Y1810868D01*
X100661461Y1725046D01*
X100518744Y1665931D01*
X100367238Y1635794D01*
X100290000Y1632000D01*
X100288768Y1632000D01*
X98791232Y1632000D01*
X98790000Y1632000D01*
X98712762Y1635794D01*
X98561256Y1665931D01*
X98418539Y1725046D01*
X98290098Y1810868D01*
X98180868Y1920098D01*
X98095046Y2048539D01*
X98035931Y2191256D01*
X98005794Y2342762D01*
X98005794Y2497238D01*
X98035931Y2648744D01*
X98095046Y2791461D01*
X98180868Y2919902D01*
X98290098Y3029132D01*
X98418539Y3114954D01*
X98561256Y3174069D01*
X98712762Y3204206D01*
X98790000Y3208000D01*
X100290000Y3208000D01*
X100367238Y3204206D01*
G37*
G36*
X120274407Y3564538D02*
G01*
X120444000Y3489031D01*
X120594188Y3379913D01*
X120718407Y3241953D01*
X120811228Y3081182D01*
X120868595Y2904626D01*
X120888000Y2720000D01*
X120868595Y2535374D01*
X120811228Y2358818D01*
X120718407Y2198047D01*
X120594188Y2060087D01*
X120444000Y1950969D01*
X120274407Y1875462D01*
X120092821Y1836865D01*
X119907179Y1836865D01*
X119725593Y1875462D01*
X119556000Y1950969D01*
X119405812Y2060087D01*
X119281593Y2198047D01*
X119188772Y2358818D01*
X119131405Y2535374D01*
X119112000Y2720000D01*
X119131405Y2904626D01*
X119188772Y3081182D01*
X119281593Y3241953D01*
X119405812Y3379913D01*
X119556000Y3489031D01*
X119725593Y3564538D01*
X119907179Y3603135D01*
X120092821Y3603135D01*
X120274407Y3564538D01*
G37*
G36*
X122814407Y3564538D02*
G01*
X122984000Y3489031D01*
X123134188Y3379913D01*
X123258407Y3241953D01*
X123351228Y3081182D01*
X123408595Y2904626D01*
X123428000Y2720000D01*
X123408595Y2535374D01*
X123351228Y2358818D01*
X123258407Y2198047D01*
X123134188Y2060087D01*
X122984000Y1950969D01*
X122814407Y1875462D01*
X122632821Y1836865D01*
X122447179Y1836865D01*
X122265593Y1875462D01*
X122096000Y1950969D01*
X121945812Y2060087D01*
X121821593Y2198047D01*
X121728772Y2358818D01*
X121671405Y2535374D01*
X121652000Y2720000D01*
X121671405Y2904626D01*
X121728772Y3081182D01*
X121821593Y3241953D01*
X121945812Y3379913D01*
X122096000Y3489031D01*
X122265593Y3564538D01*
X122447179Y3603135D01*
X122632821Y3603135D01*
X122814407Y3564538D01*
G37*
G36*
X93974542Y5775107D02*
G01*
X93986870Y5766870D01*
X93995107Y5754542D01*
X93998000Y5740000D01*
X93998000Y4140000D01*
X93995107Y4125458D01*
X93986870Y4113130D01*
X93974542Y4104893D01*
X93960000Y4102000D01*
X93955077Y4102000D01*
X91564924Y4102000D01*
X91560000Y4102000D01*
X91545458Y4104893D01*
X91533130Y4113130D01*
X91524893Y4125458D01*
X91522000Y4140000D01*
X91522000Y5740000D01*
X91524893Y5754542D01*
X91533130Y5766870D01*
X91545458Y5775107D01*
X91560000Y5778000D01*
X93960000Y5778000D01*
X93974542Y5775107D01*
G37*
G36*
X108482138Y5773965D02*
G01*
X108643259Y5741916D01*
X108795030Y5679050D01*
X108931622Y5587783D01*
X109047783Y5471622D01*
X109139050Y5335030D01*
X109201916Y5183259D01*
X109233965Y5022138D01*
X109233965Y4857862D01*
X109201916Y4696741D01*
X109139050Y4544970D01*
X109047783Y4408378D01*
X108931622Y4292217D01*
X108795030Y4200950D01*
X108643259Y4138084D01*
X108482138Y4106035D01*
X108400000Y4102000D01*
X108398768Y4102000D01*
X107601232Y4102000D01*
X107600000Y4102000D01*
X107517862Y4106035D01*
X107356741Y4138084D01*
X107204970Y4200950D01*
X107068378Y4292217D01*
X106952217Y4408378D01*
X106860950Y4544970D01*
X106798084Y4696741D01*
X106766035Y4857862D01*
X106766035Y5022138D01*
X106798084Y5183259D01*
X106860950Y5335030D01*
X106952217Y5471622D01*
X107068378Y5587783D01*
X107204970Y5679050D01*
X107356741Y5741916D01*
X107517862Y5773965D01*
X107600000Y5778000D01*
X108400000Y5778000D01*
X108482138Y5773965D01*
G37*
G36*
X85127238Y5744206D02*
G01*
X85278744Y5714069D01*
X85421461Y5654954D01*
X85549902Y5569132D01*
X85659132Y5459902D01*
X85744954Y5331461D01*
X85804069Y5188744D01*
X85834206Y5037238D01*
X85834206Y4882762D01*
X85804069Y4731256D01*
X85744954Y4588539D01*
X85659132Y4460098D01*
X85549902Y4350868D01*
X85421461Y4265046D01*
X85278744Y4205931D01*
X85127238Y4175794D01*
X85050000Y4172000D01*
X85048768Y4172000D01*
X83551232Y4172000D01*
X83550000Y4172000D01*
X83472762Y4175794D01*
X83321256Y4205931D01*
X83178539Y4265046D01*
X83050098Y4350868D01*
X82940868Y4460098D01*
X82855046Y4588539D01*
X82795931Y4731256D01*
X82765794Y4882762D01*
X82765794Y5037238D01*
X82795931Y5188744D01*
X82855046Y5331461D01*
X82940868Y5459902D01*
X83050098Y5569132D01*
X83178539Y5654954D01*
X83321256Y5714069D01*
X83472762Y5744206D01*
X83550000Y5748000D01*
X85050000Y5748000D01*
X85127238Y5744206D01*
G37*
G36*
X100367238Y5744206D02*
G01*
X100518744Y5714069D01*
X100661461Y5654954D01*
X100789902Y5569132D01*
X100899132Y5459902D01*
X100984954Y5331461D01*
X101044069Y5188744D01*
X101074206Y5037238D01*
X101074206Y4882762D01*
X101044069Y4731256D01*
X100984954Y4588539D01*
X100899132Y4460098D01*
X100789902Y4350868D01*
X100661461Y4265046D01*
X100518744Y4205931D01*
X100367238Y4175794D01*
X100290000Y4172000D01*
X100288768Y4172000D01*
X98791232Y4172000D01*
X98790000Y4172000D01*
X98712762Y4175794D01*
X98561256Y4205931D01*
X98418539Y4265046D01*
X98290098Y4350868D01*
X98180868Y4460098D01*
X98095046Y4588539D01*
X98035931Y4731256D01*
X98005794Y4882762D01*
X98005794Y5037238D01*
X98035931Y5188744D01*
X98095046Y5331461D01*
X98180868Y5459902D01*
X98290098Y5569132D01*
X98418539Y5654954D01*
X98561256Y5714069D01*
X98712762Y5744206D01*
X98790000Y5748000D01*
X100290000Y5748000D01*
X100367238Y5744206D01*
G37*
G36*
X120274407Y6104538D02*
G01*
X120444000Y6029031D01*
X120594188Y5919913D01*
X120718407Y5781953D01*
X120811228Y5621182D01*
X120868595Y5444626D01*
X120888000Y5260000D01*
X120868595Y5075374D01*
X120811228Y4898818D01*
X120718407Y4738047D01*
X120594188Y4600087D01*
X120444000Y4490969D01*
X120274407Y4415462D01*
X120092821Y4376865D01*
X119907179Y4376865D01*
X119725593Y4415462D01*
X119556000Y4490969D01*
X119405812Y4600087D01*
X119281593Y4738047D01*
X119188772Y4898818D01*
X119131405Y5075374D01*
X119112000Y5260000D01*
X119131405Y5444626D01*
X119188772Y5621182D01*
X119281593Y5781953D01*
X119405812Y5919913D01*
X119556000Y6029031D01*
X119725593Y6104538D01*
X119907179Y6143135D01*
X120092821Y6143135D01*
X120274407Y6104538D01*
G37*
G36*
X122814407Y6104538D02*
G01*
X122984000Y6029031D01*
X123134188Y5919913D01*
X123258407Y5781953D01*
X123351228Y5621182D01*
X123408595Y5444626D01*
X123428000Y5260000D01*
X123408595Y5075374D01*
X123351228Y4898818D01*
X123258407Y4738047D01*
X123134188Y4600087D01*
X122984000Y4490969D01*
X122814407Y4415462D01*
X122632821Y4376865D01*
X122447179Y4376865D01*
X122265593Y4415462D01*
X122096000Y4490969D01*
X121945812Y4600087D01*
X121821593Y4738047D01*
X121728772Y4898818D01*
X121671405Y5075374D01*
X121652000Y5260000D01*
X121671405Y5444626D01*
X121728772Y5621182D01*
X121821593Y5781953D01*
X121945812Y5919913D01*
X122096000Y6029031D01*
X122265593Y6104538D01*
X122447179Y6143135D01*
X122632821Y6143135D01*
X122814407Y6104538D01*
G37*
G36*
X120274407Y8644538D02*
G01*
X120444000Y8569031D01*
X120594188Y8459913D01*
X120718407Y8321953D01*
X120811228Y8161182D01*
X120868595Y7984626D01*
X120888000Y7800000D01*
X120868595Y7615374D01*
X120811228Y7438818D01*
X120718407Y7278047D01*
X120594188Y7140087D01*
X120444000Y7030969D01*
X120274407Y6955462D01*
X120092821Y6916865D01*
X119907179Y6916865D01*
X119725593Y6955462D01*
X119556000Y7030969D01*
X119405812Y7140087D01*
X119281593Y7278047D01*
X119188772Y7438818D01*
X119131405Y7615374D01*
X119112000Y7800000D01*
X119131405Y7984626D01*
X119188772Y8161182D01*
X119281593Y8321953D01*
X119405812Y8459913D01*
X119556000Y8569031D01*
X119725593Y8644538D01*
X119907179Y8683135D01*
X120092821Y8683135D01*
X120274407Y8644538D01*
G37*
G36*
X122814407Y8644538D02*
G01*
X122984000Y8569031D01*
X123134188Y8459913D01*
X123258407Y8321953D01*
X123351228Y8161182D01*
X123408595Y7984626D01*
X123428000Y7800000D01*
X123408595Y7615374D01*
X123351228Y7438818D01*
X123258407Y7278047D01*
X123134188Y7140087D01*
X122984000Y7030969D01*
X122814407Y6955462D01*
X122632821Y6916865D01*
X122447179Y6916865D01*
X122265593Y6955462D01*
X122096000Y7030969D01*
X121945812Y7140087D01*
X121821593Y7278047D01*
X121728772Y7438818D01*
X121671405Y7615374D01*
X121652000Y7800000D01*
X121671405Y7984626D01*
X121728772Y8161182D01*
X121821593Y8321953D01*
X121945812Y8459913D01*
X122096000Y8569031D01*
X122265593Y8644538D01*
X122447179Y8683135D01*
X122632821Y8683135D01*
X122814407Y8644538D01*
G37*
G36*
X106948956Y9696985D02*
G01*
X107109000Y9625729D01*
X107250731Y9522755D01*
X107367956Y9392564D01*
X107455551Y9240845D01*
X107509688Y9074230D01*
X107528000Y8900000D01*
X107509688Y8725770D01*
X107455551Y8559155D01*
X107367956Y8407436D01*
X107250731Y8277245D01*
X107109000Y8174271D01*
X106948956Y8103015D01*
X106777595Y8066591D01*
X106602405Y8066591D01*
X106431044Y8103015D01*
X106271000Y8174271D01*
X106129269Y8277245D01*
X106012044Y8407436D01*
X105924449Y8559155D01*
X105870312Y8725770D01*
X105852000Y8900000D01*
X105870312Y9074230D01*
X105924449Y9240845D01*
X106012044Y9392564D01*
X106129269Y9522755D01*
X106271000Y9625729D01*
X106431044Y9696985D01*
X106602405Y9733409D01*
X106777595Y9733409D01*
X106948956Y9696985D01*
G37*
G36*
X114568956Y9696985D02*
G01*
X114729000Y9625729D01*
X114870731Y9522755D01*
X114987956Y9392564D01*
X115075551Y9240845D01*
X115129688Y9074230D01*
X115148000Y8900000D01*
X115129688Y8725770D01*
X115075551Y8559155D01*
X114987956Y8407436D01*
X114870731Y8277245D01*
X114729000Y8174271D01*
X114568956Y8103015D01*
X114397595Y8066591D01*
X114222405Y8066591D01*
X114051044Y8103015D01*
X113891000Y8174271D01*
X113749269Y8277245D01*
X113632044Y8407436D01*
X113544449Y8559155D01*
X113490312Y8725770D01*
X113472000Y8900000D01*
X113490312Y9074230D01*
X113544449Y9240845D01*
X113632044Y9392564D01*
X113749269Y9522755D01*
X113891000Y9625729D01*
X114051044Y9696985D01*
X114222405Y9733409D01*
X114397595Y9733409D01*
X114568956Y9696985D01*
G37*
G36*
X120274407Y11184538D02*
G01*
X120444000Y11109031D01*
X120594188Y10999913D01*
X120718407Y10861953D01*
X120811228Y10701182D01*
X120868595Y10524626D01*
X120888000Y10340000D01*
X120868595Y10155374D01*
X120811228Y9978818D01*
X120718407Y9818047D01*
X120594188Y9680087D01*
X120444000Y9570969D01*
X120274407Y9495462D01*
X120092821Y9456865D01*
X119907179Y9456865D01*
X119725593Y9495462D01*
X119556000Y9570969D01*
X119405812Y9680087D01*
X119281593Y9818047D01*
X119188772Y9978818D01*
X119131405Y10155374D01*
X119112000Y10340000D01*
X119131405Y10524626D01*
X119188772Y10701182D01*
X119281593Y10861953D01*
X119405812Y10999913D01*
X119556000Y11109031D01*
X119725593Y11184538D01*
X119907179Y11223135D01*
X120092821Y11223135D01*
X120274407Y11184538D01*
G37*
G36*
X122814407Y11184538D02*
G01*
X122984000Y11109031D01*
X123134188Y10999913D01*
X123258407Y10861953D01*
X123351228Y10701182D01*
X123408595Y10524626D01*
X123428000Y10340000D01*
X123408595Y10155374D01*
X123351228Y9978818D01*
X123258407Y9818047D01*
X123134188Y9680087D01*
X122984000Y9570969D01*
X122814407Y9495462D01*
X122632821Y9456865D01*
X122447179Y9456865D01*
X122265593Y9495462D01*
X122096000Y9570969D01*
X121945812Y9680087D01*
X121821593Y9818047D01*
X121728772Y9978818D01*
X121671405Y10155374D01*
X121652000Y10340000D01*
X121671405Y10524626D01*
X121728772Y10701182D01*
X121821593Y10861953D01*
X121945812Y10999913D01*
X122096000Y11109031D01*
X122265593Y11184538D01*
X122447179Y11223135D01*
X122632821Y11223135D01*
X122814407Y11184538D01*
G37*
G36*
X106948956Y13396985D02*
G01*
X107109000Y13325729D01*
X107250731Y13222755D01*
X107367956Y13092564D01*
X107455551Y12940845D01*
X107509688Y12774230D01*
X107528000Y12600000D01*
X107509688Y12425770D01*
X107455551Y12259155D01*
X107367956Y12107436D01*
X107250731Y11977245D01*
X107109000Y11874271D01*
X106948956Y11803015D01*
X106777595Y11766591D01*
X106602405Y11766591D01*
X106431044Y11803015D01*
X106271000Y11874271D01*
X106129269Y11977245D01*
X106012044Y12107436D01*
X105924449Y12259155D01*
X105870312Y12425770D01*
X105852000Y12600000D01*
X105870312Y12774230D01*
X105924449Y12940845D01*
X106012044Y13092564D01*
X106129269Y13222755D01*
X106271000Y13325729D01*
X106431044Y13396985D01*
X106602405Y13433409D01*
X106777595Y13433409D01*
X106948956Y13396985D01*
G37*
G36*
X114568956Y13396985D02*
G01*
X114729000Y13325729D01*
X114870731Y13222755D01*
X114987956Y13092564D01*
X115075551Y12940845D01*
X115129688Y12774230D01*
X115148000Y12600000D01*
X115129688Y12425770D01*
X115075551Y12259155D01*
X114987956Y12107436D01*
X114870731Y11977245D01*
X114729000Y11874271D01*
X114568956Y11803015D01*
X114397595Y11766591D01*
X114222405Y11766591D01*
X114051044Y11803015D01*
X113891000Y11874271D01*
X113749269Y11977245D01*
X113632044Y12107436D01*
X113544449Y12259155D01*
X113490312Y12425770D01*
X113472000Y12600000D01*
X113490312Y12774230D01*
X113544449Y12940845D01*
X113632044Y13092564D01*
X113749269Y13222755D01*
X113891000Y13325729D01*
X114051044Y13396985D01*
X114222405Y13433409D01*
X114397595Y13433409D01*
X114568956Y13396985D01*
G37*
G36*
X120274407Y13724538D02*
G01*
X120444000Y13649031D01*
X120594188Y13539913D01*
X120718407Y13401953D01*
X120811228Y13241182D01*
X120868595Y13064626D01*
X120888000Y12880000D01*
X120868595Y12695374D01*
X120811228Y12518818D01*
X120718407Y12358047D01*
X120594188Y12220087D01*
X120444000Y12110969D01*
X120274407Y12035462D01*
X120092821Y11996865D01*
X119907179Y11996865D01*
X119725593Y12035462D01*
X119556000Y12110969D01*
X119405812Y12220087D01*
X119281593Y12358047D01*
X119188772Y12518818D01*
X119131405Y12695374D01*
X119112000Y12880000D01*
X119131405Y13064626D01*
X119188772Y13241182D01*
X119281593Y13401953D01*
X119405812Y13539913D01*
X119556000Y13649031D01*
X119725593Y13724538D01*
X119907179Y13763135D01*
X120092821Y13763135D01*
X120274407Y13724538D01*
G37*
G36*
X122814407Y13724538D02*
G01*
X122984000Y13649031D01*
X123134188Y13539913D01*
X123258407Y13401953D01*
X123351228Y13241182D01*
X123408595Y13064626D01*
X123428000Y12880000D01*
X123408595Y12695374D01*
X123351228Y12518818D01*
X123258407Y12358047D01*
X123134188Y12220087D01*
X122984000Y12110969D01*
X122814407Y12035462D01*
X122632821Y11996865D01*
X122447179Y11996865D01*
X122265593Y12035462D01*
X122096000Y12110969D01*
X121945812Y12220087D01*
X121821593Y12358047D01*
X121728772Y12518818D01*
X121671405Y12695374D01*
X121652000Y12880000D01*
X121671405Y13064626D01*
X121728772Y13241182D01*
X121821593Y13401953D01*
X121945812Y13539913D01*
X122096000Y13649031D01*
X122265593Y13724538D01*
X122447179Y13763135D01*
X122632821Y13763135D01*
X122814407Y13724538D01*
G37*
G36*
X120864542Y16305107D02*
G01*
X120876870Y16296870D01*
X120885107Y16284542D01*
X120888000Y16270000D01*
X120888000Y14570000D01*
X120885107Y14555458D01*
X120876870Y14543130D01*
X120864542Y14534893D01*
X120850000Y14532000D01*
X120845077Y14532000D01*
X119154924Y14532000D01*
X119150000Y14532000D01*
X119135458Y14534893D01*
X119123130Y14543130D01*
X119114893Y14555458D01*
X119112000Y14570000D01*
X119112000Y16270000D01*
X119114893Y16284542D01*
X119123130Y16296870D01*
X119135458Y16305107D01*
X119150000Y16308000D01*
X120850000Y16308000D01*
X120864542Y16305107D01*
G37*
G36*
X122814407Y16264538D02*
G01*
X122984000Y16189031D01*
X123134188Y16079913D01*
X123258407Y15941953D01*
X123351228Y15781182D01*
X123408595Y15604626D01*
X123428000Y15420000D01*
X123408595Y15235374D01*
X123351228Y15058818D01*
X123258407Y14898047D01*
X123134188Y14760087D01*
X122984000Y14650969D01*
X122814407Y14575462D01*
X122632821Y14536865D01*
X122447179Y14536865D01*
X122265593Y14575462D01*
X122096000Y14650969D01*
X121945812Y14760087D01*
X121821593Y14898047D01*
X121728772Y15058818D01*
X121671405Y15235374D01*
X121652000Y15420000D01*
X121671405Y15604626D01*
X121728772Y15781182D01*
X121821593Y15941953D01*
X121945812Y16079913D01*
X122096000Y16189031D01*
X122265593Y16264538D01*
X122447179Y16303135D01*
X122632821Y16303135D01*
X122814407Y16264538D01*
G37*
M02*
