G04 #@! TF.GenerationSoftware,KiCad,Pcbnew,8.0.8*
G04 #@! TF.CreationDate,2026-01-16T16:01:14-05:00*
G04 #@! TF.ProjectId,InSystemROMProg,496e5379-7374-4656-9d52-4f4d50726f67,rev?*
G04 #@! TF.SameCoordinates,Original*
G04 #@! TF.FileFunction,Legend,Top*
G04 #@! TF.FilePolarity,Positive*
%FSLAX46Y46*%
G04 Gerber Fmt 4.6, Leading zero omitted, Abs format (unit mm)*
G04 Created by KiCad (PCBNEW 8.0.8) date 2026-01-16 16:01:14*
%MOMM*%
%LPD*%
G01*
G04 APERTURE LIST*
G04 Aperture macros list*
%AMRoundRect*
0 Rectangle with rounded corners*
0 $1 Rounding radius*
0 $2 $3 $4 $5 $6 $7 $8 $9 X,Y pos of 4 corners*
0 Add a 4 corners polygon primitive as box body*
4,1,4,$2,$3,$4,$5,$6,$7,$8,$9,$2,$3,0*
0 Add four circle primitives for the rounded corners*
1,1,$1+$1,$2,$3*
1,1,$1+$1,$4,$5*
1,1,$1+$1,$6,$7*
1,1,$1+$1,$8,$9*
0 Add four rect primitives between the rounded corners*
20,1,$1+$1,$2,$3,$4,$5,0*
20,1,$1+$1,$4,$5,$6,$7,0*
20,1,$1+$1,$6,$7,$8,$9,0*
20,1,$1+$1,$8,$9,$2,$3,0*%
G04 Aperture macros list end*
%ADD10C,0.100000*%
%ADD11C,0.200000*%
%ADD12C,0.150000*%
%ADD13C,0.120000*%
%ADD14C,1.676000*%
%ADD15O,1.676000X1.676000*%
%ADD16RoundRect,0.038000X-0.850000X-0.850000X0.850000X-0.850000X0.850000X0.850000X-0.850000X0.850000X0*%
%ADD17O,1.776000X1.776000*%
%ADD18RoundRect,0.038000X0.850000X-0.850000X0.850000X0.850000X-0.850000X0.850000X-0.850000X-0.850000X0*%
%ADD19RoundRect,0.038000X-1.200000X-0.800000X1.200000X-0.800000X1.200000X0.800000X-1.200000X0.800000X0*%
%ADD20O,2.476000X1.676000*%
%ADD21O,3.076000X1.576000*%
G04 APERTURE END LIST*
D10*
X120848609Y-34362782D02*
X120896228Y-34219925D01*
X120896228Y-34219925D02*
X120943847Y-34172306D01*
X120943847Y-34172306D02*
X121039085Y-34124687D01*
X121039085Y-34124687D02*
X121181942Y-34124687D01*
X121181942Y-34124687D02*
X121277180Y-34172306D01*
X121277180Y-34172306D02*
X121324800Y-34219925D01*
X121324800Y-34219925D02*
X121372419Y-34315163D01*
X121372419Y-34315163D02*
X121372419Y-34696115D01*
X121372419Y-34696115D02*
X120372419Y-34696115D01*
X120372419Y-34696115D02*
X120372419Y-34362782D01*
X120372419Y-34362782D02*
X120420038Y-34267544D01*
X120420038Y-34267544D02*
X120467657Y-34219925D01*
X120467657Y-34219925D02*
X120562895Y-34172306D01*
X120562895Y-34172306D02*
X120658133Y-34172306D01*
X120658133Y-34172306D02*
X120753371Y-34219925D01*
X120753371Y-34219925D02*
X120800990Y-34267544D01*
X120800990Y-34267544D02*
X120848609Y-34362782D01*
X120848609Y-34362782D02*
X120848609Y-34696115D01*
X120372419Y-33696115D02*
X121181942Y-33696115D01*
X121181942Y-33696115D02*
X121277180Y-33648496D01*
X121277180Y-33648496D02*
X121324800Y-33600877D01*
X121324800Y-33600877D02*
X121372419Y-33505639D01*
X121372419Y-33505639D02*
X121372419Y-33315163D01*
X121372419Y-33315163D02*
X121324800Y-33219925D01*
X121324800Y-33219925D02*
X121277180Y-33172306D01*
X121277180Y-33172306D02*
X121181942Y-33124687D01*
X121181942Y-33124687D02*
X120372419Y-33124687D01*
X121324800Y-32696115D02*
X121372419Y-32553258D01*
X121372419Y-32553258D02*
X121372419Y-32315163D01*
X121372419Y-32315163D02*
X121324800Y-32219925D01*
X121324800Y-32219925D02*
X121277180Y-32172306D01*
X121277180Y-32172306D02*
X121181942Y-32124687D01*
X121181942Y-32124687D02*
X121086704Y-32124687D01*
X121086704Y-32124687D02*
X120991466Y-32172306D01*
X120991466Y-32172306D02*
X120943847Y-32219925D01*
X120943847Y-32219925D02*
X120896228Y-32315163D01*
X120896228Y-32315163D02*
X120848609Y-32505639D01*
X120848609Y-32505639D02*
X120800990Y-32600877D01*
X120800990Y-32600877D02*
X120753371Y-32648496D01*
X120753371Y-32648496D02*
X120658133Y-32696115D01*
X120658133Y-32696115D02*
X120562895Y-32696115D01*
X120562895Y-32696115D02*
X120467657Y-32648496D01*
X120467657Y-32648496D02*
X120420038Y-32600877D01*
X120420038Y-32600877D02*
X120372419Y-32505639D01*
X120372419Y-32505639D02*
X120372419Y-32267544D01*
X120372419Y-32267544D02*
X120420038Y-32124687D01*
X121086704Y-31743734D02*
X121086704Y-31267544D01*
X121372419Y-31838972D02*
X120372419Y-31505639D01*
X120372419Y-31505639D02*
X121372419Y-31172306D01*
X121277180Y-30267544D02*
X121324800Y-30315163D01*
X121324800Y-30315163D02*
X121372419Y-30458020D01*
X121372419Y-30458020D02*
X121372419Y-30553258D01*
X121372419Y-30553258D02*
X121324800Y-30696115D01*
X121324800Y-30696115D02*
X121229561Y-30791353D01*
X121229561Y-30791353D02*
X121134323Y-30838972D01*
X121134323Y-30838972D02*
X120943847Y-30886591D01*
X120943847Y-30886591D02*
X120800990Y-30886591D01*
X120800990Y-30886591D02*
X120610514Y-30838972D01*
X120610514Y-30838972D02*
X120515276Y-30791353D01*
X120515276Y-30791353D02*
X120420038Y-30696115D01*
X120420038Y-30696115D02*
X120372419Y-30553258D01*
X120372419Y-30553258D02*
X120372419Y-30458020D01*
X120372419Y-30458020D02*
X120420038Y-30315163D01*
X120420038Y-30315163D02*
X120467657Y-30267544D01*
X121372419Y-29838972D02*
X120372419Y-29838972D01*
X121372419Y-29267544D02*
X120800990Y-29696115D01*
X120372419Y-29267544D02*
X120943847Y-29838972D01*
X120094800Y-34834211D02*
X120094800Y-29177068D01*
D11*
X118593409Y-34296993D02*
X118641028Y-34154136D01*
X118641028Y-34154136D02*
X118688647Y-34106517D01*
X118688647Y-34106517D02*
X118783885Y-34058898D01*
X118783885Y-34058898D02*
X118926742Y-34058898D01*
X118926742Y-34058898D02*
X119021980Y-34106517D01*
X119021980Y-34106517D02*
X119069600Y-34154136D01*
X119069600Y-34154136D02*
X119117219Y-34249374D01*
X119117219Y-34249374D02*
X119117219Y-34630326D01*
X119117219Y-34630326D02*
X118117219Y-34630326D01*
X118117219Y-34630326D02*
X118117219Y-34296993D01*
X118117219Y-34296993D02*
X118164838Y-34201755D01*
X118164838Y-34201755D02*
X118212457Y-34154136D01*
X118212457Y-34154136D02*
X118307695Y-34106517D01*
X118307695Y-34106517D02*
X118402933Y-34106517D01*
X118402933Y-34106517D02*
X118498171Y-34154136D01*
X118498171Y-34154136D02*
X118545790Y-34201755D01*
X118545790Y-34201755D02*
X118593409Y-34296993D01*
X118593409Y-34296993D02*
X118593409Y-34630326D01*
X118117219Y-33630326D02*
X118926742Y-33630326D01*
X118926742Y-33630326D02*
X119021980Y-33582707D01*
X119021980Y-33582707D02*
X119069600Y-33535088D01*
X119069600Y-33535088D02*
X119117219Y-33439850D01*
X119117219Y-33439850D02*
X119117219Y-33249374D01*
X119117219Y-33249374D02*
X119069600Y-33154136D01*
X119069600Y-33154136D02*
X119021980Y-33106517D01*
X119021980Y-33106517D02*
X118926742Y-33058898D01*
X118926742Y-33058898D02*
X118117219Y-33058898D01*
X119069600Y-32630326D02*
X119117219Y-32487469D01*
X119117219Y-32487469D02*
X119117219Y-32249374D01*
X119117219Y-32249374D02*
X119069600Y-32154136D01*
X119069600Y-32154136D02*
X119021980Y-32106517D01*
X119021980Y-32106517D02*
X118926742Y-32058898D01*
X118926742Y-32058898D02*
X118831504Y-32058898D01*
X118831504Y-32058898D02*
X118736266Y-32106517D01*
X118736266Y-32106517D02*
X118688647Y-32154136D01*
X118688647Y-32154136D02*
X118641028Y-32249374D01*
X118641028Y-32249374D02*
X118593409Y-32439850D01*
X118593409Y-32439850D02*
X118545790Y-32535088D01*
X118545790Y-32535088D02*
X118498171Y-32582707D01*
X118498171Y-32582707D02*
X118402933Y-32630326D01*
X118402933Y-32630326D02*
X118307695Y-32630326D01*
X118307695Y-32630326D02*
X118212457Y-32582707D01*
X118212457Y-32582707D02*
X118164838Y-32535088D01*
X118164838Y-32535088D02*
X118117219Y-32439850D01*
X118117219Y-32439850D02*
X118117219Y-32201755D01*
X118117219Y-32201755D02*
X118164838Y-32058898D01*
X119117219Y-31058898D02*
X118641028Y-31392231D01*
X119117219Y-31630326D02*
X118117219Y-31630326D01*
X118117219Y-31630326D02*
X118117219Y-31249374D01*
X118117219Y-31249374D02*
X118164838Y-31154136D01*
X118164838Y-31154136D02*
X118212457Y-31106517D01*
X118212457Y-31106517D02*
X118307695Y-31058898D01*
X118307695Y-31058898D02*
X118450552Y-31058898D01*
X118450552Y-31058898D02*
X118545790Y-31106517D01*
X118545790Y-31106517D02*
X118593409Y-31154136D01*
X118593409Y-31154136D02*
X118641028Y-31249374D01*
X118641028Y-31249374D02*
X118641028Y-31630326D01*
X119212457Y-29963660D02*
X119164838Y-30058898D01*
X119164838Y-30058898D02*
X119069600Y-30154136D01*
X119069600Y-30154136D02*
X118926742Y-30296993D01*
X118926742Y-30296993D02*
X118879123Y-30392231D01*
X118879123Y-30392231D02*
X118879123Y-30487469D01*
X119117219Y-30439850D02*
X119069600Y-30535088D01*
X119069600Y-30535088D02*
X118974361Y-30630326D01*
X118974361Y-30630326D02*
X118783885Y-30677945D01*
X118783885Y-30677945D02*
X118450552Y-30677945D01*
X118450552Y-30677945D02*
X118260076Y-30630326D01*
X118260076Y-30630326D02*
X118164838Y-30535088D01*
X118164838Y-30535088D02*
X118117219Y-30439850D01*
X118117219Y-30439850D02*
X118117219Y-30249374D01*
X118117219Y-30249374D02*
X118164838Y-30154136D01*
X118164838Y-30154136D02*
X118260076Y-30058898D01*
X118260076Y-30058898D02*
X118450552Y-30011279D01*
X118450552Y-30011279D02*
X118783885Y-30011279D01*
X118783885Y-30011279D02*
X118974361Y-30058898D01*
X118974361Y-30058898D02*
X119069600Y-30154136D01*
X119069600Y-30154136D02*
X119117219Y-30249374D01*
X119117219Y-30249374D02*
X119117219Y-30439850D01*
X117839600Y-34768422D02*
X117839600Y-29920803D01*
D10*
X106372419Y-34291353D02*
X106372419Y-33624687D01*
X106372419Y-33624687D02*
X107372419Y-34291353D01*
X107372419Y-34291353D02*
X107372419Y-33624687D01*
X107372419Y-32719925D02*
X107372419Y-33291353D01*
X107372419Y-33005639D02*
X106372419Y-33005639D01*
X106372419Y-33005639D02*
X106515276Y-33100877D01*
X106515276Y-33100877D02*
X106610514Y-33196115D01*
X106610514Y-33196115D02*
X106658133Y-33291353D01*
X106800990Y-32148496D02*
X106753371Y-32243734D01*
X106753371Y-32243734D02*
X106705752Y-32291353D01*
X106705752Y-32291353D02*
X106610514Y-32338972D01*
X106610514Y-32338972D02*
X106562895Y-32338972D01*
X106562895Y-32338972D02*
X106467657Y-32291353D01*
X106467657Y-32291353D02*
X106420038Y-32243734D01*
X106420038Y-32243734D02*
X106372419Y-32148496D01*
X106372419Y-32148496D02*
X106372419Y-31958020D01*
X106372419Y-31958020D02*
X106420038Y-31862782D01*
X106420038Y-31862782D02*
X106467657Y-31815163D01*
X106467657Y-31815163D02*
X106562895Y-31767544D01*
X106562895Y-31767544D02*
X106610514Y-31767544D01*
X106610514Y-31767544D02*
X106705752Y-31815163D01*
X106705752Y-31815163D02*
X106753371Y-31862782D01*
X106753371Y-31862782D02*
X106800990Y-31958020D01*
X106800990Y-31958020D02*
X106800990Y-32148496D01*
X106800990Y-32148496D02*
X106848609Y-32243734D01*
X106848609Y-32243734D02*
X106896228Y-32291353D01*
X106896228Y-32291353D02*
X106991466Y-32338972D01*
X106991466Y-32338972D02*
X107181942Y-32338972D01*
X107181942Y-32338972D02*
X107277180Y-32291353D01*
X107277180Y-32291353D02*
X107324800Y-32243734D01*
X107324800Y-32243734D02*
X107372419Y-32148496D01*
X107372419Y-32148496D02*
X107372419Y-31958020D01*
X107372419Y-31958020D02*
X107324800Y-31862782D01*
X107324800Y-31862782D02*
X107277180Y-31815163D01*
X107277180Y-31815163D02*
X107181942Y-31767544D01*
X107181942Y-31767544D02*
X106991466Y-31767544D01*
X106991466Y-31767544D02*
X106896228Y-31815163D01*
X106896228Y-31815163D02*
X106848609Y-31862782D01*
X106848609Y-31862782D02*
X106800990Y-31958020D01*
X106372419Y-31148496D02*
X106372419Y-31053258D01*
X106372419Y-31053258D02*
X106420038Y-30958020D01*
X106420038Y-30958020D02*
X106467657Y-30910401D01*
X106467657Y-30910401D02*
X106562895Y-30862782D01*
X106562895Y-30862782D02*
X106753371Y-30815163D01*
X106753371Y-30815163D02*
X106991466Y-30815163D01*
X106991466Y-30815163D02*
X107181942Y-30862782D01*
X107181942Y-30862782D02*
X107277180Y-30910401D01*
X107277180Y-30910401D02*
X107324800Y-30958020D01*
X107324800Y-30958020D02*
X107372419Y-31053258D01*
X107372419Y-31053258D02*
X107372419Y-31148496D01*
X107372419Y-31148496D02*
X107324800Y-31243734D01*
X107324800Y-31243734D02*
X107277180Y-31291353D01*
X107277180Y-31291353D02*
X107181942Y-31338972D01*
X107181942Y-31338972D02*
X106991466Y-31386591D01*
X106991466Y-31386591D02*
X106753371Y-31386591D01*
X106753371Y-31386591D02*
X106562895Y-31338972D01*
X106562895Y-31338972D02*
X106467657Y-31291353D01*
X106467657Y-31291353D02*
X106420038Y-31243734D01*
X106420038Y-31243734D02*
X106372419Y-31148496D01*
X107324800Y-29672305D02*
X107372419Y-29529448D01*
X107372419Y-29529448D02*
X107372419Y-29291353D01*
X107372419Y-29291353D02*
X107324800Y-29196115D01*
X107324800Y-29196115D02*
X107277180Y-29148496D01*
X107277180Y-29148496D02*
X107181942Y-29100877D01*
X107181942Y-29100877D02*
X107086704Y-29100877D01*
X107086704Y-29100877D02*
X106991466Y-29148496D01*
X106991466Y-29148496D02*
X106943847Y-29196115D01*
X106943847Y-29196115D02*
X106896228Y-29291353D01*
X106896228Y-29291353D02*
X106848609Y-29481829D01*
X106848609Y-29481829D02*
X106800990Y-29577067D01*
X106800990Y-29577067D02*
X106753371Y-29624686D01*
X106753371Y-29624686D02*
X106658133Y-29672305D01*
X106658133Y-29672305D02*
X106562895Y-29672305D01*
X106562895Y-29672305D02*
X106467657Y-29624686D01*
X106467657Y-29624686D02*
X106420038Y-29577067D01*
X106420038Y-29577067D02*
X106372419Y-29481829D01*
X106372419Y-29481829D02*
X106372419Y-29243734D01*
X106372419Y-29243734D02*
X106420038Y-29100877D01*
X106848609Y-28338972D02*
X106896228Y-28196115D01*
X106896228Y-28196115D02*
X106943847Y-28148496D01*
X106943847Y-28148496D02*
X107039085Y-28100877D01*
X107039085Y-28100877D02*
X107181942Y-28100877D01*
X107181942Y-28100877D02*
X107277180Y-28148496D01*
X107277180Y-28148496D02*
X107324800Y-28196115D01*
X107324800Y-28196115D02*
X107372419Y-28291353D01*
X107372419Y-28291353D02*
X107372419Y-28672305D01*
X107372419Y-28672305D02*
X106372419Y-28672305D01*
X106372419Y-28672305D02*
X106372419Y-28338972D01*
X106372419Y-28338972D02*
X106420038Y-28243734D01*
X106420038Y-28243734D02*
X106467657Y-28196115D01*
X106467657Y-28196115D02*
X106562895Y-28148496D01*
X106562895Y-28148496D02*
X106658133Y-28148496D01*
X106658133Y-28148496D02*
X106753371Y-28196115D01*
X106753371Y-28196115D02*
X106800990Y-28243734D01*
X106800990Y-28243734D02*
X106848609Y-28338972D01*
X106848609Y-28338972D02*
X106848609Y-28672305D01*
X107277180Y-27100877D02*
X107324800Y-27148496D01*
X107324800Y-27148496D02*
X107372419Y-27291353D01*
X107372419Y-27291353D02*
X107372419Y-27386591D01*
X107372419Y-27386591D02*
X107324800Y-27529448D01*
X107324800Y-27529448D02*
X107229561Y-27624686D01*
X107229561Y-27624686D02*
X107134323Y-27672305D01*
X107134323Y-27672305D02*
X106943847Y-27719924D01*
X106943847Y-27719924D02*
X106800990Y-27719924D01*
X106800990Y-27719924D02*
X106610514Y-27672305D01*
X106610514Y-27672305D02*
X106515276Y-27624686D01*
X106515276Y-27624686D02*
X106420038Y-27529448D01*
X106420038Y-27529448D02*
X106372419Y-27386591D01*
X106372419Y-27386591D02*
X106372419Y-27291353D01*
X106372419Y-27291353D02*
X106420038Y-27148496D01*
X106420038Y-27148496D02*
X106467657Y-27100877D01*
X106705752Y-26053257D02*
X106705752Y-25672305D01*
X106372419Y-25910400D02*
X107229561Y-25910400D01*
X107229561Y-25910400D02*
X107324800Y-25862781D01*
X107324800Y-25862781D02*
X107372419Y-25767543D01*
X107372419Y-25767543D02*
X107372419Y-25672305D01*
X107372419Y-25196114D02*
X107324800Y-25291352D01*
X107324800Y-25291352D02*
X107277180Y-25338971D01*
X107277180Y-25338971D02*
X107181942Y-25386590D01*
X107181942Y-25386590D02*
X106896228Y-25386590D01*
X106896228Y-25386590D02*
X106800990Y-25338971D01*
X106800990Y-25338971D02*
X106753371Y-25291352D01*
X106753371Y-25291352D02*
X106705752Y-25196114D01*
X106705752Y-25196114D02*
X106705752Y-25053257D01*
X106705752Y-25053257D02*
X106753371Y-24958019D01*
X106753371Y-24958019D02*
X106800990Y-24910400D01*
X106800990Y-24910400D02*
X106896228Y-24862781D01*
X106896228Y-24862781D02*
X107181942Y-24862781D01*
X107181942Y-24862781D02*
X107277180Y-24910400D01*
X107277180Y-24910400D02*
X107324800Y-24958019D01*
X107324800Y-24958019D02*
X107372419Y-25053257D01*
X107372419Y-25053257D02*
X107372419Y-25196114D01*
X106372419Y-23767542D02*
X106372419Y-23100876D01*
X106372419Y-23100876D02*
X107372419Y-23767542D01*
X107372419Y-23767542D02*
X107372419Y-23100876D01*
X106800990Y-22577066D02*
X106753371Y-22672304D01*
X106753371Y-22672304D02*
X106705752Y-22719923D01*
X106705752Y-22719923D02*
X106610514Y-22767542D01*
X106610514Y-22767542D02*
X106562895Y-22767542D01*
X106562895Y-22767542D02*
X106467657Y-22719923D01*
X106467657Y-22719923D02*
X106420038Y-22672304D01*
X106420038Y-22672304D02*
X106372419Y-22577066D01*
X106372419Y-22577066D02*
X106372419Y-22386590D01*
X106372419Y-22386590D02*
X106420038Y-22291352D01*
X106420038Y-22291352D02*
X106467657Y-22243733D01*
X106467657Y-22243733D02*
X106562895Y-22196114D01*
X106562895Y-22196114D02*
X106610514Y-22196114D01*
X106610514Y-22196114D02*
X106705752Y-22243733D01*
X106705752Y-22243733D02*
X106753371Y-22291352D01*
X106753371Y-22291352D02*
X106800990Y-22386590D01*
X106800990Y-22386590D02*
X106800990Y-22577066D01*
X106800990Y-22577066D02*
X106848609Y-22672304D01*
X106848609Y-22672304D02*
X106896228Y-22719923D01*
X106896228Y-22719923D02*
X106991466Y-22767542D01*
X106991466Y-22767542D02*
X107181942Y-22767542D01*
X107181942Y-22767542D02*
X107277180Y-22719923D01*
X107277180Y-22719923D02*
X107324800Y-22672304D01*
X107324800Y-22672304D02*
X107372419Y-22577066D01*
X107372419Y-22577066D02*
X107372419Y-22386590D01*
X107372419Y-22386590D02*
X107324800Y-22291352D01*
X107324800Y-22291352D02*
X107277180Y-22243733D01*
X107277180Y-22243733D02*
X107181942Y-22196114D01*
X107181942Y-22196114D02*
X106991466Y-22196114D01*
X106991466Y-22196114D02*
X106896228Y-22243733D01*
X106896228Y-22243733D02*
X106848609Y-22291352D01*
X106848609Y-22291352D02*
X106800990Y-22386590D01*
X106372419Y-21577066D02*
X106372419Y-21481828D01*
X106372419Y-21481828D02*
X106420038Y-21386590D01*
X106420038Y-21386590D02*
X106467657Y-21338971D01*
X106467657Y-21338971D02*
X106562895Y-21291352D01*
X106562895Y-21291352D02*
X106753371Y-21243733D01*
X106753371Y-21243733D02*
X106991466Y-21243733D01*
X106991466Y-21243733D02*
X107181942Y-21291352D01*
X107181942Y-21291352D02*
X107277180Y-21338971D01*
X107277180Y-21338971D02*
X107324800Y-21386590D01*
X107324800Y-21386590D02*
X107372419Y-21481828D01*
X107372419Y-21481828D02*
X107372419Y-21577066D01*
X107372419Y-21577066D02*
X107324800Y-21672304D01*
X107324800Y-21672304D02*
X107277180Y-21719923D01*
X107277180Y-21719923D02*
X107181942Y-21767542D01*
X107181942Y-21767542D02*
X106991466Y-21815161D01*
X106991466Y-21815161D02*
X106753371Y-21815161D01*
X106753371Y-21815161D02*
X106562895Y-21767542D01*
X106562895Y-21767542D02*
X106467657Y-21719923D01*
X106467657Y-21719923D02*
X106420038Y-21672304D01*
X106420038Y-21672304D02*
X106372419Y-21577066D01*
X107372419Y-19481828D02*
X106896228Y-19815161D01*
X107372419Y-20053256D02*
X106372419Y-20053256D01*
X106372419Y-20053256D02*
X106372419Y-19672304D01*
X106372419Y-19672304D02*
X106420038Y-19577066D01*
X106420038Y-19577066D02*
X106467657Y-19529447D01*
X106467657Y-19529447D02*
X106562895Y-19481828D01*
X106562895Y-19481828D02*
X106705752Y-19481828D01*
X106705752Y-19481828D02*
X106800990Y-19529447D01*
X106800990Y-19529447D02*
X106848609Y-19577066D01*
X106848609Y-19577066D02*
X106896228Y-19672304D01*
X106896228Y-19672304D02*
X106896228Y-20053256D01*
X107324800Y-18672304D02*
X107372419Y-18767542D01*
X107372419Y-18767542D02*
X107372419Y-18958018D01*
X107372419Y-18958018D02*
X107324800Y-19053256D01*
X107324800Y-19053256D02*
X107229561Y-19100875D01*
X107229561Y-19100875D02*
X106848609Y-19100875D01*
X106848609Y-19100875D02*
X106753371Y-19053256D01*
X106753371Y-19053256D02*
X106705752Y-18958018D01*
X106705752Y-18958018D02*
X106705752Y-18767542D01*
X106705752Y-18767542D02*
X106753371Y-18672304D01*
X106753371Y-18672304D02*
X106848609Y-18624685D01*
X106848609Y-18624685D02*
X106943847Y-18624685D01*
X106943847Y-18624685D02*
X107039085Y-19100875D01*
X106705752Y-18338970D02*
X106705752Y-17958018D01*
X106372419Y-18196113D02*
X107229561Y-18196113D01*
X107229561Y-18196113D02*
X107324800Y-18148494D01*
X107324800Y-18148494D02*
X107372419Y-18053256D01*
X107372419Y-18053256D02*
X107372419Y-17958018D01*
X107372419Y-17624684D02*
X106705752Y-17624684D01*
X106896228Y-17624684D02*
X106800990Y-17577065D01*
X106800990Y-17577065D02*
X106753371Y-17529446D01*
X106753371Y-17529446D02*
X106705752Y-17434208D01*
X106705752Y-17434208D02*
X106705752Y-17338970D01*
X107372419Y-16862779D02*
X107324800Y-16958017D01*
X107324800Y-16958017D02*
X107277180Y-17005636D01*
X107277180Y-17005636D02*
X107181942Y-17053255D01*
X107181942Y-17053255D02*
X106896228Y-17053255D01*
X106896228Y-17053255D02*
X106800990Y-17005636D01*
X106800990Y-17005636D02*
X106753371Y-16958017D01*
X106753371Y-16958017D02*
X106705752Y-16862779D01*
X106705752Y-16862779D02*
X106705752Y-16719922D01*
X106705752Y-16719922D02*
X106753371Y-16624684D01*
X106753371Y-16624684D02*
X106800990Y-16577065D01*
X106800990Y-16577065D02*
X106896228Y-16529446D01*
X106896228Y-16529446D02*
X107181942Y-16529446D01*
X107181942Y-16529446D02*
X107277180Y-16577065D01*
X107277180Y-16577065D02*
X107324800Y-16624684D01*
X107324800Y-16624684D02*
X107372419Y-16719922D01*
X107372419Y-16719922D02*
X107372419Y-16862779D01*
X107277180Y-16100874D02*
X107324800Y-16053255D01*
X107324800Y-16053255D02*
X107372419Y-16100874D01*
X107372419Y-16100874D02*
X107324800Y-16148493D01*
X107324800Y-16148493D02*
X107277180Y-16100874D01*
X107277180Y-16100874D02*
X107372419Y-16100874D01*
X106991466Y-16100874D02*
X106420038Y-16148493D01*
X106420038Y-16148493D02*
X106372419Y-16100874D01*
X106372419Y-16100874D02*
X106420038Y-16053255D01*
X106420038Y-16053255D02*
X106991466Y-16100874D01*
X106991466Y-16100874D02*
X106372419Y-16100874D01*
X107372419Y-14862779D02*
X106705752Y-14862779D01*
X106372419Y-14862779D02*
X106420038Y-14910398D01*
X106420038Y-14910398D02*
X106467657Y-14862779D01*
X106467657Y-14862779D02*
X106420038Y-14815160D01*
X106420038Y-14815160D02*
X106372419Y-14862779D01*
X106372419Y-14862779D02*
X106467657Y-14862779D01*
X106705752Y-14386589D02*
X107372419Y-14386589D01*
X106800990Y-14386589D02*
X106753371Y-14338970D01*
X106753371Y-14338970D02*
X106705752Y-14243732D01*
X106705752Y-14243732D02*
X106705752Y-14100875D01*
X106705752Y-14100875D02*
X106753371Y-14005637D01*
X106753371Y-14005637D02*
X106848609Y-13958018D01*
X106848609Y-13958018D02*
X107372419Y-13958018D01*
X106991466Y-13481827D02*
X106991466Y-12719923D01*
X107324800Y-12291351D02*
X107372419Y-12196113D01*
X107372419Y-12196113D02*
X107372419Y-12005637D01*
X107372419Y-12005637D02*
X107324800Y-11910399D01*
X107324800Y-11910399D02*
X107229561Y-11862780D01*
X107229561Y-11862780D02*
X107181942Y-11862780D01*
X107181942Y-11862780D02*
X107086704Y-11910399D01*
X107086704Y-11910399D02*
X107039085Y-12005637D01*
X107039085Y-12005637D02*
X107039085Y-12148494D01*
X107039085Y-12148494D02*
X106991466Y-12243732D01*
X106991466Y-12243732D02*
X106896228Y-12291351D01*
X106896228Y-12291351D02*
X106848609Y-12291351D01*
X106848609Y-12291351D02*
X106753371Y-12243732D01*
X106753371Y-12243732D02*
X106705752Y-12148494D01*
X106705752Y-12148494D02*
X106705752Y-12005637D01*
X106705752Y-12005637D02*
X106753371Y-11910399D01*
X106705752Y-11529446D02*
X107372419Y-11291351D01*
X106705752Y-11053256D02*
X107372419Y-11291351D01*
X107372419Y-11291351D02*
X107610514Y-11386589D01*
X107610514Y-11386589D02*
X107658133Y-11434208D01*
X107658133Y-11434208D02*
X107705752Y-11529446D01*
X107324800Y-10719922D02*
X107372419Y-10624684D01*
X107372419Y-10624684D02*
X107372419Y-10434208D01*
X107372419Y-10434208D02*
X107324800Y-10338970D01*
X107324800Y-10338970D02*
X107229561Y-10291351D01*
X107229561Y-10291351D02*
X107181942Y-10291351D01*
X107181942Y-10291351D02*
X107086704Y-10338970D01*
X107086704Y-10338970D02*
X107039085Y-10434208D01*
X107039085Y-10434208D02*
X107039085Y-10577065D01*
X107039085Y-10577065D02*
X106991466Y-10672303D01*
X106991466Y-10672303D02*
X106896228Y-10719922D01*
X106896228Y-10719922D02*
X106848609Y-10719922D01*
X106848609Y-10719922D02*
X106753371Y-10672303D01*
X106753371Y-10672303D02*
X106705752Y-10577065D01*
X106705752Y-10577065D02*
X106705752Y-10434208D01*
X106705752Y-10434208D02*
X106753371Y-10338970D01*
X106705752Y-10005636D02*
X106705752Y-9624684D01*
X106372419Y-9862779D02*
X107229561Y-9862779D01*
X107229561Y-9862779D02*
X107324800Y-9815160D01*
X107324800Y-9815160D02*
X107372419Y-9719922D01*
X107372419Y-9719922D02*
X107372419Y-9624684D01*
X107324800Y-8910398D02*
X107372419Y-9005636D01*
X107372419Y-9005636D02*
X107372419Y-9196112D01*
X107372419Y-9196112D02*
X107324800Y-9291350D01*
X107324800Y-9291350D02*
X107229561Y-9338969D01*
X107229561Y-9338969D02*
X106848609Y-9338969D01*
X106848609Y-9338969D02*
X106753371Y-9291350D01*
X106753371Y-9291350D02*
X106705752Y-9196112D01*
X106705752Y-9196112D02*
X106705752Y-9005636D01*
X106705752Y-9005636D02*
X106753371Y-8910398D01*
X106753371Y-8910398D02*
X106848609Y-8862779D01*
X106848609Y-8862779D02*
X106943847Y-8862779D01*
X106943847Y-8862779D02*
X107039085Y-9338969D01*
X107372419Y-8434207D02*
X106705752Y-8434207D01*
X106800990Y-8434207D02*
X106753371Y-8386588D01*
X106753371Y-8386588D02*
X106705752Y-8291350D01*
X106705752Y-8291350D02*
X106705752Y-8148493D01*
X106705752Y-8148493D02*
X106753371Y-8053255D01*
X106753371Y-8053255D02*
X106848609Y-8005636D01*
X106848609Y-8005636D02*
X107372419Y-8005636D01*
X106848609Y-8005636D02*
X106753371Y-7958017D01*
X106753371Y-7958017D02*
X106705752Y-7862779D01*
X106705752Y-7862779D02*
X106705752Y-7719922D01*
X106705752Y-7719922D02*
X106753371Y-7624683D01*
X106753371Y-7624683D02*
X106848609Y-7577064D01*
X106848609Y-7577064D02*
X107372419Y-7577064D01*
X107372419Y-5767541D02*
X106896228Y-6100874D01*
X107372419Y-6338969D02*
X106372419Y-6338969D01*
X106372419Y-6338969D02*
X106372419Y-5958017D01*
X106372419Y-5958017D02*
X106420038Y-5862779D01*
X106420038Y-5862779D02*
X106467657Y-5815160D01*
X106467657Y-5815160D02*
X106562895Y-5767541D01*
X106562895Y-5767541D02*
X106705752Y-5767541D01*
X106705752Y-5767541D02*
X106800990Y-5815160D01*
X106800990Y-5815160D02*
X106848609Y-5862779D01*
X106848609Y-5862779D02*
X106896228Y-5958017D01*
X106896228Y-5958017D02*
X106896228Y-6338969D01*
X106372419Y-5148493D02*
X106372419Y-4958017D01*
X106372419Y-4958017D02*
X106420038Y-4862779D01*
X106420038Y-4862779D02*
X106515276Y-4767541D01*
X106515276Y-4767541D02*
X106705752Y-4719922D01*
X106705752Y-4719922D02*
X107039085Y-4719922D01*
X107039085Y-4719922D02*
X107229561Y-4767541D01*
X107229561Y-4767541D02*
X107324800Y-4862779D01*
X107324800Y-4862779D02*
X107372419Y-4958017D01*
X107372419Y-4958017D02*
X107372419Y-5148493D01*
X107372419Y-5148493D02*
X107324800Y-5243731D01*
X107324800Y-5243731D02*
X107229561Y-5338969D01*
X107229561Y-5338969D02*
X107039085Y-5386588D01*
X107039085Y-5386588D02*
X106705752Y-5386588D01*
X106705752Y-5386588D02*
X106515276Y-5338969D01*
X106515276Y-5338969D02*
X106420038Y-5243731D01*
X106420038Y-5243731D02*
X106372419Y-5148493D01*
X107372419Y-4291350D02*
X106372419Y-4291350D01*
X106372419Y-4291350D02*
X107086704Y-3958017D01*
X107086704Y-3958017D02*
X106372419Y-3624684D01*
X106372419Y-3624684D02*
X107372419Y-3624684D01*
X106705752Y-2386588D02*
X107705752Y-2386588D01*
X106753371Y-2386588D02*
X106705752Y-2291350D01*
X106705752Y-2291350D02*
X106705752Y-2100874D01*
X106705752Y-2100874D02*
X106753371Y-2005636D01*
X106753371Y-2005636D02*
X106800990Y-1958017D01*
X106800990Y-1958017D02*
X106896228Y-1910398D01*
X106896228Y-1910398D02*
X107181942Y-1910398D01*
X107181942Y-1910398D02*
X107277180Y-1958017D01*
X107277180Y-1958017D02*
X107324800Y-2005636D01*
X107324800Y-2005636D02*
X107372419Y-2100874D01*
X107372419Y-2100874D02*
X107372419Y-2291350D01*
X107372419Y-2291350D02*
X107324800Y-2386588D01*
X107372419Y-1481826D02*
X106705752Y-1481826D01*
X106896228Y-1481826D02*
X106800990Y-1434207D01*
X106800990Y-1434207D02*
X106753371Y-1386588D01*
X106753371Y-1386588D02*
X106705752Y-1291350D01*
X106705752Y-1291350D02*
X106705752Y-1196112D01*
X107372419Y-719921D02*
X107324800Y-815159D01*
X107324800Y-815159D02*
X107277180Y-862778D01*
X107277180Y-862778D02*
X107181942Y-910397D01*
X107181942Y-910397D02*
X106896228Y-910397D01*
X106896228Y-910397D02*
X106800990Y-862778D01*
X106800990Y-862778D02*
X106753371Y-815159D01*
X106753371Y-815159D02*
X106705752Y-719921D01*
X106705752Y-719921D02*
X106705752Y-577064D01*
X106705752Y-577064D02*
X106753371Y-481826D01*
X106753371Y-481826D02*
X106800990Y-434207D01*
X106800990Y-434207D02*
X106896228Y-386588D01*
X106896228Y-386588D02*
X107181942Y-386588D01*
X107181942Y-386588D02*
X107277180Y-434207D01*
X107277180Y-434207D02*
X107324800Y-481826D01*
X107324800Y-481826D02*
X107372419Y-577064D01*
X107372419Y-577064D02*
X107372419Y-719921D01*
X106705752Y470554D02*
X107515276Y470554D01*
X107515276Y470554D02*
X107610514Y422935D01*
X107610514Y422935D02*
X107658133Y375316D01*
X107658133Y375316D02*
X107705752Y280078D01*
X107705752Y280078D02*
X107705752Y137221D01*
X107705752Y137221D02*
X107658133Y41983D01*
X107324800Y470554D02*
X107372419Y375316D01*
X107372419Y375316D02*
X107372419Y184840D01*
X107372419Y184840D02*
X107324800Y89602D01*
X107324800Y89602D02*
X107277180Y41983D01*
X107277180Y41983D02*
X107181942Y-5635D01*
X107181942Y-5635D02*
X106896228Y-5635D01*
X106896228Y-5635D02*
X106800990Y41983D01*
X106800990Y41983D02*
X106753371Y89602D01*
X106753371Y89602D02*
X106705752Y184840D01*
X106705752Y184840D02*
X106705752Y375316D01*
X106705752Y375316D02*
X106753371Y470554D01*
X107372419Y2137221D02*
X106848609Y2137221D01*
X106848609Y2137221D02*
X106753371Y2089602D01*
X106753371Y2089602D02*
X106705752Y1994364D01*
X106705752Y1994364D02*
X106705752Y1803888D01*
X106705752Y1803888D02*
X106753371Y1708650D01*
X107324800Y2137221D02*
X107372419Y2041983D01*
X107372419Y2041983D02*
X107372419Y1803888D01*
X107372419Y1803888D02*
X107324800Y1708650D01*
X107324800Y1708650D02*
X107229561Y1661031D01*
X107229561Y1661031D02*
X107134323Y1661031D01*
X107134323Y1661031D02*
X107039085Y1708650D01*
X107039085Y1708650D02*
X106991466Y1803888D01*
X106991466Y1803888D02*
X106991466Y2041983D01*
X106991466Y2041983D02*
X106943847Y2137221D01*
X107372419Y3041983D02*
X106372419Y3041983D01*
X107324800Y3041983D02*
X107372419Y2946745D01*
X107372419Y2946745D02*
X107372419Y2756269D01*
X107372419Y2756269D02*
X107324800Y2661031D01*
X107324800Y2661031D02*
X107277180Y2613412D01*
X107277180Y2613412D02*
X107181942Y2565793D01*
X107181942Y2565793D02*
X106896228Y2565793D01*
X106896228Y2565793D02*
X106800990Y2613412D01*
X106800990Y2613412D02*
X106753371Y2661031D01*
X106753371Y2661031D02*
X106705752Y2756269D01*
X106705752Y2756269D02*
X106705752Y2946745D01*
X106705752Y2946745D02*
X106753371Y3041983D01*
X107372419Y3946745D02*
X106848609Y3946745D01*
X106848609Y3946745D02*
X106753371Y3899126D01*
X106753371Y3899126D02*
X106705752Y3803888D01*
X106705752Y3803888D02*
X106705752Y3613412D01*
X106705752Y3613412D02*
X106753371Y3518174D01*
X107324800Y3946745D02*
X107372419Y3851507D01*
X107372419Y3851507D02*
X107372419Y3613412D01*
X107372419Y3613412D02*
X107324800Y3518174D01*
X107324800Y3518174D02*
X107229561Y3470555D01*
X107229561Y3470555D02*
X107134323Y3470555D01*
X107134323Y3470555D02*
X107039085Y3518174D01*
X107039085Y3518174D02*
X106991466Y3613412D01*
X106991466Y3613412D02*
X106991466Y3851507D01*
X106991466Y3851507D02*
X106943847Y3946745D01*
X106705752Y4422936D02*
X107705752Y4422936D01*
X106753371Y4422936D02*
X106705752Y4518174D01*
X106705752Y4518174D02*
X106705752Y4708650D01*
X106705752Y4708650D02*
X106753371Y4803888D01*
X106753371Y4803888D02*
X106800990Y4851507D01*
X106800990Y4851507D02*
X106896228Y4899126D01*
X106896228Y4899126D02*
X107181942Y4899126D01*
X107181942Y4899126D02*
X107277180Y4851507D01*
X107277180Y4851507D02*
X107324800Y4803888D01*
X107324800Y4803888D02*
X107372419Y4708650D01*
X107372419Y4708650D02*
X107372419Y4518174D01*
X107372419Y4518174D02*
X107324800Y4422936D01*
X106705752Y5184841D02*
X106705752Y5565793D01*
X106372419Y5327698D02*
X107229561Y5327698D01*
X107229561Y5327698D02*
X107324800Y5375317D01*
X107324800Y5375317D02*
X107372419Y5470555D01*
X107372419Y5470555D02*
X107372419Y5565793D01*
X107324800Y6280079D02*
X107372419Y6184841D01*
X107372419Y6184841D02*
X107372419Y5994365D01*
X107372419Y5994365D02*
X107324800Y5899127D01*
X107324800Y5899127D02*
X107229561Y5851508D01*
X107229561Y5851508D02*
X106848609Y5851508D01*
X106848609Y5851508D02*
X106753371Y5899127D01*
X106753371Y5899127D02*
X106705752Y5994365D01*
X106705752Y5994365D02*
X106705752Y6184841D01*
X106705752Y6184841D02*
X106753371Y6280079D01*
X106753371Y6280079D02*
X106848609Y6327698D01*
X106848609Y6327698D02*
X106943847Y6327698D01*
X106943847Y6327698D02*
X107039085Y5851508D01*
X107372419Y6756270D02*
X106705752Y6756270D01*
X106896228Y6756270D02*
X106800990Y6803889D01*
X106800990Y6803889D02*
X106753371Y6851508D01*
X106753371Y6851508D02*
X106705752Y6946746D01*
X106705752Y6946746D02*
X106705752Y7041984D01*
X107277180Y7375318D02*
X107324800Y7422937D01*
X107324800Y7422937D02*
X107372419Y7375318D01*
X107372419Y7375318D02*
X107324800Y7327699D01*
X107324800Y7327699D02*
X107277180Y7375318D01*
X107277180Y7375318D02*
X107372419Y7375318D01*
X106372419Y9232461D02*
X107372419Y9565794D01*
X107372419Y9565794D02*
X106372419Y9899127D01*
X107372419Y10756270D02*
X107372419Y10184842D01*
X107372419Y10470556D02*
X106372419Y10470556D01*
X106372419Y10470556D02*
X106515276Y10375318D01*
X106515276Y10375318D02*
X106610514Y10280080D01*
X106610514Y10280080D02*
X106658133Y10184842D01*
X107277180Y11184842D02*
X107324800Y11232461D01*
X107324800Y11232461D02*
X107372419Y11184842D01*
X107372419Y11184842D02*
X107324800Y11137223D01*
X107324800Y11137223D02*
X107277180Y11184842D01*
X107277180Y11184842D02*
X107372419Y11184842D01*
X107372419Y12184841D02*
X107372419Y11613413D01*
X107372419Y11899127D02*
X106372419Y11899127D01*
X106372419Y11899127D02*
X106515276Y11803889D01*
X106515276Y11803889D02*
X106610514Y11708651D01*
X106610514Y11708651D02*
X106658133Y11613413D01*
X124122419Y-34696115D02*
X123122419Y-34696115D01*
X123122419Y-34029449D02*
X123122419Y-33838973D01*
X123122419Y-33838973D02*
X123170038Y-33743735D01*
X123170038Y-33743735D02*
X123265276Y-33648497D01*
X123265276Y-33648497D02*
X123455752Y-33600878D01*
X123455752Y-33600878D02*
X123789085Y-33600878D01*
X123789085Y-33600878D02*
X123979561Y-33648497D01*
X123979561Y-33648497D02*
X124074800Y-33743735D01*
X124074800Y-33743735D02*
X124122419Y-33838973D01*
X124122419Y-33838973D02*
X124122419Y-34029449D01*
X124122419Y-34029449D02*
X124074800Y-34124687D01*
X124074800Y-34124687D02*
X123979561Y-34219925D01*
X123979561Y-34219925D02*
X123789085Y-34267544D01*
X123789085Y-34267544D02*
X123455752Y-34267544D01*
X123455752Y-34267544D02*
X123265276Y-34219925D01*
X123265276Y-34219925D02*
X123170038Y-34124687D01*
X123170038Y-34124687D02*
X123122419Y-34029449D01*
X124122419Y-32600878D02*
X123646228Y-32934211D01*
X124122419Y-33172306D02*
X123122419Y-33172306D01*
X123122419Y-33172306D02*
X123122419Y-32791354D01*
X123122419Y-32791354D02*
X123170038Y-32696116D01*
X123170038Y-32696116D02*
X123217657Y-32648497D01*
X123217657Y-32648497D02*
X123312895Y-32600878D01*
X123312895Y-32600878D02*
X123455752Y-32600878D01*
X123455752Y-32600878D02*
X123550990Y-32648497D01*
X123550990Y-32648497D02*
X123598609Y-32696116D01*
X123598609Y-32696116D02*
X123646228Y-32791354D01*
X123646228Y-32791354D02*
X123646228Y-33172306D01*
X124217657Y-31505640D02*
X124170038Y-31600878D01*
X124170038Y-31600878D02*
X124074800Y-31696116D01*
X124074800Y-31696116D02*
X123931942Y-31838973D01*
X123931942Y-31838973D02*
X123884323Y-31934211D01*
X123884323Y-31934211D02*
X123884323Y-32029449D01*
X124122419Y-31981830D02*
X124074800Y-32077068D01*
X124074800Y-32077068D02*
X123979561Y-32172306D01*
X123979561Y-32172306D02*
X123789085Y-32219925D01*
X123789085Y-32219925D02*
X123455752Y-32219925D01*
X123455752Y-32219925D02*
X123265276Y-32172306D01*
X123265276Y-32172306D02*
X123170038Y-32077068D01*
X123170038Y-32077068D02*
X123122419Y-31981830D01*
X123122419Y-31981830D02*
X123122419Y-31791354D01*
X123122419Y-31791354D02*
X123170038Y-31696116D01*
X123170038Y-31696116D02*
X123265276Y-31600878D01*
X123265276Y-31600878D02*
X123455752Y-31553259D01*
X123455752Y-31553259D02*
X123789085Y-31553259D01*
X123789085Y-31553259D02*
X123979561Y-31600878D01*
X123979561Y-31600878D02*
X124074800Y-31696116D01*
X124074800Y-31696116D02*
X124122419Y-31791354D01*
X124122419Y-31791354D02*
X124122419Y-31981830D01*
X122844800Y-34834211D02*
X122844800Y-31462783D01*
X121372419Y-24124687D02*
X120896228Y-24458020D01*
X121372419Y-24696115D02*
X120372419Y-24696115D01*
X120372419Y-24696115D02*
X120372419Y-24315163D01*
X120372419Y-24315163D02*
X120420038Y-24219925D01*
X120420038Y-24219925D02*
X120467657Y-24172306D01*
X120467657Y-24172306D02*
X120562895Y-24124687D01*
X120562895Y-24124687D02*
X120705752Y-24124687D01*
X120705752Y-24124687D02*
X120800990Y-24172306D01*
X120800990Y-24172306D02*
X120848609Y-24219925D01*
X120848609Y-24219925D02*
X120896228Y-24315163D01*
X120896228Y-24315163D02*
X120896228Y-24696115D01*
X120848609Y-23696115D02*
X120848609Y-23362782D01*
X121372419Y-23219925D02*
X121372419Y-23696115D01*
X121372419Y-23696115D02*
X120372419Y-23696115D01*
X120372419Y-23696115D02*
X120372419Y-23219925D01*
X121324800Y-22838972D02*
X121372419Y-22696115D01*
X121372419Y-22696115D02*
X121372419Y-22458020D01*
X121372419Y-22458020D02*
X121324800Y-22362782D01*
X121324800Y-22362782D02*
X121277180Y-22315163D01*
X121277180Y-22315163D02*
X121181942Y-22267544D01*
X121181942Y-22267544D02*
X121086704Y-22267544D01*
X121086704Y-22267544D02*
X120991466Y-22315163D01*
X120991466Y-22315163D02*
X120943847Y-22362782D01*
X120943847Y-22362782D02*
X120896228Y-22458020D01*
X120896228Y-22458020D02*
X120848609Y-22648496D01*
X120848609Y-22648496D02*
X120800990Y-22743734D01*
X120800990Y-22743734D02*
X120753371Y-22791353D01*
X120753371Y-22791353D02*
X120658133Y-22838972D01*
X120658133Y-22838972D02*
X120562895Y-22838972D01*
X120562895Y-22838972D02*
X120467657Y-22791353D01*
X120467657Y-22791353D02*
X120420038Y-22743734D01*
X120420038Y-22743734D02*
X120372419Y-22648496D01*
X120372419Y-22648496D02*
X120372419Y-22410401D01*
X120372419Y-22410401D02*
X120420038Y-22267544D01*
X120848609Y-21838972D02*
X120848609Y-21505639D01*
X121372419Y-21362782D02*
X121372419Y-21838972D01*
X121372419Y-21838972D02*
X120372419Y-21838972D01*
X120372419Y-21838972D02*
X120372419Y-21362782D01*
X120372419Y-21077067D02*
X120372419Y-20505639D01*
X121372419Y-20791353D02*
X120372419Y-20791353D01*
X120094800Y-24834211D02*
X120094800Y-20510401D01*
X121372419Y-18981829D02*
X120848609Y-18981829D01*
X120848609Y-18981829D02*
X120753371Y-19029448D01*
X120753371Y-19029448D02*
X120705752Y-19124686D01*
X120705752Y-19124686D02*
X120705752Y-19315162D01*
X120705752Y-19315162D02*
X120753371Y-19410400D01*
X121324800Y-18981829D02*
X121372419Y-19077067D01*
X121372419Y-19077067D02*
X121372419Y-19315162D01*
X121372419Y-19315162D02*
X121324800Y-19410400D01*
X121324800Y-19410400D02*
X121229561Y-19458019D01*
X121229561Y-19458019D02*
X121134323Y-19458019D01*
X121134323Y-19458019D02*
X121039085Y-19410400D01*
X121039085Y-19410400D02*
X120991466Y-19315162D01*
X120991466Y-19315162D02*
X120991466Y-19077067D01*
X120991466Y-19077067D02*
X120943847Y-18981829D01*
X120705752Y-18505638D02*
X121372419Y-18505638D01*
X120800990Y-18505638D02*
X120753371Y-18458019D01*
X120753371Y-18458019D02*
X120705752Y-18362781D01*
X120705752Y-18362781D02*
X120705752Y-18219924D01*
X120705752Y-18219924D02*
X120753371Y-18124686D01*
X120753371Y-18124686D02*
X120848609Y-18077067D01*
X120848609Y-18077067D02*
X121372419Y-18077067D01*
X121372419Y-17172305D02*
X120372419Y-17172305D01*
X121324800Y-17172305D02*
X121372419Y-17267543D01*
X121372419Y-17267543D02*
X121372419Y-17458019D01*
X121372419Y-17458019D02*
X121324800Y-17553257D01*
X121324800Y-17553257D02*
X121277180Y-17600876D01*
X121277180Y-17600876D02*
X121181942Y-17648495D01*
X121181942Y-17648495D02*
X120896228Y-17648495D01*
X120896228Y-17648495D02*
X120800990Y-17600876D01*
X120800990Y-17600876D02*
X120753371Y-17553257D01*
X120753371Y-17553257D02*
X120705752Y-17458019D01*
X120705752Y-17458019D02*
X120705752Y-17267543D01*
X120705752Y-17267543D02*
X120753371Y-17172305D01*
X120848609Y-15600876D02*
X120896228Y-15458019D01*
X120896228Y-15458019D02*
X120943847Y-15410400D01*
X120943847Y-15410400D02*
X121039085Y-15362781D01*
X121039085Y-15362781D02*
X121181942Y-15362781D01*
X121181942Y-15362781D02*
X121277180Y-15410400D01*
X121277180Y-15410400D02*
X121324800Y-15458019D01*
X121324800Y-15458019D02*
X121372419Y-15553257D01*
X121372419Y-15553257D02*
X121372419Y-15934209D01*
X121372419Y-15934209D02*
X120372419Y-15934209D01*
X120372419Y-15934209D02*
X120372419Y-15600876D01*
X120372419Y-15600876D02*
X120420038Y-15505638D01*
X120420038Y-15505638D02*
X120467657Y-15458019D01*
X120467657Y-15458019D02*
X120562895Y-15410400D01*
X120562895Y-15410400D02*
X120658133Y-15410400D01*
X120658133Y-15410400D02*
X120753371Y-15458019D01*
X120753371Y-15458019D02*
X120800990Y-15505638D01*
X120800990Y-15505638D02*
X120848609Y-15600876D01*
X120848609Y-15600876D02*
X120848609Y-15934209D01*
X120372419Y-14934209D02*
X121181942Y-14934209D01*
X121181942Y-14934209D02*
X121277180Y-14886590D01*
X121277180Y-14886590D02*
X121324800Y-14838971D01*
X121324800Y-14838971D02*
X121372419Y-14743733D01*
X121372419Y-14743733D02*
X121372419Y-14553257D01*
X121372419Y-14553257D02*
X121324800Y-14458019D01*
X121324800Y-14458019D02*
X121277180Y-14410400D01*
X121277180Y-14410400D02*
X121181942Y-14362781D01*
X121181942Y-14362781D02*
X120372419Y-14362781D01*
X121324800Y-13934209D02*
X121372419Y-13791352D01*
X121372419Y-13791352D02*
X121372419Y-13553257D01*
X121372419Y-13553257D02*
X121324800Y-13458019D01*
X121324800Y-13458019D02*
X121277180Y-13410400D01*
X121277180Y-13410400D02*
X121181942Y-13362781D01*
X121181942Y-13362781D02*
X121086704Y-13362781D01*
X121086704Y-13362781D02*
X120991466Y-13410400D01*
X120991466Y-13410400D02*
X120943847Y-13458019D01*
X120943847Y-13458019D02*
X120896228Y-13553257D01*
X120896228Y-13553257D02*
X120848609Y-13743733D01*
X120848609Y-13743733D02*
X120800990Y-13838971D01*
X120800990Y-13838971D02*
X120753371Y-13886590D01*
X120753371Y-13886590D02*
X120658133Y-13934209D01*
X120658133Y-13934209D02*
X120562895Y-13934209D01*
X120562895Y-13934209D02*
X120467657Y-13886590D01*
X120467657Y-13886590D02*
X120420038Y-13838971D01*
X120420038Y-13838971D02*
X120372419Y-13743733D01*
X120372419Y-13743733D02*
X120372419Y-13505638D01*
X120372419Y-13505638D02*
X120420038Y-13362781D01*
X121372419Y-12362781D02*
X120896228Y-12696114D01*
X121372419Y-12934209D02*
X120372419Y-12934209D01*
X120372419Y-12934209D02*
X120372419Y-12553257D01*
X120372419Y-12553257D02*
X120420038Y-12458019D01*
X120420038Y-12458019D02*
X120467657Y-12410400D01*
X120467657Y-12410400D02*
X120562895Y-12362781D01*
X120562895Y-12362781D02*
X120705752Y-12362781D01*
X120705752Y-12362781D02*
X120800990Y-12410400D01*
X120800990Y-12410400D02*
X120848609Y-12458019D01*
X120848609Y-12458019D02*
X120896228Y-12553257D01*
X120896228Y-12553257D02*
X120896228Y-12934209D01*
X121467657Y-11267543D02*
X121420038Y-11362781D01*
X121420038Y-11362781D02*
X121324800Y-11458019D01*
X121324800Y-11458019D02*
X121181942Y-11600876D01*
X121181942Y-11600876D02*
X121134323Y-11696114D01*
X121134323Y-11696114D02*
X121134323Y-11791352D01*
X121372419Y-11743733D02*
X121324800Y-11838971D01*
X121324800Y-11838971D02*
X121229561Y-11934209D01*
X121229561Y-11934209D02*
X121039085Y-11981828D01*
X121039085Y-11981828D02*
X120705752Y-11981828D01*
X120705752Y-11981828D02*
X120515276Y-11934209D01*
X120515276Y-11934209D02*
X120420038Y-11838971D01*
X120420038Y-11838971D02*
X120372419Y-11743733D01*
X120372419Y-11743733D02*
X120372419Y-11553257D01*
X120372419Y-11553257D02*
X120420038Y-11458019D01*
X120420038Y-11458019D02*
X120515276Y-11362781D01*
X120515276Y-11362781D02*
X120705752Y-11315162D01*
X120705752Y-11315162D02*
X121039085Y-11315162D01*
X121039085Y-11315162D02*
X121229561Y-11362781D01*
X121229561Y-11362781D02*
X121324800Y-11458019D01*
X121324800Y-11458019D02*
X121372419Y-11553257D01*
X121372419Y-11553257D02*
X121372419Y-11743733D01*
X120094800Y-16072305D02*
X120094800Y-11224686D01*
X121372419Y-10124685D02*
X120705752Y-10124685D01*
X120800990Y-10124685D02*
X120753371Y-10077066D01*
X120753371Y-10077066D02*
X120705752Y-9981828D01*
X120705752Y-9981828D02*
X120705752Y-9838971D01*
X120705752Y-9838971D02*
X120753371Y-9743733D01*
X120753371Y-9743733D02*
X120848609Y-9696114D01*
X120848609Y-9696114D02*
X121372419Y-9696114D01*
X120848609Y-9696114D02*
X120753371Y-9648495D01*
X120753371Y-9648495D02*
X120705752Y-9553257D01*
X120705752Y-9553257D02*
X120705752Y-9410400D01*
X120705752Y-9410400D02*
X120753371Y-9315161D01*
X120753371Y-9315161D02*
X120848609Y-9267542D01*
X120848609Y-9267542D02*
X121372419Y-9267542D01*
X120705752Y-8362781D02*
X121372419Y-8362781D01*
X120705752Y-8791352D02*
X121229561Y-8791352D01*
X121229561Y-8791352D02*
X121324800Y-8743733D01*
X121324800Y-8743733D02*
X121372419Y-8648495D01*
X121372419Y-8648495D02*
X121372419Y-8505638D01*
X121372419Y-8505638D02*
X121324800Y-8410400D01*
X121324800Y-8410400D02*
X121277180Y-8362781D01*
X121324800Y-7934209D02*
X121372419Y-7838971D01*
X121372419Y-7838971D02*
X121372419Y-7648495D01*
X121372419Y-7648495D02*
X121324800Y-7553257D01*
X121324800Y-7553257D02*
X121229561Y-7505638D01*
X121229561Y-7505638D02*
X121181942Y-7505638D01*
X121181942Y-7505638D02*
X121086704Y-7553257D01*
X121086704Y-7553257D02*
X121039085Y-7648495D01*
X121039085Y-7648495D02*
X121039085Y-7791352D01*
X121039085Y-7791352D02*
X120991466Y-7886590D01*
X120991466Y-7886590D02*
X120896228Y-7934209D01*
X120896228Y-7934209D02*
X120848609Y-7934209D01*
X120848609Y-7934209D02*
X120753371Y-7886590D01*
X120753371Y-7886590D02*
X120705752Y-7791352D01*
X120705752Y-7791352D02*
X120705752Y-7648495D01*
X120705752Y-7648495D02*
X120753371Y-7553257D01*
X120705752Y-7219923D02*
X120705752Y-6838971D01*
X120372419Y-7077066D02*
X121229561Y-7077066D01*
X121229561Y-7077066D02*
X121324800Y-7029447D01*
X121324800Y-7029447D02*
X121372419Y-6934209D01*
X121372419Y-6934209D02*
X121372419Y-6838971D01*
X121372419Y-5743732D02*
X120372419Y-5743732D01*
X120753371Y-5743732D02*
X120705752Y-5648494D01*
X120705752Y-5648494D02*
X120705752Y-5458018D01*
X120705752Y-5458018D02*
X120753371Y-5362780D01*
X120753371Y-5362780D02*
X120800990Y-5315161D01*
X120800990Y-5315161D02*
X120896228Y-5267542D01*
X120896228Y-5267542D02*
X121181942Y-5267542D01*
X121181942Y-5267542D02*
X121277180Y-5315161D01*
X121277180Y-5315161D02*
X121324800Y-5362780D01*
X121324800Y-5362780D02*
X121372419Y-5458018D01*
X121372419Y-5458018D02*
X121372419Y-5648494D01*
X121372419Y-5648494D02*
X121324800Y-5743732D01*
X121324800Y-4458018D02*
X121372419Y-4553256D01*
X121372419Y-4553256D02*
X121372419Y-4743732D01*
X121372419Y-4743732D02*
X121324800Y-4838970D01*
X121324800Y-4838970D02*
X121229561Y-4886589D01*
X121229561Y-4886589D02*
X120848609Y-4886589D01*
X120848609Y-4886589D02*
X120753371Y-4838970D01*
X120753371Y-4838970D02*
X120705752Y-4743732D01*
X120705752Y-4743732D02*
X120705752Y-4553256D01*
X120705752Y-4553256D02*
X120753371Y-4458018D01*
X120753371Y-4458018D02*
X120848609Y-4410399D01*
X120848609Y-4410399D02*
X120943847Y-4410399D01*
X120943847Y-4410399D02*
X121039085Y-4886589D01*
X121324800Y-2791351D02*
X121372419Y-2886589D01*
X121372419Y-2886589D02*
X121372419Y-3077065D01*
X121372419Y-3077065D02*
X121324800Y-3172303D01*
X121324800Y-3172303D02*
X121277180Y-3219922D01*
X121277180Y-3219922D02*
X121181942Y-3267541D01*
X121181942Y-3267541D02*
X120896228Y-3267541D01*
X120896228Y-3267541D02*
X120800990Y-3219922D01*
X120800990Y-3219922D02*
X120753371Y-3172303D01*
X120753371Y-3172303D02*
X120705752Y-3077065D01*
X120705752Y-3077065D02*
X120705752Y-2886589D01*
X120705752Y-2886589D02*
X120753371Y-2791351D01*
X121372419Y-2219922D02*
X121324800Y-2315160D01*
X121324800Y-2315160D02*
X121277180Y-2362779D01*
X121277180Y-2362779D02*
X121181942Y-2410398D01*
X121181942Y-2410398D02*
X120896228Y-2410398D01*
X120896228Y-2410398D02*
X120800990Y-2362779D01*
X120800990Y-2362779D02*
X120753371Y-2315160D01*
X120753371Y-2315160D02*
X120705752Y-2219922D01*
X120705752Y-2219922D02*
X120705752Y-2077065D01*
X120705752Y-2077065D02*
X120753371Y-1981827D01*
X120753371Y-1981827D02*
X120800990Y-1934208D01*
X120800990Y-1934208D02*
X120896228Y-1886589D01*
X120896228Y-1886589D02*
X121181942Y-1886589D01*
X121181942Y-1886589D02*
X121277180Y-1934208D01*
X121277180Y-1934208D02*
X121324800Y-1981827D01*
X121324800Y-1981827D02*
X121372419Y-2077065D01*
X121372419Y-2077065D02*
X121372419Y-2219922D01*
X120705752Y-1458017D02*
X121372419Y-1458017D01*
X120800990Y-1458017D02*
X120753371Y-1410398D01*
X120753371Y-1410398D02*
X120705752Y-1315160D01*
X120705752Y-1315160D02*
X120705752Y-1172303D01*
X120705752Y-1172303D02*
X120753371Y-1077065D01*
X120753371Y-1077065D02*
X120848609Y-1029446D01*
X120848609Y-1029446D02*
X121372419Y-1029446D01*
X120705752Y-553255D02*
X121372419Y-553255D01*
X120800990Y-553255D02*
X120753371Y-505636D01*
X120753371Y-505636D02*
X120705752Y-410398D01*
X120705752Y-410398D02*
X120705752Y-267541D01*
X120705752Y-267541D02*
X120753371Y-172303D01*
X120753371Y-172303D02*
X120848609Y-124684D01*
X120848609Y-124684D02*
X121372419Y-124684D01*
X121324800Y732458D02*
X121372419Y637220D01*
X121372419Y637220D02*
X121372419Y446744D01*
X121372419Y446744D02*
X121324800Y351506D01*
X121324800Y351506D02*
X121229561Y303887D01*
X121229561Y303887D02*
X120848609Y303887D01*
X120848609Y303887D02*
X120753371Y351506D01*
X120753371Y351506D02*
X120705752Y446744D01*
X120705752Y446744D02*
X120705752Y637220D01*
X120705752Y637220D02*
X120753371Y732458D01*
X120753371Y732458D02*
X120848609Y780077D01*
X120848609Y780077D02*
X120943847Y780077D01*
X120943847Y780077D02*
X121039085Y303887D01*
X121324800Y1637220D02*
X121372419Y1541982D01*
X121372419Y1541982D02*
X121372419Y1351506D01*
X121372419Y1351506D02*
X121324800Y1256268D01*
X121324800Y1256268D02*
X121277180Y1208649D01*
X121277180Y1208649D02*
X121181942Y1161030D01*
X121181942Y1161030D02*
X120896228Y1161030D01*
X120896228Y1161030D02*
X120800990Y1208649D01*
X120800990Y1208649D02*
X120753371Y1256268D01*
X120753371Y1256268D02*
X120705752Y1351506D01*
X120705752Y1351506D02*
X120705752Y1541982D01*
X120705752Y1541982D02*
X120753371Y1637220D01*
X120705752Y1922935D02*
X120705752Y2303887D01*
X120372419Y2065792D02*
X121229561Y2065792D01*
X121229561Y2065792D02*
X121324800Y2113411D01*
X121324800Y2113411D02*
X121372419Y2208649D01*
X121372419Y2208649D02*
X121372419Y2303887D01*
X121324800Y3018173D02*
X121372419Y2922935D01*
X121372419Y2922935D02*
X121372419Y2732459D01*
X121372419Y2732459D02*
X121324800Y2637221D01*
X121324800Y2637221D02*
X121229561Y2589602D01*
X121229561Y2589602D02*
X120848609Y2589602D01*
X120848609Y2589602D02*
X120753371Y2637221D01*
X120753371Y2637221D02*
X120705752Y2732459D01*
X120705752Y2732459D02*
X120705752Y2922935D01*
X120705752Y2922935D02*
X120753371Y3018173D01*
X120753371Y3018173D02*
X120848609Y3065792D01*
X120848609Y3065792D02*
X120943847Y3065792D01*
X120943847Y3065792D02*
X121039085Y2589602D01*
X121372419Y3922935D02*
X120372419Y3922935D01*
X121324800Y3922935D02*
X121372419Y3827697D01*
X121372419Y3827697D02*
X121372419Y3637221D01*
X121372419Y3637221D02*
X121324800Y3541983D01*
X121324800Y3541983D02*
X121277180Y3494364D01*
X121277180Y3494364D02*
X121181942Y3446745D01*
X121181942Y3446745D02*
X120896228Y3446745D01*
X120896228Y3446745D02*
X120800990Y3494364D01*
X120800990Y3494364D02*
X120753371Y3541983D01*
X120753371Y3541983D02*
X120705752Y3637221D01*
X120705752Y3637221D02*
X120705752Y3827697D01*
X120705752Y3827697D02*
X120753371Y3922935D01*
X121277180Y4399126D02*
X121324800Y4446745D01*
X121324800Y4446745D02*
X121372419Y4399126D01*
X121372419Y4399126D02*
X121324800Y4351507D01*
X121324800Y4351507D02*
X121277180Y4399126D01*
X121277180Y4399126D02*
X121372419Y4399126D01*
X120991466Y4399126D02*
X120420038Y4351507D01*
X120420038Y4351507D02*
X120372419Y4399126D01*
X120372419Y4399126D02*
X120420038Y4446745D01*
X120420038Y4446745D02*
X120991466Y4399126D01*
X120991466Y4399126D02*
X120372419Y4399126D01*
X113872419Y-34696115D02*
X112872419Y-34696115D01*
X112872419Y-34696115D02*
X113586704Y-34362782D01*
X113586704Y-34362782D02*
X112872419Y-34029449D01*
X112872419Y-34029449D02*
X113872419Y-34029449D01*
X113872419Y-33029449D02*
X113872419Y-33600877D01*
X113872419Y-33315163D02*
X112872419Y-33315163D01*
X112872419Y-33315163D02*
X113015276Y-33410401D01*
X113015276Y-33410401D02*
X113110514Y-33505639D01*
X113110514Y-33505639D02*
X113158133Y-33600877D01*
X112594800Y-34834211D02*
X112594800Y-32938973D01*
D11*
X116367219Y-34058898D02*
X115891028Y-34392231D01*
X116367219Y-34630326D02*
X115367219Y-34630326D01*
X115367219Y-34630326D02*
X115367219Y-34249374D01*
X115367219Y-34249374D02*
X115414838Y-34154136D01*
X115414838Y-34154136D02*
X115462457Y-34106517D01*
X115462457Y-34106517D02*
X115557695Y-34058898D01*
X115557695Y-34058898D02*
X115700552Y-34058898D01*
X115700552Y-34058898D02*
X115795790Y-34106517D01*
X115795790Y-34106517D02*
X115843409Y-34154136D01*
X115843409Y-34154136D02*
X115891028Y-34249374D01*
X115891028Y-34249374D02*
X115891028Y-34630326D01*
X115843409Y-33630326D02*
X115843409Y-33296993D01*
X116367219Y-33154136D02*
X116367219Y-33630326D01*
X116367219Y-33630326D02*
X115367219Y-33630326D01*
X115367219Y-33630326D02*
X115367219Y-33154136D01*
X116319600Y-32773183D02*
X116367219Y-32630326D01*
X116367219Y-32630326D02*
X116367219Y-32392231D01*
X116367219Y-32392231D02*
X116319600Y-32296993D01*
X116319600Y-32296993D02*
X116271980Y-32249374D01*
X116271980Y-32249374D02*
X116176742Y-32201755D01*
X116176742Y-32201755D02*
X116081504Y-32201755D01*
X116081504Y-32201755D02*
X115986266Y-32249374D01*
X115986266Y-32249374D02*
X115938647Y-32296993D01*
X115938647Y-32296993D02*
X115891028Y-32392231D01*
X115891028Y-32392231D02*
X115843409Y-32582707D01*
X115843409Y-32582707D02*
X115795790Y-32677945D01*
X115795790Y-32677945D02*
X115748171Y-32725564D01*
X115748171Y-32725564D02*
X115652933Y-32773183D01*
X115652933Y-32773183D02*
X115557695Y-32773183D01*
X115557695Y-32773183D02*
X115462457Y-32725564D01*
X115462457Y-32725564D02*
X115414838Y-32677945D01*
X115414838Y-32677945D02*
X115367219Y-32582707D01*
X115367219Y-32582707D02*
X115367219Y-32344612D01*
X115367219Y-32344612D02*
X115414838Y-32201755D01*
X115843409Y-31773183D02*
X115843409Y-31439850D01*
X116367219Y-31296993D02*
X116367219Y-31773183D01*
X116367219Y-31773183D02*
X115367219Y-31773183D01*
X115367219Y-31773183D02*
X115367219Y-31296993D01*
X115367219Y-31011278D02*
X115367219Y-30439850D01*
X116367219Y-30725564D02*
X115367219Y-30725564D01*
X115089600Y-34768422D02*
X115089600Y-30444612D01*
D12*
X114333333Y1215180D02*
X114000000Y1691371D01*
X113761905Y1215180D02*
X113761905Y2215180D01*
X113761905Y2215180D02*
X114142857Y2215180D01*
X114142857Y2215180D02*
X114238095Y2167561D01*
X114238095Y2167561D02*
X114285714Y2119942D01*
X114285714Y2119942D02*
X114333333Y2024704D01*
X114333333Y2024704D02*
X114333333Y1881847D01*
X114333333Y1881847D02*
X114285714Y1786609D01*
X114285714Y1786609D02*
X114238095Y1738990D01*
X114238095Y1738990D02*
X114142857Y1691371D01*
X114142857Y1691371D02*
X113761905Y1691371D01*
X114666667Y2215180D02*
X115285714Y2215180D01*
X115285714Y2215180D02*
X114952381Y1834228D01*
X114952381Y1834228D02*
X115095238Y1834228D01*
X115095238Y1834228D02*
X115190476Y1786609D01*
X115190476Y1786609D02*
X115238095Y1738990D01*
X115238095Y1738990D02*
X115285714Y1643752D01*
X115285714Y1643752D02*
X115285714Y1405657D01*
X115285714Y1405657D02*
X115238095Y1310419D01*
X115238095Y1310419D02*
X115190476Y1262800D01*
X115190476Y1262800D02*
X115095238Y1215180D01*
X115095238Y1215180D02*
X114809524Y1215180D01*
X114809524Y1215180D02*
X114714286Y1262800D01*
X114714286Y1262800D02*
X114666667Y1310419D01*
X114333333Y4915180D02*
X114000000Y5391371D01*
X113761905Y4915180D02*
X113761905Y5915180D01*
X113761905Y5915180D02*
X114142857Y5915180D01*
X114142857Y5915180D02*
X114238095Y5867561D01*
X114238095Y5867561D02*
X114285714Y5819942D01*
X114285714Y5819942D02*
X114333333Y5724704D01*
X114333333Y5724704D02*
X114333333Y5581847D01*
X114333333Y5581847D02*
X114285714Y5486609D01*
X114285714Y5486609D02*
X114238095Y5438990D01*
X114238095Y5438990D02*
X114142857Y5391371D01*
X114142857Y5391371D02*
X113761905Y5391371D01*
X114714286Y5819942D02*
X114761905Y5867561D01*
X114761905Y5867561D02*
X114857143Y5915180D01*
X114857143Y5915180D02*
X115095238Y5915180D01*
X115095238Y5915180D02*
X115190476Y5867561D01*
X115190476Y5867561D02*
X115238095Y5819942D01*
X115238095Y5819942D02*
X115285714Y5724704D01*
X115285714Y5724704D02*
X115285714Y5629466D01*
X115285714Y5629466D02*
X115238095Y5486609D01*
X115238095Y5486609D02*
X114666667Y4915180D01*
X114666667Y4915180D02*
X115285714Y4915180D01*
X114333333Y8415180D02*
X114000000Y8891371D01*
X113761905Y8415180D02*
X113761905Y9415180D01*
X113761905Y9415180D02*
X114142857Y9415180D01*
X114142857Y9415180D02*
X114238095Y9367561D01*
X114238095Y9367561D02*
X114285714Y9319942D01*
X114285714Y9319942D02*
X114333333Y9224704D01*
X114333333Y9224704D02*
X114333333Y9081847D01*
X114333333Y9081847D02*
X114285714Y8986609D01*
X114285714Y8986609D02*
X114238095Y8938990D01*
X114238095Y8938990D02*
X114142857Y8891371D01*
X114142857Y8891371D02*
X113761905Y8891371D01*
X115285714Y8415180D02*
X114714286Y8415180D01*
X115000000Y8415180D02*
X115000000Y9415180D01*
X115000000Y9415180D02*
X114904762Y9272323D01*
X114904762Y9272323D02*
X114809524Y9177085D01*
X114809524Y9177085D02*
X114714286Y9129466D01*
X129436666Y14615180D02*
X129436666Y13900895D01*
X129436666Y13900895D02*
X129389047Y13758038D01*
X129389047Y13758038D02*
X129293809Y13662800D01*
X129293809Y13662800D02*
X129150952Y13615180D01*
X129150952Y13615180D02*
X129055714Y13615180D01*
X129865238Y14519942D02*
X129912857Y14567561D01*
X129912857Y14567561D02*
X130008095Y14615180D01*
X130008095Y14615180D02*
X130246190Y14615180D01*
X130246190Y14615180D02*
X130341428Y14567561D01*
X130341428Y14567561D02*
X130389047Y14519942D01*
X130389047Y14519942D02*
X130436666Y14424704D01*
X130436666Y14424704D02*
X130436666Y14329466D01*
X130436666Y14329466D02*
X130389047Y14186609D01*
X130389047Y14186609D02*
X129817619Y13615180D01*
X129817619Y13615180D02*
X130436666Y13615180D01*
X110124819Y-37833333D02*
X110839104Y-37833333D01*
X110839104Y-37833333D02*
X110981961Y-37880952D01*
X110981961Y-37880952D02*
X111077200Y-37976190D01*
X111077200Y-37976190D02*
X111124819Y-38119047D01*
X111124819Y-38119047D02*
X111124819Y-38214285D01*
X110124819Y-37452380D02*
X110124819Y-36833333D01*
X110124819Y-36833333D02*
X110505771Y-37166666D01*
X110505771Y-37166666D02*
X110505771Y-37023809D01*
X110505771Y-37023809D02*
X110553390Y-36928571D01*
X110553390Y-36928571D02*
X110601009Y-36880952D01*
X110601009Y-36880952D02*
X110696247Y-36833333D01*
X110696247Y-36833333D02*
X110934342Y-36833333D01*
X110934342Y-36833333D02*
X111029580Y-36880952D01*
X111029580Y-36880952D02*
X111077200Y-36928571D01*
X111077200Y-36928571D02*
X111124819Y-37023809D01*
X111124819Y-37023809D02*
X111124819Y-37309523D01*
X111124819Y-37309523D02*
X111077200Y-37404761D01*
X111077200Y-37404761D02*
X111029580Y-37452380D01*
X84046666Y7915180D02*
X84046666Y7200895D01*
X84046666Y7200895D02*
X83999047Y7058038D01*
X83999047Y7058038D02*
X83903809Y6962800D01*
X83903809Y6962800D02*
X83760952Y6915180D01*
X83760952Y6915180D02*
X83665714Y6915180D01*
X85046666Y6915180D02*
X84475238Y6915180D01*
X84760952Y6915180D02*
X84760952Y7915180D01*
X84760952Y7915180D02*
X84665714Y7772323D01*
X84665714Y7772323D02*
X84570476Y7677085D01*
X84570476Y7677085D02*
X84475238Y7629466D01*
X91158095Y16395180D02*
X91158095Y15585657D01*
X91158095Y15585657D02*
X91205714Y15490419D01*
X91205714Y15490419D02*
X91253333Y15442800D01*
X91253333Y15442800D02*
X91348571Y15395180D01*
X91348571Y15395180D02*
X91539047Y15395180D01*
X91539047Y15395180D02*
X91634285Y15442800D01*
X91634285Y15442800D02*
X91681904Y15490419D01*
X91681904Y15490419D02*
X91729523Y15585657D01*
X91729523Y15585657D02*
X91729523Y16395180D01*
X92729523Y15395180D02*
X92158095Y15395180D01*
X92443809Y15395180D02*
X92443809Y16395180D01*
X92443809Y16395180D02*
X92348571Y16252323D01*
X92348571Y16252323D02*
X92253333Y16157085D01*
X92253333Y16157085D02*
X92158095Y16109466D01*
D13*
X111230000Y670000D02*
X117770000Y670000D01*
X111230000Y340000D02*
X111230000Y670000D01*
X111230000Y-1740000D02*
X111230000Y-2070000D01*
X111230000Y-2070000D02*
X117770000Y-2070000D01*
X117770000Y670000D02*
X117770000Y340000D01*
X117770000Y-2070000D02*
X117770000Y-1740000D01*
X111230000Y4370000D02*
X117770000Y4370000D01*
X111230000Y4040000D02*
X111230000Y4370000D01*
X111230000Y1960000D02*
X111230000Y1630000D01*
X111230000Y1630000D02*
X117770000Y1630000D01*
X117770000Y4370000D02*
X117770000Y4040000D01*
X117770000Y1630000D02*
X117770000Y1960000D01*
X111230000Y7870000D02*
X117770000Y7870000D01*
X111230000Y7540000D02*
X111230000Y7870000D01*
X111230000Y5460000D02*
X111230000Y5130000D01*
X111230000Y5130000D02*
X117770000Y5130000D01*
X117770000Y7870000D02*
X117770000Y7540000D01*
X117770000Y5130000D02*
X117770000Y5460000D01*
X127170000Y13070000D02*
X128500000Y13070000D01*
X127170000Y11740000D02*
X127170000Y13070000D01*
X127170000Y10470000D02*
X127170000Y-37850000D01*
X127170000Y10470000D02*
X129770000Y10470000D01*
X127170000Y-37850000D02*
X132370000Y-37850000D01*
X129770000Y13070000D02*
X132370000Y13070000D01*
X129770000Y10470000D02*
X129770000Y13070000D01*
X132370000Y13070000D02*
X132370000Y-37850000D01*
X111670000Y-38830000D02*
X111670000Y-37500000D01*
X113000000Y-38830000D02*
X111670000Y-38830000D01*
X114270000Y-36170000D02*
X124490000Y-36170000D01*
X114270000Y-38830000D02*
X114270000Y-36170000D01*
X114270000Y-38830000D02*
X124490000Y-38830000D01*
X124490000Y-38830000D02*
X124490000Y-36170000D01*
X75320000Y6430000D02*
X75320000Y-34450000D01*
X75320000Y-34450000D02*
X93440000Y-34450000D01*
X78320000Y6370000D02*
X78320000Y-34390000D01*
X78320000Y-34390000D02*
X90440000Y-34390000D01*
X83380000Y6370000D02*
X78320000Y6370000D01*
X90440000Y6370000D02*
X85380000Y6370000D01*
X90440000Y-34390000D02*
X90440000Y6370000D01*
X93440000Y6430000D02*
X75320000Y6430000D01*
X93440000Y-34450000D02*
X93440000Y6430000D01*
X85380000Y6370000D02*
G75*
G02*
X83380000Y6370000I-1000000J0D01*
G01*
X79200000Y14850000D02*
X79200000Y-39490000D01*
X79200001Y-39490000D02*
X104640000Y-39490000D01*
X87680001Y14850000D02*
X79200001Y14850000D01*
X87680001Y14490000D02*
X87680001Y14850000D01*
X96160000Y14850000D02*
X96160000Y14490000D01*
X96160000Y14490000D02*
X87680001Y14490000D01*
X104639999Y-39490000D02*
X104639999Y14850000D01*
X104640000Y14850000D02*
X96160000Y14850000D01*
%LPC*%
D14*
X110690000Y-700000D03*
D15*
X118310000Y-700000D03*
D14*
X110690000Y3000000D03*
D15*
X118310000Y3000000D03*
D14*
X110690000Y6500000D03*
D15*
X118310000Y6500000D03*
D16*
X128500000Y11740000D03*
D17*
X128500000Y9200000D03*
X128500000Y6660000D03*
X128500000Y4120000D03*
X128500000Y1580000D03*
X128500000Y-960000D03*
X128500000Y-3500000D03*
X128500000Y-6040000D03*
X128500000Y-8580000D03*
X128500000Y-11120000D03*
X128500000Y-13660000D03*
X128500000Y-16200000D03*
X128500000Y-18740000D03*
X128500000Y-21280000D03*
X128500000Y-23820000D03*
X128500000Y-26360000D03*
X128500000Y-28900000D03*
X128500000Y-31440000D03*
X128500000Y-33980000D03*
X128500000Y-36520000D03*
X131040000Y-36520000D03*
X131040000Y-33980000D03*
X131040000Y-31440000D03*
X131040000Y-28900000D03*
X131040000Y-26360000D03*
X131040000Y-23820000D03*
X131040000Y-21280000D03*
X131040000Y-18740000D03*
X131040000Y-16200000D03*
X131040000Y-13660000D03*
X131040000Y-11120000D03*
X131040000Y-8580000D03*
X131040000Y-6040000D03*
X131040000Y-3500000D03*
X131040000Y-960000D03*
X131040000Y1580000D03*
X131040000Y4120000D03*
X131040000Y6660000D03*
X131040000Y9200000D03*
X131040000Y11740000D03*
D18*
X113000000Y-37500000D03*
D17*
X115540000Y-37500000D03*
X118080000Y-37500000D03*
X120620000Y-37500000D03*
X123160000Y-37500000D03*
D19*
X76760000Y5040000D03*
D20*
X76760000Y2500000D03*
X76760000Y-40000D03*
X76760000Y-2580000D03*
X76760000Y-5120000D03*
X76760000Y-7660000D03*
X76760000Y-10200000D03*
X76760000Y-12740000D03*
X76760000Y-15280000D03*
X76760000Y-17820000D03*
X76760000Y-20360000D03*
X76760000Y-22900000D03*
X76760000Y-25440000D03*
X76760000Y-27980000D03*
X76760000Y-30520000D03*
X76760000Y-33060000D03*
X92000000Y-33060000D03*
X92000000Y-30520000D03*
X92000000Y-27980000D03*
X92000000Y-25440000D03*
X92000000Y-22900000D03*
X92000000Y-20360000D03*
X92000000Y-17820000D03*
X92000000Y-15280000D03*
X92000000Y-12740000D03*
X92000000Y-10200000D03*
X92000000Y-7660000D03*
X92000000Y-5120000D03*
X92000000Y-2580000D03*
X92000000Y-40000D03*
X92000000Y2500000D03*
X92000000Y5040000D03*
D21*
X84300000Y4960000D03*
X84300000Y2420000D03*
X84300000Y-120000D03*
X84300000Y-2660000D03*
X84300000Y-5200000D03*
X84300000Y-7740000D03*
X84300000Y-10280000D03*
X84300000Y-12820000D03*
X84300000Y-15360000D03*
X84300000Y-17900000D03*
X84300000Y-20440000D03*
X84300000Y-22980000D03*
X84300000Y-25520000D03*
X84300000Y-28060000D03*
X84300000Y-30600000D03*
X84300000Y-33140000D03*
X99540000Y-33140000D03*
X99540000Y-30600000D03*
X99540000Y-28060000D03*
X99540000Y-25520000D03*
X99540000Y-22980000D03*
X99540000Y-20440000D03*
X99540000Y-17900000D03*
X99540000Y-15360000D03*
X99540000Y-12820000D03*
X99540000Y-10280000D03*
X99540000Y-7740000D03*
X99540000Y-5200000D03*
X99540000Y-2660000D03*
X99540000Y-120000D03*
X99540000Y2420000D03*
X99540000Y4960000D03*
%LPD*%
M02*
