G04 #@! TF.GenerationSoftware,KiCad,Pcbnew,8.0.8*
G04 #@! TF.CreationDate,2025-10-24T15:06:26-04:00*
G04 #@! TF.ProjectId,InSystemROMProg,496e5379-7374-4656-9d52-4f4d50726f67,rev?*
G04 #@! TF.SameCoordinates,Original*
G04 #@! TF.FileFunction,Legend,Bot*
G04 #@! TF.FilePolarity,Positive*
%FSLAX46Y46*%
G04 Gerber Fmt 4.6, Leading zero omitted, Abs format (unit mm)*
G04 Created by KiCad (PCBNEW 8.0.8) date 2025-10-24 15:06:26*
%MOMM*%
%LPD*%
G01*
G04 APERTURE LIST*
G04 Aperture macros list*
%AMRoundRect*
0 Rectangle with rounded corners*
0 $1 Rounding radius*
0 $2 $3 $4 $5 $6 $7 $8 $9 X,Y pos of 4 corners*
0 Add a 4 corners polygon primitive as box body*
4,1,4,$2,$3,$4,$5,$6,$7,$8,$9,$2,$3,0*
0 Add four circle primitives for the rounded corners*
1,1,$1+$1,$2,$3*
1,1,$1+$1,$4,$5*
1,1,$1+$1,$6,$7*
1,1,$1+$1,$8,$9*
0 Add four rect primitives between the rounded corners*
20,1,$1+$1,$2,$3,$4,$5,0*
20,1,$1+$1,$4,$5,$6,$7,0*
20,1,$1+$1,$6,$7,$8,$9,0*
20,1,$1+$1,$8,$9,$2,$3,0*%
G04 Aperture macros list end*
%ADD10C,1.676000*%
%ADD11O,1.676000X1.676000*%
%ADD12RoundRect,0.038000X-0.850000X-0.850000X0.850000X-0.850000X0.850000X0.850000X-0.850000X0.850000X0*%
%ADD13O,1.776000X1.776000*%
%ADD14RoundRect,0.038000X-0.850000X0.850000X-0.850000X-0.850000X0.850000X-0.850000X0.850000X0.850000X0*%
%ADD15RoundRect,0.038000X-1.200000X-0.800000X1.200000X-0.800000X1.200000X0.800000X-1.200000X0.800000X0*%
%ADD16O,2.476000X1.676000*%
%ADD17O,3.076000X1.576000*%
G04 APERTURE END LIST*
%LPC*%
D10*
X106690000Y8900000D03*
D11*
X114310000Y8900000D03*
D10*
X106690000Y12600000D03*
D11*
X114310000Y12600000D03*
D12*
X120000000Y15420000D03*
D13*
X122540000Y15420000D03*
X120000000Y12880000D03*
X122540000Y12880000D03*
X120000000Y10340000D03*
X122540000Y10340000D03*
X120000000Y7800000D03*
X122540000Y7800000D03*
X120000000Y5260000D03*
X122540000Y5260000D03*
X120000000Y2720000D03*
X122540000Y2720000D03*
X120000000Y180000D03*
X122540000Y180000D03*
X120000000Y-2360000D03*
X122540000Y-2360000D03*
X120000000Y-4900000D03*
X122540000Y-4900000D03*
X120000000Y-7440000D03*
X122540000Y-7440000D03*
X120000000Y-9980000D03*
X122540000Y-9980000D03*
X120000000Y-12520000D03*
X122540000Y-12520000D03*
X120000000Y-15060000D03*
X122540000Y-15060000D03*
X120000000Y-17600000D03*
X122540000Y-17600000D03*
X120000000Y-20140000D03*
X122540000Y-20140000D03*
X120000000Y-22680000D03*
X122540000Y-22680000D03*
X120000000Y-25220000D03*
X122540000Y-25220000D03*
X120000000Y-27760000D03*
X122540000Y-27760000D03*
X120000000Y-30300000D03*
X122540000Y-30300000D03*
X120000000Y-32840000D03*
X122540000Y-32840000D03*
D14*
X122540000Y-37800000D03*
D13*
X120000000Y-37800000D03*
X117460000Y-37800000D03*
X114920000Y-37800000D03*
X112380000Y-37800000D03*
D15*
X92760000Y4940000D03*
D16*
X92760000Y2400000D03*
X92760000Y-140000D03*
X92760000Y-2680000D03*
X92760000Y-5220000D03*
X92760000Y-7760000D03*
X92760000Y-10300000D03*
X92760000Y-12840000D03*
X92760000Y-15380000D03*
X92760000Y-17920000D03*
X92760000Y-20460000D03*
X92760000Y-23000000D03*
X92760000Y-25540000D03*
X92760000Y-28080000D03*
X92760000Y-30620000D03*
X92760000Y-33160000D03*
X108000000Y-33160000D03*
X108000000Y-30620000D03*
X108000000Y-28080000D03*
X108000000Y-25540000D03*
X108000000Y-23000000D03*
X108000000Y-20460000D03*
X108000000Y-17920000D03*
X108000000Y-15380000D03*
X108000000Y-12840000D03*
X108000000Y-10300000D03*
X108000000Y-7760000D03*
X108000000Y-5220000D03*
X108000000Y-2680000D03*
X108000000Y-140000D03*
X108000000Y2400000D03*
X108000000Y4940000D03*
D17*
X99540000Y4960000D03*
X99540000Y2420000D03*
X99540000Y-120000D03*
X99540000Y-2660000D03*
X99540000Y-5200000D03*
X99540000Y-7740000D03*
X99540000Y-10280000D03*
X99540000Y-12820000D03*
X99540000Y-15360000D03*
X99540000Y-17900000D03*
X99540000Y-20440000D03*
X99540000Y-22980000D03*
X99540000Y-25520000D03*
X99540000Y-28060000D03*
X99540000Y-30600000D03*
X99540000Y-33140000D03*
X84300000Y-33140000D03*
X84300000Y-30600000D03*
X84300000Y-28060000D03*
X84300000Y-25520000D03*
X84300000Y-22980000D03*
X84300000Y-20440000D03*
X84300000Y-17900000D03*
X84300000Y-15360000D03*
X84300000Y-12820000D03*
X84300000Y-10280000D03*
X84300000Y-7740000D03*
X84300000Y-5200000D03*
X84300000Y-2660000D03*
X84300000Y-120000D03*
X84300000Y2420000D03*
X84300000Y4960000D03*
%LPD*%
M02*
