G04 #@! TF.GenerationSoftware,KiCad,Pcbnew,8.0.8*
G04 #@! TF.CreationDate,2026-01-16T16:01:15-05:00*
G04 #@! TF.ProjectId,InSystemROMProg,496e5379-7374-4656-9d52-4f4d50726f67,rev?*
G04 #@! TF.SameCoordinates,Original*
G04 #@! TF.FileFunction,Soldermask,Bot*
G04 #@! TF.FilePolarity,Negative*
%FSLAX46Y46*%
G04 Gerber Fmt 4.6, Leading zero omitted, Abs format (unit mm)*
G04 Created by KiCad (PCBNEW 8.0.8) date 2026-01-16 16:01:15*
%MOMM*%
%LPD*%
G01*
G04 APERTURE LIST*
G04 APERTURE END LIST*
G36*
X113864542Y-36614893D02*
G01*
X113876870Y-36623130D01*
X113885107Y-36635458D01*
X113888000Y-36650000D01*
X113888000Y-38350000D01*
X113885107Y-38364542D01*
X113876870Y-38376870D01*
X113864542Y-38385107D01*
X113850000Y-38388000D01*
X112150000Y-38388000D01*
X112135458Y-38385107D01*
X112123130Y-38376870D01*
X112114893Y-38364542D01*
X112112000Y-38350000D01*
X112112000Y-36650000D01*
X112114893Y-36635458D01*
X112123130Y-36623130D01*
X112135458Y-36614893D01*
X112150000Y-36612000D01*
X113850000Y-36612000D01*
X113864542Y-36614893D01*
G37*
G36*
X115814407Y-36655462D02*
G01*
X115984000Y-36730969D01*
X116134188Y-36840087D01*
X116258407Y-36978047D01*
X116351228Y-37138818D01*
X116408595Y-37315374D01*
X116428000Y-37500000D01*
X116408595Y-37684626D01*
X116351228Y-37861182D01*
X116258407Y-38021953D01*
X116134188Y-38159913D01*
X115984000Y-38269031D01*
X115814407Y-38344538D01*
X115632821Y-38383135D01*
X115447179Y-38383135D01*
X115265593Y-38344538D01*
X115096000Y-38269031D01*
X114945812Y-38159913D01*
X114821593Y-38021953D01*
X114728772Y-37861182D01*
X114671405Y-37684626D01*
X114652000Y-37500000D01*
X114671405Y-37315374D01*
X114728772Y-37138818D01*
X114821593Y-36978047D01*
X114945812Y-36840087D01*
X115096000Y-36730969D01*
X115265593Y-36655462D01*
X115447179Y-36616865D01*
X115632821Y-36616865D01*
X115814407Y-36655462D01*
G37*
G36*
X118354407Y-36655462D02*
G01*
X118524000Y-36730969D01*
X118674188Y-36840087D01*
X118798407Y-36978047D01*
X118891228Y-37138818D01*
X118948595Y-37315374D01*
X118968000Y-37500000D01*
X118948595Y-37684626D01*
X118891228Y-37861182D01*
X118798407Y-38021953D01*
X118674188Y-38159913D01*
X118524000Y-38269031D01*
X118354407Y-38344538D01*
X118172821Y-38383135D01*
X117987179Y-38383135D01*
X117805593Y-38344538D01*
X117636000Y-38269031D01*
X117485812Y-38159913D01*
X117361593Y-38021953D01*
X117268772Y-37861182D01*
X117211405Y-37684626D01*
X117192000Y-37500000D01*
X117211405Y-37315374D01*
X117268772Y-37138818D01*
X117361593Y-36978047D01*
X117485812Y-36840087D01*
X117636000Y-36730969D01*
X117805593Y-36655462D01*
X117987179Y-36616865D01*
X118172821Y-36616865D01*
X118354407Y-36655462D01*
G37*
G36*
X120894407Y-36655462D02*
G01*
X121064000Y-36730969D01*
X121214188Y-36840087D01*
X121338407Y-36978047D01*
X121431228Y-37138818D01*
X121488595Y-37315374D01*
X121508000Y-37500000D01*
X121488595Y-37684626D01*
X121431228Y-37861182D01*
X121338407Y-38021953D01*
X121214188Y-38159913D01*
X121064000Y-38269031D01*
X120894407Y-38344538D01*
X120712821Y-38383135D01*
X120527179Y-38383135D01*
X120345593Y-38344538D01*
X120176000Y-38269031D01*
X120025812Y-38159913D01*
X119901593Y-38021953D01*
X119808772Y-37861182D01*
X119751405Y-37684626D01*
X119732000Y-37500000D01*
X119751405Y-37315374D01*
X119808772Y-37138818D01*
X119901593Y-36978047D01*
X120025812Y-36840087D01*
X120176000Y-36730969D01*
X120345593Y-36655462D01*
X120527179Y-36616865D01*
X120712821Y-36616865D01*
X120894407Y-36655462D01*
G37*
G36*
X123434407Y-36655462D02*
G01*
X123604000Y-36730969D01*
X123754188Y-36840087D01*
X123878407Y-36978047D01*
X123971228Y-37138818D01*
X124028595Y-37315374D01*
X124048000Y-37500000D01*
X124028595Y-37684626D01*
X123971228Y-37861182D01*
X123878407Y-38021953D01*
X123754188Y-38159913D01*
X123604000Y-38269031D01*
X123434407Y-38344538D01*
X123252821Y-38383135D01*
X123067179Y-38383135D01*
X122885593Y-38344538D01*
X122716000Y-38269031D01*
X122565812Y-38159913D01*
X122441593Y-38021953D01*
X122348772Y-37861182D01*
X122291405Y-37684626D01*
X122272000Y-37500000D01*
X122291405Y-37315374D01*
X122348772Y-37138818D01*
X122441593Y-36978047D01*
X122565812Y-36840087D01*
X122716000Y-36730969D01*
X122885593Y-36655462D01*
X123067179Y-36616865D01*
X123252821Y-36616865D01*
X123434407Y-36655462D01*
G37*
G36*
X128774407Y-35675462D02*
G01*
X128944000Y-35750969D01*
X129094188Y-35860087D01*
X129218407Y-35998047D01*
X129311228Y-36158818D01*
X129368595Y-36335374D01*
X129388000Y-36520000D01*
X129368595Y-36704626D01*
X129311228Y-36881182D01*
X129218407Y-37041953D01*
X129094188Y-37179913D01*
X128944000Y-37289031D01*
X128774407Y-37364538D01*
X128592821Y-37403135D01*
X128407179Y-37403135D01*
X128225593Y-37364538D01*
X128056000Y-37289031D01*
X127905812Y-37179913D01*
X127781593Y-37041953D01*
X127688772Y-36881182D01*
X127631405Y-36704626D01*
X127612000Y-36520000D01*
X127631405Y-36335374D01*
X127688772Y-36158818D01*
X127781593Y-35998047D01*
X127905812Y-35860087D01*
X128056000Y-35750969D01*
X128225593Y-35675462D01*
X128407179Y-35636865D01*
X128592821Y-35636865D01*
X128774407Y-35675462D01*
G37*
G36*
X131314407Y-35675462D02*
G01*
X131484000Y-35750969D01*
X131634188Y-35860087D01*
X131758407Y-35998047D01*
X131851228Y-36158818D01*
X131908595Y-36335374D01*
X131928000Y-36520000D01*
X131908595Y-36704626D01*
X131851228Y-36881182D01*
X131758407Y-37041953D01*
X131634188Y-37179913D01*
X131484000Y-37289031D01*
X131314407Y-37364538D01*
X131132821Y-37403135D01*
X130947179Y-37403135D01*
X130765593Y-37364538D01*
X130596000Y-37289031D01*
X130445812Y-37179913D01*
X130321593Y-37041953D01*
X130228772Y-36881182D01*
X130171405Y-36704626D01*
X130152000Y-36520000D01*
X130171405Y-36335374D01*
X130228772Y-36158818D01*
X130321593Y-35998047D01*
X130445812Y-35860087D01*
X130596000Y-35750969D01*
X130765593Y-35675462D01*
X130947179Y-35636865D01*
X131132821Y-35636865D01*
X131314407Y-35675462D01*
G37*
G36*
X128774407Y-33135462D02*
G01*
X128944000Y-33210969D01*
X129094188Y-33320087D01*
X129218407Y-33458047D01*
X129311228Y-33618818D01*
X129368595Y-33795374D01*
X129388000Y-33980000D01*
X129368595Y-34164626D01*
X129311228Y-34341182D01*
X129218407Y-34501953D01*
X129094188Y-34639913D01*
X128944000Y-34749031D01*
X128774407Y-34824538D01*
X128592821Y-34863135D01*
X128407179Y-34863135D01*
X128225593Y-34824538D01*
X128056000Y-34749031D01*
X127905812Y-34639913D01*
X127781593Y-34501953D01*
X127688772Y-34341182D01*
X127631405Y-34164626D01*
X127612000Y-33980000D01*
X127631405Y-33795374D01*
X127688772Y-33618818D01*
X127781593Y-33458047D01*
X127905812Y-33320087D01*
X128056000Y-33210969D01*
X128225593Y-33135462D01*
X128407179Y-33096865D01*
X128592821Y-33096865D01*
X128774407Y-33135462D01*
G37*
G36*
X131314407Y-33135462D02*
G01*
X131484000Y-33210969D01*
X131634188Y-33320087D01*
X131758407Y-33458047D01*
X131851228Y-33618818D01*
X131908595Y-33795374D01*
X131928000Y-33980000D01*
X131908595Y-34164626D01*
X131851228Y-34341182D01*
X131758407Y-34501953D01*
X131634188Y-34639913D01*
X131484000Y-34749031D01*
X131314407Y-34824538D01*
X131132821Y-34863135D01*
X130947179Y-34863135D01*
X130765593Y-34824538D01*
X130596000Y-34749031D01*
X130445812Y-34639913D01*
X130321593Y-34501953D01*
X130228772Y-34341182D01*
X130171405Y-34164626D01*
X130152000Y-33980000D01*
X130171405Y-33795374D01*
X130228772Y-33618818D01*
X130321593Y-33458047D01*
X130445812Y-33320087D01*
X130596000Y-33210969D01*
X130765593Y-33135462D01*
X130947179Y-33096865D01*
X131132821Y-33096865D01*
X131314407Y-33135462D01*
G37*
G36*
X85127238Y-32355794D02*
G01*
X85278744Y-32385931D01*
X85421461Y-32445046D01*
X85549902Y-32530868D01*
X85659132Y-32640098D01*
X85744954Y-32768539D01*
X85804069Y-32911256D01*
X85834206Y-33062762D01*
X85834206Y-33217238D01*
X85804069Y-33368744D01*
X85744954Y-33511461D01*
X85659132Y-33639902D01*
X85549902Y-33749132D01*
X85421461Y-33834954D01*
X85278744Y-33894069D01*
X85127238Y-33924206D01*
X85050000Y-33928000D01*
X85048768Y-33928000D01*
X83551232Y-33928000D01*
X83550000Y-33928000D01*
X83472762Y-33924206D01*
X83321256Y-33894069D01*
X83178539Y-33834954D01*
X83050098Y-33749132D01*
X82940868Y-33639902D01*
X82855046Y-33511461D01*
X82795931Y-33368744D01*
X82765794Y-33217238D01*
X82765794Y-33062762D01*
X82795931Y-32911256D01*
X82855046Y-32768539D01*
X82940868Y-32640098D01*
X83050098Y-32530868D01*
X83178539Y-32445046D01*
X83321256Y-32385931D01*
X83472762Y-32355794D01*
X83550000Y-32352000D01*
X85050000Y-32352000D01*
X85127238Y-32355794D01*
G37*
G36*
X100367238Y-32355794D02*
G01*
X100518744Y-32385931D01*
X100661461Y-32445046D01*
X100789902Y-32530868D01*
X100899132Y-32640098D01*
X100984954Y-32768539D01*
X101044069Y-32911256D01*
X101074206Y-33062762D01*
X101074206Y-33217238D01*
X101044069Y-33368744D01*
X100984954Y-33511461D01*
X100899132Y-33639902D01*
X100789902Y-33749132D01*
X100661461Y-33834954D01*
X100518744Y-33894069D01*
X100367238Y-33924206D01*
X100290000Y-33928000D01*
X100288768Y-33928000D01*
X98791232Y-33928000D01*
X98790000Y-33928000D01*
X98712762Y-33924206D01*
X98561256Y-33894069D01*
X98418539Y-33834954D01*
X98290098Y-33749132D01*
X98180868Y-33639902D01*
X98095046Y-33511461D01*
X98035931Y-33368744D01*
X98005794Y-33217238D01*
X98005794Y-33062762D01*
X98035931Y-32911256D01*
X98095046Y-32768539D01*
X98180868Y-32640098D01*
X98290098Y-32530868D01*
X98418539Y-32445046D01*
X98561256Y-32385931D01*
X98712762Y-32355794D01*
X98790000Y-32352000D01*
X100290000Y-32352000D01*
X100367238Y-32355794D01*
G37*
G36*
X77242138Y-32226035D02*
G01*
X77403259Y-32258084D01*
X77555030Y-32320950D01*
X77691622Y-32412217D01*
X77807783Y-32528378D01*
X77899050Y-32664970D01*
X77961916Y-32816741D01*
X77993965Y-32977862D01*
X77993965Y-33142138D01*
X77961916Y-33303259D01*
X77899050Y-33455030D01*
X77807783Y-33591622D01*
X77691622Y-33707783D01*
X77555030Y-33799050D01*
X77403259Y-33861916D01*
X77242138Y-33893965D01*
X77160000Y-33898000D01*
X77158768Y-33898000D01*
X76361232Y-33898000D01*
X76360000Y-33898000D01*
X76277862Y-33893965D01*
X76116741Y-33861916D01*
X75964970Y-33799050D01*
X75828378Y-33707783D01*
X75712217Y-33591622D01*
X75620950Y-33455030D01*
X75558084Y-33303259D01*
X75526035Y-33142138D01*
X75526035Y-32977862D01*
X75558084Y-32816741D01*
X75620950Y-32664970D01*
X75712217Y-32528378D01*
X75828378Y-32412217D01*
X75964970Y-32320950D01*
X76116741Y-32258084D01*
X76277862Y-32226035D01*
X76360000Y-32222000D01*
X77160000Y-32222000D01*
X77242138Y-32226035D01*
G37*
G36*
X92482138Y-32226035D02*
G01*
X92643259Y-32258084D01*
X92795030Y-32320950D01*
X92931622Y-32412217D01*
X93047783Y-32528378D01*
X93139050Y-32664970D01*
X93201916Y-32816741D01*
X93233965Y-32977862D01*
X93233965Y-33142138D01*
X93201916Y-33303259D01*
X93139050Y-33455030D01*
X93047783Y-33591622D01*
X92931622Y-33707783D01*
X92795030Y-33799050D01*
X92643259Y-33861916D01*
X92482138Y-33893965D01*
X92400000Y-33898000D01*
X92398768Y-33898000D01*
X91601232Y-33898000D01*
X91600000Y-33898000D01*
X91517862Y-33893965D01*
X91356741Y-33861916D01*
X91204970Y-33799050D01*
X91068378Y-33707783D01*
X90952217Y-33591622D01*
X90860950Y-33455030D01*
X90798084Y-33303259D01*
X90766035Y-33142138D01*
X90766035Y-32977862D01*
X90798084Y-32816741D01*
X90860950Y-32664970D01*
X90952217Y-32528378D01*
X91068378Y-32412217D01*
X91204970Y-32320950D01*
X91356741Y-32258084D01*
X91517862Y-32226035D01*
X91600000Y-32222000D01*
X92400000Y-32222000D01*
X92482138Y-32226035D01*
G37*
G36*
X128774407Y-30595462D02*
G01*
X128944000Y-30670969D01*
X129094188Y-30780087D01*
X129218407Y-30918047D01*
X129311228Y-31078818D01*
X129368595Y-31255374D01*
X129388000Y-31440000D01*
X129368595Y-31624626D01*
X129311228Y-31801182D01*
X129218407Y-31961953D01*
X129094188Y-32099913D01*
X128944000Y-32209031D01*
X128774407Y-32284538D01*
X128592821Y-32323135D01*
X128407179Y-32323135D01*
X128225593Y-32284538D01*
X128056000Y-32209031D01*
X127905812Y-32099913D01*
X127781593Y-31961953D01*
X127688772Y-31801182D01*
X127631405Y-31624626D01*
X127612000Y-31440000D01*
X127631405Y-31255374D01*
X127688772Y-31078818D01*
X127781593Y-30918047D01*
X127905812Y-30780087D01*
X128056000Y-30670969D01*
X128225593Y-30595462D01*
X128407179Y-30556865D01*
X128592821Y-30556865D01*
X128774407Y-30595462D01*
G37*
G36*
X131314407Y-30595462D02*
G01*
X131484000Y-30670969D01*
X131634188Y-30780087D01*
X131758407Y-30918047D01*
X131851228Y-31078818D01*
X131908595Y-31255374D01*
X131928000Y-31440000D01*
X131908595Y-31624626D01*
X131851228Y-31801182D01*
X131758407Y-31961953D01*
X131634188Y-32099913D01*
X131484000Y-32209031D01*
X131314407Y-32284538D01*
X131132821Y-32323135D01*
X130947179Y-32323135D01*
X130765593Y-32284538D01*
X130596000Y-32209031D01*
X130445812Y-32099913D01*
X130321593Y-31961953D01*
X130228772Y-31801182D01*
X130171405Y-31624626D01*
X130152000Y-31440000D01*
X130171405Y-31255374D01*
X130228772Y-31078818D01*
X130321593Y-30918047D01*
X130445812Y-30780087D01*
X130596000Y-30670969D01*
X130765593Y-30595462D01*
X130947179Y-30556865D01*
X131132821Y-30556865D01*
X131314407Y-30595462D01*
G37*
G36*
X85127238Y-29815794D02*
G01*
X85278744Y-29845931D01*
X85421461Y-29905046D01*
X85549902Y-29990868D01*
X85659132Y-30100098D01*
X85744954Y-30228539D01*
X85804069Y-30371256D01*
X85834206Y-30522762D01*
X85834206Y-30677238D01*
X85804069Y-30828744D01*
X85744954Y-30971461D01*
X85659132Y-31099902D01*
X85549902Y-31209132D01*
X85421461Y-31294954D01*
X85278744Y-31354069D01*
X85127238Y-31384206D01*
X85050000Y-31388000D01*
X85048768Y-31388000D01*
X83551232Y-31388000D01*
X83550000Y-31388000D01*
X83472762Y-31384206D01*
X83321256Y-31354069D01*
X83178539Y-31294954D01*
X83050098Y-31209132D01*
X82940868Y-31099902D01*
X82855046Y-30971461D01*
X82795931Y-30828744D01*
X82765794Y-30677238D01*
X82765794Y-30522762D01*
X82795931Y-30371256D01*
X82855046Y-30228539D01*
X82940868Y-30100098D01*
X83050098Y-29990868D01*
X83178539Y-29905046D01*
X83321256Y-29845931D01*
X83472762Y-29815794D01*
X83550000Y-29812000D01*
X85050000Y-29812000D01*
X85127238Y-29815794D01*
G37*
G36*
X100367238Y-29815794D02*
G01*
X100518744Y-29845931D01*
X100661461Y-29905046D01*
X100789902Y-29990868D01*
X100899132Y-30100098D01*
X100984954Y-30228539D01*
X101044069Y-30371256D01*
X101074206Y-30522762D01*
X101074206Y-30677238D01*
X101044069Y-30828744D01*
X100984954Y-30971461D01*
X100899132Y-31099902D01*
X100789902Y-31209132D01*
X100661461Y-31294954D01*
X100518744Y-31354069D01*
X100367238Y-31384206D01*
X100290000Y-31388000D01*
X100288768Y-31388000D01*
X98791232Y-31388000D01*
X98790000Y-31388000D01*
X98712762Y-31384206D01*
X98561256Y-31354069D01*
X98418539Y-31294954D01*
X98290098Y-31209132D01*
X98180868Y-31099902D01*
X98095046Y-30971461D01*
X98035931Y-30828744D01*
X98005794Y-30677238D01*
X98005794Y-30522762D01*
X98035931Y-30371256D01*
X98095046Y-30228539D01*
X98180868Y-30100098D01*
X98290098Y-29990868D01*
X98418539Y-29905046D01*
X98561256Y-29845931D01*
X98712762Y-29815794D01*
X98790000Y-29812000D01*
X100290000Y-29812000D01*
X100367238Y-29815794D01*
G37*
G36*
X77242138Y-29686035D02*
G01*
X77403259Y-29718084D01*
X77555030Y-29780950D01*
X77691622Y-29872217D01*
X77807783Y-29988378D01*
X77899050Y-30124970D01*
X77961916Y-30276741D01*
X77993965Y-30437862D01*
X77993965Y-30602138D01*
X77961916Y-30763259D01*
X77899050Y-30915030D01*
X77807783Y-31051622D01*
X77691622Y-31167783D01*
X77555030Y-31259050D01*
X77403259Y-31321916D01*
X77242138Y-31353965D01*
X77160000Y-31358000D01*
X77158768Y-31358000D01*
X76361232Y-31358000D01*
X76360000Y-31358000D01*
X76277862Y-31353965D01*
X76116741Y-31321916D01*
X75964970Y-31259050D01*
X75828378Y-31167783D01*
X75712217Y-31051622D01*
X75620950Y-30915030D01*
X75558084Y-30763259D01*
X75526035Y-30602138D01*
X75526035Y-30437862D01*
X75558084Y-30276741D01*
X75620950Y-30124970D01*
X75712217Y-29988378D01*
X75828378Y-29872217D01*
X75964970Y-29780950D01*
X76116741Y-29718084D01*
X76277862Y-29686035D01*
X76360000Y-29682000D01*
X77160000Y-29682000D01*
X77242138Y-29686035D01*
G37*
G36*
X92482138Y-29686035D02*
G01*
X92643259Y-29718084D01*
X92795030Y-29780950D01*
X92931622Y-29872217D01*
X93047783Y-29988378D01*
X93139050Y-30124970D01*
X93201916Y-30276741D01*
X93233965Y-30437862D01*
X93233965Y-30602138D01*
X93201916Y-30763259D01*
X93139050Y-30915030D01*
X93047783Y-31051622D01*
X92931622Y-31167783D01*
X92795030Y-31259050D01*
X92643259Y-31321916D01*
X92482138Y-31353965D01*
X92400000Y-31358000D01*
X92398768Y-31358000D01*
X91601232Y-31358000D01*
X91600000Y-31358000D01*
X91517862Y-31353965D01*
X91356741Y-31321916D01*
X91204970Y-31259050D01*
X91068378Y-31167783D01*
X90952217Y-31051622D01*
X90860950Y-30915030D01*
X90798084Y-30763259D01*
X90766035Y-30602138D01*
X90766035Y-30437862D01*
X90798084Y-30276741D01*
X90860950Y-30124970D01*
X90952217Y-29988378D01*
X91068378Y-29872217D01*
X91204970Y-29780950D01*
X91356741Y-29718084D01*
X91517862Y-29686035D01*
X91600000Y-29682000D01*
X92400000Y-29682000D01*
X92482138Y-29686035D01*
G37*
G36*
X128774407Y-28055462D02*
G01*
X128944000Y-28130969D01*
X129094188Y-28240087D01*
X129218407Y-28378047D01*
X129311228Y-28538818D01*
X129368595Y-28715374D01*
X129388000Y-28900000D01*
X129368595Y-29084626D01*
X129311228Y-29261182D01*
X129218407Y-29421953D01*
X129094188Y-29559913D01*
X128944000Y-29669031D01*
X128774407Y-29744538D01*
X128592821Y-29783135D01*
X128407179Y-29783135D01*
X128225593Y-29744538D01*
X128056000Y-29669031D01*
X127905812Y-29559913D01*
X127781593Y-29421953D01*
X127688772Y-29261182D01*
X127631405Y-29084626D01*
X127612000Y-28900000D01*
X127631405Y-28715374D01*
X127688772Y-28538818D01*
X127781593Y-28378047D01*
X127905812Y-28240087D01*
X128056000Y-28130969D01*
X128225593Y-28055462D01*
X128407179Y-28016865D01*
X128592821Y-28016865D01*
X128774407Y-28055462D01*
G37*
G36*
X131314407Y-28055462D02*
G01*
X131484000Y-28130969D01*
X131634188Y-28240087D01*
X131758407Y-28378047D01*
X131851228Y-28538818D01*
X131908595Y-28715374D01*
X131928000Y-28900000D01*
X131908595Y-29084626D01*
X131851228Y-29261182D01*
X131758407Y-29421953D01*
X131634188Y-29559913D01*
X131484000Y-29669031D01*
X131314407Y-29744538D01*
X131132821Y-29783135D01*
X130947179Y-29783135D01*
X130765593Y-29744538D01*
X130596000Y-29669031D01*
X130445812Y-29559913D01*
X130321593Y-29421953D01*
X130228772Y-29261182D01*
X130171405Y-29084626D01*
X130152000Y-28900000D01*
X130171405Y-28715374D01*
X130228772Y-28538818D01*
X130321593Y-28378047D01*
X130445812Y-28240087D01*
X130596000Y-28130969D01*
X130765593Y-28055462D01*
X130947179Y-28016865D01*
X131132821Y-28016865D01*
X131314407Y-28055462D01*
G37*
G36*
X85127238Y-27275794D02*
G01*
X85278744Y-27305931D01*
X85421461Y-27365046D01*
X85549902Y-27450868D01*
X85659132Y-27560098D01*
X85744954Y-27688539D01*
X85804069Y-27831256D01*
X85834206Y-27982762D01*
X85834206Y-28137238D01*
X85804069Y-28288744D01*
X85744954Y-28431461D01*
X85659132Y-28559902D01*
X85549902Y-28669132D01*
X85421461Y-28754954D01*
X85278744Y-28814069D01*
X85127238Y-28844206D01*
X85050000Y-28848000D01*
X85048768Y-28848000D01*
X83551232Y-28848000D01*
X83550000Y-28848000D01*
X83472762Y-28844206D01*
X83321256Y-28814069D01*
X83178539Y-28754954D01*
X83050098Y-28669132D01*
X82940868Y-28559902D01*
X82855046Y-28431461D01*
X82795931Y-28288744D01*
X82765794Y-28137238D01*
X82765794Y-27982762D01*
X82795931Y-27831256D01*
X82855046Y-27688539D01*
X82940868Y-27560098D01*
X83050098Y-27450868D01*
X83178539Y-27365046D01*
X83321256Y-27305931D01*
X83472762Y-27275794D01*
X83550000Y-27272000D01*
X85050000Y-27272000D01*
X85127238Y-27275794D01*
G37*
G36*
X100367238Y-27275794D02*
G01*
X100518744Y-27305931D01*
X100661461Y-27365046D01*
X100789902Y-27450868D01*
X100899132Y-27560098D01*
X100984954Y-27688539D01*
X101044069Y-27831256D01*
X101074206Y-27982762D01*
X101074206Y-28137238D01*
X101044069Y-28288744D01*
X100984954Y-28431461D01*
X100899132Y-28559902D01*
X100789902Y-28669132D01*
X100661461Y-28754954D01*
X100518744Y-28814069D01*
X100367238Y-28844206D01*
X100290000Y-28848000D01*
X100288768Y-28848000D01*
X98791232Y-28848000D01*
X98790000Y-28848000D01*
X98712762Y-28844206D01*
X98561256Y-28814069D01*
X98418539Y-28754954D01*
X98290098Y-28669132D01*
X98180868Y-28559902D01*
X98095046Y-28431461D01*
X98035931Y-28288744D01*
X98005794Y-28137238D01*
X98005794Y-27982762D01*
X98035931Y-27831256D01*
X98095046Y-27688539D01*
X98180868Y-27560098D01*
X98290098Y-27450868D01*
X98418539Y-27365046D01*
X98561256Y-27305931D01*
X98712762Y-27275794D01*
X98790000Y-27272000D01*
X100290000Y-27272000D01*
X100367238Y-27275794D01*
G37*
G36*
X77242138Y-27146035D02*
G01*
X77403259Y-27178084D01*
X77555030Y-27240950D01*
X77691622Y-27332217D01*
X77807783Y-27448378D01*
X77899050Y-27584970D01*
X77961916Y-27736741D01*
X77993965Y-27897862D01*
X77993965Y-28062138D01*
X77961916Y-28223259D01*
X77899050Y-28375030D01*
X77807783Y-28511622D01*
X77691622Y-28627783D01*
X77555030Y-28719050D01*
X77403259Y-28781916D01*
X77242138Y-28813965D01*
X77160000Y-28818000D01*
X77158768Y-28818000D01*
X76361232Y-28818000D01*
X76360000Y-28818000D01*
X76277862Y-28813965D01*
X76116741Y-28781916D01*
X75964970Y-28719050D01*
X75828378Y-28627783D01*
X75712217Y-28511622D01*
X75620950Y-28375030D01*
X75558084Y-28223259D01*
X75526035Y-28062138D01*
X75526035Y-27897862D01*
X75558084Y-27736741D01*
X75620950Y-27584970D01*
X75712217Y-27448378D01*
X75828378Y-27332217D01*
X75964970Y-27240950D01*
X76116741Y-27178084D01*
X76277862Y-27146035D01*
X76360000Y-27142000D01*
X77160000Y-27142000D01*
X77242138Y-27146035D01*
G37*
G36*
X92482138Y-27146035D02*
G01*
X92643259Y-27178084D01*
X92795030Y-27240950D01*
X92931622Y-27332217D01*
X93047783Y-27448378D01*
X93139050Y-27584970D01*
X93201916Y-27736741D01*
X93233965Y-27897862D01*
X93233965Y-28062138D01*
X93201916Y-28223259D01*
X93139050Y-28375030D01*
X93047783Y-28511622D01*
X92931622Y-28627783D01*
X92795030Y-28719050D01*
X92643259Y-28781916D01*
X92482138Y-28813965D01*
X92400000Y-28818000D01*
X92398768Y-28818000D01*
X91601232Y-28818000D01*
X91600000Y-28818000D01*
X91517862Y-28813965D01*
X91356741Y-28781916D01*
X91204970Y-28719050D01*
X91068378Y-28627783D01*
X90952217Y-28511622D01*
X90860950Y-28375030D01*
X90798084Y-28223259D01*
X90766035Y-28062138D01*
X90766035Y-27897862D01*
X90798084Y-27736741D01*
X90860950Y-27584970D01*
X90952217Y-27448378D01*
X91068378Y-27332217D01*
X91204970Y-27240950D01*
X91356741Y-27178084D01*
X91517862Y-27146035D01*
X91600000Y-27142000D01*
X92400000Y-27142000D01*
X92482138Y-27146035D01*
G37*
G36*
X128774407Y-25515462D02*
G01*
X128944000Y-25590969D01*
X129094188Y-25700087D01*
X129218407Y-25838047D01*
X129311228Y-25998818D01*
X129368595Y-26175374D01*
X129388000Y-26360000D01*
X129368595Y-26544626D01*
X129311228Y-26721182D01*
X129218407Y-26881953D01*
X129094188Y-27019913D01*
X128944000Y-27129031D01*
X128774407Y-27204538D01*
X128592821Y-27243135D01*
X128407179Y-27243135D01*
X128225593Y-27204538D01*
X128056000Y-27129031D01*
X127905812Y-27019913D01*
X127781593Y-26881953D01*
X127688772Y-26721182D01*
X127631405Y-26544626D01*
X127612000Y-26360000D01*
X127631405Y-26175374D01*
X127688772Y-25998818D01*
X127781593Y-25838047D01*
X127905812Y-25700087D01*
X128056000Y-25590969D01*
X128225593Y-25515462D01*
X128407179Y-25476865D01*
X128592821Y-25476865D01*
X128774407Y-25515462D01*
G37*
G36*
X131314407Y-25515462D02*
G01*
X131484000Y-25590969D01*
X131634188Y-25700087D01*
X131758407Y-25838047D01*
X131851228Y-25998818D01*
X131908595Y-26175374D01*
X131928000Y-26360000D01*
X131908595Y-26544626D01*
X131851228Y-26721182D01*
X131758407Y-26881953D01*
X131634188Y-27019913D01*
X131484000Y-27129031D01*
X131314407Y-27204538D01*
X131132821Y-27243135D01*
X130947179Y-27243135D01*
X130765593Y-27204538D01*
X130596000Y-27129031D01*
X130445812Y-27019913D01*
X130321593Y-26881953D01*
X130228772Y-26721182D01*
X130171405Y-26544626D01*
X130152000Y-26360000D01*
X130171405Y-26175374D01*
X130228772Y-25998818D01*
X130321593Y-25838047D01*
X130445812Y-25700087D01*
X130596000Y-25590969D01*
X130765593Y-25515462D01*
X130947179Y-25476865D01*
X131132821Y-25476865D01*
X131314407Y-25515462D01*
G37*
G36*
X85127238Y-24735794D02*
G01*
X85278744Y-24765931D01*
X85421461Y-24825046D01*
X85549902Y-24910868D01*
X85659132Y-25020098D01*
X85744954Y-25148539D01*
X85804069Y-25291256D01*
X85834206Y-25442762D01*
X85834206Y-25597238D01*
X85804069Y-25748744D01*
X85744954Y-25891461D01*
X85659132Y-26019902D01*
X85549902Y-26129132D01*
X85421461Y-26214954D01*
X85278744Y-26274069D01*
X85127238Y-26304206D01*
X85050000Y-26308000D01*
X85048768Y-26308000D01*
X83551232Y-26308000D01*
X83550000Y-26308000D01*
X83472762Y-26304206D01*
X83321256Y-26274069D01*
X83178539Y-26214954D01*
X83050098Y-26129132D01*
X82940868Y-26019902D01*
X82855046Y-25891461D01*
X82795931Y-25748744D01*
X82765794Y-25597238D01*
X82765794Y-25442762D01*
X82795931Y-25291256D01*
X82855046Y-25148539D01*
X82940868Y-25020098D01*
X83050098Y-24910868D01*
X83178539Y-24825046D01*
X83321256Y-24765931D01*
X83472762Y-24735794D01*
X83550000Y-24732000D01*
X85050000Y-24732000D01*
X85127238Y-24735794D01*
G37*
G36*
X100367238Y-24735794D02*
G01*
X100518744Y-24765931D01*
X100661461Y-24825046D01*
X100789902Y-24910868D01*
X100899132Y-25020098D01*
X100984954Y-25148539D01*
X101044069Y-25291256D01*
X101074206Y-25442762D01*
X101074206Y-25597238D01*
X101044069Y-25748744D01*
X100984954Y-25891461D01*
X100899132Y-26019902D01*
X100789902Y-26129132D01*
X100661461Y-26214954D01*
X100518744Y-26274069D01*
X100367238Y-26304206D01*
X100290000Y-26308000D01*
X100288768Y-26308000D01*
X98791232Y-26308000D01*
X98790000Y-26308000D01*
X98712762Y-26304206D01*
X98561256Y-26274069D01*
X98418539Y-26214954D01*
X98290098Y-26129132D01*
X98180868Y-26019902D01*
X98095046Y-25891461D01*
X98035931Y-25748744D01*
X98005794Y-25597238D01*
X98005794Y-25442762D01*
X98035931Y-25291256D01*
X98095046Y-25148539D01*
X98180868Y-25020098D01*
X98290098Y-24910868D01*
X98418539Y-24825046D01*
X98561256Y-24765931D01*
X98712762Y-24735794D01*
X98790000Y-24732000D01*
X100290000Y-24732000D01*
X100367238Y-24735794D01*
G37*
G36*
X77242138Y-24606035D02*
G01*
X77403259Y-24638084D01*
X77555030Y-24700950D01*
X77691622Y-24792217D01*
X77807783Y-24908378D01*
X77899050Y-25044970D01*
X77961916Y-25196741D01*
X77993965Y-25357862D01*
X77993965Y-25522138D01*
X77961916Y-25683259D01*
X77899050Y-25835030D01*
X77807783Y-25971622D01*
X77691622Y-26087783D01*
X77555030Y-26179050D01*
X77403259Y-26241916D01*
X77242138Y-26273965D01*
X77160000Y-26278000D01*
X77158768Y-26278000D01*
X76361232Y-26278000D01*
X76360000Y-26278000D01*
X76277862Y-26273965D01*
X76116741Y-26241916D01*
X75964970Y-26179050D01*
X75828378Y-26087783D01*
X75712217Y-25971622D01*
X75620950Y-25835030D01*
X75558084Y-25683259D01*
X75526035Y-25522138D01*
X75526035Y-25357862D01*
X75558084Y-25196741D01*
X75620950Y-25044970D01*
X75712217Y-24908378D01*
X75828378Y-24792217D01*
X75964970Y-24700950D01*
X76116741Y-24638084D01*
X76277862Y-24606035D01*
X76360000Y-24602000D01*
X77160000Y-24602000D01*
X77242138Y-24606035D01*
G37*
G36*
X92482138Y-24606035D02*
G01*
X92643259Y-24638084D01*
X92795030Y-24700950D01*
X92931622Y-24792217D01*
X93047783Y-24908378D01*
X93139050Y-25044970D01*
X93201916Y-25196741D01*
X93233965Y-25357862D01*
X93233965Y-25522138D01*
X93201916Y-25683259D01*
X93139050Y-25835030D01*
X93047783Y-25971622D01*
X92931622Y-26087783D01*
X92795030Y-26179050D01*
X92643259Y-26241916D01*
X92482138Y-26273965D01*
X92400000Y-26278000D01*
X92398768Y-26278000D01*
X91601232Y-26278000D01*
X91600000Y-26278000D01*
X91517862Y-26273965D01*
X91356741Y-26241916D01*
X91204970Y-26179050D01*
X91068378Y-26087783D01*
X90952217Y-25971622D01*
X90860950Y-25835030D01*
X90798084Y-25683259D01*
X90766035Y-25522138D01*
X90766035Y-25357862D01*
X90798084Y-25196741D01*
X90860950Y-25044970D01*
X90952217Y-24908378D01*
X91068378Y-24792217D01*
X91204970Y-24700950D01*
X91356741Y-24638084D01*
X91517862Y-24606035D01*
X91600000Y-24602000D01*
X92400000Y-24602000D01*
X92482138Y-24606035D01*
G37*
G36*
X128774407Y-22975462D02*
G01*
X128944000Y-23050969D01*
X129094188Y-23160087D01*
X129218407Y-23298047D01*
X129311228Y-23458818D01*
X129368595Y-23635374D01*
X129388000Y-23820000D01*
X129368595Y-24004626D01*
X129311228Y-24181182D01*
X129218407Y-24341953D01*
X129094188Y-24479913D01*
X128944000Y-24589031D01*
X128774407Y-24664538D01*
X128592821Y-24703135D01*
X128407179Y-24703135D01*
X128225593Y-24664538D01*
X128056000Y-24589031D01*
X127905812Y-24479913D01*
X127781593Y-24341953D01*
X127688772Y-24181182D01*
X127631405Y-24004626D01*
X127612000Y-23820000D01*
X127631405Y-23635374D01*
X127688772Y-23458818D01*
X127781593Y-23298047D01*
X127905812Y-23160087D01*
X128056000Y-23050969D01*
X128225593Y-22975462D01*
X128407179Y-22936865D01*
X128592821Y-22936865D01*
X128774407Y-22975462D01*
G37*
G36*
X131314407Y-22975462D02*
G01*
X131484000Y-23050969D01*
X131634188Y-23160087D01*
X131758407Y-23298047D01*
X131851228Y-23458818D01*
X131908595Y-23635374D01*
X131928000Y-23820000D01*
X131908595Y-24004626D01*
X131851228Y-24181182D01*
X131758407Y-24341953D01*
X131634188Y-24479913D01*
X131484000Y-24589031D01*
X131314407Y-24664538D01*
X131132821Y-24703135D01*
X130947179Y-24703135D01*
X130765593Y-24664538D01*
X130596000Y-24589031D01*
X130445812Y-24479913D01*
X130321593Y-24341953D01*
X130228772Y-24181182D01*
X130171405Y-24004626D01*
X130152000Y-23820000D01*
X130171405Y-23635374D01*
X130228772Y-23458818D01*
X130321593Y-23298047D01*
X130445812Y-23160087D01*
X130596000Y-23050969D01*
X130765593Y-22975462D01*
X130947179Y-22936865D01*
X131132821Y-22936865D01*
X131314407Y-22975462D01*
G37*
G36*
X85127238Y-22195794D02*
G01*
X85278744Y-22225931D01*
X85421461Y-22285046D01*
X85549902Y-22370868D01*
X85659132Y-22480098D01*
X85744954Y-22608539D01*
X85804069Y-22751256D01*
X85834206Y-22902762D01*
X85834206Y-23057238D01*
X85804069Y-23208744D01*
X85744954Y-23351461D01*
X85659132Y-23479902D01*
X85549902Y-23589132D01*
X85421461Y-23674954D01*
X85278744Y-23734069D01*
X85127238Y-23764206D01*
X85050000Y-23768000D01*
X85048768Y-23768000D01*
X83551232Y-23768000D01*
X83550000Y-23768000D01*
X83472762Y-23764206D01*
X83321256Y-23734069D01*
X83178539Y-23674954D01*
X83050098Y-23589132D01*
X82940868Y-23479902D01*
X82855046Y-23351461D01*
X82795931Y-23208744D01*
X82765794Y-23057238D01*
X82765794Y-22902762D01*
X82795931Y-22751256D01*
X82855046Y-22608539D01*
X82940868Y-22480098D01*
X83050098Y-22370868D01*
X83178539Y-22285046D01*
X83321256Y-22225931D01*
X83472762Y-22195794D01*
X83550000Y-22192000D01*
X85050000Y-22192000D01*
X85127238Y-22195794D01*
G37*
G36*
X100367238Y-22195794D02*
G01*
X100518744Y-22225931D01*
X100661461Y-22285046D01*
X100789902Y-22370868D01*
X100899132Y-22480098D01*
X100984954Y-22608539D01*
X101044069Y-22751256D01*
X101074206Y-22902762D01*
X101074206Y-23057238D01*
X101044069Y-23208744D01*
X100984954Y-23351461D01*
X100899132Y-23479902D01*
X100789902Y-23589132D01*
X100661461Y-23674954D01*
X100518744Y-23734069D01*
X100367238Y-23764206D01*
X100290000Y-23768000D01*
X100288768Y-23768000D01*
X98791232Y-23768000D01*
X98790000Y-23768000D01*
X98712762Y-23764206D01*
X98561256Y-23734069D01*
X98418539Y-23674954D01*
X98290098Y-23589132D01*
X98180868Y-23479902D01*
X98095046Y-23351461D01*
X98035931Y-23208744D01*
X98005794Y-23057238D01*
X98005794Y-22902762D01*
X98035931Y-22751256D01*
X98095046Y-22608539D01*
X98180868Y-22480098D01*
X98290098Y-22370868D01*
X98418539Y-22285046D01*
X98561256Y-22225931D01*
X98712762Y-22195794D01*
X98790000Y-22192000D01*
X100290000Y-22192000D01*
X100367238Y-22195794D01*
G37*
G36*
X77242138Y-22066035D02*
G01*
X77403259Y-22098084D01*
X77555030Y-22160950D01*
X77691622Y-22252217D01*
X77807783Y-22368378D01*
X77899050Y-22504970D01*
X77961916Y-22656741D01*
X77993965Y-22817862D01*
X77993965Y-22982138D01*
X77961916Y-23143259D01*
X77899050Y-23295030D01*
X77807783Y-23431622D01*
X77691622Y-23547783D01*
X77555030Y-23639050D01*
X77403259Y-23701916D01*
X77242138Y-23733965D01*
X77160000Y-23738000D01*
X77158768Y-23738000D01*
X76361232Y-23738000D01*
X76360000Y-23738000D01*
X76277862Y-23733965D01*
X76116741Y-23701916D01*
X75964970Y-23639050D01*
X75828378Y-23547783D01*
X75712217Y-23431622D01*
X75620950Y-23295030D01*
X75558084Y-23143259D01*
X75526035Y-22982138D01*
X75526035Y-22817862D01*
X75558084Y-22656741D01*
X75620950Y-22504970D01*
X75712217Y-22368378D01*
X75828378Y-22252217D01*
X75964970Y-22160950D01*
X76116741Y-22098084D01*
X76277862Y-22066035D01*
X76360000Y-22062000D01*
X77160000Y-22062000D01*
X77242138Y-22066035D01*
G37*
G36*
X92482138Y-22066035D02*
G01*
X92643259Y-22098084D01*
X92795030Y-22160950D01*
X92931622Y-22252217D01*
X93047783Y-22368378D01*
X93139050Y-22504970D01*
X93201916Y-22656741D01*
X93233965Y-22817862D01*
X93233965Y-22982138D01*
X93201916Y-23143259D01*
X93139050Y-23295030D01*
X93047783Y-23431622D01*
X92931622Y-23547783D01*
X92795030Y-23639050D01*
X92643259Y-23701916D01*
X92482138Y-23733965D01*
X92400000Y-23738000D01*
X92398768Y-23738000D01*
X91601232Y-23738000D01*
X91600000Y-23738000D01*
X91517862Y-23733965D01*
X91356741Y-23701916D01*
X91204970Y-23639050D01*
X91068378Y-23547783D01*
X90952217Y-23431622D01*
X90860950Y-23295030D01*
X90798084Y-23143259D01*
X90766035Y-22982138D01*
X90766035Y-22817862D01*
X90798084Y-22656741D01*
X90860950Y-22504970D01*
X90952217Y-22368378D01*
X91068378Y-22252217D01*
X91204970Y-22160950D01*
X91356741Y-22098084D01*
X91517862Y-22066035D01*
X91600000Y-22062000D01*
X92400000Y-22062000D01*
X92482138Y-22066035D01*
G37*
G36*
X128774407Y-20435462D02*
G01*
X128944000Y-20510969D01*
X129094188Y-20620087D01*
X129218407Y-20758047D01*
X129311228Y-20918818D01*
X129368595Y-21095374D01*
X129388000Y-21280000D01*
X129368595Y-21464626D01*
X129311228Y-21641182D01*
X129218407Y-21801953D01*
X129094188Y-21939913D01*
X128944000Y-22049031D01*
X128774407Y-22124538D01*
X128592821Y-22163135D01*
X128407179Y-22163135D01*
X128225593Y-22124538D01*
X128056000Y-22049031D01*
X127905812Y-21939913D01*
X127781593Y-21801953D01*
X127688772Y-21641182D01*
X127631405Y-21464626D01*
X127612000Y-21280000D01*
X127631405Y-21095374D01*
X127688772Y-20918818D01*
X127781593Y-20758047D01*
X127905812Y-20620087D01*
X128056000Y-20510969D01*
X128225593Y-20435462D01*
X128407179Y-20396865D01*
X128592821Y-20396865D01*
X128774407Y-20435462D01*
G37*
G36*
X131314407Y-20435462D02*
G01*
X131484000Y-20510969D01*
X131634188Y-20620087D01*
X131758407Y-20758047D01*
X131851228Y-20918818D01*
X131908595Y-21095374D01*
X131928000Y-21280000D01*
X131908595Y-21464626D01*
X131851228Y-21641182D01*
X131758407Y-21801953D01*
X131634188Y-21939913D01*
X131484000Y-22049031D01*
X131314407Y-22124538D01*
X131132821Y-22163135D01*
X130947179Y-22163135D01*
X130765593Y-22124538D01*
X130596000Y-22049031D01*
X130445812Y-21939913D01*
X130321593Y-21801953D01*
X130228772Y-21641182D01*
X130171405Y-21464626D01*
X130152000Y-21280000D01*
X130171405Y-21095374D01*
X130228772Y-20918818D01*
X130321593Y-20758047D01*
X130445812Y-20620087D01*
X130596000Y-20510969D01*
X130765593Y-20435462D01*
X130947179Y-20396865D01*
X131132821Y-20396865D01*
X131314407Y-20435462D01*
G37*
G36*
X85127238Y-19655794D02*
G01*
X85278744Y-19685931D01*
X85421461Y-19745046D01*
X85549902Y-19830868D01*
X85659132Y-19940098D01*
X85744954Y-20068539D01*
X85804069Y-20211256D01*
X85834206Y-20362762D01*
X85834206Y-20517238D01*
X85804069Y-20668744D01*
X85744954Y-20811461D01*
X85659132Y-20939902D01*
X85549902Y-21049132D01*
X85421461Y-21134954D01*
X85278744Y-21194069D01*
X85127238Y-21224206D01*
X85050000Y-21228000D01*
X85048768Y-21228000D01*
X83551232Y-21228000D01*
X83550000Y-21228000D01*
X83472762Y-21224206D01*
X83321256Y-21194069D01*
X83178539Y-21134954D01*
X83050098Y-21049132D01*
X82940868Y-20939902D01*
X82855046Y-20811461D01*
X82795931Y-20668744D01*
X82765794Y-20517238D01*
X82765794Y-20362762D01*
X82795931Y-20211256D01*
X82855046Y-20068539D01*
X82940868Y-19940098D01*
X83050098Y-19830868D01*
X83178539Y-19745046D01*
X83321256Y-19685931D01*
X83472762Y-19655794D01*
X83550000Y-19652000D01*
X85050000Y-19652000D01*
X85127238Y-19655794D01*
G37*
G36*
X100367238Y-19655794D02*
G01*
X100518744Y-19685931D01*
X100661461Y-19745046D01*
X100789902Y-19830868D01*
X100899132Y-19940098D01*
X100984954Y-20068539D01*
X101044069Y-20211256D01*
X101074206Y-20362762D01*
X101074206Y-20517238D01*
X101044069Y-20668744D01*
X100984954Y-20811461D01*
X100899132Y-20939902D01*
X100789902Y-21049132D01*
X100661461Y-21134954D01*
X100518744Y-21194069D01*
X100367238Y-21224206D01*
X100290000Y-21228000D01*
X100288768Y-21228000D01*
X98791232Y-21228000D01*
X98790000Y-21228000D01*
X98712762Y-21224206D01*
X98561256Y-21194069D01*
X98418539Y-21134954D01*
X98290098Y-21049132D01*
X98180868Y-20939902D01*
X98095046Y-20811461D01*
X98035931Y-20668744D01*
X98005794Y-20517238D01*
X98005794Y-20362762D01*
X98035931Y-20211256D01*
X98095046Y-20068539D01*
X98180868Y-19940098D01*
X98290098Y-19830868D01*
X98418539Y-19745046D01*
X98561256Y-19685931D01*
X98712762Y-19655794D01*
X98790000Y-19652000D01*
X100290000Y-19652000D01*
X100367238Y-19655794D01*
G37*
G36*
X77242138Y-19526035D02*
G01*
X77403259Y-19558084D01*
X77555030Y-19620950D01*
X77691622Y-19712217D01*
X77807783Y-19828378D01*
X77899050Y-19964970D01*
X77961916Y-20116741D01*
X77993965Y-20277862D01*
X77993965Y-20442138D01*
X77961916Y-20603259D01*
X77899050Y-20755030D01*
X77807783Y-20891622D01*
X77691622Y-21007783D01*
X77555030Y-21099050D01*
X77403259Y-21161916D01*
X77242138Y-21193965D01*
X77160000Y-21198000D01*
X77158768Y-21198000D01*
X76361232Y-21198000D01*
X76360000Y-21198000D01*
X76277862Y-21193965D01*
X76116741Y-21161916D01*
X75964970Y-21099050D01*
X75828378Y-21007783D01*
X75712217Y-20891622D01*
X75620950Y-20755030D01*
X75558084Y-20603259D01*
X75526035Y-20442138D01*
X75526035Y-20277862D01*
X75558084Y-20116741D01*
X75620950Y-19964970D01*
X75712217Y-19828378D01*
X75828378Y-19712217D01*
X75964970Y-19620950D01*
X76116741Y-19558084D01*
X76277862Y-19526035D01*
X76360000Y-19522000D01*
X77160000Y-19522000D01*
X77242138Y-19526035D01*
G37*
G36*
X92482138Y-19526035D02*
G01*
X92643259Y-19558084D01*
X92795030Y-19620950D01*
X92931622Y-19712217D01*
X93047783Y-19828378D01*
X93139050Y-19964970D01*
X93201916Y-20116741D01*
X93233965Y-20277862D01*
X93233965Y-20442138D01*
X93201916Y-20603259D01*
X93139050Y-20755030D01*
X93047783Y-20891622D01*
X92931622Y-21007783D01*
X92795030Y-21099050D01*
X92643259Y-21161916D01*
X92482138Y-21193965D01*
X92400000Y-21198000D01*
X92398768Y-21198000D01*
X91601232Y-21198000D01*
X91600000Y-21198000D01*
X91517862Y-21193965D01*
X91356741Y-21161916D01*
X91204970Y-21099050D01*
X91068378Y-21007783D01*
X90952217Y-20891622D01*
X90860950Y-20755030D01*
X90798084Y-20603259D01*
X90766035Y-20442138D01*
X90766035Y-20277862D01*
X90798084Y-20116741D01*
X90860950Y-19964970D01*
X90952217Y-19828378D01*
X91068378Y-19712217D01*
X91204970Y-19620950D01*
X91356741Y-19558084D01*
X91517862Y-19526035D01*
X91600000Y-19522000D01*
X92400000Y-19522000D01*
X92482138Y-19526035D01*
G37*
G36*
X128774407Y-17895462D02*
G01*
X128944000Y-17970969D01*
X129094188Y-18080087D01*
X129218407Y-18218047D01*
X129311228Y-18378818D01*
X129368595Y-18555374D01*
X129388000Y-18740000D01*
X129368595Y-18924626D01*
X129311228Y-19101182D01*
X129218407Y-19261953D01*
X129094188Y-19399913D01*
X128944000Y-19509031D01*
X128774407Y-19584538D01*
X128592821Y-19623135D01*
X128407179Y-19623135D01*
X128225593Y-19584538D01*
X128056000Y-19509031D01*
X127905812Y-19399913D01*
X127781593Y-19261953D01*
X127688772Y-19101182D01*
X127631405Y-18924626D01*
X127612000Y-18740000D01*
X127631405Y-18555374D01*
X127688772Y-18378818D01*
X127781593Y-18218047D01*
X127905812Y-18080087D01*
X128056000Y-17970969D01*
X128225593Y-17895462D01*
X128407179Y-17856865D01*
X128592821Y-17856865D01*
X128774407Y-17895462D01*
G37*
G36*
X131314407Y-17895462D02*
G01*
X131484000Y-17970969D01*
X131634188Y-18080087D01*
X131758407Y-18218047D01*
X131851228Y-18378818D01*
X131908595Y-18555374D01*
X131928000Y-18740000D01*
X131908595Y-18924626D01*
X131851228Y-19101182D01*
X131758407Y-19261953D01*
X131634188Y-19399913D01*
X131484000Y-19509031D01*
X131314407Y-19584538D01*
X131132821Y-19623135D01*
X130947179Y-19623135D01*
X130765593Y-19584538D01*
X130596000Y-19509031D01*
X130445812Y-19399913D01*
X130321593Y-19261953D01*
X130228772Y-19101182D01*
X130171405Y-18924626D01*
X130152000Y-18740000D01*
X130171405Y-18555374D01*
X130228772Y-18378818D01*
X130321593Y-18218047D01*
X130445812Y-18080087D01*
X130596000Y-17970969D01*
X130765593Y-17895462D01*
X130947179Y-17856865D01*
X131132821Y-17856865D01*
X131314407Y-17895462D01*
G37*
G36*
X85127238Y-17115794D02*
G01*
X85278744Y-17145931D01*
X85421461Y-17205046D01*
X85549902Y-17290868D01*
X85659132Y-17400098D01*
X85744954Y-17528539D01*
X85804069Y-17671256D01*
X85834206Y-17822762D01*
X85834206Y-17977238D01*
X85804069Y-18128744D01*
X85744954Y-18271461D01*
X85659132Y-18399902D01*
X85549902Y-18509132D01*
X85421461Y-18594954D01*
X85278744Y-18654069D01*
X85127238Y-18684206D01*
X85050000Y-18688000D01*
X85048768Y-18688000D01*
X83551232Y-18688000D01*
X83550000Y-18688000D01*
X83472762Y-18684206D01*
X83321256Y-18654069D01*
X83178539Y-18594954D01*
X83050098Y-18509132D01*
X82940868Y-18399902D01*
X82855046Y-18271461D01*
X82795931Y-18128744D01*
X82765794Y-17977238D01*
X82765794Y-17822762D01*
X82795931Y-17671256D01*
X82855046Y-17528539D01*
X82940868Y-17400098D01*
X83050098Y-17290868D01*
X83178539Y-17205046D01*
X83321256Y-17145931D01*
X83472762Y-17115794D01*
X83550000Y-17112000D01*
X85050000Y-17112000D01*
X85127238Y-17115794D01*
G37*
G36*
X100367238Y-17115794D02*
G01*
X100518744Y-17145931D01*
X100661461Y-17205046D01*
X100789902Y-17290868D01*
X100899132Y-17400098D01*
X100984954Y-17528539D01*
X101044069Y-17671256D01*
X101074206Y-17822762D01*
X101074206Y-17977238D01*
X101044069Y-18128744D01*
X100984954Y-18271461D01*
X100899132Y-18399902D01*
X100789902Y-18509132D01*
X100661461Y-18594954D01*
X100518744Y-18654069D01*
X100367238Y-18684206D01*
X100290000Y-18688000D01*
X100288768Y-18688000D01*
X98791232Y-18688000D01*
X98790000Y-18688000D01*
X98712762Y-18684206D01*
X98561256Y-18654069D01*
X98418539Y-18594954D01*
X98290098Y-18509132D01*
X98180868Y-18399902D01*
X98095046Y-18271461D01*
X98035931Y-18128744D01*
X98005794Y-17977238D01*
X98005794Y-17822762D01*
X98035931Y-17671256D01*
X98095046Y-17528539D01*
X98180868Y-17400098D01*
X98290098Y-17290868D01*
X98418539Y-17205046D01*
X98561256Y-17145931D01*
X98712762Y-17115794D01*
X98790000Y-17112000D01*
X100290000Y-17112000D01*
X100367238Y-17115794D01*
G37*
G36*
X77242138Y-16986035D02*
G01*
X77403259Y-17018084D01*
X77555030Y-17080950D01*
X77691622Y-17172217D01*
X77807783Y-17288378D01*
X77899050Y-17424970D01*
X77961916Y-17576741D01*
X77993965Y-17737862D01*
X77993965Y-17902138D01*
X77961916Y-18063259D01*
X77899050Y-18215030D01*
X77807783Y-18351622D01*
X77691622Y-18467783D01*
X77555030Y-18559050D01*
X77403259Y-18621916D01*
X77242138Y-18653965D01*
X77160000Y-18658000D01*
X77158768Y-18658000D01*
X76361232Y-18658000D01*
X76360000Y-18658000D01*
X76277862Y-18653965D01*
X76116741Y-18621916D01*
X75964970Y-18559050D01*
X75828378Y-18467783D01*
X75712217Y-18351622D01*
X75620950Y-18215030D01*
X75558084Y-18063259D01*
X75526035Y-17902138D01*
X75526035Y-17737862D01*
X75558084Y-17576741D01*
X75620950Y-17424970D01*
X75712217Y-17288378D01*
X75828378Y-17172217D01*
X75964970Y-17080950D01*
X76116741Y-17018084D01*
X76277862Y-16986035D01*
X76360000Y-16982000D01*
X77160000Y-16982000D01*
X77242138Y-16986035D01*
G37*
G36*
X92482138Y-16986035D02*
G01*
X92643259Y-17018084D01*
X92795030Y-17080950D01*
X92931622Y-17172217D01*
X93047783Y-17288378D01*
X93139050Y-17424970D01*
X93201916Y-17576741D01*
X93233965Y-17737862D01*
X93233965Y-17902138D01*
X93201916Y-18063259D01*
X93139050Y-18215030D01*
X93047783Y-18351622D01*
X92931622Y-18467783D01*
X92795030Y-18559050D01*
X92643259Y-18621916D01*
X92482138Y-18653965D01*
X92400000Y-18658000D01*
X92398768Y-18658000D01*
X91601232Y-18658000D01*
X91600000Y-18658000D01*
X91517862Y-18653965D01*
X91356741Y-18621916D01*
X91204970Y-18559050D01*
X91068378Y-18467783D01*
X90952217Y-18351622D01*
X90860950Y-18215030D01*
X90798084Y-18063259D01*
X90766035Y-17902138D01*
X90766035Y-17737862D01*
X90798084Y-17576741D01*
X90860950Y-17424970D01*
X90952217Y-17288378D01*
X91068378Y-17172217D01*
X91204970Y-17080950D01*
X91356741Y-17018084D01*
X91517862Y-16986035D01*
X91600000Y-16982000D01*
X92400000Y-16982000D01*
X92482138Y-16986035D01*
G37*
G36*
X128774407Y-15355462D02*
G01*
X128944000Y-15430969D01*
X129094188Y-15540087D01*
X129218407Y-15678047D01*
X129311228Y-15838818D01*
X129368595Y-16015374D01*
X129388000Y-16200000D01*
X129368595Y-16384626D01*
X129311228Y-16561182D01*
X129218407Y-16721953D01*
X129094188Y-16859913D01*
X128944000Y-16969031D01*
X128774407Y-17044538D01*
X128592821Y-17083135D01*
X128407179Y-17083135D01*
X128225593Y-17044538D01*
X128056000Y-16969031D01*
X127905812Y-16859913D01*
X127781593Y-16721953D01*
X127688772Y-16561182D01*
X127631405Y-16384626D01*
X127612000Y-16200000D01*
X127631405Y-16015374D01*
X127688772Y-15838818D01*
X127781593Y-15678047D01*
X127905812Y-15540087D01*
X128056000Y-15430969D01*
X128225593Y-15355462D01*
X128407179Y-15316865D01*
X128592821Y-15316865D01*
X128774407Y-15355462D01*
G37*
G36*
X131314407Y-15355462D02*
G01*
X131484000Y-15430969D01*
X131634188Y-15540087D01*
X131758407Y-15678047D01*
X131851228Y-15838818D01*
X131908595Y-16015374D01*
X131928000Y-16200000D01*
X131908595Y-16384626D01*
X131851228Y-16561182D01*
X131758407Y-16721953D01*
X131634188Y-16859913D01*
X131484000Y-16969031D01*
X131314407Y-17044538D01*
X131132821Y-17083135D01*
X130947179Y-17083135D01*
X130765593Y-17044538D01*
X130596000Y-16969031D01*
X130445812Y-16859913D01*
X130321593Y-16721953D01*
X130228772Y-16561182D01*
X130171405Y-16384626D01*
X130152000Y-16200000D01*
X130171405Y-16015374D01*
X130228772Y-15838818D01*
X130321593Y-15678047D01*
X130445812Y-15540087D01*
X130596000Y-15430969D01*
X130765593Y-15355462D01*
X130947179Y-15316865D01*
X131132821Y-15316865D01*
X131314407Y-15355462D01*
G37*
G36*
X85127238Y-14575794D02*
G01*
X85278744Y-14605931D01*
X85421461Y-14665046D01*
X85549902Y-14750868D01*
X85659132Y-14860098D01*
X85744954Y-14988539D01*
X85804069Y-15131256D01*
X85834206Y-15282762D01*
X85834206Y-15437238D01*
X85804069Y-15588744D01*
X85744954Y-15731461D01*
X85659132Y-15859902D01*
X85549902Y-15969132D01*
X85421461Y-16054954D01*
X85278744Y-16114069D01*
X85127238Y-16144206D01*
X85050000Y-16148000D01*
X85048768Y-16148000D01*
X83551232Y-16148000D01*
X83550000Y-16148000D01*
X83472762Y-16144206D01*
X83321256Y-16114069D01*
X83178539Y-16054954D01*
X83050098Y-15969132D01*
X82940868Y-15859902D01*
X82855046Y-15731461D01*
X82795931Y-15588744D01*
X82765794Y-15437238D01*
X82765794Y-15282762D01*
X82795931Y-15131256D01*
X82855046Y-14988539D01*
X82940868Y-14860098D01*
X83050098Y-14750868D01*
X83178539Y-14665046D01*
X83321256Y-14605931D01*
X83472762Y-14575794D01*
X83550000Y-14572000D01*
X85050000Y-14572000D01*
X85127238Y-14575794D01*
G37*
G36*
X100367238Y-14575794D02*
G01*
X100518744Y-14605931D01*
X100661461Y-14665046D01*
X100789902Y-14750868D01*
X100899132Y-14860098D01*
X100984954Y-14988539D01*
X101044069Y-15131256D01*
X101074206Y-15282762D01*
X101074206Y-15437238D01*
X101044069Y-15588744D01*
X100984954Y-15731461D01*
X100899132Y-15859902D01*
X100789902Y-15969132D01*
X100661461Y-16054954D01*
X100518744Y-16114069D01*
X100367238Y-16144206D01*
X100290000Y-16148000D01*
X100288768Y-16148000D01*
X98791232Y-16148000D01*
X98790000Y-16148000D01*
X98712762Y-16144206D01*
X98561256Y-16114069D01*
X98418539Y-16054954D01*
X98290098Y-15969132D01*
X98180868Y-15859902D01*
X98095046Y-15731461D01*
X98035931Y-15588744D01*
X98005794Y-15437238D01*
X98005794Y-15282762D01*
X98035931Y-15131256D01*
X98095046Y-14988539D01*
X98180868Y-14860098D01*
X98290098Y-14750868D01*
X98418539Y-14665046D01*
X98561256Y-14605931D01*
X98712762Y-14575794D01*
X98790000Y-14572000D01*
X100290000Y-14572000D01*
X100367238Y-14575794D01*
G37*
G36*
X77242138Y-14446035D02*
G01*
X77403259Y-14478084D01*
X77555030Y-14540950D01*
X77691622Y-14632217D01*
X77807783Y-14748378D01*
X77899050Y-14884970D01*
X77961916Y-15036741D01*
X77993965Y-15197862D01*
X77993965Y-15362138D01*
X77961916Y-15523259D01*
X77899050Y-15675030D01*
X77807783Y-15811622D01*
X77691622Y-15927783D01*
X77555030Y-16019050D01*
X77403259Y-16081916D01*
X77242138Y-16113965D01*
X77160000Y-16118000D01*
X77158768Y-16118000D01*
X76361232Y-16118000D01*
X76360000Y-16118000D01*
X76277862Y-16113965D01*
X76116741Y-16081916D01*
X75964970Y-16019050D01*
X75828378Y-15927783D01*
X75712217Y-15811622D01*
X75620950Y-15675030D01*
X75558084Y-15523259D01*
X75526035Y-15362138D01*
X75526035Y-15197862D01*
X75558084Y-15036741D01*
X75620950Y-14884970D01*
X75712217Y-14748378D01*
X75828378Y-14632217D01*
X75964970Y-14540950D01*
X76116741Y-14478084D01*
X76277862Y-14446035D01*
X76360000Y-14442000D01*
X77160000Y-14442000D01*
X77242138Y-14446035D01*
G37*
G36*
X92482138Y-14446035D02*
G01*
X92643259Y-14478084D01*
X92795030Y-14540950D01*
X92931622Y-14632217D01*
X93047783Y-14748378D01*
X93139050Y-14884970D01*
X93201916Y-15036741D01*
X93233965Y-15197862D01*
X93233965Y-15362138D01*
X93201916Y-15523259D01*
X93139050Y-15675030D01*
X93047783Y-15811622D01*
X92931622Y-15927783D01*
X92795030Y-16019050D01*
X92643259Y-16081916D01*
X92482138Y-16113965D01*
X92400000Y-16118000D01*
X92398768Y-16118000D01*
X91601232Y-16118000D01*
X91600000Y-16118000D01*
X91517862Y-16113965D01*
X91356741Y-16081916D01*
X91204970Y-16019050D01*
X91068378Y-15927783D01*
X90952217Y-15811622D01*
X90860950Y-15675030D01*
X90798084Y-15523259D01*
X90766035Y-15362138D01*
X90766035Y-15197862D01*
X90798084Y-15036741D01*
X90860950Y-14884970D01*
X90952217Y-14748378D01*
X91068378Y-14632217D01*
X91204970Y-14540950D01*
X91356741Y-14478084D01*
X91517862Y-14446035D01*
X91600000Y-14442000D01*
X92400000Y-14442000D01*
X92482138Y-14446035D01*
G37*
G36*
X128774407Y-12815462D02*
G01*
X128944000Y-12890969D01*
X129094188Y-13000087D01*
X129218407Y-13138047D01*
X129311228Y-13298818D01*
X129368595Y-13475374D01*
X129388000Y-13660000D01*
X129368595Y-13844626D01*
X129311228Y-14021182D01*
X129218407Y-14181953D01*
X129094188Y-14319913D01*
X128944000Y-14429031D01*
X128774407Y-14504538D01*
X128592821Y-14543135D01*
X128407179Y-14543135D01*
X128225593Y-14504538D01*
X128056000Y-14429031D01*
X127905812Y-14319913D01*
X127781593Y-14181953D01*
X127688772Y-14021182D01*
X127631405Y-13844626D01*
X127612000Y-13660000D01*
X127631405Y-13475374D01*
X127688772Y-13298818D01*
X127781593Y-13138047D01*
X127905812Y-13000087D01*
X128056000Y-12890969D01*
X128225593Y-12815462D01*
X128407179Y-12776865D01*
X128592821Y-12776865D01*
X128774407Y-12815462D01*
G37*
G36*
X131314407Y-12815462D02*
G01*
X131484000Y-12890969D01*
X131634188Y-13000087D01*
X131758407Y-13138047D01*
X131851228Y-13298818D01*
X131908595Y-13475374D01*
X131928000Y-13660000D01*
X131908595Y-13844626D01*
X131851228Y-14021182D01*
X131758407Y-14181953D01*
X131634188Y-14319913D01*
X131484000Y-14429031D01*
X131314407Y-14504538D01*
X131132821Y-14543135D01*
X130947179Y-14543135D01*
X130765593Y-14504538D01*
X130596000Y-14429031D01*
X130445812Y-14319913D01*
X130321593Y-14181953D01*
X130228772Y-14021182D01*
X130171405Y-13844626D01*
X130152000Y-13660000D01*
X130171405Y-13475374D01*
X130228772Y-13298818D01*
X130321593Y-13138047D01*
X130445812Y-13000087D01*
X130596000Y-12890969D01*
X130765593Y-12815462D01*
X130947179Y-12776865D01*
X131132821Y-12776865D01*
X131314407Y-12815462D01*
G37*
G36*
X85127238Y-12035794D02*
G01*
X85278744Y-12065931D01*
X85421461Y-12125046D01*
X85549902Y-12210868D01*
X85659132Y-12320098D01*
X85744954Y-12448539D01*
X85804069Y-12591256D01*
X85834206Y-12742762D01*
X85834206Y-12897238D01*
X85804069Y-13048744D01*
X85744954Y-13191461D01*
X85659132Y-13319902D01*
X85549902Y-13429132D01*
X85421461Y-13514954D01*
X85278744Y-13574069D01*
X85127238Y-13604206D01*
X85050000Y-13608000D01*
X85048768Y-13608000D01*
X83551232Y-13608000D01*
X83550000Y-13608000D01*
X83472762Y-13604206D01*
X83321256Y-13574069D01*
X83178539Y-13514954D01*
X83050098Y-13429132D01*
X82940868Y-13319902D01*
X82855046Y-13191461D01*
X82795931Y-13048744D01*
X82765794Y-12897238D01*
X82765794Y-12742762D01*
X82795931Y-12591256D01*
X82855046Y-12448539D01*
X82940868Y-12320098D01*
X83050098Y-12210868D01*
X83178539Y-12125046D01*
X83321256Y-12065931D01*
X83472762Y-12035794D01*
X83550000Y-12032000D01*
X85050000Y-12032000D01*
X85127238Y-12035794D01*
G37*
G36*
X100367238Y-12035794D02*
G01*
X100518744Y-12065931D01*
X100661461Y-12125046D01*
X100789902Y-12210868D01*
X100899132Y-12320098D01*
X100984954Y-12448539D01*
X101044069Y-12591256D01*
X101074206Y-12742762D01*
X101074206Y-12897238D01*
X101044069Y-13048744D01*
X100984954Y-13191461D01*
X100899132Y-13319902D01*
X100789902Y-13429132D01*
X100661461Y-13514954D01*
X100518744Y-13574069D01*
X100367238Y-13604206D01*
X100290000Y-13608000D01*
X100288768Y-13608000D01*
X98791232Y-13608000D01*
X98790000Y-13608000D01*
X98712762Y-13604206D01*
X98561256Y-13574069D01*
X98418539Y-13514954D01*
X98290098Y-13429132D01*
X98180868Y-13319902D01*
X98095046Y-13191461D01*
X98035931Y-13048744D01*
X98005794Y-12897238D01*
X98005794Y-12742762D01*
X98035931Y-12591256D01*
X98095046Y-12448539D01*
X98180868Y-12320098D01*
X98290098Y-12210868D01*
X98418539Y-12125046D01*
X98561256Y-12065931D01*
X98712762Y-12035794D01*
X98790000Y-12032000D01*
X100290000Y-12032000D01*
X100367238Y-12035794D01*
G37*
G36*
X77242138Y-11906035D02*
G01*
X77403259Y-11938084D01*
X77555030Y-12000950D01*
X77691622Y-12092217D01*
X77807783Y-12208378D01*
X77899050Y-12344970D01*
X77961916Y-12496741D01*
X77993965Y-12657862D01*
X77993965Y-12822138D01*
X77961916Y-12983259D01*
X77899050Y-13135030D01*
X77807783Y-13271622D01*
X77691622Y-13387783D01*
X77555030Y-13479050D01*
X77403259Y-13541916D01*
X77242138Y-13573965D01*
X77160000Y-13578000D01*
X77158768Y-13578000D01*
X76361232Y-13578000D01*
X76360000Y-13578000D01*
X76277862Y-13573965D01*
X76116741Y-13541916D01*
X75964970Y-13479050D01*
X75828378Y-13387783D01*
X75712217Y-13271622D01*
X75620950Y-13135030D01*
X75558084Y-12983259D01*
X75526035Y-12822138D01*
X75526035Y-12657862D01*
X75558084Y-12496741D01*
X75620950Y-12344970D01*
X75712217Y-12208378D01*
X75828378Y-12092217D01*
X75964970Y-12000950D01*
X76116741Y-11938084D01*
X76277862Y-11906035D01*
X76360000Y-11902000D01*
X77160000Y-11902000D01*
X77242138Y-11906035D01*
G37*
G36*
X92482138Y-11906035D02*
G01*
X92643259Y-11938084D01*
X92795030Y-12000950D01*
X92931622Y-12092217D01*
X93047783Y-12208378D01*
X93139050Y-12344970D01*
X93201916Y-12496741D01*
X93233965Y-12657862D01*
X93233965Y-12822138D01*
X93201916Y-12983259D01*
X93139050Y-13135030D01*
X93047783Y-13271622D01*
X92931622Y-13387783D01*
X92795030Y-13479050D01*
X92643259Y-13541916D01*
X92482138Y-13573965D01*
X92400000Y-13578000D01*
X92398768Y-13578000D01*
X91601232Y-13578000D01*
X91600000Y-13578000D01*
X91517862Y-13573965D01*
X91356741Y-13541916D01*
X91204970Y-13479050D01*
X91068378Y-13387783D01*
X90952217Y-13271622D01*
X90860950Y-13135030D01*
X90798084Y-12983259D01*
X90766035Y-12822138D01*
X90766035Y-12657862D01*
X90798084Y-12496741D01*
X90860950Y-12344970D01*
X90952217Y-12208378D01*
X91068378Y-12092217D01*
X91204970Y-12000950D01*
X91356741Y-11938084D01*
X91517862Y-11906035D01*
X91600000Y-11902000D01*
X92400000Y-11902000D01*
X92482138Y-11906035D01*
G37*
G36*
X128774407Y-10275462D02*
G01*
X128944000Y-10350969D01*
X129094188Y-10460087D01*
X129218407Y-10598047D01*
X129311228Y-10758818D01*
X129368595Y-10935374D01*
X129388000Y-11120000D01*
X129368595Y-11304626D01*
X129311228Y-11481182D01*
X129218407Y-11641953D01*
X129094188Y-11779913D01*
X128944000Y-11889031D01*
X128774407Y-11964538D01*
X128592821Y-12003135D01*
X128407179Y-12003135D01*
X128225593Y-11964538D01*
X128056000Y-11889031D01*
X127905812Y-11779913D01*
X127781593Y-11641953D01*
X127688772Y-11481182D01*
X127631405Y-11304626D01*
X127612000Y-11120000D01*
X127631405Y-10935374D01*
X127688772Y-10758818D01*
X127781593Y-10598047D01*
X127905812Y-10460087D01*
X128056000Y-10350969D01*
X128225593Y-10275462D01*
X128407179Y-10236865D01*
X128592821Y-10236865D01*
X128774407Y-10275462D01*
G37*
G36*
X131314407Y-10275462D02*
G01*
X131484000Y-10350969D01*
X131634188Y-10460087D01*
X131758407Y-10598047D01*
X131851228Y-10758818D01*
X131908595Y-10935374D01*
X131928000Y-11120000D01*
X131908595Y-11304626D01*
X131851228Y-11481182D01*
X131758407Y-11641953D01*
X131634188Y-11779913D01*
X131484000Y-11889031D01*
X131314407Y-11964538D01*
X131132821Y-12003135D01*
X130947179Y-12003135D01*
X130765593Y-11964538D01*
X130596000Y-11889031D01*
X130445812Y-11779913D01*
X130321593Y-11641953D01*
X130228772Y-11481182D01*
X130171405Y-11304626D01*
X130152000Y-11120000D01*
X130171405Y-10935374D01*
X130228772Y-10758818D01*
X130321593Y-10598047D01*
X130445812Y-10460087D01*
X130596000Y-10350969D01*
X130765593Y-10275462D01*
X130947179Y-10236865D01*
X131132821Y-10236865D01*
X131314407Y-10275462D01*
G37*
G36*
X85127238Y-9495794D02*
G01*
X85278744Y-9525931D01*
X85421461Y-9585046D01*
X85549902Y-9670868D01*
X85659132Y-9780098D01*
X85744954Y-9908539D01*
X85804069Y-10051256D01*
X85834206Y-10202762D01*
X85834206Y-10357238D01*
X85804069Y-10508744D01*
X85744954Y-10651461D01*
X85659132Y-10779902D01*
X85549902Y-10889132D01*
X85421461Y-10974954D01*
X85278744Y-11034069D01*
X85127238Y-11064206D01*
X85050000Y-11068000D01*
X85048768Y-11068000D01*
X83551232Y-11068000D01*
X83550000Y-11068000D01*
X83472762Y-11064206D01*
X83321256Y-11034069D01*
X83178539Y-10974954D01*
X83050098Y-10889132D01*
X82940868Y-10779902D01*
X82855046Y-10651461D01*
X82795931Y-10508744D01*
X82765794Y-10357238D01*
X82765794Y-10202762D01*
X82795931Y-10051256D01*
X82855046Y-9908539D01*
X82940868Y-9780098D01*
X83050098Y-9670868D01*
X83178539Y-9585046D01*
X83321256Y-9525931D01*
X83472762Y-9495794D01*
X83550000Y-9492000D01*
X85050000Y-9492000D01*
X85127238Y-9495794D01*
G37*
G36*
X100367238Y-9495794D02*
G01*
X100518744Y-9525931D01*
X100661461Y-9585046D01*
X100789902Y-9670868D01*
X100899132Y-9780098D01*
X100984954Y-9908539D01*
X101044069Y-10051256D01*
X101074206Y-10202762D01*
X101074206Y-10357238D01*
X101044069Y-10508744D01*
X100984954Y-10651461D01*
X100899132Y-10779902D01*
X100789902Y-10889132D01*
X100661461Y-10974954D01*
X100518744Y-11034069D01*
X100367238Y-11064206D01*
X100290000Y-11068000D01*
X100288768Y-11068000D01*
X98791232Y-11068000D01*
X98790000Y-11068000D01*
X98712762Y-11064206D01*
X98561256Y-11034069D01*
X98418539Y-10974954D01*
X98290098Y-10889132D01*
X98180868Y-10779902D01*
X98095046Y-10651461D01*
X98035931Y-10508744D01*
X98005794Y-10357238D01*
X98005794Y-10202762D01*
X98035931Y-10051256D01*
X98095046Y-9908539D01*
X98180868Y-9780098D01*
X98290098Y-9670868D01*
X98418539Y-9585046D01*
X98561256Y-9525931D01*
X98712762Y-9495794D01*
X98790000Y-9492000D01*
X100290000Y-9492000D01*
X100367238Y-9495794D01*
G37*
G36*
X77242138Y-9366035D02*
G01*
X77403259Y-9398084D01*
X77555030Y-9460950D01*
X77691622Y-9552217D01*
X77807783Y-9668378D01*
X77899050Y-9804970D01*
X77961916Y-9956741D01*
X77993965Y-10117862D01*
X77993965Y-10282138D01*
X77961916Y-10443259D01*
X77899050Y-10595030D01*
X77807783Y-10731622D01*
X77691622Y-10847783D01*
X77555030Y-10939050D01*
X77403259Y-11001916D01*
X77242138Y-11033965D01*
X77160000Y-11038000D01*
X77158768Y-11038000D01*
X76361232Y-11038000D01*
X76360000Y-11038000D01*
X76277862Y-11033965D01*
X76116741Y-11001916D01*
X75964970Y-10939050D01*
X75828378Y-10847783D01*
X75712217Y-10731622D01*
X75620950Y-10595030D01*
X75558084Y-10443259D01*
X75526035Y-10282138D01*
X75526035Y-10117862D01*
X75558084Y-9956741D01*
X75620950Y-9804970D01*
X75712217Y-9668378D01*
X75828378Y-9552217D01*
X75964970Y-9460950D01*
X76116741Y-9398084D01*
X76277862Y-9366035D01*
X76360000Y-9362000D01*
X77160000Y-9362000D01*
X77242138Y-9366035D01*
G37*
G36*
X92482138Y-9366035D02*
G01*
X92643259Y-9398084D01*
X92795030Y-9460950D01*
X92931622Y-9552217D01*
X93047783Y-9668378D01*
X93139050Y-9804970D01*
X93201916Y-9956741D01*
X93233965Y-10117862D01*
X93233965Y-10282138D01*
X93201916Y-10443259D01*
X93139050Y-10595030D01*
X93047783Y-10731622D01*
X92931622Y-10847783D01*
X92795030Y-10939050D01*
X92643259Y-11001916D01*
X92482138Y-11033965D01*
X92400000Y-11038000D01*
X92398768Y-11038000D01*
X91601232Y-11038000D01*
X91600000Y-11038000D01*
X91517862Y-11033965D01*
X91356741Y-11001916D01*
X91204970Y-10939050D01*
X91068378Y-10847783D01*
X90952217Y-10731622D01*
X90860950Y-10595030D01*
X90798084Y-10443259D01*
X90766035Y-10282138D01*
X90766035Y-10117862D01*
X90798084Y-9956741D01*
X90860950Y-9804970D01*
X90952217Y-9668378D01*
X91068378Y-9552217D01*
X91204970Y-9460950D01*
X91356741Y-9398084D01*
X91517862Y-9366035D01*
X91600000Y-9362000D01*
X92400000Y-9362000D01*
X92482138Y-9366035D01*
G37*
G36*
X128774407Y-7735462D02*
G01*
X128944000Y-7810969D01*
X129094188Y-7920087D01*
X129218407Y-8058047D01*
X129311228Y-8218818D01*
X129368595Y-8395374D01*
X129388000Y-8580000D01*
X129368595Y-8764626D01*
X129311228Y-8941182D01*
X129218407Y-9101953D01*
X129094188Y-9239913D01*
X128944000Y-9349031D01*
X128774407Y-9424538D01*
X128592821Y-9463135D01*
X128407179Y-9463135D01*
X128225593Y-9424538D01*
X128056000Y-9349031D01*
X127905812Y-9239913D01*
X127781593Y-9101953D01*
X127688772Y-8941182D01*
X127631405Y-8764626D01*
X127612000Y-8580000D01*
X127631405Y-8395374D01*
X127688772Y-8218818D01*
X127781593Y-8058047D01*
X127905812Y-7920087D01*
X128056000Y-7810969D01*
X128225593Y-7735462D01*
X128407179Y-7696865D01*
X128592821Y-7696865D01*
X128774407Y-7735462D01*
G37*
G36*
X131314407Y-7735462D02*
G01*
X131484000Y-7810969D01*
X131634188Y-7920087D01*
X131758407Y-8058047D01*
X131851228Y-8218818D01*
X131908595Y-8395374D01*
X131928000Y-8580000D01*
X131908595Y-8764626D01*
X131851228Y-8941182D01*
X131758407Y-9101953D01*
X131634188Y-9239913D01*
X131484000Y-9349031D01*
X131314407Y-9424538D01*
X131132821Y-9463135D01*
X130947179Y-9463135D01*
X130765593Y-9424538D01*
X130596000Y-9349031D01*
X130445812Y-9239913D01*
X130321593Y-9101953D01*
X130228772Y-8941182D01*
X130171405Y-8764626D01*
X130152000Y-8580000D01*
X130171405Y-8395374D01*
X130228772Y-8218818D01*
X130321593Y-8058047D01*
X130445812Y-7920087D01*
X130596000Y-7810969D01*
X130765593Y-7735462D01*
X130947179Y-7696865D01*
X131132821Y-7696865D01*
X131314407Y-7735462D01*
G37*
G36*
X85127238Y-6955794D02*
G01*
X85278744Y-6985931D01*
X85421461Y-7045046D01*
X85549902Y-7130868D01*
X85659132Y-7240098D01*
X85744954Y-7368539D01*
X85804069Y-7511256D01*
X85834206Y-7662762D01*
X85834206Y-7817238D01*
X85804069Y-7968744D01*
X85744954Y-8111461D01*
X85659132Y-8239902D01*
X85549902Y-8349132D01*
X85421461Y-8434954D01*
X85278744Y-8494069D01*
X85127238Y-8524206D01*
X85050000Y-8528000D01*
X85048768Y-8528000D01*
X83551232Y-8528000D01*
X83550000Y-8528000D01*
X83472762Y-8524206D01*
X83321256Y-8494069D01*
X83178539Y-8434954D01*
X83050098Y-8349132D01*
X82940868Y-8239902D01*
X82855046Y-8111461D01*
X82795931Y-7968744D01*
X82765794Y-7817238D01*
X82765794Y-7662762D01*
X82795931Y-7511256D01*
X82855046Y-7368539D01*
X82940868Y-7240098D01*
X83050098Y-7130868D01*
X83178539Y-7045046D01*
X83321256Y-6985931D01*
X83472762Y-6955794D01*
X83550000Y-6952000D01*
X85050000Y-6952000D01*
X85127238Y-6955794D01*
G37*
G36*
X100367238Y-6955794D02*
G01*
X100518744Y-6985931D01*
X100661461Y-7045046D01*
X100789902Y-7130868D01*
X100899132Y-7240098D01*
X100984954Y-7368539D01*
X101044069Y-7511256D01*
X101074206Y-7662762D01*
X101074206Y-7817238D01*
X101044069Y-7968744D01*
X100984954Y-8111461D01*
X100899132Y-8239902D01*
X100789902Y-8349132D01*
X100661461Y-8434954D01*
X100518744Y-8494069D01*
X100367238Y-8524206D01*
X100290000Y-8528000D01*
X100288768Y-8528000D01*
X98791232Y-8528000D01*
X98790000Y-8528000D01*
X98712762Y-8524206D01*
X98561256Y-8494069D01*
X98418539Y-8434954D01*
X98290098Y-8349132D01*
X98180868Y-8239902D01*
X98095046Y-8111461D01*
X98035931Y-7968744D01*
X98005794Y-7817238D01*
X98005794Y-7662762D01*
X98035931Y-7511256D01*
X98095046Y-7368539D01*
X98180868Y-7240098D01*
X98290098Y-7130868D01*
X98418539Y-7045046D01*
X98561256Y-6985931D01*
X98712762Y-6955794D01*
X98790000Y-6952000D01*
X100290000Y-6952000D01*
X100367238Y-6955794D01*
G37*
G36*
X77242138Y-6826035D02*
G01*
X77403259Y-6858084D01*
X77555030Y-6920950D01*
X77691622Y-7012217D01*
X77807783Y-7128378D01*
X77899050Y-7264970D01*
X77961916Y-7416741D01*
X77993965Y-7577862D01*
X77993965Y-7742138D01*
X77961916Y-7903259D01*
X77899050Y-8055030D01*
X77807783Y-8191622D01*
X77691622Y-8307783D01*
X77555030Y-8399050D01*
X77403259Y-8461916D01*
X77242138Y-8493965D01*
X77160000Y-8498000D01*
X77158768Y-8498000D01*
X76361232Y-8498000D01*
X76360000Y-8498000D01*
X76277862Y-8493965D01*
X76116741Y-8461916D01*
X75964970Y-8399050D01*
X75828378Y-8307783D01*
X75712217Y-8191622D01*
X75620950Y-8055030D01*
X75558084Y-7903259D01*
X75526035Y-7742138D01*
X75526035Y-7577862D01*
X75558084Y-7416741D01*
X75620950Y-7264970D01*
X75712217Y-7128378D01*
X75828378Y-7012217D01*
X75964970Y-6920950D01*
X76116741Y-6858084D01*
X76277862Y-6826035D01*
X76360000Y-6822000D01*
X77160000Y-6822000D01*
X77242138Y-6826035D01*
G37*
G36*
X92482138Y-6826035D02*
G01*
X92643259Y-6858084D01*
X92795030Y-6920950D01*
X92931622Y-7012217D01*
X93047783Y-7128378D01*
X93139050Y-7264970D01*
X93201916Y-7416741D01*
X93233965Y-7577862D01*
X93233965Y-7742138D01*
X93201916Y-7903259D01*
X93139050Y-8055030D01*
X93047783Y-8191622D01*
X92931622Y-8307783D01*
X92795030Y-8399050D01*
X92643259Y-8461916D01*
X92482138Y-8493965D01*
X92400000Y-8498000D01*
X92398768Y-8498000D01*
X91601232Y-8498000D01*
X91600000Y-8498000D01*
X91517862Y-8493965D01*
X91356741Y-8461916D01*
X91204970Y-8399050D01*
X91068378Y-8307783D01*
X90952217Y-8191622D01*
X90860950Y-8055030D01*
X90798084Y-7903259D01*
X90766035Y-7742138D01*
X90766035Y-7577862D01*
X90798084Y-7416741D01*
X90860950Y-7264970D01*
X90952217Y-7128378D01*
X91068378Y-7012217D01*
X91204970Y-6920950D01*
X91356741Y-6858084D01*
X91517862Y-6826035D01*
X91600000Y-6822000D01*
X92400000Y-6822000D01*
X92482138Y-6826035D01*
G37*
G36*
X128774407Y-5195462D02*
G01*
X128944000Y-5270969D01*
X129094188Y-5380087D01*
X129218407Y-5518047D01*
X129311228Y-5678818D01*
X129368595Y-5855374D01*
X129388000Y-6040000D01*
X129368595Y-6224626D01*
X129311228Y-6401182D01*
X129218407Y-6561953D01*
X129094188Y-6699913D01*
X128944000Y-6809031D01*
X128774407Y-6884538D01*
X128592821Y-6923135D01*
X128407179Y-6923135D01*
X128225593Y-6884538D01*
X128056000Y-6809031D01*
X127905812Y-6699913D01*
X127781593Y-6561953D01*
X127688772Y-6401182D01*
X127631405Y-6224626D01*
X127612000Y-6040000D01*
X127631405Y-5855374D01*
X127688772Y-5678818D01*
X127781593Y-5518047D01*
X127905812Y-5380087D01*
X128056000Y-5270969D01*
X128225593Y-5195462D01*
X128407179Y-5156865D01*
X128592821Y-5156865D01*
X128774407Y-5195462D01*
G37*
G36*
X131314407Y-5195462D02*
G01*
X131484000Y-5270969D01*
X131634188Y-5380087D01*
X131758407Y-5518047D01*
X131851228Y-5678818D01*
X131908595Y-5855374D01*
X131928000Y-6040000D01*
X131908595Y-6224626D01*
X131851228Y-6401182D01*
X131758407Y-6561953D01*
X131634188Y-6699913D01*
X131484000Y-6809031D01*
X131314407Y-6884538D01*
X131132821Y-6923135D01*
X130947179Y-6923135D01*
X130765593Y-6884538D01*
X130596000Y-6809031D01*
X130445812Y-6699913D01*
X130321593Y-6561953D01*
X130228772Y-6401182D01*
X130171405Y-6224626D01*
X130152000Y-6040000D01*
X130171405Y-5855374D01*
X130228772Y-5678818D01*
X130321593Y-5518047D01*
X130445812Y-5380087D01*
X130596000Y-5270969D01*
X130765593Y-5195462D01*
X130947179Y-5156865D01*
X131132821Y-5156865D01*
X131314407Y-5195462D01*
G37*
G36*
X85127238Y-4415794D02*
G01*
X85278744Y-4445931D01*
X85421461Y-4505046D01*
X85549902Y-4590868D01*
X85659132Y-4700098D01*
X85744954Y-4828539D01*
X85804069Y-4971256D01*
X85834206Y-5122762D01*
X85834206Y-5277238D01*
X85804069Y-5428744D01*
X85744954Y-5571461D01*
X85659132Y-5699902D01*
X85549902Y-5809132D01*
X85421461Y-5894954D01*
X85278744Y-5954069D01*
X85127238Y-5984206D01*
X85050000Y-5988000D01*
X85048768Y-5988000D01*
X83551232Y-5988000D01*
X83550000Y-5988000D01*
X83472762Y-5984206D01*
X83321256Y-5954069D01*
X83178539Y-5894954D01*
X83050098Y-5809132D01*
X82940868Y-5699902D01*
X82855046Y-5571461D01*
X82795931Y-5428744D01*
X82765794Y-5277238D01*
X82765794Y-5122762D01*
X82795931Y-4971256D01*
X82855046Y-4828539D01*
X82940868Y-4700098D01*
X83050098Y-4590868D01*
X83178539Y-4505046D01*
X83321256Y-4445931D01*
X83472762Y-4415794D01*
X83550000Y-4412000D01*
X85050000Y-4412000D01*
X85127238Y-4415794D01*
G37*
G36*
X100367238Y-4415794D02*
G01*
X100518744Y-4445931D01*
X100661461Y-4505046D01*
X100789902Y-4590868D01*
X100899132Y-4700098D01*
X100984954Y-4828539D01*
X101044069Y-4971256D01*
X101074206Y-5122762D01*
X101074206Y-5277238D01*
X101044069Y-5428744D01*
X100984954Y-5571461D01*
X100899132Y-5699902D01*
X100789902Y-5809132D01*
X100661461Y-5894954D01*
X100518744Y-5954069D01*
X100367238Y-5984206D01*
X100290000Y-5988000D01*
X100288768Y-5988000D01*
X98791232Y-5988000D01*
X98790000Y-5988000D01*
X98712762Y-5984206D01*
X98561256Y-5954069D01*
X98418539Y-5894954D01*
X98290098Y-5809132D01*
X98180868Y-5699902D01*
X98095046Y-5571461D01*
X98035931Y-5428744D01*
X98005794Y-5277238D01*
X98005794Y-5122762D01*
X98035931Y-4971256D01*
X98095046Y-4828539D01*
X98180868Y-4700098D01*
X98290098Y-4590868D01*
X98418539Y-4505046D01*
X98561256Y-4445931D01*
X98712762Y-4415794D01*
X98790000Y-4412000D01*
X100290000Y-4412000D01*
X100367238Y-4415794D01*
G37*
G36*
X77242138Y-4286035D02*
G01*
X77403259Y-4318084D01*
X77555030Y-4380950D01*
X77691622Y-4472217D01*
X77807783Y-4588378D01*
X77899050Y-4724970D01*
X77961916Y-4876741D01*
X77993965Y-5037862D01*
X77993965Y-5202138D01*
X77961916Y-5363259D01*
X77899050Y-5515030D01*
X77807783Y-5651622D01*
X77691622Y-5767783D01*
X77555030Y-5859050D01*
X77403259Y-5921916D01*
X77242138Y-5953965D01*
X77160000Y-5958000D01*
X77158768Y-5958000D01*
X76361232Y-5958000D01*
X76360000Y-5958000D01*
X76277862Y-5953965D01*
X76116741Y-5921916D01*
X75964970Y-5859050D01*
X75828378Y-5767783D01*
X75712217Y-5651622D01*
X75620950Y-5515030D01*
X75558084Y-5363259D01*
X75526035Y-5202138D01*
X75526035Y-5037862D01*
X75558084Y-4876741D01*
X75620950Y-4724970D01*
X75712217Y-4588378D01*
X75828378Y-4472217D01*
X75964970Y-4380950D01*
X76116741Y-4318084D01*
X76277862Y-4286035D01*
X76360000Y-4282000D01*
X77160000Y-4282000D01*
X77242138Y-4286035D01*
G37*
G36*
X92482138Y-4286035D02*
G01*
X92643259Y-4318084D01*
X92795030Y-4380950D01*
X92931622Y-4472217D01*
X93047783Y-4588378D01*
X93139050Y-4724970D01*
X93201916Y-4876741D01*
X93233965Y-5037862D01*
X93233965Y-5202138D01*
X93201916Y-5363259D01*
X93139050Y-5515030D01*
X93047783Y-5651622D01*
X92931622Y-5767783D01*
X92795030Y-5859050D01*
X92643259Y-5921916D01*
X92482138Y-5953965D01*
X92400000Y-5958000D01*
X92398768Y-5958000D01*
X91601232Y-5958000D01*
X91600000Y-5958000D01*
X91517862Y-5953965D01*
X91356741Y-5921916D01*
X91204970Y-5859050D01*
X91068378Y-5767783D01*
X90952217Y-5651622D01*
X90860950Y-5515030D01*
X90798084Y-5363259D01*
X90766035Y-5202138D01*
X90766035Y-5037862D01*
X90798084Y-4876741D01*
X90860950Y-4724970D01*
X90952217Y-4588378D01*
X91068378Y-4472217D01*
X91204970Y-4380950D01*
X91356741Y-4318084D01*
X91517862Y-4286035D01*
X91600000Y-4282000D01*
X92400000Y-4282000D01*
X92482138Y-4286035D01*
G37*
G36*
X128774407Y-2655462D02*
G01*
X128944000Y-2730969D01*
X129094188Y-2840087D01*
X129218407Y-2978047D01*
X129311228Y-3138818D01*
X129368595Y-3315374D01*
X129388000Y-3500000D01*
X129368595Y-3684626D01*
X129311228Y-3861182D01*
X129218407Y-4021953D01*
X129094188Y-4159913D01*
X128944000Y-4269031D01*
X128774407Y-4344538D01*
X128592821Y-4383135D01*
X128407179Y-4383135D01*
X128225593Y-4344538D01*
X128056000Y-4269031D01*
X127905812Y-4159913D01*
X127781593Y-4021953D01*
X127688772Y-3861182D01*
X127631405Y-3684626D01*
X127612000Y-3500000D01*
X127631405Y-3315374D01*
X127688772Y-3138818D01*
X127781593Y-2978047D01*
X127905812Y-2840087D01*
X128056000Y-2730969D01*
X128225593Y-2655462D01*
X128407179Y-2616865D01*
X128592821Y-2616865D01*
X128774407Y-2655462D01*
G37*
G36*
X131314407Y-2655462D02*
G01*
X131484000Y-2730969D01*
X131634188Y-2840087D01*
X131758407Y-2978047D01*
X131851228Y-3138818D01*
X131908595Y-3315374D01*
X131928000Y-3500000D01*
X131908595Y-3684626D01*
X131851228Y-3861182D01*
X131758407Y-4021953D01*
X131634188Y-4159913D01*
X131484000Y-4269031D01*
X131314407Y-4344538D01*
X131132821Y-4383135D01*
X130947179Y-4383135D01*
X130765593Y-4344538D01*
X130596000Y-4269031D01*
X130445812Y-4159913D01*
X130321593Y-4021953D01*
X130228772Y-3861182D01*
X130171405Y-3684626D01*
X130152000Y-3500000D01*
X130171405Y-3315374D01*
X130228772Y-3138818D01*
X130321593Y-2978047D01*
X130445812Y-2840087D01*
X130596000Y-2730969D01*
X130765593Y-2655462D01*
X130947179Y-2616865D01*
X131132821Y-2616865D01*
X131314407Y-2655462D01*
G37*
G36*
X85127238Y-1875794D02*
G01*
X85278744Y-1905931D01*
X85421461Y-1965046D01*
X85549902Y-2050868D01*
X85659132Y-2160098D01*
X85744954Y-2288539D01*
X85804069Y-2431256D01*
X85834206Y-2582762D01*
X85834206Y-2737238D01*
X85804069Y-2888744D01*
X85744954Y-3031461D01*
X85659132Y-3159902D01*
X85549902Y-3269132D01*
X85421461Y-3354954D01*
X85278744Y-3414069D01*
X85127238Y-3444206D01*
X85050000Y-3448000D01*
X85048768Y-3448000D01*
X83551232Y-3448000D01*
X83550000Y-3448000D01*
X83472762Y-3444206D01*
X83321256Y-3414069D01*
X83178539Y-3354954D01*
X83050098Y-3269132D01*
X82940868Y-3159902D01*
X82855046Y-3031461D01*
X82795931Y-2888744D01*
X82765794Y-2737238D01*
X82765794Y-2582762D01*
X82795931Y-2431256D01*
X82855046Y-2288539D01*
X82940868Y-2160098D01*
X83050098Y-2050868D01*
X83178539Y-1965046D01*
X83321256Y-1905931D01*
X83472762Y-1875794D01*
X83550000Y-1872000D01*
X85050000Y-1872000D01*
X85127238Y-1875794D01*
G37*
G36*
X100367238Y-1875794D02*
G01*
X100518744Y-1905931D01*
X100661461Y-1965046D01*
X100789902Y-2050868D01*
X100899132Y-2160098D01*
X100984954Y-2288539D01*
X101044069Y-2431256D01*
X101074206Y-2582762D01*
X101074206Y-2737238D01*
X101044069Y-2888744D01*
X100984954Y-3031461D01*
X100899132Y-3159902D01*
X100789902Y-3269132D01*
X100661461Y-3354954D01*
X100518744Y-3414069D01*
X100367238Y-3444206D01*
X100290000Y-3448000D01*
X100288768Y-3448000D01*
X98791232Y-3448000D01*
X98790000Y-3448000D01*
X98712762Y-3444206D01*
X98561256Y-3414069D01*
X98418539Y-3354954D01*
X98290098Y-3269132D01*
X98180868Y-3159902D01*
X98095046Y-3031461D01*
X98035931Y-2888744D01*
X98005794Y-2737238D01*
X98005794Y-2582762D01*
X98035931Y-2431256D01*
X98095046Y-2288539D01*
X98180868Y-2160098D01*
X98290098Y-2050868D01*
X98418539Y-1965046D01*
X98561256Y-1905931D01*
X98712762Y-1875794D01*
X98790000Y-1872000D01*
X100290000Y-1872000D01*
X100367238Y-1875794D01*
G37*
G36*
X77242138Y-1746035D02*
G01*
X77403259Y-1778084D01*
X77555030Y-1840950D01*
X77691622Y-1932217D01*
X77807783Y-2048378D01*
X77899050Y-2184970D01*
X77961916Y-2336741D01*
X77993965Y-2497862D01*
X77993965Y-2662138D01*
X77961916Y-2823259D01*
X77899050Y-2975030D01*
X77807783Y-3111622D01*
X77691622Y-3227783D01*
X77555030Y-3319050D01*
X77403259Y-3381916D01*
X77242138Y-3413965D01*
X77160000Y-3418000D01*
X77158768Y-3418000D01*
X76361232Y-3418000D01*
X76360000Y-3418000D01*
X76277862Y-3413965D01*
X76116741Y-3381916D01*
X75964970Y-3319050D01*
X75828378Y-3227783D01*
X75712217Y-3111622D01*
X75620950Y-2975030D01*
X75558084Y-2823259D01*
X75526035Y-2662138D01*
X75526035Y-2497862D01*
X75558084Y-2336741D01*
X75620950Y-2184970D01*
X75712217Y-2048378D01*
X75828378Y-1932217D01*
X75964970Y-1840950D01*
X76116741Y-1778084D01*
X76277862Y-1746035D01*
X76360000Y-1742000D01*
X77160000Y-1742000D01*
X77242138Y-1746035D01*
G37*
G36*
X92482138Y-1746035D02*
G01*
X92643259Y-1778084D01*
X92795030Y-1840950D01*
X92931622Y-1932217D01*
X93047783Y-2048378D01*
X93139050Y-2184970D01*
X93201916Y-2336741D01*
X93233965Y-2497862D01*
X93233965Y-2662138D01*
X93201916Y-2823259D01*
X93139050Y-2975030D01*
X93047783Y-3111622D01*
X92931622Y-3227783D01*
X92795030Y-3319050D01*
X92643259Y-3381916D01*
X92482138Y-3413965D01*
X92400000Y-3418000D01*
X92398768Y-3418000D01*
X91601232Y-3418000D01*
X91600000Y-3418000D01*
X91517862Y-3413965D01*
X91356741Y-3381916D01*
X91204970Y-3319050D01*
X91068378Y-3227783D01*
X90952217Y-3111622D01*
X90860950Y-2975030D01*
X90798084Y-2823259D01*
X90766035Y-2662138D01*
X90766035Y-2497862D01*
X90798084Y-2336741D01*
X90860950Y-2184970D01*
X90952217Y-2048378D01*
X91068378Y-1932217D01*
X91204970Y-1840950D01*
X91356741Y-1778084D01*
X91517862Y-1746035D01*
X91600000Y-1742000D01*
X92400000Y-1742000D01*
X92482138Y-1746035D01*
G37*
G36*
X128774407Y-115462D02*
G01*
X128944000Y-190969D01*
X129094188Y-300087D01*
X129218407Y-438047D01*
X129311228Y-598818D01*
X129368595Y-775374D01*
X129388000Y-960000D01*
X129368595Y-1144626D01*
X129311228Y-1321182D01*
X129218407Y-1481953D01*
X129094188Y-1619913D01*
X128944000Y-1729031D01*
X128774407Y-1804538D01*
X128592821Y-1843135D01*
X128407179Y-1843135D01*
X128225593Y-1804538D01*
X128056000Y-1729031D01*
X127905812Y-1619913D01*
X127781593Y-1481953D01*
X127688772Y-1321182D01*
X127631405Y-1144626D01*
X127612000Y-960000D01*
X127631405Y-775374D01*
X127688772Y-598818D01*
X127781593Y-438047D01*
X127905812Y-300087D01*
X128056000Y-190969D01*
X128225593Y-115462D01*
X128407179Y-76865D01*
X128592821Y-76865D01*
X128774407Y-115462D01*
G37*
G36*
X131314407Y-115462D02*
G01*
X131484000Y-190969D01*
X131634188Y-300087D01*
X131758407Y-438047D01*
X131851228Y-598818D01*
X131908595Y-775374D01*
X131928000Y-960000D01*
X131908595Y-1144626D01*
X131851228Y-1321182D01*
X131758407Y-1481953D01*
X131634188Y-1619913D01*
X131484000Y-1729031D01*
X131314407Y-1804538D01*
X131132821Y-1843135D01*
X130947179Y-1843135D01*
X130765593Y-1804538D01*
X130596000Y-1729031D01*
X130445812Y-1619913D01*
X130321593Y-1481953D01*
X130228772Y-1321182D01*
X130171405Y-1144626D01*
X130152000Y-960000D01*
X130171405Y-775374D01*
X130228772Y-598818D01*
X130321593Y-438047D01*
X130445812Y-300087D01*
X130596000Y-190969D01*
X130765593Y-115462D01*
X130947179Y-76865D01*
X131132821Y-76865D01*
X131314407Y-115462D01*
G37*
G36*
X110948956Y96985D02*
G01*
X111109000Y25729D01*
X111250731Y-77245D01*
X111367956Y-207436D01*
X111455551Y-359155D01*
X111509688Y-525770D01*
X111528000Y-700000D01*
X111509688Y-874230D01*
X111455551Y-1040845D01*
X111367956Y-1192564D01*
X111250731Y-1322755D01*
X111109000Y-1425729D01*
X110948956Y-1496985D01*
X110777595Y-1533409D01*
X110602405Y-1533409D01*
X110431044Y-1496985D01*
X110271000Y-1425729D01*
X110129269Y-1322755D01*
X110012044Y-1192564D01*
X109924449Y-1040845D01*
X109870312Y-874230D01*
X109852000Y-700000D01*
X109870312Y-525770D01*
X109924449Y-359155D01*
X110012044Y-207436D01*
X110129269Y-77245D01*
X110271000Y25729D01*
X110431044Y96985D01*
X110602405Y133409D01*
X110777595Y133409D01*
X110948956Y96985D01*
G37*
G36*
X118568956Y96985D02*
G01*
X118729000Y25729D01*
X118870731Y-77245D01*
X118987956Y-207436D01*
X119075551Y-359155D01*
X119129688Y-525770D01*
X119148000Y-700000D01*
X119129688Y-874230D01*
X119075551Y-1040845D01*
X118987956Y-1192564D01*
X118870731Y-1322755D01*
X118729000Y-1425729D01*
X118568956Y-1496985D01*
X118397595Y-1533409D01*
X118222405Y-1533409D01*
X118051044Y-1496985D01*
X117891000Y-1425729D01*
X117749269Y-1322755D01*
X117632044Y-1192564D01*
X117544449Y-1040845D01*
X117490312Y-874230D01*
X117472000Y-700000D01*
X117490312Y-525770D01*
X117544449Y-359155D01*
X117632044Y-207436D01*
X117749269Y-77245D01*
X117891000Y25729D01*
X118051044Y96985D01*
X118222405Y133409D01*
X118397595Y133409D01*
X118568956Y96985D01*
G37*
G36*
X85127238Y664206D02*
G01*
X85278744Y634069D01*
X85421461Y574954D01*
X85549902Y489132D01*
X85659132Y379902D01*
X85744954Y251461D01*
X85804069Y108744D01*
X85834206Y-42762D01*
X85834206Y-197238D01*
X85804069Y-348744D01*
X85744954Y-491461D01*
X85659132Y-619902D01*
X85549902Y-729132D01*
X85421461Y-814954D01*
X85278744Y-874069D01*
X85127238Y-904206D01*
X85050000Y-908000D01*
X85048768Y-908000D01*
X83551232Y-908000D01*
X83550000Y-908000D01*
X83472762Y-904206D01*
X83321256Y-874069D01*
X83178539Y-814954D01*
X83050098Y-729132D01*
X82940868Y-619902D01*
X82855046Y-491461D01*
X82795931Y-348744D01*
X82765794Y-197238D01*
X82765794Y-42762D01*
X82795931Y108744D01*
X82855046Y251461D01*
X82940868Y379902D01*
X83050098Y489132D01*
X83178539Y574954D01*
X83321256Y634069D01*
X83472762Y664206D01*
X83550000Y668000D01*
X85050000Y668000D01*
X85127238Y664206D01*
G37*
G36*
X100367238Y664206D02*
G01*
X100518744Y634069D01*
X100661461Y574954D01*
X100789902Y489132D01*
X100899132Y379902D01*
X100984954Y251461D01*
X101044069Y108744D01*
X101074206Y-42762D01*
X101074206Y-197238D01*
X101044069Y-348744D01*
X100984954Y-491461D01*
X100899132Y-619902D01*
X100789902Y-729132D01*
X100661461Y-814954D01*
X100518744Y-874069D01*
X100367238Y-904206D01*
X100290000Y-908000D01*
X100288768Y-908000D01*
X98791232Y-908000D01*
X98790000Y-908000D01*
X98712762Y-904206D01*
X98561256Y-874069D01*
X98418539Y-814954D01*
X98290098Y-729132D01*
X98180868Y-619902D01*
X98095046Y-491461D01*
X98035931Y-348744D01*
X98005794Y-197238D01*
X98005794Y-42762D01*
X98035931Y108744D01*
X98095046Y251461D01*
X98180868Y379902D01*
X98290098Y489132D01*
X98418539Y574954D01*
X98561256Y634069D01*
X98712762Y664206D01*
X98790000Y668000D01*
X100290000Y668000D01*
X100367238Y664206D01*
G37*
G36*
X77242138Y793965D02*
G01*
X77403259Y761916D01*
X77555030Y699050D01*
X77691622Y607783D01*
X77807783Y491622D01*
X77899050Y355030D01*
X77961916Y203259D01*
X77993965Y42138D01*
X77993965Y-122138D01*
X77961916Y-283259D01*
X77899050Y-435030D01*
X77807783Y-571622D01*
X77691622Y-687783D01*
X77555030Y-779050D01*
X77403259Y-841916D01*
X77242138Y-873965D01*
X77160000Y-878000D01*
X77158768Y-878000D01*
X76361232Y-878000D01*
X76360000Y-878000D01*
X76277862Y-873965D01*
X76116741Y-841916D01*
X75964970Y-779050D01*
X75828378Y-687783D01*
X75712217Y-571622D01*
X75620950Y-435030D01*
X75558084Y-283259D01*
X75526035Y-122138D01*
X75526035Y42138D01*
X75558084Y203259D01*
X75620950Y355030D01*
X75712217Y491622D01*
X75828378Y607783D01*
X75964970Y699050D01*
X76116741Y761916D01*
X76277862Y793965D01*
X76360000Y798000D01*
X77160000Y798000D01*
X77242138Y793965D01*
G37*
G36*
X92482138Y793965D02*
G01*
X92643259Y761916D01*
X92795030Y699050D01*
X92931622Y607783D01*
X93047783Y491622D01*
X93139050Y355030D01*
X93201916Y203259D01*
X93233965Y42138D01*
X93233965Y-122138D01*
X93201916Y-283259D01*
X93139050Y-435030D01*
X93047783Y-571622D01*
X92931622Y-687783D01*
X92795030Y-779050D01*
X92643259Y-841916D01*
X92482138Y-873965D01*
X92400000Y-878000D01*
X92398768Y-878000D01*
X91601232Y-878000D01*
X91600000Y-878000D01*
X91517862Y-873965D01*
X91356741Y-841916D01*
X91204970Y-779050D01*
X91068378Y-687783D01*
X90952217Y-571622D01*
X90860950Y-435030D01*
X90798084Y-283259D01*
X90766035Y-122138D01*
X90766035Y42138D01*
X90798084Y203259D01*
X90860950Y355030D01*
X90952217Y491622D01*
X91068378Y607783D01*
X91204970Y699050D01*
X91356741Y761916D01*
X91517862Y793965D01*
X91600000Y798000D01*
X92400000Y798000D01*
X92482138Y793965D01*
G37*
G36*
X128774407Y2424538D02*
G01*
X128944000Y2349031D01*
X129094188Y2239913D01*
X129218407Y2101953D01*
X129311228Y1941182D01*
X129368595Y1764626D01*
X129388000Y1580000D01*
X129368595Y1395374D01*
X129311228Y1218818D01*
X129218407Y1058047D01*
X129094188Y920087D01*
X128944000Y810969D01*
X128774407Y735462D01*
X128592821Y696865D01*
X128407179Y696865D01*
X128225593Y735462D01*
X128056000Y810969D01*
X127905812Y920087D01*
X127781593Y1058047D01*
X127688772Y1218818D01*
X127631405Y1395374D01*
X127612000Y1580000D01*
X127631405Y1764626D01*
X127688772Y1941182D01*
X127781593Y2101953D01*
X127905812Y2239913D01*
X128056000Y2349031D01*
X128225593Y2424538D01*
X128407179Y2463135D01*
X128592821Y2463135D01*
X128774407Y2424538D01*
G37*
G36*
X131314407Y2424538D02*
G01*
X131484000Y2349031D01*
X131634188Y2239913D01*
X131758407Y2101953D01*
X131851228Y1941182D01*
X131908595Y1764626D01*
X131928000Y1580000D01*
X131908595Y1395374D01*
X131851228Y1218818D01*
X131758407Y1058047D01*
X131634188Y920087D01*
X131484000Y810969D01*
X131314407Y735462D01*
X131132821Y696865D01*
X130947179Y696865D01*
X130765593Y735462D01*
X130596000Y810969D01*
X130445812Y920087D01*
X130321593Y1058047D01*
X130228772Y1218818D01*
X130171405Y1395374D01*
X130152000Y1580000D01*
X130171405Y1764626D01*
X130228772Y1941182D01*
X130321593Y2101953D01*
X130445812Y2239913D01*
X130596000Y2349031D01*
X130765593Y2424538D01*
X130947179Y2463135D01*
X131132821Y2463135D01*
X131314407Y2424538D01*
G37*
G36*
X85127238Y3204206D02*
G01*
X85278744Y3174069D01*
X85421461Y3114954D01*
X85549902Y3029132D01*
X85659132Y2919902D01*
X85744954Y2791461D01*
X85804069Y2648744D01*
X85834206Y2497238D01*
X85834206Y2342762D01*
X85804069Y2191256D01*
X85744954Y2048539D01*
X85659132Y1920098D01*
X85549902Y1810868D01*
X85421461Y1725046D01*
X85278744Y1665931D01*
X85127238Y1635794D01*
X85050000Y1632000D01*
X85048768Y1632000D01*
X83551232Y1632000D01*
X83550000Y1632000D01*
X83472762Y1635794D01*
X83321256Y1665931D01*
X83178539Y1725046D01*
X83050098Y1810868D01*
X82940868Y1920098D01*
X82855046Y2048539D01*
X82795931Y2191256D01*
X82765794Y2342762D01*
X82765794Y2497238D01*
X82795931Y2648744D01*
X82855046Y2791461D01*
X82940868Y2919902D01*
X83050098Y3029132D01*
X83178539Y3114954D01*
X83321256Y3174069D01*
X83472762Y3204206D01*
X83550000Y3208000D01*
X85050000Y3208000D01*
X85127238Y3204206D01*
G37*
G36*
X100367238Y3204206D02*
G01*
X100518744Y3174069D01*
X100661461Y3114954D01*
X100789902Y3029132D01*
X100899132Y2919902D01*
X100984954Y2791461D01*
X101044069Y2648744D01*
X101074206Y2497238D01*
X101074206Y2342762D01*
X101044069Y2191256D01*
X100984954Y2048539D01*
X100899132Y1920098D01*
X100789902Y1810868D01*
X100661461Y1725046D01*
X100518744Y1665931D01*
X100367238Y1635794D01*
X100290000Y1632000D01*
X100288768Y1632000D01*
X98791232Y1632000D01*
X98790000Y1632000D01*
X98712762Y1635794D01*
X98561256Y1665931D01*
X98418539Y1725046D01*
X98290098Y1810868D01*
X98180868Y1920098D01*
X98095046Y2048539D01*
X98035931Y2191256D01*
X98005794Y2342762D01*
X98005794Y2497238D01*
X98035931Y2648744D01*
X98095046Y2791461D01*
X98180868Y2919902D01*
X98290098Y3029132D01*
X98418539Y3114954D01*
X98561256Y3174069D01*
X98712762Y3204206D01*
X98790000Y3208000D01*
X100290000Y3208000D01*
X100367238Y3204206D01*
G37*
G36*
X77242138Y3333965D02*
G01*
X77403259Y3301916D01*
X77555030Y3239050D01*
X77691622Y3147783D01*
X77807783Y3031622D01*
X77899050Y2895030D01*
X77961916Y2743259D01*
X77993965Y2582138D01*
X77993965Y2417862D01*
X77961916Y2256741D01*
X77899050Y2104970D01*
X77807783Y1968378D01*
X77691622Y1852217D01*
X77555030Y1760950D01*
X77403259Y1698084D01*
X77242138Y1666035D01*
X77160000Y1662000D01*
X77158768Y1662000D01*
X76361232Y1662000D01*
X76360000Y1662000D01*
X76277862Y1666035D01*
X76116741Y1698084D01*
X75964970Y1760950D01*
X75828378Y1852217D01*
X75712217Y1968378D01*
X75620950Y2104970D01*
X75558084Y2256741D01*
X75526035Y2417862D01*
X75526035Y2582138D01*
X75558084Y2743259D01*
X75620950Y2895030D01*
X75712217Y3031622D01*
X75828378Y3147783D01*
X75964970Y3239050D01*
X76116741Y3301916D01*
X76277862Y3333965D01*
X76360000Y3338000D01*
X77160000Y3338000D01*
X77242138Y3333965D01*
G37*
G36*
X92482138Y3333965D02*
G01*
X92643259Y3301916D01*
X92795030Y3239050D01*
X92931622Y3147783D01*
X93047783Y3031622D01*
X93139050Y2895030D01*
X93201916Y2743259D01*
X93233965Y2582138D01*
X93233965Y2417862D01*
X93201916Y2256741D01*
X93139050Y2104970D01*
X93047783Y1968378D01*
X92931622Y1852217D01*
X92795030Y1760950D01*
X92643259Y1698084D01*
X92482138Y1666035D01*
X92400000Y1662000D01*
X92398768Y1662000D01*
X91601232Y1662000D01*
X91600000Y1662000D01*
X91517862Y1666035D01*
X91356741Y1698084D01*
X91204970Y1760950D01*
X91068378Y1852217D01*
X90952217Y1968378D01*
X90860950Y2104970D01*
X90798084Y2256741D01*
X90766035Y2417862D01*
X90766035Y2582138D01*
X90798084Y2743259D01*
X90860950Y2895030D01*
X90952217Y3031622D01*
X91068378Y3147783D01*
X91204970Y3239050D01*
X91356741Y3301916D01*
X91517862Y3333965D01*
X91600000Y3338000D01*
X92400000Y3338000D01*
X92482138Y3333965D01*
G37*
G36*
X110948956Y3796985D02*
G01*
X111109000Y3725729D01*
X111250731Y3622755D01*
X111367956Y3492564D01*
X111455551Y3340845D01*
X111509688Y3174230D01*
X111528000Y3000000D01*
X111509688Y2825770D01*
X111455551Y2659155D01*
X111367956Y2507436D01*
X111250731Y2377245D01*
X111109000Y2274271D01*
X110948956Y2203015D01*
X110777595Y2166591D01*
X110602405Y2166591D01*
X110431044Y2203015D01*
X110271000Y2274271D01*
X110129269Y2377245D01*
X110012044Y2507436D01*
X109924449Y2659155D01*
X109870312Y2825770D01*
X109852000Y3000000D01*
X109870312Y3174230D01*
X109924449Y3340845D01*
X110012044Y3492564D01*
X110129269Y3622755D01*
X110271000Y3725729D01*
X110431044Y3796985D01*
X110602405Y3833409D01*
X110777595Y3833409D01*
X110948956Y3796985D01*
G37*
G36*
X118568956Y3796985D02*
G01*
X118729000Y3725729D01*
X118870731Y3622755D01*
X118987956Y3492564D01*
X119075551Y3340845D01*
X119129688Y3174230D01*
X119148000Y3000000D01*
X119129688Y2825770D01*
X119075551Y2659155D01*
X118987956Y2507436D01*
X118870731Y2377245D01*
X118729000Y2274271D01*
X118568956Y2203015D01*
X118397595Y2166591D01*
X118222405Y2166591D01*
X118051044Y2203015D01*
X117891000Y2274271D01*
X117749269Y2377245D01*
X117632044Y2507436D01*
X117544449Y2659155D01*
X117490312Y2825770D01*
X117472000Y3000000D01*
X117490312Y3174230D01*
X117544449Y3340845D01*
X117632044Y3492564D01*
X117749269Y3622755D01*
X117891000Y3725729D01*
X118051044Y3796985D01*
X118222405Y3833409D01*
X118397595Y3833409D01*
X118568956Y3796985D01*
G37*
G36*
X128774407Y4964538D02*
G01*
X128944000Y4889031D01*
X129094188Y4779913D01*
X129218407Y4641953D01*
X129311228Y4481182D01*
X129368595Y4304626D01*
X129388000Y4120000D01*
X129368595Y3935374D01*
X129311228Y3758818D01*
X129218407Y3598047D01*
X129094188Y3460087D01*
X128944000Y3350969D01*
X128774407Y3275462D01*
X128592821Y3236865D01*
X128407179Y3236865D01*
X128225593Y3275462D01*
X128056000Y3350969D01*
X127905812Y3460087D01*
X127781593Y3598047D01*
X127688772Y3758818D01*
X127631405Y3935374D01*
X127612000Y4120000D01*
X127631405Y4304626D01*
X127688772Y4481182D01*
X127781593Y4641953D01*
X127905812Y4779913D01*
X128056000Y4889031D01*
X128225593Y4964538D01*
X128407179Y5003135D01*
X128592821Y5003135D01*
X128774407Y4964538D01*
G37*
G36*
X131314407Y4964538D02*
G01*
X131484000Y4889031D01*
X131634188Y4779913D01*
X131758407Y4641953D01*
X131851228Y4481182D01*
X131908595Y4304626D01*
X131928000Y4120000D01*
X131908595Y3935374D01*
X131851228Y3758818D01*
X131758407Y3598047D01*
X131634188Y3460087D01*
X131484000Y3350969D01*
X131314407Y3275462D01*
X131132821Y3236865D01*
X130947179Y3236865D01*
X130765593Y3275462D01*
X130596000Y3350969D01*
X130445812Y3460087D01*
X130321593Y3598047D01*
X130228772Y3758818D01*
X130171405Y3935374D01*
X130152000Y4120000D01*
X130171405Y4304626D01*
X130228772Y4481182D01*
X130321593Y4641953D01*
X130445812Y4779913D01*
X130596000Y4889031D01*
X130765593Y4964538D01*
X130947179Y5003135D01*
X131132821Y5003135D01*
X131314407Y4964538D01*
G37*
G36*
X85127238Y5744206D02*
G01*
X85278744Y5714069D01*
X85421461Y5654954D01*
X85549902Y5569132D01*
X85659132Y5459902D01*
X85744954Y5331461D01*
X85804069Y5188744D01*
X85834206Y5037238D01*
X85834206Y4882762D01*
X85804069Y4731256D01*
X85744954Y4588539D01*
X85659132Y4460098D01*
X85549902Y4350868D01*
X85421461Y4265046D01*
X85278744Y4205931D01*
X85127238Y4175794D01*
X85050000Y4172000D01*
X85048768Y4172000D01*
X83551232Y4172000D01*
X83550000Y4172000D01*
X83472762Y4175794D01*
X83321256Y4205931D01*
X83178539Y4265046D01*
X83050098Y4350868D01*
X82940868Y4460098D01*
X82855046Y4588539D01*
X82795931Y4731256D01*
X82765794Y4882762D01*
X82765794Y5037238D01*
X82795931Y5188744D01*
X82855046Y5331461D01*
X82940868Y5459902D01*
X83050098Y5569132D01*
X83178539Y5654954D01*
X83321256Y5714069D01*
X83472762Y5744206D01*
X83550000Y5748000D01*
X85050000Y5748000D01*
X85127238Y5744206D01*
G37*
G36*
X100367238Y5744206D02*
G01*
X100518744Y5714069D01*
X100661461Y5654954D01*
X100789902Y5569132D01*
X100899132Y5459902D01*
X100984954Y5331461D01*
X101044069Y5188744D01*
X101074206Y5037238D01*
X101074206Y4882762D01*
X101044069Y4731256D01*
X100984954Y4588539D01*
X100899132Y4460098D01*
X100789902Y4350868D01*
X100661461Y4265046D01*
X100518744Y4205931D01*
X100367238Y4175794D01*
X100290000Y4172000D01*
X100288768Y4172000D01*
X98791232Y4172000D01*
X98790000Y4172000D01*
X98712762Y4175794D01*
X98561256Y4205931D01*
X98418539Y4265046D01*
X98290098Y4350868D01*
X98180868Y4460098D01*
X98095046Y4588539D01*
X98035931Y4731256D01*
X98005794Y4882762D01*
X98005794Y5037238D01*
X98035931Y5188744D01*
X98095046Y5331461D01*
X98180868Y5459902D01*
X98290098Y5569132D01*
X98418539Y5654954D01*
X98561256Y5714069D01*
X98712762Y5744206D01*
X98790000Y5748000D01*
X100290000Y5748000D01*
X100367238Y5744206D01*
G37*
G36*
X77974542Y5875107D02*
G01*
X77986870Y5866870D01*
X77995107Y5854542D01*
X77998000Y5840000D01*
X77998000Y4240000D01*
X77995107Y4225458D01*
X77986870Y4213130D01*
X77974542Y4204893D01*
X77960000Y4202000D01*
X77955077Y4202000D01*
X75564924Y4202000D01*
X75560000Y4202000D01*
X75545458Y4204893D01*
X75533130Y4213130D01*
X75524893Y4225458D01*
X75522000Y4240000D01*
X75522000Y5840000D01*
X75524893Y5854542D01*
X75533130Y5866870D01*
X75545458Y5875107D01*
X75560000Y5878000D01*
X77960000Y5878000D01*
X77974542Y5875107D01*
G37*
G36*
X92482138Y5873965D02*
G01*
X92643259Y5841916D01*
X92795030Y5779050D01*
X92931622Y5687783D01*
X93047783Y5571622D01*
X93139050Y5435030D01*
X93201916Y5283259D01*
X93233965Y5122138D01*
X93233965Y4957862D01*
X93201916Y4796741D01*
X93139050Y4644970D01*
X93047783Y4508378D01*
X92931622Y4392217D01*
X92795030Y4300950D01*
X92643259Y4238084D01*
X92482138Y4206035D01*
X92400000Y4202000D01*
X92398768Y4202000D01*
X91601232Y4202000D01*
X91600000Y4202000D01*
X91517862Y4206035D01*
X91356741Y4238084D01*
X91204970Y4300950D01*
X91068378Y4392217D01*
X90952217Y4508378D01*
X90860950Y4644970D01*
X90798084Y4796741D01*
X90766035Y4957862D01*
X90766035Y5122138D01*
X90798084Y5283259D01*
X90860950Y5435030D01*
X90952217Y5571622D01*
X91068378Y5687783D01*
X91204970Y5779050D01*
X91356741Y5841916D01*
X91517862Y5873965D01*
X91600000Y5878000D01*
X92400000Y5878000D01*
X92482138Y5873965D01*
G37*
G36*
X110948956Y7296985D02*
G01*
X111109000Y7225729D01*
X111250731Y7122755D01*
X111367956Y6992564D01*
X111455551Y6840845D01*
X111509688Y6674230D01*
X111528000Y6500000D01*
X111509688Y6325770D01*
X111455551Y6159155D01*
X111367956Y6007436D01*
X111250731Y5877245D01*
X111109000Y5774271D01*
X110948956Y5703015D01*
X110777595Y5666591D01*
X110602405Y5666591D01*
X110431044Y5703015D01*
X110271000Y5774271D01*
X110129269Y5877245D01*
X110012044Y6007436D01*
X109924449Y6159155D01*
X109870312Y6325770D01*
X109852000Y6500000D01*
X109870312Y6674230D01*
X109924449Y6840845D01*
X110012044Y6992564D01*
X110129269Y7122755D01*
X110271000Y7225729D01*
X110431044Y7296985D01*
X110602405Y7333409D01*
X110777595Y7333409D01*
X110948956Y7296985D01*
G37*
G36*
X118568956Y7296985D02*
G01*
X118729000Y7225729D01*
X118870731Y7122755D01*
X118987956Y6992564D01*
X119075551Y6840845D01*
X119129688Y6674230D01*
X119148000Y6500000D01*
X119129688Y6325770D01*
X119075551Y6159155D01*
X118987956Y6007436D01*
X118870731Y5877245D01*
X118729000Y5774271D01*
X118568956Y5703015D01*
X118397595Y5666591D01*
X118222405Y5666591D01*
X118051044Y5703015D01*
X117891000Y5774271D01*
X117749269Y5877245D01*
X117632044Y6007436D01*
X117544449Y6159155D01*
X117490312Y6325770D01*
X117472000Y6500000D01*
X117490312Y6674230D01*
X117544449Y6840845D01*
X117632044Y6992564D01*
X117749269Y7122755D01*
X117891000Y7225729D01*
X118051044Y7296985D01*
X118222405Y7333409D01*
X118397595Y7333409D01*
X118568956Y7296985D01*
G37*
G36*
X128774407Y7504538D02*
G01*
X128944000Y7429031D01*
X129094188Y7319913D01*
X129218407Y7181953D01*
X129311228Y7021182D01*
X129368595Y6844626D01*
X129388000Y6660000D01*
X129368595Y6475374D01*
X129311228Y6298818D01*
X129218407Y6138047D01*
X129094188Y6000087D01*
X128944000Y5890969D01*
X128774407Y5815462D01*
X128592821Y5776865D01*
X128407179Y5776865D01*
X128225593Y5815462D01*
X128056000Y5890969D01*
X127905812Y6000087D01*
X127781593Y6138047D01*
X127688772Y6298818D01*
X127631405Y6475374D01*
X127612000Y6660000D01*
X127631405Y6844626D01*
X127688772Y7021182D01*
X127781593Y7181953D01*
X127905812Y7319913D01*
X128056000Y7429031D01*
X128225593Y7504538D01*
X128407179Y7543135D01*
X128592821Y7543135D01*
X128774407Y7504538D01*
G37*
G36*
X131314407Y7504538D02*
G01*
X131484000Y7429031D01*
X131634188Y7319913D01*
X131758407Y7181953D01*
X131851228Y7021182D01*
X131908595Y6844626D01*
X131928000Y6660000D01*
X131908595Y6475374D01*
X131851228Y6298818D01*
X131758407Y6138047D01*
X131634188Y6000087D01*
X131484000Y5890969D01*
X131314407Y5815462D01*
X131132821Y5776865D01*
X130947179Y5776865D01*
X130765593Y5815462D01*
X130596000Y5890969D01*
X130445812Y6000087D01*
X130321593Y6138047D01*
X130228772Y6298818D01*
X130171405Y6475374D01*
X130152000Y6660000D01*
X130171405Y6844626D01*
X130228772Y7021182D01*
X130321593Y7181953D01*
X130445812Y7319913D01*
X130596000Y7429031D01*
X130765593Y7504538D01*
X130947179Y7543135D01*
X131132821Y7543135D01*
X131314407Y7504538D01*
G37*
G36*
X128774407Y10044538D02*
G01*
X128944000Y9969031D01*
X129094188Y9859913D01*
X129218407Y9721953D01*
X129311228Y9561182D01*
X129368595Y9384626D01*
X129388000Y9200000D01*
X129368595Y9015374D01*
X129311228Y8838818D01*
X129218407Y8678047D01*
X129094188Y8540087D01*
X128944000Y8430969D01*
X128774407Y8355462D01*
X128592821Y8316865D01*
X128407179Y8316865D01*
X128225593Y8355462D01*
X128056000Y8430969D01*
X127905812Y8540087D01*
X127781593Y8678047D01*
X127688772Y8838818D01*
X127631405Y9015374D01*
X127612000Y9200000D01*
X127631405Y9384626D01*
X127688772Y9561182D01*
X127781593Y9721953D01*
X127905812Y9859913D01*
X128056000Y9969031D01*
X128225593Y10044538D01*
X128407179Y10083135D01*
X128592821Y10083135D01*
X128774407Y10044538D01*
G37*
G36*
X131314407Y10044538D02*
G01*
X131484000Y9969031D01*
X131634188Y9859913D01*
X131758407Y9721953D01*
X131851228Y9561182D01*
X131908595Y9384626D01*
X131928000Y9200000D01*
X131908595Y9015374D01*
X131851228Y8838818D01*
X131758407Y8678047D01*
X131634188Y8540087D01*
X131484000Y8430969D01*
X131314407Y8355462D01*
X131132821Y8316865D01*
X130947179Y8316865D01*
X130765593Y8355462D01*
X130596000Y8430969D01*
X130445812Y8540087D01*
X130321593Y8678047D01*
X130228772Y8838818D01*
X130171405Y9015374D01*
X130152000Y9200000D01*
X130171405Y9384626D01*
X130228772Y9561182D01*
X130321593Y9721953D01*
X130445812Y9859913D01*
X130596000Y9969031D01*
X130765593Y10044538D01*
X130947179Y10083135D01*
X131132821Y10083135D01*
X131314407Y10044538D01*
G37*
G36*
X129364542Y12625107D02*
G01*
X129376870Y12616870D01*
X129385107Y12604542D01*
X129388000Y12590000D01*
X129388000Y10890000D01*
X129385107Y10875458D01*
X129376870Y10863130D01*
X129364542Y10854893D01*
X129350000Y10852000D01*
X129345077Y10852000D01*
X127654924Y10852000D01*
X127650000Y10852000D01*
X127635458Y10854893D01*
X127623130Y10863130D01*
X127614893Y10875458D01*
X127612000Y10890000D01*
X127612000Y12590000D01*
X127614893Y12604542D01*
X127623130Y12616870D01*
X127635458Y12625107D01*
X127650000Y12628000D01*
X129350000Y12628000D01*
X129364542Y12625107D01*
G37*
G36*
X131314407Y12584538D02*
G01*
X131484000Y12509031D01*
X131634188Y12399913D01*
X131758407Y12261953D01*
X131851228Y12101182D01*
X131908595Y11924626D01*
X131928000Y11740000D01*
X131908595Y11555374D01*
X131851228Y11378818D01*
X131758407Y11218047D01*
X131634188Y11080087D01*
X131484000Y10970969D01*
X131314407Y10895462D01*
X131132821Y10856865D01*
X130947179Y10856865D01*
X130765593Y10895462D01*
X130596000Y10970969D01*
X130445812Y11080087D01*
X130321593Y11218047D01*
X130228772Y11378818D01*
X130171405Y11555374D01*
X130152000Y11740000D01*
X130171405Y11924626D01*
X130228772Y12101182D01*
X130321593Y12261953D01*
X130445812Y12399913D01*
X130596000Y12509031D01*
X130765593Y12584538D01*
X130947179Y12623135D01*
X131132821Y12623135D01*
X131314407Y12584538D01*
G37*
M02*
