G04 #@! TF.GenerationSoftware,KiCad,Pcbnew,8.0.8*
G04 #@! TF.CreationDate,2025-10-24T15:06:26-04:00*
G04 #@! TF.ProjectId,InSystemROMProg,496e5379-7374-4656-9d52-4f4d50726f67,rev?*
G04 #@! TF.SameCoordinates,Original*
G04 #@! TF.FileFunction,Legend,Top*
G04 #@! TF.FilePolarity,Positive*
%FSLAX46Y46*%
G04 Gerber Fmt 4.6, Leading zero omitted, Abs format (unit mm)*
G04 Created by KiCad (PCBNEW 8.0.8) date 2025-10-24 15:06:26*
%MOMM*%
%LPD*%
G01*
G04 APERTURE LIST*
G04 Aperture macros list*
%AMRoundRect*
0 Rectangle with rounded corners*
0 $1 Rounding radius*
0 $2 $3 $4 $5 $6 $7 $8 $9 X,Y pos of 4 corners*
0 Add a 4 corners polygon primitive as box body*
4,1,4,$2,$3,$4,$5,$6,$7,$8,$9,$2,$3,0*
0 Add four circle primitives for the rounded corners*
1,1,$1+$1,$2,$3*
1,1,$1+$1,$4,$5*
1,1,$1+$1,$6,$7*
1,1,$1+$1,$8,$9*
0 Add four rect primitives between the rounded corners*
20,1,$1+$1,$2,$3,$4,$5,0*
20,1,$1+$1,$4,$5,$6,$7,0*
20,1,$1+$1,$6,$7,$8,$9,0*
20,1,$1+$1,$8,$9,$2,$3,0*%
G04 Aperture macros list end*
%ADD10C,0.100000*%
%ADD11C,0.200000*%
%ADD12C,0.150000*%
%ADD13C,0.120000*%
%ADD14C,1.676000*%
%ADD15O,1.676000X1.676000*%
%ADD16RoundRect,0.038000X-0.850000X-0.850000X0.850000X-0.850000X0.850000X0.850000X-0.850000X0.850000X0*%
%ADD17O,1.776000X1.776000*%
%ADD18RoundRect,0.038000X-0.850000X0.850000X-0.850000X-0.850000X0.850000X-0.850000X0.850000X0.850000X0*%
%ADD19RoundRect,0.038000X-1.200000X-0.800000X1.200000X-0.800000X1.200000X0.800000X-1.200000X0.800000X0*%
%ADD20O,2.476000X1.676000*%
%ADD21O,3.076000X1.576000*%
G04 APERTURE END LIST*
D10*
X115151390Y-40637217D02*
X115103771Y-40780074D01*
X115103771Y-40780074D02*
X115056152Y-40827693D01*
X115056152Y-40827693D02*
X114960914Y-40875312D01*
X114960914Y-40875312D02*
X114818057Y-40875312D01*
X114818057Y-40875312D02*
X114722819Y-40827693D01*
X114722819Y-40827693D02*
X114675200Y-40780074D01*
X114675200Y-40780074D02*
X114627580Y-40684836D01*
X114627580Y-40684836D02*
X114627580Y-40303884D01*
X114627580Y-40303884D02*
X115627580Y-40303884D01*
X115627580Y-40303884D02*
X115627580Y-40637217D01*
X115627580Y-40637217D02*
X115579961Y-40732455D01*
X115579961Y-40732455D02*
X115532342Y-40780074D01*
X115532342Y-40780074D02*
X115437104Y-40827693D01*
X115437104Y-40827693D02*
X115341866Y-40827693D01*
X115341866Y-40827693D02*
X115246628Y-40780074D01*
X115246628Y-40780074D02*
X115199009Y-40732455D01*
X115199009Y-40732455D02*
X115151390Y-40637217D01*
X115151390Y-40637217D02*
X115151390Y-40303884D01*
X115627580Y-41303884D02*
X114818057Y-41303884D01*
X114818057Y-41303884D02*
X114722819Y-41351503D01*
X114722819Y-41351503D02*
X114675200Y-41399122D01*
X114675200Y-41399122D02*
X114627580Y-41494360D01*
X114627580Y-41494360D02*
X114627580Y-41684836D01*
X114627580Y-41684836D02*
X114675200Y-41780074D01*
X114675200Y-41780074D02*
X114722819Y-41827693D01*
X114722819Y-41827693D02*
X114818057Y-41875312D01*
X114818057Y-41875312D02*
X115627580Y-41875312D01*
X114675200Y-42303884D02*
X114627580Y-42446741D01*
X114627580Y-42446741D02*
X114627580Y-42684836D01*
X114627580Y-42684836D02*
X114675200Y-42780074D01*
X114675200Y-42780074D02*
X114722819Y-42827693D01*
X114722819Y-42827693D02*
X114818057Y-42875312D01*
X114818057Y-42875312D02*
X114913295Y-42875312D01*
X114913295Y-42875312D02*
X115008533Y-42827693D01*
X115008533Y-42827693D02*
X115056152Y-42780074D01*
X115056152Y-42780074D02*
X115103771Y-42684836D01*
X115103771Y-42684836D02*
X115151390Y-42494360D01*
X115151390Y-42494360D02*
X115199009Y-42399122D01*
X115199009Y-42399122D02*
X115246628Y-42351503D01*
X115246628Y-42351503D02*
X115341866Y-42303884D01*
X115341866Y-42303884D02*
X115437104Y-42303884D01*
X115437104Y-42303884D02*
X115532342Y-42351503D01*
X115532342Y-42351503D02*
X115579961Y-42399122D01*
X115579961Y-42399122D02*
X115627580Y-42494360D01*
X115627580Y-42494360D02*
X115627580Y-42732455D01*
X115627580Y-42732455D02*
X115579961Y-42875312D01*
X114913295Y-43256265D02*
X114913295Y-43732455D01*
X114627580Y-43161027D02*
X115627580Y-43494360D01*
X115627580Y-43494360D02*
X114627580Y-43827693D01*
X114722819Y-44732455D02*
X114675200Y-44684836D01*
X114675200Y-44684836D02*
X114627580Y-44541979D01*
X114627580Y-44541979D02*
X114627580Y-44446741D01*
X114627580Y-44446741D02*
X114675200Y-44303884D01*
X114675200Y-44303884D02*
X114770438Y-44208646D01*
X114770438Y-44208646D02*
X114865676Y-44161027D01*
X114865676Y-44161027D02*
X115056152Y-44113408D01*
X115056152Y-44113408D02*
X115199009Y-44113408D01*
X115199009Y-44113408D02*
X115389485Y-44161027D01*
X115389485Y-44161027D02*
X115484723Y-44208646D01*
X115484723Y-44208646D02*
X115579961Y-44303884D01*
X115579961Y-44303884D02*
X115627580Y-44446741D01*
X115627580Y-44446741D02*
X115627580Y-44541979D01*
X115627580Y-44541979D02*
X115579961Y-44684836D01*
X115579961Y-44684836D02*
X115532342Y-44732455D01*
X114627580Y-45161027D02*
X115627580Y-45161027D01*
X114627580Y-45732455D02*
X115199009Y-45303884D01*
X115627580Y-45732455D02*
X115056152Y-45161027D01*
X115905200Y-40165789D02*
X115905200Y-45822932D01*
D11*
X117406590Y-40703006D02*
X117358971Y-40845863D01*
X117358971Y-40845863D02*
X117311352Y-40893482D01*
X117311352Y-40893482D02*
X117216114Y-40941101D01*
X117216114Y-40941101D02*
X117073257Y-40941101D01*
X117073257Y-40941101D02*
X116978019Y-40893482D01*
X116978019Y-40893482D02*
X116930400Y-40845863D01*
X116930400Y-40845863D02*
X116882780Y-40750625D01*
X116882780Y-40750625D02*
X116882780Y-40369673D01*
X116882780Y-40369673D02*
X117882780Y-40369673D01*
X117882780Y-40369673D02*
X117882780Y-40703006D01*
X117882780Y-40703006D02*
X117835161Y-40798244D01*
X117835161Y-40798244D02*
X117787542Y-40845863D01*
X117787542Y-40845863D02*
X117692304Y-40893482D01*
X117692304Y-40893482D02*
X117597066Y-40893482D01*
X117597066Y-40893482D02*
X117501828Y-40845863D01*
X117501828Y-40845863D02*
X117454209Y-40798244D01*
X117454209Y-40798244D02*
X117406590Y-40703006D01*
X117406590Y-40703006D02*
X117406590Y-40369673D01*
X117882780Y-41369673D02*
X117073257Y-41369673D01*
X117073257Y-41369673D02*
X116978019Y-41417292D01*
X116978019Y-41417292D02*
X116930400Y-41464911D01*
X116930400Y-41464911D02*
X116882780Y-41560149D01*
X116882780Y-41560149D02*
X116882780Y-41750625D01*
X116882780Y-41750625D02*
X116930400Y-41845863D01*
X116930400Y-41845863D02*
X116978019Y-41893482D01*
X116978019Y-41893482D02*
X117073257Y-41941101D01*
X117073257Y-41941101D02*
X117882780Y-41941101D01*
X116930400Y-42369673D02*
X116882780Y-42512530D01*
X116882780Y-42512530D02*
X116882780Y-42750625D01*
X116882780Y-42750625D02*
X116930400Y-42845863D01*
X116930400Y-42845863D02*
X116978019Y-42893482D01*
X116978019Y-42893482D02*
X117073257Y-42941101D01*
X117073257Y-42941101D02*
X117168495Y-42941101D01*
X117168495Y-42941101D02*
X117263733Y-42893482D01*
X117263733Y-42893482D02*
X117311352Y-42845863D01*
X117311352Y-42845863D02*
X117358971Y-42750625D01*
X117358971Y-42750625D02*
X117406590Y-42560149D01*
X117406590Y-42560149D02*
X117454209Y-42464911D01*
X117454209Y-42464911D02*
X117501828Y-42417292D01*
X117501828Y-42417292D02*
X117597066Y-42369673D01*
X117597066Y-42369673D02*
X117692304Y-42369673D01*
X117692304Y-42369673D02*
X117787542Y-42417292D01*
X117787542Y-42417292D02*
X117835161Y-42464911D01*
X117835161Y-42464911D02*
X117882780Y-42560149D01*
X117882780Y-42560149D02*
X117882780Y-42798244D01*
X117882780Y-42798244D02*
X117835161Y-42941101D01*
X116882780Y-43941101D02*
X117358971Y-43607768D01*
X116882780Y-43369673D02*
X117882780Y-43369673D01*
X117882780Y-43369673D02*
X117882780Y-43750625D01*
X117882780Y-43750625D02*
X117835161Y-43845863D01*
X117835161Y-43845863D02*
X117787542Y-43893482D01*
X117787542Y-43893482D02*
X117692304Y-43941101D01*
X117692304Y-43941101D02*
X117549447Y-43941101D01*
X117549447Y-43941101D02*
X117454209Y-43893482D01*
X117454209Y-43893482D02*
X117406590Y-43845863D01*
X117406590Y-43845863D02*
X117358971Y-43750625D01*
X117358971Y-43750625D02*
X117358971Y-43369673D01*
X116787542Y-45036339D02*
X116835161Y-44941101D01*
X116835161Y-44941101D02*
X116930400Y-44845863D01*
X116930400Y-44845863D02*
X117073257Y-44703006D01*
X117073257Y-44703006D02*
X117120876Y-44607768D01*
X117120876Y-44607768D02*
X117120876Y-44512530D01*
X116882780Y-44560149D02*
X116930400Y-44464911D01*
X116930400Y-44464911D02*
X117025638Y-44369673D01*
X117025638Y-44369673D02*
X117216114Y-44322054D01*
X117216114Y-44322054D02*
X117549447Y-44322054D01*
X117549447Y-44322054D02*
X117739923Y-44369673D01*
X117739923Y-44369673D02*
X117835161Y-44464911D01*
X117835161Y-44464911D02*
X117882780Y-44560149D01*
X117882780Y-44560149D02*
X117882780Y-44750625D01*
X117882780Y-44750625D02*
X117835161Y-44845863D01*
X117835161Y-44845863D02*
X117739923Y-44941101D01*
X117739923Y-44941101D02*
X117549447Y-44988720D01*
X117549447Y-44988720D02*
X117216114Y-44988720D01*
X117216114Y-44988720D02*
X117025638Y-44941101D01*
X117025638Y-44941101D02*
X116930400Y-44845863D01*
X116930400Y-44845863D02*
X116882780Y-44750625D01*
X116882780Y-44750625D02*
X116882780Y-44560149D01*
X118160400Y-40231578D02*
X118160400Y-45079197D01*
D10*
X115672419Y-31991353D02*
X115672419Y-31324687D01*
X115672419Y-31324687D02*
X116672419Y-31991353D01*
X116672419Y-31991353D02*
X116672419Y-31324687D01*
X116672419Y-30419925D02*
X116672419Y-30991353D01*
X116672419Y-30705639D02*
X115672419Y-30705639D01*
X115672419Y-30705639D02*
X115815276Y-30800877D01*
X115815276Y-30800877D02*
X115910514Y-30896115D01*
X115910514Y-30896115D02*
X115958133Y-30991353D01*
X116100990Y-29848496D02*
X116053371Y-29943734D01*
X116053371Y-29943734D02*
X116005752Y-29991353D01*
X116005752Y-29991353D02*
X115910514Y-30038972D01*
X115910514Y-30038972D02*
X115862895Y-30038972D01*
X115862895Y-30038972D02*
X115767657Y-29991353D01*
X115767657Y-29991353D02*
X115720038Y-29943734D01*
X115720038Y-29943734D02*
X115672419Y-29848496D01*
X115672419Y-29848496D02*
X115672419Y-29658020D01*
X115672419Y-29658020D02*
X115720038Y-29562782D01*
X115720038Y-29562782D02*
X115767657Y-29515163D01*
X115767657Y-29515163D02*
X115862895Y-29467544D01*
X115862895Y-29467544D02*
X115910514Y-29467544D01*
X115910514Y-29467544D02*
X116005752Y-29515163D01*
X116005752Y-29515163D02*
X116053371Y-29562782D01*
X116053371Y-29562782D02*
X116100990Y-29658020D01*
X116100990Y-29658020D02*
X116100990Y-29848496D01*
X116100990Y-29848496D02*
X116148609Y-29943734D01*
X116148609Y-29943734D02*
X116196228Y-29991353D01*
X116196228Y-29991353D02*
X116291466Y-30038972D01*
X116291466Y-30038972D02*
X116481942Y-30038972D01*
X116481942Y-30038972D02*
X116577180Y-29991353D01*
X116577180Y-29991353D02*
X116624800Y-29943734D01*
X116624800Y-29943734D02*
X116672419Y-29848496D01*
X116672419Y-29848496D02*
X116672419Y-29658020D01*
X116672419Y-29658020D02*
X116624800Y-29562782D01*
X116624800Y-29562782D02*
X116577180Y-29515163D01*
X116577180Y-29515163D02*
X116481942Y-29467544D01*
X116481942Y-29467544D02*
X116291466Y-29467544D01*
X116291466Y-29467544D02*
X116196228Y-29515163D01*
X116196228Y-29515163D02*
X116148609Y-29562782D01*
X116148609Y-29562782D02*
X116100990Y-29658020D01*
X115672419Y-28848496D02*
X115672419Y-28753258D01*
X115672419Y-28753258D02*
X115720038Y-28658020D01*
X115720038Y-28658020D02*
X115767657Y-28610401D01*
X115767657Y-28610401D02*
X115862895Y-28562782D01*
X115862895Y-28562782D02*
X116053371Y-28515163D01*
X116053371Y-28515163D02*
X116291466Y-28515163D01*
X116291466Y-28515163D02*
X116481942Y-28562782D01*
X116481942Y-28562782D02*
X116577180Y-28610401D01*
X116577180Y-28610401D02*
X116624800Y-28658020D01*
X116624800Y-28658020D02*
X116672419Y-28753258D01*
X116672419Y-28753258D02*
X116672419Y-28848496D01*
X116672419Y-28848496D02*
X116624800Y-28943734D01*
X116624800Y-28943734D02*
X116577180Y-28991353D01*
X116577180Y-28991353D02*
X116481942Y-29038972D01*
X116481942Y-29038972D02*
X116291466Y-29086591D01*
X116291466Y-29086591D02*
X116053371Y-29086591D01*
X116053371Y-29086591D02*
X115862895Y-29038972D01*
X115862895Y-29038972D02*
X115767657Y-28991353D01*
X115767657Y-28991353D02*
X115720038Y-28943734D01*
X115720038Y-28943734D02*
X115672419Y-28848496D01*
X116624800Y-27372305D02*
X116672419Y-27229448D01*
X116672419Y-27229448D02*
X116672419Y-26991353D01*
X116672419Y-26991353D02*
X116624800Y-26896115D01*
X116624800Y-26896115D02*
X116577180Y-26848496D01*
X116577180Y-26848496D02*
X116481942Y-26800877D01*
X116481942Y-26800877D02*
X116386704Y-26800877D01*
X116386704Y-26800877D02*
X116291466Y-26848496D01*
X116291466Y-26848496D02*
X116243847Y-26896115D01*
X116243847Y-26896115D02*
X116196228Y-26991353D01*
X116196228Y-26991353D02*
X116148609Y-27181829D01*
X116148609Y-27181829D02*
X116100990Y-27277067D01*
X116100990Y-27277067D02*
X116053371Y-27324686D01*
X116053371Y-27324686D02*
X115958133Y-27372305D01*
X115958133Y-27372305D02*
X115862895Y-27372305D01*
X115862895Y-27372305D02*
X115767657Y-27324686D01*
X115767657Y-27324686D02*
X115720038Y-27277067D01*
X115720038Y-27277067D02*
X115672419Y-27181829D01*
X115672419Y-27181829D02*
X115672419Y-26943734D01*
X115672419Y-26943734D02*
X115720038Y-26800877D01*
X116148609Y-26038972D02*
X116196228Y-25896115D01*
X116196228Y-25896115D02*
X116243847Y-25848496D01*
X116243847Y-25848496D02*
X116339085Y-25800877D01*
X116339085Y-25800877D02*
X116481942Y-25800877D01*
X116481942Y-25800877D02*
X116577180Y-25848496D01*
X116577180Y-25848496D02*
X116624800Y-25896115D01*
X116624800Y-25896115D02*
X116672419Y-25991353D01*
X116672419Y-25991353D02*
X116672419Y-26372305D01*
X116672419Y-26372305D02*
X115672419Y-26372305D01*
X115672419Y-26372305D02*
X115672419Y-26038972D01*
X115672419Y-26038972D02*
X115720038Y-25943734D01*
X115720038Y-25943734D02*
X115767657Y-25896115D01*
X115767657Y-25896115D02*
X115862895Y-25848496D01*
X115862895Y-25848496D02*
X115958133Y-25848496D01*
X115958133Y-25848496D02*
X116053371Y-25896115D01*
X116053371Y-25896115D02*
X116100990Y-25943734D01*
X116100990Y-25943734D02*
X116148609Y-26038972D01*
X116148609Y-26038972D02*
X116148609Y-26372305D01*
X116577180Y-24800877D02*
X116624800Y-24848496D01*
X116624800Y-24848496D02*
X116672419Y-24991353D01*
X116672419Y-24991353D02*
X116672419Y-25086591D01*
X116672419Y-25086591D02*
X116624800Y-25229448D01*
X116624800Y-25229448D02*
X116529561Y-25324686D01*
X116529561Y-25324686D02*
X116434323Y-25372305D01*
X116434323Y-25372305D02*
X116243847Y-25419924D01*
X116243847Y-25419924D02*
X116100990Y-25419924D01*
X116100990Y-25419924D02*
X115910514Y-25372305D01*
X115910514Y-25372305D02*
X115815276Y-25324686D01*
X115815276Y-25324686D02*
X115720038Y-25229448D01*
X115720038Y-25229448D02*
X115672419Y-25086591D01*
X115672419Y-25086591D02*
X115672419Y-24991353D01*
X115672419Y-24991353D02*
X115720038Y-24848496D01*
X115720038Y-24848496D02*
X115767657Y-24800877D01*
X116005752Y-23753257D02*
X116005752Y-23372305D01*
X115672419Y-23610400D02*
X116529561Y-23610400D01*
X116529561Y-23610400D02*
X116624800Y-23562781D01*
X116624800Y-23562781D02*
X116672419Y-23467543D01*
X116672419Y-23467543D02*
X116672419Y-23372305D01*
X116672419Y-22896114D02*
X116624800Y-22991352D01*
X116624800Y-22991352D02*
X116577180Y-23038971D01*
X116577180Y-23038971D02*
X116481942Y-23086590D01*
X116481942Y-23086590D02*
X116196228Y-23086590D01*
X116196228Y-23086590D02*
X116100990Y-23038971D01*
X116100990Y-23038971D02*
X116053371Y-22991352D01*
X116053371Y-22991352D02*
X116005752Y-22896114D01*
X116005752Y-22896114D02*
X116005752Y-22753257D01*
X116005752Y-22753257D02*
X116053371Y-22658019D01*
X116053371Y-22658019D02*
X116100990Y-22610400D01*
X116100990Y-22610400D02*
X116196228Y-22562781D01*
X116196228Y-22562781D02*
X116481942Y-22562781D01*
X116481942Y-22562781D02*
X116577180Y-22610400D01*
X116577180Y-22610400D02*
X116624800Y-22658019D01*
X116624800Y-22658019D02*
X116672419Y-22753257D01*
X116672419Y-22753257D02*
X116672419Y-22896114D01*
X115672419Y-21467542D02*
X115672419Y-20800876D01*
X115672419Y-20800876D02*
X116672419Y-21467542D01*
X116672419Y-21467542D02*
X116672419Y-20800876D01*
X116100990Y-20277066D02*
X116053371Y-20372304D01*
X116053371Y-20372304D02*
X116005752Y-20419923D01*
X116005752Y-20419923D02*
X115910514Y-20467542D01*
X115910514Y-20467542D02*
X115862895Y-20467542D01*
X115862895Y-20467542D02*
X115767657Y-20419923D01*
X115767657Y-20419923D02*
X115720038Y-20372304D01*
X115720038Y-20372304D02*
X115672419Y-20277066D01*
X115672419Y-20277066D02*
X115672419Y-20086590D01*
X115672419Y-20086590D02*
X115720038Y-19991352D01*
X115720038Y-19991352D02*
X115767657Y-19943733D01*
X115767657Y-19943733D02*
X115862895Y-19896114D01*
X115862895Y-19896114D02*
X115910514Y-19896114D01*
X115910514Y-19896114D02*
X116005752Y-19943733D01*
X116005752Y-19943733D02*
X116053371Y-19991352D01*
X116053371Y-19991352D02*
X116100990Y-20086590D01*
X116100990Y-20086590D02*
X116100990Y-20277066D01*
X116100990Y-20277066D02*
X116148609Y-20372304D01*
X116148609Y-20372304D02*
X116196228Y-20419923D01*
X116196228Y-20419923D02*
X116291466Y-20467542D01*
X116291466Y-20467542D02*
X116481942Y-20467542D01*
X116481942Y-20467542D02*
X116577180Y-20419923D01*
X116577180Y-20419923D02*
X116624800Y-20372304D01*
X116624800Y-20372304D02*
X116672419Y-20277066D01*
X116672419Y-20277066D02*
X116672419Y-20086590D01*
X116672419Y-20086590D02*
X116624800Y-19991352D01*
X116624800Y-19991352D02*
X116577180Y-19943733D01*
X116577180Y-19943733D02*
X116481942Y-19896114D01*
X116481942Y-19896114D02*
X116291466Y-19896114D01*
X116291466Y-19896114D02*
X116196228Y-19943733D01*
X116196228Y-19943733D02*
X116148609Y-19991352D01*
X116148609Y-19991352D02*
X116100990Y-20086590D01*
X115672419Y-19277066D02*
X115672419Y-19181828D01*
X115672419Y-19181828D02*
X115720038Y-19086590D01*
X115720038Y-19086590D02*
X115767657Y-19038971D01*
X115767657Y-19038971D02*
X115862895Y-18991352D01*
X115862895Y-18991352D02*
X116053371Y-18943733D01*
X116053371Y-18943733D02*
X116291466Y-18943733D01*
X116291466Y-18943733D02*
X116481942Y-18991352D01*
X116481942Y-18991352D02*
X116577180Y-19038971D01*
X116577180Y-19038971D02*
X116624800Y-19086590D01*
X116624800Y-19086590D02*
X116672419Y-19181828D01*
X116672419Y-19181828D02*
X116672419Y-19277066D01*
X116672419Y-19277066D02*
X116624800Y-19372304D01*
X116624800Y-19372304D02*
X116577180Y-19419923D01*
X116577180Y-19419923D02*
X116481942Y-19467542D01*
X116481942Y-19467542D02*
X116291466Y-19515161D01*
X116291466Y-19515161D02*
X116053371Y-19515161D01*
X116053371Y-19515161D02*
X115862895Y-19467542D01*
X115862895Y-19467542D02*
X115767657Y-19419923D01*
X115767657Y-19419923D02*
X115720038Y-19372304D01*
X115720038Y-19372304D02*
X115672419Y-19277066D01*
X116672419Y-17181828D02*
X116196228Y-17515161D01*
X116672419Y-17753256D02*
X115672419Y-17753256D01*
X115672419Y-17753256D02*
X115672419Y-17372304D01*
X115672419Y-17372304D02*
X115720038Y-17277066D01*
X115720038Y-17277066D02*
X115767657Y-17229447D01*
X115767657Y-17229447D02*
X115862895Y-17181828D01*
X115862895Y-17181828D02*
X116005752Y-17181828D01*
X116005752Y-17181828D02*
X116100990Y-17229447D01*
X116100990Y-17229447D02*
X116148609Y-17277066D01*
X116148609Y-17277066D02*
X116196228Y-17372304D01*
X116196228Y-17372304D02*
X116196228Y-17753256D01*
X116624800Y-16372304D02*
X116672419Y-16467542D01*
X116672419Y-16467542D02*
X116672419Y-16658018D01*
X116672419Y-16658018D02*
X116624800Y-16753256D01*
X116624800Y-16753256D02*
X116529561Y-16800875D01*
X116529561Y-16800875D02*
X116148609Y-16800875D01*
X116148609Y-16800875D02*
X116053371Y-16753256D01*
X116053371Y-16753256D02*
X116005752Y-16658018D01*
X116005752Y-16658018D02*
X116005752Y-16467542D01*
X116005752Y-16467542D02*
X116053371Y-16372304D01*
X116053371Y-16372304D02*
X116148609Y-16324685D01*
X116148609Y-16324685D02*
X116243847Y-16324685D01*
X116243847Y-16324685D02*
X116339085Y-16800875D01*
X116005752Y-16038970D02*
X116005752Y-15658018D01*
X115672419Y-15896113D02*
X116529561Y-15896113D01*
X116529561Y-15896113D02*
X116624800Y-15848494D01*
X116624800Y-15848494D02*
X116672419Y-15753256D01*
X116672419Y-15753256D02*
X116672419Y-15658018D01*
X116672419Y-15324684D02*
X116005752Y-15324684D01*
X116196228Y-15324684D02*
X116100990Y-15277065D01*
X116100990Y-15277065D02*
X116053371Y-15229446D01*
X116053371Y-15229446D02*
X116005752Y-15134208D01*
X116005752Y-15134208D02*
X116005752Y-15038970D01*
X116672419Y-14562779D02*
X116624800Y-14658017D01*
X116624800Y-14658017D02*
X116577180Y-14705636D01*
X116577180Y-14705636D02*
X116481942Y-14753255D01*
X116481942Y-14753255D02*
X116196228Y-14753255D01*
X116196228Y-14753255D02*
X116100990Y-14705636D01*
X116100990Y-14705636D02*
X116053371Y-14658017D01*
X116053371Y-14658017D02*
X116005752Y-14562779D01*
X116005752Y-14562779D02*
X116005752Y-14419922D01*
X116005752Y-14419922D02*
X116053371Y-14324684D01*
X116053371Y-14324684D02*
X116100990Y-14277065D01*
X116100990Y-14277065D02*
X116196228Y-14229446D01*
X116196228Y-14229446D02*
X116481942Y-14229446D01*
X116481942Y-14229446D02*
X116577180Y-14277065D01*
X116577180Y-14277065D02*
X116624800Y-14324684D01*
X116624800Y-14324684D02*
X116672419Y-14419922D01*
X116672419Y-14419922D02*
X116672419Y-14562779D01*
X116577180Y-13800874D02*
X116624800Y-13753255D01*
X116624800Y-13753255D02*
X116672419Y-13800874D01*
X116672419Y-13800874D02*
X116624800Y-13848493D01*
X116624800Y-13848493D02*
X116577180Y-13800874D01*
X116577180Y-13800874D02*
X116672419Y-13800874D01*
X116291466Y-13800874D02*
X115720038Y-13848493D01*
X115720038Y-13848493D02*
X115672419Y-13800874D01*
X115672419Y-13800874D02*
X115720038Y-13753255D01*
X115720038Y-13753255D02*
X116291466Y-13800874D01*
X116291466Y-13800874D02*
X115672419Y-13800874D01*
X116672419Y-12562779D02*
X116005752Y-12562779D01*
X115672419Y-12562779D02*
X115720038Y-12610398D01*
X115720038Y-12610398D02*
X115767657Y-12562779D01*
X115767657Y-12562779D02*
X115720038Y-12515160D01*
X115720038Y-12515160D02*
X115672419Y-12562779D01*
X115672419Y-12562779D02*
X115767657Y-12562779D01*
X116005752Y-12086589D02*
X116672419Y-12086589D01*
X116100990Y-12086589D02*
X116053371Y-12038970D01*
X116053371Y-12038970D02*
X116005752Y-11943732D01*
X116005752Y-11943732D02*
X116005752Y-11800875D01*
X116005752Y-11800875D02*
X116053371Y-11705637D01*
X116053371Y-11705637D02*
X116148609Y-11658018D01*
X116148609Y-11658018D02*
X116672419Y-11658018D01*
X116291466Y-11181827D02*
X116291466Y-10419923D01*
X116624800Y-9991351D02*
X116672419Y-9896113D01*
X116672419Y-9896113D02*
X116672419Y-9705637D01*
X116672419Y-9705637D02*
X116624800Y-9610399D01*
X116624800Y-9610399D02*
X116529561Y-9562780D01*
X116529561Y-9562780D02*
X116481942Y-9562780D01*
X116481942Y-9562780D02*
X116386704Y-9610399D01*
X116386704Y-9610399D02*
X116339085Y-9705637D01*
X116339085Y-9705637D02*
X116339085Y-9848494D01*
X116339085Y-9848494D02*
X116291466Y-9943732D01*
X116291466Y-9943732D02*
X116196228Y-9991351D01*
X116196228Y-9991351D02*
X116148609Y-9991351D01*
X116148609Y-9991351D02*
X116053371Y-9943732D01*
X116053371Y-9943732D02*
X116005752Y-9848494D01*
X116005752Y-9848494D02*
X116005752Y-9705637D01*
X116005752Y-9705637D02*
X116053371Y-9610399D01*
X116005752Y-9229446D02*
X116672419Y-8991351D01*
X116005752Y-8753256D02*
X116672419Y-8991351D01*
X116672419Y-8991351D02*
X116910514Y-9086589D01*
X116910514Y-9086589D02*
X116958133Y-9134208D01*
X116958133Y-9134208D02*
X117005752Y-9229446D01*
X116624800Y-8419922D02*
X116672419Y-8324684D01*
X116672419Y-8324684D02*
X116672419Y-8134208D01*
X116672419Y-8134208D02*
X116624800Y-8038970D01*
X116624800Y-8038970D02*
X116529561Y-7991351D01*
X116529561Y-7991351D02*
X116481942Y-7991351D01*
X116481942Y-7991351D02*
X116386704Y-8038970D01*
X116386704Y-8038970D02*
X116339085Y-8134208D01*
X116339085Y-8134208D02*
X116339085Y-8277065D01*
X116339085Y-8277065D02*
X116291466Y-8372303D01*
X116291466Y-8372303D02*
X116196228Y-8419922D01*
X116196228Y-8419922D02*
X116148609Y-8419922D01*
X116148609Y-8419922D02*
X116053371Y-8372303D01*
X116053371Y-8372303D02*
X116005752Y-8277065D01*
X116005752Y-8277065D02*
X116005752Y-8134208D01*
X116005752Y-8134208D02*
X116053371Y-8038970D01*
X116005752Y-7705636D02*
X116005752Y-7324684D01*
X115672419Y-7562779D02*
X116529561Y-7562779D01*
X116529561Y-7562779D02*
X116624800Y-7515160D01*
X116624800Y-7515160D02*
X116672419Y-7419922D01*
X116672419Y-7419922D02*
X116672419Y-7324684D01*
X116624800Y-6610398D02*
X116672419Y-6705636D01*
X116672419Y-6705636D02*
X116672419Y-6896112D01*
X116672419Y-6896112D02*
X116624800Y-6991350D01*
X116624800Y-6991350D02*
X116529561Y-7038969D01*
X116529561Y-7038969D02*
X116148609Y-7038969D01*
X116148609Y-7038969D02*
X116053371Y-6991350D01*
X116053371Y-6991350D02*
X116005752Y-6896112D01*
X116005752Y-6896112D02*
X116005752Y-6705636D01*
X116005752Y-6705636D02*
X116053371Y-6610398D01*
X116053371Y-6610398D02*
X116148609Y-6562779D01*
X116148609Y-6562779D02*
X116243847Y-6562779D01*
X116243847Y-6562779D02*
X116339085Y-7038969D01*
X116672419Y-6134207D02*
X116005752Y-6134207D01*
X116100990Y-6134207D02*
X116053371Y-6086588D01*
X116053371Y-6086588D02*
X116005752Y-5991350D01*
X116005752Y-5991350D02*
X116005752Y-5848493D01*
X116005752Y-5848493D02*
X116053371Y-5753255D01*
X116053371Y-5753255D02*
X116148609Y-5705636D01*
X116148609Y-5705636D02*
X116672419Y-5705636D01*
X116148609Y-5705636D02*
X116053371Y-5658017D01*
X116053371Y-5658017D02*
X116005752Y-5562779D01*
X116005752Y-5562779D02*
X116005752Y-5419922D01*
X116005752Y-5419922D02*
X116053371Y-5324683D01*
X116053371Y-5324683D02*
X116148609Y-5277064D01*
X116148609Y-5277064D02*
X116672419Y-5277064D01*
X116672419Y-3467541D02*
X116196228Y-3800874D01*
X116672419Y-4038969D02*
X115672419Y-4038969D01*
X115672419Y-4038969D02*
X115672419Y-3658017D01*
X115672419Y-3658017D02*
X115720038Y-3562779D01*
X115720038Y-3562779D02*
X115767657Y-3515160D01*
X115767657Y-3515160D02*
X115862895Y-3467541D01*
X115862895Y-3467541D02*
X116005752Y-3467541D01*
X116005752Y-3467541D02*
X116100990Y-3515160D01*
X116100990Y-3515160D02*
X116148609Y-3562779D01*
X116148609Y-3562779D02*
X116196228Y-3658017D01*
X116196228Y-3658017D02*
X116196228Y-4038969D01*
X115672419Y-2848493D02*
X115672419Y-2658017D01*
X115672419Y-2658017D02*
X115720038Y-2562779D01*
X115720038Y-2562779D02*
X115815276Y-2467541D01*
X115815276Y-2467541D02*
X116005752Y-2419922D01*
X116005752Y-2419922D02*
X116339085Y-2419922D01*
X116339085Y-2419922D02*
X116529561Y-2467541D01*
X116529561Y-2467541D02*
X116624800Y-2562779D01*
X116624800Y-2562779D02*
X116672419Y-2658017D01*
X116672419Y-2658017D02*
X116672419Y-2848493D01*
X116672419Y-2848493D02*
X116624800Y-2943731D01*
X116624800Y-2943731D02*
X116529561Y-3038969D01*
X116529561Y-3038969D02*
X116339085Y-3086588D01*
X116339085Y-3086588D02*
X116005752Y-3086588D01*
X116005752Y-3086588D02*
X115815276Y-3038969D01*
X115815276Y-3038969D02*
X115720038Y-2943731D01*
X115720038Y-2943731D02*
X115672419Y-2848493D01*
X116672419Y-1991350D02*
X115672419Y-1991350D01*
X115672419Y-1991350D02*
X116386704Y-1658017D01*
X116386704Y-1658017D02*
X115672419Y-1324684D01*
X115672419Y-1324684D02*
X116672419Y-1324684D01*
X116005752Y-86588D02*
X117005752Y-86588D01*
X116053371Y-86588D02*
X116005752Y8649D01*
X116005752Y8649D02*
X116005752Y199125D01*
X116005752Y199125D02*
X116053371Y294363D01*
X116053371Y294363D02*
X116100990Y341982D01*
X116100990Y341982D02*
X116196228Y389601D01*
X116196228Y389601D02*
X116481942Y389601D01*
X116481942Y389601D02*
X116577180Y341982D01*
X116577180Y341982D02*
X116624800Y294363D01*
X116624800Y294363D02*
X116672419Y199125D01*
X116672419Y199125D02*
X116672419Y8649D01*
X116672419Y8649D02*
X116624800Y-86588D01*
X116672419Y818173D02*
X116005752Y818173D01*
X116196228Y818173D02*
X116100990Y865792D01*
X116100990Y865792D02*
X116053371Y913411D01*
X116053371Y913411D02*
X116005752Y1008649D01*
X116005752Y1008649D02*
X116005752Y1103887D01*
X116672419Y1580078D02*
X116624800Y1484840D01*
X116624800Y1484840D02*
X116577180Y1437221D01*
X116577180Y1437221D02*
X116481942Y1389602D01*
X116481942Y1389602D02*
X116196228Y1389602D01*
X116196228Y1389602D02*
X116100990Y1437221D01*
X116100990Y1437221D02*
X116053371Y1484840D01*
X116053371Y1484840D02*
X116005752Y1580078D01*
X116005752Y1580078D02*
X116005752Y1722935D01*
X116005752Y1722935D02*
X116053371Y1818173D01*
X116053371Y1818173D02*
X116100990Y1865792D01*
X116100990Y1865792D02*
X116196228Y1913411D01*
X116196228Y1913411D02*
X116481942Y1913411D01*
X116481942Y1913411D02*
X116577180Y1865792D01*
X116577180Y1865792D02*
X116624800Y1818173D01*
X116624800Y1818173D02*
X116672419Y1722935D01*
X116672419Y1722935D02*
X116672419Y1580078D01*
X116005752Y2770554D02*
X116815276Y2770554D01*
X116815276Y2770554D02*
X116910514Y2722935D01*
X116910514Y2722935D02*
X116958133Y2675316D01*
X116958133Y2675316D02*
X117005752Y2580078D01*
X117005752Y2580078D02*
X117005752Y2437221D01*
X117005752Y2437221D02*
X116958133Y2341983D01*
X116624800Y2770554D02*
X116672419Y2675316D01*
X116672419Y2675316D02*
X116672419Y2484840D01*
X116672419Y2484840D02*
X116624800Y2389602D01*
X116624800Y2389602D02*
X116577180Y2341983D01*
X116577180Y2341983D02*
X116481942Y2294364D01*
X116481942Y2294364D02*
X116196228Y2294364D01*
X116196228Y2294364D02*
X116100990Y2341983D01*
X116100990Y2341983D02*
X116053371Y2389602D01*
X116053371Y2389602D02*
X116005752Y2484840D01*
X116005752Y2484840D02*
X116005752Y2675316D01*
X116005752Y2675316D02*
X116053371Y2770554D01*
X116672419Y4437221D02*
X116148609Y4437221D01*
X116148609Y4437221D02*
X116053371Y4389602D01*
X116053371Y4389602D02*
X116005752Y4294364D01*
X116005752Y4294364D02*
X116005752Y4103888D01*
X116005752Y4103888D02*
X116053371Y4008650D01*
X116624800Y4437221D02*
X116672419Y4341983D01*
X116672419Y4341983D02*
X116672419Y4103888D01*
X116672419Y4103888D02*
X116624800Y4008650D01*
X116624800Y4008650D02*
X116529561Y3961031D01*
X116529561Y3961031D02*
X116434323Y3961031D01*
X116434323Y3961031D02*
X116339085Y4008650D01*
X116339085Y4008650D02*
X116291466Y4103888D01*
X116291466Y4103888D02*
X116291466Y4341983D01*
X116291466Y4341983D02*
X116243847Y4437221D01*
X116672419Y5341983D02*
X115672419Y5341983D01*
X116624800Y5341983D02*
X116672419Y5246745D01*
X116672419Y5246745D02*
X116672419Y5056269D01*
X116672419Y5056269D02*
X116624800Y4961031D01*
X116624800Y4961031D02*
X116577180Y4913412D01*
X116577180Y4913412D02*
X116481942Y4865793D01*
X116481942Y4865793D02*
X116196228Y4865793D01*
X116196228Y4865793D02*
X116100990Y4913412D01*
X116100990Y4913412D02*
X116053371Y4961031D01*
X116053371Y4961031D02*
X116005752Y5056269D01*
X116005752Y5056269D02*
X116005752Y5246745D01*
X116005752Y5246745D02*
X116053371Y5341983D01*
X116672419Y6246745D02*
X116148609Y6246745D01*
X116148609Y6246745D02*
X116053371Y6199126D01*
X116053371Y6199126D02*
X116005752Y6103888D01*
X116005752Y6103888D02*
X116005752Y5913412D01*
X116005752Y5913412D02*
X116053371Y5818174D01*
X116624800Y6246745D02*
X116672419Y6151507D01*
X116672419Y6151507D02*
X116672419Y5913412D01*
X116672419Y5913412D02*
X116624800Y5818174D01*
X116624800Y5818174D02*
X116529561Y5770555D01*
X116529561Y5770555D02*
X116434323Y5770555D01*
X116434323Y5770555D02*
X116339085Y5818174D01*
X116339085Y5818174D02*
X116291466Y5913412D01*
X116291466Y5913412D02*
X116291466Y6151507D01*
X116291466Y6151507D02*
X116243847Y6246745D01*
X116005752Y6722936D02*
X117005752Y6722936D01*
X116053371Y6722936D02*
X116005752Y6818174D01*
X116005752Y6818174D02*
X116005752Y7008650D01*
X116005752Y7008650D02*
X116053371Y7103888D01*
X116053371Y7103888D02*
X116100990Y7151507D01*
X116100990Y7151507D02*
X116196228Y7199126D01*
X116196228Y7199126D02*
X116481942Y7199126D01*
X116481942Y7199126D02*
X116577180Y7151507D01*
X116577180Y7151507D02*
X116624800Y7103888D01*
X116624800Y7103888D02*
X116672419Y7008650D01*
X116672419Y7008650D02*
X116672419Y6818174D01*
X116672419Y6818174D02*
X116624800Y6722936D01*
X116005752Y7484841D02*
X116005752Y7865793D01*
X115672419Y7627698D02*
X116529561Y7627698D01*
X116529561Y7627698D02*
X116624800Y7675317D01*
X116624800Y7675317D02*
X116672419Y7770555D01*
X116672419Y7770555D02*
X116672419Y7865793D01*
X116624800Y8580079D02*
X116672419Y8484841D01*
X116672419Y8484841D02*
X116672419Y8294365D01*
X116672419Y8294365D02*
X116624800Y8199127D01*
X116624800Y8199127D02*
X116529561Y8151508D01*
X116529561Y8151508D02*
X116148609Y8151508D01*
X116148609Y8151508D02*
X116053371Y8199127D01*
X116053371Y8199127D02*
X116005752Y8294365D01*
X116005752Y8294365D02*
X116005752Y8484841D01*
X116005752Y8484841D02*
X116053371Y8580079D01*
X116053371Y8580079D02*
X116148609Y8627698D01*
X116148609Y8627698D02*
X116243847Y8627698D01*
X116243847Y8627698D02*
X116339085Y8151508D01*
X116672419Y9056270D02*
X116005752Y9056270D01*
X116196228Y9056270D02*
X116100990Y9103889D01*
X116100990Y9103889D02*
X116053371Y9151508D01*
X116053371Y9151508D02*
X116005752Y9246746D01*
X116005752Y9246746D02*
X116005752Y9341984D01*
X116577180Y9675318D02*
X116624800Y9722937D01*
X116624800Y9722937D02*
X116672419Y9675318D01*
X116672419Y9675318D02*
X116624800Y9627699D01*
X116624800Y9627699D02*
X116577180Y9675318D01*
X116577180Y9675318D02*
X116672419Y9675318D01*
X115672419Y11532461D02*
X116672419Y11865794D01*
X116672419Y11865794D02*
X115672419Y12199127D01*
X116672419Y13056270D02*
X116672419Y12484842D01*
X116672419Y12770556D02*
X115672419Y12770556D01*
X115672419Y12770556D02*
X115815276Y12675318D01*
X115815276Y12675318D02*
X115910514Y12580080D01*
X115910514Y12580080D02*
X115958133Y12484842D01*
X116577180Y13484842D02*
X116624800Y13532461D01*
X116624800Y13532461D02*
X116672419Y13484842D01*
X116672419Y13484842D02*
X116624800Y13437223D01*
X116624800Y13437223D02*
X116577180Y13484842D01*
X116577180Y13484842D02*
X116672419Y13484842D01*
X115672419Y14151508D02*
X115672419Y14246746D01*
X115672419Y14246746D02*
X115720038Y14341984D01*
X115720038Y14341984D02*
X115767657Y14389603D01*
X115767657Y14389603D02*
X115862895Y14437222D01*
X115862895Y14437222D02*
X116053371Y14484841D01*
X116053371Y14484841D02*
X116291466Y14484841D01*
X116291466Y14484841D02*
X116481942Y14437222D01*
X116481942Y14437222D02*
X116577180Y14389603D01*
X116577180Y14389603D02*
X116624800Y14341984D01*
X116624800Y14341984D02*
X116672419Y14246746D01*
X116672419Y14246746D02*
X116672419Y14151508D01*
X116672419Y14151508D02*
X116624800Y14056270D01*
X116624800Y14056270D02*
X116577180Y14008651D01*
X116577180Y14008651D02*
X116481942Y13961032D01*
X116481942Y13961032D02*
X116291466Y13913413D01*
X116291466Y13913413D02*
X116053371Y13913413D01*
X116053371Y13913413D02*
X115862895Y13961032D01*
X115862895Y13961032D02*
X115767657Y14008651D01*
X115767657Y14008651D02*
X115720038Y14056270D01*
X115720038Y14056270D02*
X115672419Y14151508D01*
X111877580Y-40303884D02*
X112877580Y-40303884D01*
X112877580Y-40970550D02*
X112877580Y-41161026D01*
X112877580Y-41161026D02*
X112829961Y-41256264D01*
X112829961Y-41256264D02*
X112734723Y-41351502D01*
X112734723Y-41351502D02*
X112544247Y-41399121D01*
X112544247Y-41399121D02*
X112210914Y-41399121D01*
X112210914Y-41399121D02*
X112020438Y-41351502D01*
X112020438Y-41351502D02*
X111925200Y-41256264D01*
X111925200Y-41256264D02*
X111877580Y-41161026D01*
X111877580Y-41161026D02*
X111877580Y-40970550D01*
X111877580Y-40970550D02*
X111925200Y-40875312D01*
X111925200Y-40875312D02*
X112020438Y-40780074D01*
X112020438Y-40780074D02*
X112210914Y-40732455D01*
X112210914Y-40732455D02*
X112544247Y-40732455D01*
X112544247Y-40732455D02*
X112734723Y-40780074D01*
X112734723Y-40780074D02*
X112829961Y-40875312D01*
X112829961Y-40875312D02*
X112877580Y-40970550D01*
X111877580Y-42399121D02*
X112353771Y-42065788D01*
X111877580Y-41827693D02*
X112877580Y-41827693D01*
X112877580Y-41827693D02*
X112877580Y-42208645D01*
X112877580Y-42208645D02*
X112829961Y-42303883D01*
X112829961Y-42303883D02*
X112782342Y-42351502D01*
X112782342Y-42351502D02*
X112687104Y-42399121D01*
X112687104Y-42399121D02*
X112544247Y-42399121D01*
X112544247Y-42399121D02*
X112449009Y-42351502D01*
X112449009Y-42351502D02*
X112401390Y-42303883D01*
X112401390Y-42303883D02*
X112353771Y-42208645D01*
X112353771Y-42208645D02*
X112353771Y-41827693D01*
X111782342Y-43494359D02*
X111829961Y-43399121D01*
X111829961Y-43399121D02*
X111925200Y-43303883D01*
X111925200Y-43303883D02*
X112068057Y-43161026D01*
X112068057Y-43161026D02*
X112115676Y-43065788D01*
X112115676Y-43065788D02*
X112115676Y-42970550D01*
X111877580Y-43018169D02*
X111925200Y-42922931D01*
X111925200Y-42922931D02*
X112020438Y-42827693D01*
X112020438Y-42827693D02*
X112210914Y-42780074D01*
X112210914Y-42780074D02*
X112544247Y-42780074D01*
X112544247Y-42780074D02*
X112734723Y-42827693D01*
X112734723Y-42827693D02*
X112829961Y-42922931D01*
X112829961Y-42922931D02*
X112877580Y-43018169D01*
X112877580Y-43018169D02*
X112877580Y-43208645D01*
X112877580Y-43208645D02*
X112829961Y-43303883D01*
X112829961Y-43303883D02*
X112734723Y-43399121D01*
X112734723Y-43399121D02*
X112544247Y-43446740D01*
X112544247Y-43446740D02*
X112210914Y-43446740D01*
X112210914Y-43446740D02*
X112020438Y-43399121D01*
X112020438Y-43399121D02*
X111925200Y-43303883D01*
X111925200Y-43303883D02*
X111877580Y-43208645D01*
X111877580Y-43208645D02*
X111877580Y-43018169D01*
X113155200Y-40165789D02*
X113155200Y-43537217D01*
X81125312Y-43122419D02*
X80791979Y-42646228D01*
X80553884Y-43122419D02*
X80553884Y-42122419D01*
X80553884Y-42122419D02*
X80934836Y-42122419D01*
X80934836Y-42122419D02*
X81030074Y-42170038D01*
X81030074Y-42170038D02*
X81077693Y-42217657D01*
X81077693Y-42217657D02*
X81125312Y-42312895D01*
X81125312Y-42312895D02*
X81125312Y-42455752D01*
X81125312Y-42455752D02*
X81077693Y-42550990D01*
X81077693Y-42550990D02*
X81030074Y-42598609D01*
X81030074Y-42598609D02*
X80934836Y-42646228D01*
X80934836Y-42646228D02*
X80553884Y-42646228D01*
X81553884Y-42598609D02*
X81887217Y-42598609D01*
X82030074Y-43122419D02*
X81553884Y-43122419D01*
X81553884Y-43122419D02*
X81553884Y-42122419D01*
X81553884Y-42122419D02*
X82030074Y-42122419D01*
X82411027Y-43074800D02*
X82553884Y-43122419D01*
X82553884Y-43122419D02*
X82791979Y-43122419D01*
X82791979Y-43122419D02*
X82887217Y-43074800D01*
X82887217Y-43074800D02*
X82934836Y-43027180D01*
X82934836Y-43027180D02*
X82982455Y-42931942D01*
X82982455Y-42931942D02*
X82982455Y-42836704D01*
X82982455Y-42836704D02*
X82934836Y-42741466D01*
X82934836Y-42741466D02*
X82887217Y-42693847D01*
X82887217Y-42693847D02*
X82791979Y-42646228D01*
X82791979Y-42646228D02*
X82601503Y-42598609D01*
X82601503Y-42598609D02*
X82506265Y-42550990D01*
X82506265Y-42550990D02*
X82458646Y-42503371D01*
X82458646Y-42503371D02*
X82411027Y-42408133D01*
X82411027Y-42408133D02*
X82411027Y-42312895D01*
X82411027Y-42312895D02*
X82458646Y-42217657D01*
X82458646Y-42217657D02*
X82506265Y-42170038D01*
X82506265Y-42170038D02*
X82601503Y-42122419D01*
X82601503Y-42122419D02*
X82839598Y-42122419D01*
X82839598Y-42122419D02*
X82982455Y-42170038D01*
X83411027Y-42598609D02*
X83744360Y-42598609D01*
X83887217Y-43122419D02*
X83411027Y-43122419D01*
X83411027Y-43122419D02*
X83411027Y-42122419D01*
X83411027Y-42122419D02*
X83887217Y-42122419D01*
X84172932Y-42122419D02*
X84744360Y-42122419D01*
X84458646Y-43122419D02*
X84458646Y-42122419D01*
X80415789Y-41844800D02*
X84739599Y-41844800D01*
X86268170Y-43122419D02*
X86268170Y-42598609D01*
X86268170Y-42598609D02*
X86220551Y-42503371D01*
X86220551Y-42503371D02*
X86125313Y-42455752D01*
X86125313Y-42455752D02*
X85934837Y-42455752D01*
X85934837Y-42455752D02*
X85839599Y-42503371D01*
X86268170Y-43074800D02*
X86172932Y-43122419D01*
X86172932Y-43122419D02*
X85934837Y-43122419D01*
X85934837Y-43122419D02*
X85839599Y-43074800D01*
X85839599Y-43074800D02*
X85791980Y-42979561D01*
X85791980Y-42979561D02*
X85791980Y-42884323D01*
X85791980Y-42884323D02*
X85839599Y-42789085D01*
X85839599Y-42789085D02*
X85934837Y-42741466D01*
X85934837Y-42741466D02*
X86172932Y-42741466D01*
X86172932Y-42741466D02*
X86268170Y-42693847D01*
X86744361Y-42455752D02*
X86744361Y-43122419D01*
X86744361Y-42550990D02*
X86791980Y-42503371D01*
X86791980Y-42503371D02*
X86887218Y-42455752D01*
X86887218Y-42455752D02*
X87030075Y-42455752D01*
X87030075Y-42455752D02*
X87125313Y-42503371D01*
X87125313Y-42503371D02*
X87172932Y-42598609D01*
X87172932Y-42598609D02*
X87172932Y-43122419D01*
X88077694Y-43122419D02*
X88077694Y-42122419D01*
X88077694Y-43074800D02*
X87982456Y-43122419D01*
X87982456Y-43122419D02*
X87791980Y-43122419D01*
X87791980Y-43122419D02*
X87696742Y-43074800D01*
X87696742Y-43074800D02*
X87649123Y-43027180D01*
X87649123Y-43027180D02*
X87601504Y-42931942D01*
X87601504Y-42931942D02*
X87601504Y-42646228D01*
X87601504Y-42646228D02*
X87649123Y-42550990D01*
X87649123Y-42550990D02*
X87696742Y-42503371D01*
X87696742Y-42503371D02*
X87791980Y-42455752D01*
X87791980Y-42455752D02*
X87982456Y-42455752D01*
X87982456Y-42455752D02*
X88077694Y-42503371D01*
X89649123Y-42598609D02*
X89791980Y-42646228D01*
X89791980Y-42646228D02*
X89839599Y-42693847D01*
X89839599Y-42693847D02*
X89887218Y-42789085D01*
X89887218Y-42789085D02*
X89887218Y-42931942D01*
X89887218Y-42931942D02*
X89839599Y-43027180D01*
X89839599Y-43027180D02*
X89791980Y-43074800D01*
X89791980Y-43074800D02*
X89696742Y-43122419D01*
X89696742Y-43122419D02*
X89315790Y-43122419D01*
X89315790Y-43122419D02*
X89315790Y-42122419D01*
X89315790Y-42122419D02*
X89649123Y-42122419D01*
X89649123Y-42122419D02*
X89744361Y-42170038D01*
X89744361Y-42170038D02*
X89791980Y-42217657D01*
X89791980Y-42217657D02*
X89839599Y-42312895D01*
X89839599Y-42312895D02*
X89839599Y-42408133D01*
X89839599Y-42408133D02*
X89791980Y-42503371D01*
X89791980Y-42503371D02*
X89744361Y-42550990D01*
X89744361Y-42550990D02*
X89649123Y-42598609D01*
X89649123Y-42598609D02*
X89315790Y-42598609D01*
X90315790Y-42122419D02*
X90315790Y-42931942D01*
X90315790Y-42931942D02*
X90363409Y-43027180D01*
X90363409Y-43027180D02*
X90411028Y-43074800D01*
X90411028Y-43074800D02*
X90506266Y-43122419D01*
X90506266Y-43122419D02*
X90696742Y-43122419D01*
X90696742Y-43122419D02*
X90791980Y-43074800D01*
X90791980Y-43074800D02*
X90839599Y-43027180D01*
X90839599Y-43027180D02*
X90887218Y-42931942D01*
X90887218Y-42931942D02*
X90887218Y-42122419D01*
X91315790Y-43074800D02*
X91458647Y-43122419D01*
X91458647Y-43122419D02*
X91696742Y-43122419D01*
X91696742Y-43122419D02*
X91791980Y-43074800D01*
X91791980Y-43074800D02*
X91839599Y-43027180D01*
X91839599Y-43027180D02*
X91887218Y-42931942D01*
X91887218Y-42931942D02*
X91887218Y-42836704D01*
X91887218Y-42836704D02*
X91839599Y-42741466D01*
X91839599Y-42741466D02*
X91791980Y-42693847D01*
X91791980Y-42693847D02*
X91696742Y-42646228D01*
X91696742Y-42646228D02*
X91506266Y-42598609D01*
X91506266Y-42598609D02*
X91411028Y-42550990D01*
X91411028Y-42550990D02*
X91363409Y-42503371D01*
X91363409Y-42503371D02*
X91315790Y-42408133D01*
X91315790Y-42408133D02*
X91315790Y-42312895D01*
X91315790Y-42312895D02*
X91363409Y-42217657D01*
X91363409Y-42217657D02*
X91411028Y-42170038D01*
X91411028Y-42170038D02*
X91506266Y-42122419D01*
X91506266Y-42122419D02*
X91744361Y-42122419D01*
X91744361Y-42122419D02*
X91887218Y-42170038D01*
X92887218Y-43122419D02*
X92553885Y-42646228D01*
X92315790Y-43122419D02*
X92315790Y-42122419D01*
X92315790Y-42122419D02*
X92696742Y-42122419D01*
X92696742Y-42122419D02*
X92791980Y-42170038D01*
X92791980Y-42170038D02*
X92839599Y-42217657D01*
X92839599Y-42217657D02*
X92887218Y-42312895D01*
X92887218Y-42312895D02*
X92887218Y-42455752D01*
X92887218Y-42455752D02*
X92839599Y-42550990D01*
X92839599Y-42550990D02*
X92791980Y-42598609D01*
X92791980Y-42598609D02*
X92696742Y-42646228D01*
X92696742Y-42646228D02*
X92315790Y-42646228D01*
X93982456Y-43217657D02*
X93887218Y-43170038D01*
X93887218Y-43170038D02*
X93791980Y-43074800D01*
X93791980Y-43074800D02*
X93649123Y-42931942D01*
X93649123Y-42931942D02*
X93553885Y-42884323D01*
X93553885Y-42884323D02*
X93458647Y-42884323D01*
X93506266Y-43122419D02*
X93411028Y-43074800D01*
X93411028Y-43074800D02*
X93315790Y-42979561D01*
X93315790Y-42979561D02*
X93268171Y-42789085D01*
X93268171Y-42789085D02*
X93268171Y-42455752D01*
X93268171Y-42455752D02*
X93315790Y-42265276D01*
X93315790Y-42265276D02*
X93411028Y-42170038D01*
X93411028Y-42170038D02*
X93506266Y-42122419D01*
X93506266Y-42122419D02*
X93696742Y-42122419D01*
X93696742Y-42122419D02*
X93791980Y-42170038D01*
X93791980Y-42170038D02*
X93887218Y-42265276D01*
X93887218Y-42265276D02*
X93934837Y-42455752D01*
X93934837Y-42455752D02*
X93934837Y-42789085D01*
X93934837Y-42789085D02*
X93887218Y-42979561D01*
X93887218Y-42979561D02*
X93791980Y-43074800D01*
X93791980Y-43074800D02*
X93696742Y-43122419D01*
X93696742Y-43122419D02*
X93506266Y-43122419D01*
X89177695Y-41844800D02*
X94025314Y-41844800D01*
X95125314Y-43122419D02*
X95125314Y-42455752D01*
X95125314Y-42550990D02*
X95172933Y-42503371D01*
X95172933Y-42503371D02*
X95268171Y-42455752D01*
X95268171Y-42455752D02*
X95411028Y-42455752D01*
X95411028Y-42455752D02*
X95506266Y-42503371D01*
X95506266Y-42503371D02*
X95553885Y-42598609D01*
X95553885Y-42598609D02*
X95553885Y-43122419D01*
X95553885Y-42598609D02*
X95601504Y-42503371D01*
X95601504Y-42503371D02*
X95696742Y-42455752D01*
X95696742Y-42455752D02*
X95839599Y-42455752D01*
X95839599Y-42455752D02*
X95934838Y-42503371D01*
X95934838Y-42503371D02*
X95982457Y-42598609D01*
X95982457Y-42598609D02*
X95982457Y-43122419D01*
X96887218Y-42455752D02*
X96887218Y-43122419D01*
X96458647Y-42455752D02*
X96458647Y-42979561D01*
X96458647Y-42979561D02*
X96506266Y-43074800D01*
X96506266Y-43074800D02*
X96601504Y-43122419D01*
X96601504Y-43122419D02*
X96744361Y-43122419D01*
X96744361Y-43122419D02*
X96839599Y-43074800D01*
X96839599Y-43074800D02*
X96887218Y-43027180D01*
X97315790Y-43074800D02*
X97411028Y-43122419D01*
X97411028Y-43122419D02*
X97601504Y-43122419D01*
X97601504Y-43122419D02*
X97696742Y-43074800D01*
X97696742Y-43074800D02*
X97744361Y-42979561D01*
X97744361Y-42979561D02*
X97744361Y-42931942D01*
X97744361Y-42931942D02*
X97696742Y-42836704D01*
X97696742Y-42836704D02*
X97601504Y-42789085D01*
X97601504Y-42789085D02*
X97458647Y-42789085D01*
X97458647Y-42789085D02*
X97363409Y-42741466D01*
X97363409Y-42741466D02*
X97315790Y-42646228D01*
X97315790Y-42646228D02*
X97315790Y-42598609D01*
X97315790Y-42598609D02*
X97363409Y-42503371D01*
X97363409Y-42503371D02*
X97458647Y-42455752D01*
X97458647Y-42455752D02*
X97601504Y-42455752D01*
X97601504Y-42455752D02*
X97696742Y-42503371D01*
X98030076Y-42455752D02*
X98411028Y-42455752D01*
X98172933Y-42122419D02*
X98172933Y-42979561D01*
X98172933Y-42979561D02*
X98220552Y-43074800D01*
X98220552Y-43074800D02*
X98315790Y-43122419D01*
X98315790Y-43122419D02*
X98411028Y-43122419D01*
X99506267Y-43122419D02*
X99506267Y-42122419D01*
X99506267Y-42503371D02*
X99601505Y-42455752D01*
X99601505Y-42455752D02*
X99791981Y-42455752D01*
X99791981Y-42455752D02*
X99887219Y-42503371D01*
X99887219Y-42503371D02*
X99934838Y-42550990D01*
X99934838Y-42550990D02*
X99982457Y-42646228D01*
X99982457Y-42646228D02*
X99982457Y-42931942D01*
X99982457Y-42931942D02*
X99934838Y-43027180D01*
X99934838Y-43027180D02*
X99887219Y-43074800D01*
X99887219Y-43074800D02*
X99791981Y-43122419D01*
X99791981Y-43122419D02*
X99601505Y-43122419D01*
X99601505Y-43122419D02*
X99506267Y-43074800D01*
X100791981Y-43074800D02*
X100696743Y-43122419D01*
X100696743Y-43122419D02*
X100506267Y-43122419D01*
X100506267Y-43122419D02*
X100411029Y-43074800D01*
X100411029Y-43074800D02*
X100363410Y-42979561D01*
X100363410Y-42979561D02*
X100363410Y-42598609D01*
X100363410Y-42598609D02*
X100411029Y-42503371D01*
X100411029Y-42503371D02*
X100506267Y-42455752D01*
X100506267Y-42455752D02*
X100696743Y-42455752D01*
X100696743Y-42455752D02*
X100791981Y-42503371D01*
X100791981Y-42503371D02*
X100839600Y-42598609D01*
X100839600Y-42598609D02*
X100839600Y-42693847D01*
X100839600Y-42693847D02*
X100363410Y-42789085D01*
X102458648Y-43074800D02*
X102363410Y-43122419D01*
X102363410Y-43122419D02*
X102172934Y-43122419D01*
X102172934Y-43122419D02*
X102077696Y-43074800D01*
X102077696Y-43074800D02*
X102030077Y-43027180D01*
X102030077Y-43027180D02*
X101982458Y-42931942D01*
X101982458Y-42931942D02*
X101982458Y-42646228D01*
X101982458Y-42646228D02*
X102030077Y-42550990D01*
X102030077Y-42550990D02*
X102077696Y-42503371D01*
X102077696Y-42503371D02*
X102172934Y-42455752D01*
X102172934Y-42455752D02*
X102363410Y-42455752D01*
X102363410Y-42455752D02*
X102458648Y-42503371D01*
X103030077Y-43122419D02*
X102934839Y-43074800D01*
X102934839Y-43074800D02*
X102887220Y-43027180D01*
X102887220Y-43027180D02*
X102839601Y-42931942D01*
X102839601Y-42931942D02*
X102839601Y-42646228D01*
X102839601Y-42646228D02*
X102887220Y-42550990D01*
X102887220Y-42550990D02*
X102934839Y-42503371D01*
X102934839Y-42503371D02*
X103030077Y-42455752D01*
X103030077Y-42455752D02*
X103172934Y-42455752D01*
X103172934Y-42455752D02*
X103268172Y-42503371D01*
X103268172Y-42503371D02*
X103315791Y-42550990D01*
X103315791Y-42550990D02*
X103363410Y-42646228D01*
X103363410Y-42646228D02*
X103363410Y-42931942D01*
X103363410Y-42931942D02*
X103315791Y-43027180D01*
X103315791Y-43027180D02*
X103268172Y-43074800D01*
X103268172Y-43074800D02*
X103172934Y-43122419D01*
X103172934Y-43122419D02*
X103030077Y-43122419D01*
X103791982Y-42455752D02*
X103791982Y-43122419D01*
X103791982Y-42550990D02*
X103839601Y-42503371D01*
X103839601Y-42503371D02*
X103934839Y-42455752D01*
X103934839Y-42455752D02*
X104077696Y-42455752D01*
X104077696Y-42455752D02*
X104172934Y-42503371D01*
X104172934Y-42503371D02*
X104220553Y-42598609D01*
X104220553Y-42598609D02*
X104220553Y-43122419D01*
X104696744Y-42455752D02*
X104696744Y-43122419D01*
X104696744Y-42550990D02*
X104744363Y-42503371D01*
X104744363Y-42503371D02*
X104839601Y-42455752D01*
X104839601Y-42455752D02*
X104982458Y-42455752D01*
X104982458Y-42455752D02*
X105077696Y-42503371D01*
X105077696Y-42503371D02*
X105125315Y-42598609D01*
X105125315Y-42598609D02*
X105125315Y-43122419D01*
X105982458Y-43074800D02*
X105887220Y-43122419D01*
X105887220Y-43122419D02*
X105696744Y-43122419D01*
X105696744Y-43122419D02*
X105601506Y-43074800D01*
X105601506Y-43074800D02*
X105553887Y-42979561D01*
X105553887Y-42979561D02*
X105553887Y-42598609D01*
X105553887Y-42598609D02*
X105601506Y-42503371D01*
X105601506Y-42503371D02*
X105696744Y-42455752D01*
X105696744Y-42455752D02*
X105887220Y-42455752D01*
X105887220Y-42455752D02*
X105982458Y-42503371D01*
X105982458Y-42503371D02*
X106030077Y-42598609D01*
X106030077Y-42598609D02*
X106030077Y-42693847D01*
X106030077Y-42693847D02*
X105553887Y-42789085D01*
X106887220Y-43074800D02*
X106791982Y-43122419D01*
X106791982Y-43122419D02*
X106601506Y-43122419D01*
X106601506Y-43122419D02*
X106506268Y-43074800D01*
X106506268Y-43074800D02*
X106458649Y-43027180D01*
X106458649Y-43027180D02*
X106411030Y-42931942D01*
X106411030Y-42931942D02*
X106411030Y-42646228D01*
X106411030Y-42646228D02*
X106458649Y-42550990D01*
X106458649Y-42550990D02*
X106506268Y-42503371D01*
X106506268Y-42503371D02*
X106601506Y-42455752D01*
X106601506Y-42455752D02*
X106791982Y-42455752D01*
X106791982Y-42455752D02*
X106887220Y-42503371D01*
X107172935Y-42455752D02*
X107553887Y-42455752D01*
X107315792Y-42122419D02*
X107315792Y-42979561D01*
X107315792Y-42979561D02*
X107363411Y-43074800D01*
X107363411Y-43074800D02*
X107458649Y-43122419D01*
X107458649Y-43122419D02*
X107553887Y-43122419D01*
X108268173Y-43074800D02*
X108172935Y-43122419D01*
X108172935Y-43122419D02*
X107982459Y-43122419D01*
X107982459Y-43122419D02*
X107887221Y-43074800D01*
X107887221Y-43074800D02*
X107839602Y-42979561D01*
X107839602Y-42979561D02*
X107839602Y-42598609D01*
X107839602Y-42598609D02*
X107887221Y-42503371D01*
X107887221Y-42503371D02*
X107982459Y-42455752D01*
X107982459Y-42455752D02*
X108172935Y-42455752D01*
X108172935Y-42455752D02*
X108268173Y-42503371D01*
X108268173Y-42503371D02*
X108315792Y-42598609D01*
X108315792Y-42598609D02*
X108315792Y-42693847D01*
X108315792Y-42693847D02*
X107839602Y-42789085D01*
X109172935Y-43122419D02*
X109172935Y-42122419D01*
X109172935Y-43074800D02*
X109077697Y-43122419D01*
X109077697Y-43122419D02*
X108887221Y-43122419D01*
X108887221Y-43122419D02*
X108791983Y-43074800D01*
X108791983Y-43074800D02*
X108744364Y-43027180D01*
X108744364Y-43027180D02*
X108696745Y-42931942D01*
X108696745Y-42931942D02*
X108696745Y-42646228D01*
X108696745Y-42646228D02*
X108744364Y-42550990D01*
X108744364Y-42550990D02*
X108791983Y-42503371D01*
X108791983Y-42503371D02*
X108887221Y-42455752D01*
X108887221Y-42455752D02*
X109077697Y-42455752D01*
X109077697Y-42455752D02*
X109172935Y-42503371D01*
X109649126Y-43027180D02*
X109696745Y-43074800D01*
X109696745Y-43074800D02*
X109649126Y-43122419D01*
X109649126Y-43122419D02*
X109601507Y-43074800D01*
X109601507Y-43074800D02*
X109649126Y-43027180D01*
X109649126Y-43027180D02*
X109649126Y-43122419D01*
X109649126Y-42741466D02*
X109601507Y-42170038D01*
X109601507Y-42170038D02*
X109649126Y-42122419D01*
X109649126Y-42122419D02*
X109696745Y-42170038D01*
X109696745Y-42170038D02*
X109649126Y-42741466D01*
X109649126Y-42741466D02*
X109649126Y-42122419D01*
X122127580Y-40303884D02*
X123127580Y-40303884D01*
X123127580Y-40303884D02*
X122413295Y-40637217D01*
X122413295Y-40637217D02*
X123127580Y-40970550D01*
X123127580Y-40970550D02*
X122127580Y-40970550D01*
X122127580Y-41970550D02*
X122127580Y-41399122D01*
X122127580Y-41684836D02*
X123127580Y-41684836D01*
X123127580Y-41684836D02*
X122984723Y-41589598D01*
X122984723Y-41589598D02*
X122889485Y-41494360D01*
X122889485Y-41494360D02*
X122841866Y-41399122D01*
X123405200Y-40165789D02*
X123405200Y-42061027D01*
D11*
X119632780Y-40941101D02*
X120108971Y-40607768D01*
X119632780Y-40369673D02*
X120632780Y-40369673D01*
X120632780Y-40369673D02*
X120632780Y-40750625D01*
X120632780Y-40750625D02*
X120585161Y-40845863D01*
X120585161Y-40845863D02*
X120537542Y-40893482D01*
X120537542Y-40893482D02*
X120442304Y-40941101D01*
X120442304Y-40941101D02*
X120299447Y-40941101D01*
X120299447Y-40941101D02*
X120204209Y-40893482D01*
X120204209Y-40893482D02*
X120156590Y-40845863D01*
X120156590Y-40845863D02*
X120108971Y-40750625D01*
X120108971Y-40750625D02*
X120108971Y-40369673D01*
X120156590Y-41369673D02*
X120156590Y-41703006D01*
X119632780Y-41845863D02*
X119632780Y-41369673D01*
X119632780Y-41369673D02*
X120632780Y-41369673D01*
X120632780Y-41369673D02*
X120632780Y-41845863D01*
X119680400Y-42226816D02*
X119632780Y-42369673D01*
X119632780Y-42369673D02*
X119632780Y-42607768D01*
X119632780Y-42607768D02*
X119680400Y-42703006D01*
X119680400Y-42703006D02*
X119728019Y-42750625D01*
X119728019Y-42750625D02*
X119823257Y-42798244D01*
X119823257Y-42798244D02*
X119918495Y-42798244D01*
X119918495Y-42798244D02*
X120013733Y-42750625D01*
X120013733Y-42750625D02*
X120061352Y-42703006D01*
X120061352Y-42703006D02*
X120108971Y-42607768D01*
X120108971Y-42607768D02*
X120156590Y-42417292D01*
X120156590Y-42417292D02*
X120204209Y-42322054D01*
X120204209Y-42322054D02*
X120251828Y-42274435D01*
X120251828Y-42274435D02*
X120347066Y-42226816D01*
X120347066Y-42226816D02*
X120442304Y-42226816D01*
X120442304Y-42226816D02*
X120537542Y-42274435D01*
X120537542Y-42274435D02*
X120585161Y-42322054D01*
X120585161Y-42322054D02*
X120632780Y-42417292D01*
X120632780Y-42417292D02*
X120632780Y-42655387D01*
X120632780Y-42655387D02*
X120585161Y-42798244D01*
X120156590Y-43226816D02*
X120156590Y-43560149D01*
X119632780Y-43703006D02*
X119632780Y-43226816D01*
X119632780Y-43226816D02*
X120632780Y-43226816D01*
X120632780Y-43226816D02*
X120632780Y-43703006D01*
X120632780Y-43988721D02*
X120632780Y-44560149D01*
X119632780Y-44274435D02*
X120632780Y-44274435D01*
X120910400Y-40231578D02*
X120910400Y-44555388D01*
D12*
X110333333Y10815180D02*
X110000000Y11291371D01*
X109761905Y10815180D02*
X109761905Y11815180D01*
X109761905Y11815180D02*
X110142857Y11815180D01*
X110142857Y11815180D02*
X110238095Y11767561D01*
X110238095Y11767561D02*
X110285714Y11719942D01*
X110285714Y11719942D02*
X110333333Y11624704D01*
X110333333Y11624704D02*
X110333333Y11481847D01*
X110333333Y11481847D02*
X110285714Y11386609D01*
X110285714Y11386609D02*
X110238095Y11338990D01*
X110238095Y11338990D02*
X110142857Y11291371D01*
X110142857Y11291371D02*
X109761905Y11291371D01*
X111285714Y10815180D02*
X110714286Y10815180D01*
X111000000Y10815180D02*
X111000000Y11815180D01*
X111000000Y11815180D02*
X110904762Y11672323D01*
X110904762Y11672323D02*
X110809524Y11577085D01*
X110809524Y11577085D02*
X110714286Y11529466D01*
X110333333Y14515180D02*
X110000000Y14991371D01*
X109761905Y14515180D02*
X109761905Y15515180D01*
X109761905Y15515180D02*
X110142857Y15515180D01*
X110142857Y15515180D02*
X110238095Y15467561D01*
X110238095Y15467561D02*
X110285714Y15419942D01*
X110285714Y15419942D02*
X110333333Y15324704D01*
X110333333Y15324704D02*
X110333333Y15181847D01*
X110333333Y15181847D02*
X110285714Y15086609D01*
X110285714Y15086609D02*
X110238095Y15038990D01*
X110238095Y15038990D02*
X110142857Y14991371D01*
X110142857Y14991371D02*
X109761905Y14991371D01*
X110714286Y15419942D02*
X110761905Y15467561D01*
X110761905Y15467561D02*
X110857143Y15515180D01*
X110857143Y15515180D02*
X111095238Y15515180D01*
X111095238Y15515180D02*
X111190476Y15467561D01*
X111190476Y15467561D02*
X111238095Y15419942D01*
X111238095Y15419942D02*
X111285714Y15324704D01*
X111285714Y15324704D02*
X111285714Y15229466D01*
X111285714Y15229466D02*
X111238095Y15086609D01*
X111238095Y15086609D02*
X110666667Y14515180D01*
X110666667Y14515180D02*
X111285714Y14515180D01*
X120936666Y18295180D02*
X120936666Y17580895D01*
X120936666Y17580895D02*
X120889047Y17438038D01*
X120889047Y17438038D02*
X120793809Y17342800D01*
X120793809Y17342800D02*
X120650952Y17295180D01*
X120650952Y17295180D02*
X120555714Y17295180D01*
X121365238Y18199942D02*
X121412857Y18247561D01*
X121412857Y18247561D02*
X121508095Y18295180D01*
X121508095Y18295180D02*
X121746190Y18295180D01*
X121746190Y18295180D02*
X121841428Y18247561D01*
X121841428Y18247561D02*
X121889047Y18199942D01*
X121889047Y18199942D02*
X121936666Y18104704D01*
X121936666Y18104704D02*
X121936666Y18009466D01*
X121936666Y18009466D02*
X121889047Y17866609D01*
X121889047Y17866609D02*
X121317619Y17295180D01*
X121317619Y17295180D02*
X121936666Y17295180D01*
X124324819Y-38133333D02*
X125039104Y-38133333D01*
X125039104Y-38133333D02*
X125181961Y-38180952D01*
X125181961Y-38180952D02*
X125277200Y-38276190D01*
X125277200Y-38276190D02*
X125324819Y-38419047D01*
X125324819Y-38419047D02*
X125324819Y-38514285D01*
X124324819Y-37752380D02*
X124324819Y-37133333D01*
X124324819Y-37133333D02*
X124705771Y-37466666D01*
X124705771Y-37466666D02*
X124705771Y-37323809D01*
X124705771Y-37323809D02*
X124753390Y-37228571D01*
X124753390Y-37228571D02*
X124801009Y-37180952D01*
X124801009Y-37180952D02*
X124896247Y-37133333D01*
X124896247Y-37133333D02*
X125134342Y-37133333D01*
X125134342Y-37133333D02*
X125229580Y-37180952D01*
X125229580Y-37180952D02*
X125277200Y-37228571D01*
X125277200Y-37228571D02*
X125324819Y-37323809D01*
X125324819Y-37323809D02*
X125324819Y-37609523D01*
X125324819Y-37609523D02*
X125277200Y-37704761D01*
X125277200Y-37704761D02*
X125229580Y-37752380D01*
X100046666Y7815180D02*
X100046666Y7100895D01*
X100046666Y7100895D02*
X99999047Y6958038D01*
X99999047Y6958038D02*
X99903809Y6862800D01*
X99903809Y6862800D02*
X99760952Y6815180D01*
X99760952Y6815180D02*
X99665714Y6815180D01*
X101046666Y6815180D02*
X100475238Y6815180D01*
X100760952Y6815180D02*
X100760952Y7815180D01*
X100760952Y7815180D02*
X100665714Y7672323D01*
X100665714Y7672323D02*
X100570476Y7577085D01*
X100570476Y7577085D02*
X100475238Y7529466D01*
X91158095Y16395180D02*
X91158095Y15585657D01*
X91158095Y15585657D02*
X91205714Y15490419D01*
X91205714Y15490419D02*
X91253333Y15442800D01*
X91253333Y15442800D02*
X91348571Y15395180D01*
X91348571Y15395180D02*
X91539047Y15395180D01*
X91539047Y15395180D02*
X91634285Y15442800D01*
X91634285Y15442800D02*
X91681904Y15490419D01*
X91681904Y15490419D02*
X91729523Y15585657D01*
X91729523Y15585657D02*
X91729523Y16395180D01*
X92729523Y15395180D02*
X92158095Y15395180D01*
X92443809Y15395180D02*
X92443809Y16395180D01*
X92443809Y16395180D02*
X92348571Y16252323D01*
X92348571Y16252323D02*
X92253333Y16157085D01*
X92253333Y16157085D02*
X92158095Y16109466D01*
D13*
X107230000Y10270000D02*
X113770000Y10270000D01*
X107230000Y9940000D02*
X107230000Y10270000D01*
X107230000Y7860000D02*
X107230000Y7530000D01*
X107230000Y7530000D02*
X113770000Y7530000D01*
X113770000Y10270000D02*
X113770000Y9940000D01*
X113770000Y7530000D02*
X113770000Y7860000D01*
X107230000Y13970000D02*
X113770000Y13970000D01*
X107230000Y13640000D02*
X107230000Y13970000D01*
X107230000Y11560000D02*
X107230000Y11230000D01*
X107230000Y11230000D02*
X113770000Y11230000D01*
X113770000Y13970000D02*
X113770000Y13640000D01*
X113770000Y11230000D02*
X113770000Y11560000D01*
X118670000Y16750000D02*
X120000000Y16750000D01*
X118670000Y15420000D02*
X118670000Y16750000D01*
X118670000Y14150000D02*
X118670000Y-34170000D01*
X118670000Y14150000D02*
X121270000Y14150000D01*
X118670000Y-34170000D02*
X123870000Y-34170000D01*
X121270000Y16750000D02*
X123870000Y16750000D01*
X121270000Y14150000D02*
X121270000Y16750000D01*
X123870000Y16750000D02*
X123870000Y-34170000D01*
X111050000Y-36470000D02*
X111050000Y-39130000D01*
X121270000Y-36470000D02*
X111050000Y-36470000D01*
X121270000Y-36470000D02*
X121270000Y-39130000D01*
X121270000Y-39130000D02*
X111050000Y-39130000D01*
X122540000Y-36470000D02*
X123870000Y-36470000D01*
X123870000Y-36470000D02*
X123870000Y-37800000D01*
X91320000Y6330000D02*
X91320000Y-34550000D01*
X91320000Y-34550000D02*
X109440000Y-34550000D01*
X94320000Y6270000D02*
X94320000Y-34490000D01*
X94320000Y-34490000D02*
X106440000Y-34490000D01*
X99380000Y6270000D02*
X94320000Y6270000D01*
X106440000Y6270000D02*
X101380000Y6270000D01*
X106440000Y-34490000D02*
X106440000Y6270000D01*
X109440000Y6330000D02*
X91320000Y6330000D01*
X109440000Y-34550000D02*
X109440000Y6330000D01*
X101380000Y6270000D02*
G75*
G02*
X99380000Y6270000I-1000000J0D01*
G01*
X104640000Y14850000D02*
X96160000Y14850000D01*
X104639999Y-39490000D02*
X104639999Y14850000D01*
X96160000Y14490000D02*
X87680001Y14490000D01*
X96160000Y14850000D02*
X96160000Y14490000D01*
X87680001Y14490000D02*
X87680001Y14850000D01*
X87680001Y14850000D02*
X79200001Y14850000D01*
X79200001Y-39490000D02*
X104640000Y-39490000D01*
X79200000Y14850000D02*
X79200000Y-39490000D01*
%LPC*%
D14*
X106690000Y8900000D03*
D15*
X114310000Y8900000D03*
D14*
X106690000Y12600000D03*
D15*
X114310000Y12600000D03*
D16*
X120000000Y15420000D03*
D17*
X122540000Y15420000D03*
X120000000Y12880000D03*
X122540000Y12880000D03*
X120000000Y10340000D03*
X122540000Y10340000D03*
X120000000Y7800000D03*
X122540000Y7800000D03*
X120000000Y5260000D03*
X122540000Y5260000D03*
X120000000Y2720000D03*
X122540000Y2720000D03*
X120000000Y180000D03*
X122540000Y180000D03*
X120000000Y-2360000D03*
X122540000Y-2360000D03*
X120000000Y-4900000D03*
X122540000Y-4900000D03*
X120000000Y-7440000D03*
X122540000Y-7440000D03*
X120000000Y-9980000D03*
X122540000Y-9980000D03*
X120000000Y-12520000D03*
X122540000Y-12520000D03*
X120000000Y-15060000D03*
X122540000Y-15060000D03*
X120000000Y-17600000D03*
X122540000Y-17600000D03*
X120000000Y-20140000D03*
X122540000Y-20140000D03*
X120000000Y-22680000D03*
X122540000Y-22680000D03*
X120000000Y-25220000D03*
X122540000Y-25220000D03*
X120000000Y-27760000D03*
X122540000Y-27760000D03*
X120000000Y-30300000D03*
X122540000Y-30300000D03*
X120000000Y-32840000D03*
X122540000Y-32840000D03*
D18*
X122540000Y-37800000D03*
D17*
X120000000Y-37800000D03*
X117460000Y-37800000D03*
X114920000Y-37800000D03*
X112380000Y-37800000D03*
D19*
X92760000Y4940000D03*
D20*
X92760000Y2400000D03*
X92760000Y-140000D03*
X92760000Y-2680000D03*
X92760000Y-5220000D03*
X92760000Y-7760000D03*
X92760000Y-10300000D03*
X92760000Y-12840000D03*
X92760000Y-15380000D03*
X92760000Y-17920000D03*
X92760000Y-20460000D03*
X92760000Y-23000000D03*
X92760000Y-25540000D03*
X92760000Y-28080000D03*
X92760000Y-30620000D03*
X92760000Y-33160000D03*
X108000000Y-33160000D03*
X108000000Y-30620000D03*
X108000000Y-28080000D03*
X108000000Y-25540000D03*
X108000000Y-23000000D03*
X108000000Y-20460000D03*
X108000000Y-17920000D03*
X108000000Y-15380000D03*
X108000000Y-12840000D03*
X108000000Y-10300000D03*
X108000000Y-7760000D03*
X108000000Y-5220000D03*
X108000000Y-2680000D03*
X108000000Y-140000D03*
X108000000Y2400000D03*
X108000000Y4940000D03*
D21*
X99540000Y4960000D03*
X99540000Y2420000D03*
X99540000Y-120000D03*
X99540000Y-2660000D03*
X99540000Y-5200000D03*
X99540000Y-7740000D03*
X99540000Y-10280000D03*
X99540000Y-12820000D03*
X99540000Y-15360000D03*
X99540000Y-17900000D03*
X99540000Y-20440000D03*
X99540000Y-22980000D03*
X99540000Y-25520000D03*
X99540000Y-28060000D03*
X99540000Y-30600000D03*
X99540000Y-33140000D03*
X84300000Y-33140000D03*
X84300000Y-30600000D03*
X84300000Y-28060000D03*
X84300000Y-25520000D03*
X84300000Y-22980000D03*
X84300000Y-20440000D03*
X84300000Y-17900000D03*
X84300000Y-15360000D03*
X84300000Y-12820000D03*
X84300000Y-10280000D03*
X84300000Y-7740000D03*
X84300000Y-5200000D03*
X84300000Y-2660000D03*
X84300000Y-120000D03*
X84300000Y2420000D03*
X84300000Y4960000D03*
%LPD*%
M02*
