G04 #@! TF.GenerationSoftware,KiCad,Pcbnew,8.0.8*
G04 #@! TF.CreationDate,2026-01-16T16:01:14-05:00*
G04 #@! TF.ProjectId,InSystemROMProg,496e5379-7374-4656-9d52-4f4d50726f67,rev?*
G04 #@! TF.SameCoordinates,Original*
G04 #@! TF.FileFunction,Copper,L2,Bot*
G04 #@! TF.FilePolarity,Positive*
%FSLAX46Y46*%
G04 Gerber Fmt 4.6, Leading zero omitted, Abs format (unit mm)*
G04 Created by KiCad (PCBNEW 8.0.8) date 2026-01-16 16:01:14*
%MOMM*%
%LPD*%
G01*
G04 APERTURE LIST*
%ADD10C,0.254000*%
G04 #@! TA.AperFunction,NonConductor*
%ADD11C,0.254000*%
G04 #@! TD*
G04 #@! TA.AperFunction,ComponentPad*
%ADD12C,1.600000*%
G04 #@! TD*
G04 #@! TA.AperFunction,ComponentPad*
%ADD13O,1.600000X1.600000*%
G04 #@! TD*
G04 #@! TA.AperFunction,ComponentPad*
%ADD14R,1.700000X1.700000*%
G04 #@! TD*
G04 #@! TA.AperFunction,ComponentPad*
%ADD15O,1.700000X1.700000*%
G04 #@! TD*
G04 #@! TA.AperFunction,ComponentPad*
%ADD16R,2.400000X1.600000*%
G04 #@! TD*
G04 #@! TA.AperFunction,ComponentPad*
%ADD17O,2.400000X1.600000*%
G04 #@! TD*
G04 #@! TA.AperFunction,ComponentPad*
%ADD18O,3.000000X1.500000*%
G04 #@! TD*
G04 #@! TA.AperFunction,ViaPad*
%ADD19C,0.800000*%
G04 #@! TD*
G04 #@! TA.AperFunction,Conductor*
%ADD20C,0.200000*%
G04 #@! TD*
G04 #@! TA.AperFunction,Conductor*
%ADD21C,1.524000*%
G04 #@! TD*
G04 APERTURE END LIST*
D10*
D11*
X105768514Y-37588357D02*
X105865275Y-37539976D01*
X105865275Y-37539976D02*
X106058799Y-37539976D01*
X106058799Y-37539976D02*
X106155561Y-37588357D01*
X106155561Y-37588357D02*
X106252323Y-37685119D01*
X106252323Y-37685119D02*
X106300704Y-37781881D01*
X106300704Y-37781881D02*
X106300704Y-37975405D01*
X106300704Y-37975405D02*
X106252323Y-38072167D01*
X106252323Y-38072167D02*
X106155561Y-38168929D01*
X106155561Y-38168929D02*
X106058799Y-38217310D01*
X106058799Y-38217310D02*
X105865275Y-38217310D01*
X105865275Y-38217310D02*
X105768514Y-38168929D01*
X105962037Y-37201310D02*
X106203942Y-37249691D01*
X106203942Y-37249691D02*
X106445847Y-37394833D01*
X106445847Y-37394833D02*
X106590990Y-37636738D01*
X106590990Y-37636738D02*
X106639371Y-37878643D01*
X106639371Y-37878643D02*
X106590990Y-38120548D01*
X106590990Y-38120548D02*
X106445847Y-38362452D01*
X106445847Y-38362452D02*
X106203942Y-38507595D01*
X106203942Y-38507595D02*
X105962037Y-38555976D01*
X105962037Y-38555976D02*
X105720133Y-38507595D01*
X105720133Y-38507595D02*
X105478228Y-38362452D01*
X105478228Y-38362452D02*
X105333085Y-38120548D01*
X105333085Y-38120548D02*
X105284704Y-37878643D01*
X105284704Y-37878643D02*
X105333085Y-37636738D01*
X105333085Y-37636738D02*
X105478228Y-37394833D01*
X105478228Y-37394833D02*
X105720133Y-37249691D01*
X105720133Y-37249691D02*
X105962037Y-37201310D01*
X104123562Y-37443214D02*
X104075181Y-37394833D01*
X104075181Y-37394833D02*
X103978419Y-37346452D01*
X103978419Y-37346452D02*
X103736514Y-37346452D01*
X103736514Y-37346452D02*
X103639752Y-37394833D01*
X103639752Y-37394833D02*
X103591371Y-37443214D01*
X103591371Y-37443214D02*
X103542990Y-37539976D01*
X103542990Y-37539976D02*
X103542990Y-37636738D01*
X103542990Y-37636738D02*
X103591371Y-37781881D01*
X103591371Y-37781881D02*
X104171943Y-38362452D01*
X104171943Y-38362452D02*
X103542990Y-38362452D01*
X102914038Y-37346452D02*
X102817276Y-37346452D01*
X102817276Y-37346452D02*
X102720514Y-37394833D01*
X102720514Y-37394833D02*
X102672133Y-37443214D01*
X102672133Y-37443214D02*
X102623752Y-37539976D01*
X102623752Y-37539976D02*
X102575371Y-37733500D01*
X102575371Y-37733500D02*
X102575371Y-37975405D01*
X102575371Y-37975405D02*
X102623752Y-38168929D01*
X102623752Y-38168929D02*
X102672133Y-38265691D01*
X102672133Y-38265691D02*
X102720514Y-38314072D01*
X102720514Y-38314072D02*
X102817276Y-38362452D01*
X102817276Y-38362452D02*
X102914038Y-38362452D01*
X102914038Y-38362452D02*
X103010800Y-38314072D01*
X103010800Y-38314072D02*
X103059181Y-38265691D01*
X103059181Y-38265691D02*
X103107562Y-38168929D01*
X103107562Y-38168929D02*
X103155943Y-37975405D01*
X103155943Y-37975405D02*
X103155943Y-37733500D01*
X103155943Y-37733500D02*
X103107562Y-37539976D01*
X103107562Y-37539976D02*
X103059181Y-37443214D01*
X103059181Y-37443214D02*
X103010800Y-37394833D01*
X103010800Y-37394833D02*
X102914038Y-37346452D01*
X102188324Y-37443214D02*
X102139943Y-37394833D01*
X102139943Y-37394833D02*
X102043181Y-37346452D01*
X102043181Y-37346452D02*
X101801276Y-37346452D01*
X101801276Y-37346452D02*
X101704514Y-37394833D01*
X101704514Y-37394833D02*
X101656133Y-37443214D01*
X101656133Y-37443214D02*
X101607752Y-37539976D01*
X101607752Y-37539976D02*
X101607752Y-37636738D01*
X101607752Y-37636738D02*
X101656133Y-37781881D01*
X101656133Y-37781881D02*
X102236705Y-38362452D01*
X102236705Y-38362452D02*
X101607752Y-38362452D01*
X100688514Y-37346452D02*
X101172324Y-37346452D01*
X101172324Y-37346452D02*
X101220705Y-37830262D01*
X101220705Y-37830262D02*
X101172324Y-37781881D01*
X101172324Y-37781881D02*
X101075562Y-37733500D01*
X101075562Y-37733500D02*
X100833657Y-37733500D01*
X100833657Y-37733500D02*
X100736895Y-37781881D01*
X100736895Y-37781881D02*
X100688514Y-37830262D01*
X100688514Y-37830262D02*
X100640133Y-37927024D01*
X100640133Y-37927024D02*
X100640133Y-38168929D01*
X100640133Y-38168929D02*
X100688514Y-38265691D01*
X100688514Y-38265691D02*
X100736895Y-38314072D01*
X100736895Y-38314072D02*
X100833657Y-38362452D01*
X100833657Y-38362452D02*
X101075562Y-38362452D01*
X101075562Y-38362452D02*
X101172324Y-38314072D01*
X101172324Y-38314072D02*
X101220705Y-38265691D01*
X99140324Y-37346452D02*
X99140324Y-38072167D01*
X99140324Y-38072167D02*
X99188705Y-38217310D01*
X99188705Y-38217310D02*
X99285467Y-38314072D01*
X99285467Y-38314072D02*
X99430610Y-38362452D01*
X99430610Y-38362452D02*
X99527372Y-38362452D01*
X97350229Y-37394833D02*
X97446991Y-37346452D01*
X97446991Y-37346452D02*
X97592134Y-37346452D01*
X97592134Y-37346452D02*
X97737277Y-37394833D01*
X97737277Y-37394833D02*
X97834039Y-37491595D01*
X97834039Y-37491595D02*
X97882420Y-37588357D01*
X97882420Y-37588357D02*
X97930801Y-37781881D01*
X97930801Y-37781881D02*
X97930801Y-37927024D01*
X97930801Y-37927024D02*
X97882420Y-38120548D01*
X97882420Y-38120548D02*
X97834039Y-38217310D01*
X97834039Y-38217310D02*
X97737277Y-38314072D01*
X97737277Y-38314072D02*
X97592134Y-38362452D01*
X97592134Y-38362452D02*
X97495372Y-38362452D01*
X97495372Y-38362452D02*
X97350229Y-38314072D01*
X97350229Y-38314072D02*
X97301848Y-38265691D01*
X97301848Y-38265691D02*
X97301848Y-37927024D01*
X97301848Y-37927024D02*
X97495372Y-37927024D01*
X96430991Y-38362452D02*
X96430991Y-37830262D01*
X96430991Y-37830262D02*
X96479372Y-37733500D01*
X96479372Y-37733500D02*
X96576134Y-37685119D01*
X96576134Y-37685119D02*
X96769658Y-37685119D01*
X96769658Y-37685119D02*
X96866420Y-37733500D01*
X96430991Y-38314072D02*
X96527753Y-38362452D01*
X96527753Y-38362452D02*
X96769658Y-38362452D01*
X96769658Y-38362452D02*
X96866420Y-38314072D01*
X96866420Y-38314072D02*
X96914801Y-38217310D01*
X96914801Y-38217310D02*
X96914801Y-38120548D01*
X96914801Y-38120548D02*
X96866420Y-38023786D01*
X96866420Y-38023786D02*
X96769658Y-37975405D01*
X96769658Y-37975405D02*
X96527753Y-37975405D01*
X96527753Y-37975405D02*
X96430991Y-37927024D01*
X95802039Y-38362452D02*
X95898801Y-38314072D01*
X95898801Y-38314072D02*
X95947182Y-38217310D01*
X95947182Y-38217310D02*
X95947182Y-37346452D01*
X94979563Y-38362452D02*
X94979563Y-37830262D01*
X94979563Y-37830262D02*
X95027944Y-37733500D01*
X95027944Y-37733500D02*
X95124706Y-37685119D01*
X95124706Y-37685119D02*
X95318230Y-37685119D01*
X95318230Y-37685119D02*
X95414992Y-37733500D01*
X94979563Y-38314072D02*
X95076325Y-38362452D01*
X95076325Y-38362452D02*
X95318230Y-38362452D01*
X95318230Y-38362452D02*
X95414992Y-38314072D01*
X95414992Y-38314072D02*
X95463373Y-38217310D01*
X95463373Y-38217310D02*
X95463373Y-38120548D01*
X95463373Y-38120548D02*
X95414992Y-38023786D01*
X95414992Y-38023786D02*
X95318230Y-37975405D01*
X95318230Y-37975405D02*
X95076325Y-37975405D01*
X95076325Y-37975405D02*
X94979563Y-37927024D01*
X94495754Y-38362452D02*
X94495754Y-37346452D01*
X94398992Y-37975405D02*
X94108706Y-38362452D01*
X94108706Y-37685119D02*
X94495754Y-38072167D01*
X92318611Y-38265691D02*
X92366992Y-38314072D01*
X92366992Y-38314072D02*
X92512135Y-38362452D01*
X92512135Y-38362452D02*
X92608897Y-38362452D01*
X92608897Y-38362452D02*
X92754040Y-38314072D01*
X92754040Y-38314072D02*
X92850802Y-38217310D01*
X92850802Y-38217310D02*
X92899183Y-38120548D01*
X92899183Y-38120548D02*
X92947564Y-37927024D01*
X92947564Y-37927024D02*
X92947564Y-37781881D01*
X92947564Y-37781881D02*
X92899183Y-37588357D01*
X92899183Y-37588357D02*
X92850802Y-37491595D01*
X92850802Y-37491595D02*
X92754040Y-37394833D01*
X92754040Y-37394833D02*
X92608897Y-37346452D01*
X92608897Y-37346452D02*
X92512135Y-37346452D01*
X92512135Y-37346452D02*
X92366992Y-37394833D01*
X92366992Y-37394833D02*
X92318611Y-37443214D01*
X91738040Y-38362452D02*
X91834802Y-38314072D01*
X91834802Y-38314072D02*
X91883183Y-38265691D01*
X91883183Y-38265691D02*
X91931564Y-38168929D01*
X91931564Y-38168929D02*
X91931564Y-37878643D01*
X91931564Y-37878643D02*
X91883183Y-37781881D01*
X91883183Y-37781881D02*
X91834802Y-37733500D01*
X91834802Y-37733500D02*
X91738040Y-37685119D01*
X91738040Y-37685119D02*
X91592897Y-37685119D01*
X91592897Y-37685119D02*
X91496135Y-37733500D01*
X91496135Y-37733500D02*
X91447754Y-37781881D01*
X91447754Y-37781881D02*
X91399373Y-37878643D01*
X91399373Y-37878643D02*
X91399373Y-38168929D01*
X91399373Y-38168929D02*
X91447754Y-38265691D01*
X91447754Y-38265691D02*
X91496135Y-38314072D01*
X91496135Y-38314072D02*
X91592897Y-38362452D01*
X91592897Y-38362452D02*
X91738040Y-38362452D01*
X90963945Y-37685119D02*
X90963945Y-38362452D01*
X90963945Y-37781881D02*
X90915564Y-37733500D01*
X90915564Y-37733500D02*
X90818802Y-37685119D01*
X90818802Y-37685119D02*
X90673659Y-37685119D01*
X90673659Y-37685119D02*
X90576897Y-37733500D01*
X90576897Y-37733500D02*
X90528516Y-37830262D01*
X90528516Y-37830262D02*
X90528516Y-38362452D01*
X90093088Y-38314072D02*
X89996326Y-38362452D01*
X89996326Y-38362452D02*
X89802802Y-38362452D01*
X89802802Y-38362452D02*
X89706040Y-38314072D01*
X89706040Y-38314072D02*
X89657659Y-38217310D01*
X89657659Y-38217310D02*
X89657659Y-38168929D01*
X89657659Y-38168929D02*
X89706040Y-38072167D01*
X89706040Y-38072167D02*
X89802802Y-38023786D01*
X89802802Y-38023786D02*
X89947945Y-38023786D01*
X89947945Y-38023786D02*
X90044707Y-37975405D01*
X90044707Y-37975405D02*
X90093088Y-37878643D01*
X90093088Y-37878643D02*
X90093088Y-37830262D01*
X90093088Y-37830262D02*
X90044707Y-37733500D01*
X90044707Y-37733500D02*
X89947945Y-37685119D01*
X89947945Y-37685119D02*
X89802802Y-37685119D01*
X89802802Y-37685119D02*
X89706040Y-37733500D01*
X88786802Y-37685119D02*
X88786802Y-38362452D01*
X89222231Y-37685119D02*
X89222231Y-38217310D01*
X89222231Y-38217310D02*
X89173850Y-38314072D01*
X89173850Y-38314072D02*
X89077088Y-38362452D01*
X89077088Y-38362452D02*
X88931945Y-38362452D01*
X88931945Y-38362452D02*
X88835183Y-38314072D01*
X88835183Y-38314072D02*
X88786802Y-38265691D01*
X88157850Y-38362452D02*
X88254612Y-38314072D01*
X88254612Y-38314072D02*
X88302993Y-38217310D01*
X88302993Y-38217310D02*
X88302993Y-37346452D01*
X87915946Y-37685119D02*
X87528898Y-37685119D01*
X87770803Y-37346452D02*
X87770803Y-38217310D01*
X87770803Y-38217310D02*
X87722422Y-38314072D01*
X87722422Y-38314072D02*
X87625660Y-38362452D01*
X87625660Y-38362452D02*
X87528898Y-38362452D01*
X87190232Y-38362452D02*
X87190232Y-37685119D01*
X87190232Y-37346452D02*
X87238613Y-37394833D01*
X87238613Y-37394833D02*
X87190232Y-37443214D01*
X87190232Y-37443214D02*
X87141851Y-37394833D01*
X87141851Y-37394833D02*
X87190232Y-37346452D01*
X87190232Y-37346452D02*
X87190232Y-37443214D01*
X86706422Y-37685119D02*
X86706422Y-38362452D01*
X86706422Y-37781881D02*
X86658041Y-37733500D01*
X86658041Y-37733500D02*
X86561279Y-37685119D01*
X86561279Y-37685119D02*
X86416136Y-37685119D01*
X86416136Y-37685119D02*
X86319374Y-37733500D01*
X86319374Y-37733500D02*
X86270993Y-37830262D01*
X86270993Y-37830262D02*
X86270993Y-38362452D01*
X85351755Y-37685119D02*
X85351755Y-38507595D01*
X85351755Y-38507595D02*
X85400136Y-38604357D01*
X85400136Y-38604357D02*
X85448517Y-38652738D01*
X85448517Y-38652738D02*
X85545279Y-38701119D01*
X85545279Y-38701119D02*
X85690422Y-38701119D01*
X85690422Y-38701119D02*
X85787184Y-38652738D01*
X85351755Y-38314072D02*
X85448517Y-38362452D01*
X85448517Y-38362452D02*
X85642041Y-38362452D01*
X85642041Y-38362452D02*
X85738803Y-38314072D01*
X85738803Y-38314072D02*
X85787184Y-38265691D01*
X85787184Y-38265691D02*
X85835565Y-38168929D01*
X85835565Y-38168929D02*
X85835565Y-37878643D01*
X85835565Y-37878643D02*
X85787184Y-37781881D01*
X85787184Y-37781881D02*
X85738803Y-37733500D01*
X85738803Y-37733500D02*
X85642041Y-37685119D01*
X85642041Y-37685119D02*
X85448517Y-37685119D01*
X85448517Y-37685119D02*
X85351755Y-37733500D01*
X84819565Y-38314072D02*
X84819565Y-38362452D01*
X84819565Y-38362452D02*
X84867946Y-38459214D01*
X84867946Y-38459214D02*
X84916327Y-38507595D01*
X83610041Y-38362452D02*
X83610041Y-37346452D01*
X83126231Y-37685119D02*
X83126231Y-38362452D01*
X83126231Y-37781881D02*
X83077850Y-37733500D01*
X83077850Y-37733500D02*
X82981088Y-37685119D01*
X82981088Y-37685119D02*
X82835945Y-37685119D01*
X82835945Y-37685119D02*
X82739183Y-37733500D01*
X82739183Y-37733500D02*
X82690802Y-37830262D01*
X82690802Y-37830262D02*
X82690802Y-38362452D01*
X81771564Y-38314072D02*
X81868326Y-38362452D01*
X81868326Y-38362452D02*
X82061850Y-38362452D01*
X82061850Y-38362452D02*
X82158612Y-38314072D01*
X82158612Y-38314072D02*
X82206993Y-38265691D01*
X82206993Y-38265691D02*
X82255374Y-38168929D01*
X82255374Y-38168929D02*
X82255374Y-37878643D01*
X82255374Y-37878643D02*
X82206993Y-37781881D01*
X82206993Y-37781881D02*
X82158612Y-37733500D01*
X82158612Y-37733500D02*
X82061850Y-37685119D01*
X82061850Y-37685119D02*
X81868326Y-37685119D01*
X81868326Y-37685119D02*
X81771564Y-37733500D01*
X81336136Y-38265691D02*
X81287755Y-38314072D01*
X81287755Y-38314072D02*
X81336136Y-38362452D01*
X81336136Y-38362452D02*
X81384517Y-38314072D01*
X81384517Y-38314072D02*
X81336136Y-38265691D01*
X81336136Y-38265691D02*
X81336136Y-38362452D01*
D12*
X110690000Y-700000D03*
D13*
X118310000Y-700000D03*
D12*
X110690000Y3000000D03*
D13*
X118310000Y3000000D03*
D12*
X110690000Y6500000D03*
D13*
X118310000Y6500000D03*
D14*
X128500000Y11740000D03*
D15*
X128500000Y9200000D03*
X128500000Y6660000D03*
X128500000Y4120000D03*
X128500000Y1580000D03*
X128500000Y-960000D03*
X128500000Y-3500000D03*
X128500000Y-6040000D03*
X128500000Y-8580000D03*
X128500000Y-11120000D03*
X128500000Y-13660000D03*
X128500000Y-16200000D03*
X128500000Y-18740000D03*
X128500000Y-21280000D03*
X128500000Y-23820000D03*
X128500000Y-26360000D03*
X128500000Y-28900000D03*
X128500000Y-31440000D03*
X128500000Y-33980000D03*
X128500000Y-36520000D03*
X131040000Y-36520000D03*
X131040000Y-33980000D03*
X131040000Y-31440000D03*
X131040000Y-28900000D03*
X131040000Y-26360000D03*
X131040000Y-23820000D03*
X131040000Y-21280000D03*
X131040000Y-18740000D03*
X131040000Y-16200000D03*
X131040000Y-13660000D03*
X131040000Y-11120000D03*
X131040000Y-8580000D03*
X131040000Y-6040000D03*
X131040000Y-3500000D03*
X131040000Y-960000D03*
X131040000Y1580000D03*
X131040000Y4120000D03*
X131040000Y6660000D03*
X131040000Y9200000D03*
X131040000Y11740000D03*
D14*
X113000000Y-37500000D03*
D15*
X115540000Y-37500000D03*
X118080000Y-37500000D03*
X120620000Y-37500000D03*
X123160000Y-37500000D03*
D16*
X76760000Y5040000D03*
D17*
X76760000Y2500000D03*
X76760000Y-40000D03*
X76760000Y-2580000D03*
X76760000Y-5120000D03*
X76760000Y-7660000D03*
X76760000Y-10200000D03*
X76760000Y-12740000D03*
X76760000Y-15280000D03*
X76760000Y-17820000D03*
X76760000Y-20360000D03*
X76760000Y-22900000D03*
X76760000Y-25440000D03*
X76760000Y-27980000D03*
X76760000Y-30520000D03*
X76760000Y-33060000D03*
X92000000Y-33060000D03*
X92000000Y-30520000D03*
X92000000Y-27980000D03*
X92000000Y-25440000D03*
X92000000Y-22900000D03*
X92000000Y-20360000D03*
X92000000Y-17820000D03*
X92000000Y-15280000D03*
X92000000Y-12740000D03*
X92000000Y-10200000D03*
X92000000Y-7660000D03*
X92000000Y-5120000D03*
X92000000Y-2580000D03*
X92000000Y-40000D03*
X92000000Y2500000D03*
X92000000Y5040000D03*
D18*
X84300000Y4960000D03*
X84300000Y2420000D03*
X84300000Y-120000D03*
X84300000Y-2660000D03*
X84300000Y-5200000D03*
X84300000Y-7740000D03*
X84300000Y-10280000D03*
X84300000Y-12820000D03*
X84300000Y-15360000D03*
X84300000Y-17900000D03*
X84300000Y-20440000D03*
X84300000Y-22980000D03*
X84300000Y-25520000D03*
X84300000Y-28060000D03*
X84300000Y-30600000D03*
X84300000Y-33140000D03*
X99540000Y-33140000D03*
X99540000Y-30600000D03*
X99540000Y-28060000D03*
X99540000Y-25520000D03*
X99540000Y-22980000D03*
X99540000Y-20440000D03*
X99540000Y-17900000D03*
X99540000Y-15360000D03*
X99540000Y-12820000D03*
X99540000Y-10280000D03*
X99540000Y-7740000D03*
X99540000Y-5200000D03*
X99540000Y-2660000D03*
X99540000Y-120000D03*
X99540000Y2420000D03*
X99540000Y4960000D03*
D19*
X121000000Y-5000000D03*
X124000000Y4000000D03*
X120000000Y4210000D03*
X115000000Y4210000D03*
X106500000Y-2500000D03*
X117000000Y9500000D03*
X115500000Y-17500000D03*
X103500000Y-30120000D03*
X91000000Y9000000D03*
X87000000Y-2500000D03*
X122000000Y7000000D03*
X102750000Y-10500000D03*
X102449997Y-30120000D03*
X120000000Y-9750000D03*
X101674762Y-13025998D03*
X112000000Y-15250000D03*
X106500000Y-25500000D03*
X122500000Y-7500000D03*
X126000000Y2000000D03*
X119000000Y9790000D03*
X120000000Y12050003D03*
X125000000Y1000000D03*
X118500000Y-29000000D03*
X120000000Y-15750000D03*
X117000000Y-28000000D03*
X102000000Y-31500000D03*
D20*
X121000000Y-5000000D02*
X121000000Y-840000D01*
X121000000Y-840000D02*
X128500000Y6660000D01*
X106500000Y-2500000D02*
X107263654Y-2500000D01*
X113973654Y4210000D02*
X115000000Y4210000D01*
X123790000Y4210000D02*
X124000000Y4000000D01*
X107263654Y-2500000D02*
X113973654Y4210000D01*
X120000000Y4210000D02*
X123790000Y4210000D01*
X115750000Y-17250000D02*
X115750000Y8250000D01*
X115500000Y-17500000D02*
X115750000Y-17250000D01*
X115750000Y8250000D02*
X117000000Y9500000D01*
X103500000Y-1540000D02*
X99540000Y2420000D01*
X103500000Y-30120000D02*
X103500000Y-1540000D01*
X126300000Y7000000D02*
X128500000Y9200000D01*
X89500000Y7500000D02*
X89500000Y0D01*
X122000000Y7000000D02*
X126300000Y7000000D01*
X91000000Y9000000D02*
X89500000Y7500000D01*
X89500000Y0D02*
X87000000Y-2500000D01*
X102750000Y-29819997D02*
X102449997Y-30120000D01*
X102750000Y-10500000D02*
X102750000Y-29819997D01*
X129840000Y8000000D02*
X131040000Y9200000D01*
X127000000Y5939339D02*
X127000000Y6857057D01*
X128142943Y8000000D02*
X129840000Y8000000D01*
X127000000Y6857057D02*
X128142943Y8000000D01*
X120000000Y-9750000D02*
X120000000Y-1060661D01*
X120000000Y-1060661D02*
X127000000Y5939339D01*
X96000000Y-16500000D02*
X96000000Y-26000000D01*
X100780760Y-13920000D02*
X98580000Y-13920000D01*
X98580000Y-13920000D02*
X96000000Y-16500000D01*
X96000000Y-26000000D02*
X98060000Y-28060000D01*
X101674762Y-13025998D02*
X100780760Y-13920000D01*
X98060000Y-28060000D02*
X99540000Y-28060000D01*
D21*
X131413266Y14000000D02*
X125500000Y14000000D01*
X133500000Y8500000D02*
X133500000Y11913266D01*
X85360000Y-33140000D02*
X87122000Y-34902000D01*
X87122000Y-34902000D02*
X101019844Y-34902000D01*
X132242081Y-16200000D02*
X133500000Y-14942081D01*
X131040000Y-16200000D02*
X132242081Y-16200000D01*
X118310000Y-17611844D02*
X118310000Y-700000D01*
X101019844Y-34902000D02*
X118310000Y-17611844D01*
X133500000Y11913266D02*
X131413266Y14000000D01*
X84220000Y-33060000D02*
X84300000Y-33140000D01*
X84300000Y-33140000D02*
X85360000Y-33140000D01*
X118310000Y-700000D02*
X118310000Y3000000D01*
X133500000Y-14942081D02*
X133500000Y8500000D01*
X125500000Y14000000D02*
X118310000Y6810000D01*
X118310000Y6810000D02*
X118310000Y3000000D01*
X76760000Y-33060000D02*
X84220000Y-33060000D01*
D20*
X112000000Y-20000000D02*
X112000000Y-15250000D01*
X106500000Y-25500000D02*
X112000000Y-20000000D01*
X122500000Y-182943D02*
X128002943Y5320000D01*
X122500000Y-7500000D02*
X122500000Y-182943D01*
X128002943Y5320000D02*
X129700000Y5320000D01*
X129700000Y5320000D02*
X131040000Y6660000D01*
X118540000Y10250000D02*
X119000000Y9790000D01*
X99250000Y10250000D02*
X118540000Y10250000D01*
X99540000Y-30600000D02*
X95500000Y-26560000D01*
X126000000Y-1000000D02*
X128500000Y-3500000D01*
X95500000Y-26560000D02*
X95500000Y6500000D01*
X126000000Y2000000D02*
X126000000Y-1000000D01*
X95500000Y6500000D02*
X99250000Y10250000D01*
X94500000Y-10240000D02*
X94500000Y7147057D01*
X92000000Y-12740000D02*
X94500000Y-10240000D01*
X99402946Y12050003D02*
X120000000Y12050003D01*
X94500000Y7147057D02*
X99402946Y12050003D01*
X125000000Y-10160000D02*
X128500000Y-13660000D01*
X125000000Y1000000D02*
X125000000Y-10160000D01*
X118500000Y-20500000D02*
X122800000Y-16200000D01*
X122800000Y-16200000D02*
X128500000Y-16200000D01*
X118500000Y-29000000D02*
X118500000Y-20500000D01*
X117000000Y-21363604D02*
X117000000Y-28000000D01*
X120000000Y-18363604D02*
X117000000Y-21363604D01*
X120000000Y-15750000D02*
X120000000Y-18363604D01*
X102000000Y-31500000D02*
X101500000Y-31000000D01*
X101500000Y-22400000D02*
X99540000Y-20440000D01*
X101500000Y-31000000D02*
X101500000Y-22400000D01*
X125480000Y-32640000D02*
X120620000Y-37500000D01*
X131040000Y-31440000D02*
X129840000Y-32640000D01*
X129840000Y-32640000D02*
X125480000Y-32640000D01*
X117560661Y-31000000D02*
X116000000Y-31000000D01*
X113000000Y-34000000D02*
X113000000Y-37500000D01*
X129700000Y-22620000D02*
X125940661Y-22620000D01*
X125940661Y-22620000D02*
X117560661Y-31000000D01*
X116000000Y-31000000D02*
X113000000Y-34000000D01*
X131040000Y-21280000D02*
X129700000Y-22620000D01*
X127880000Y-25160000D02*
X115540000Y-37500000D01*
X129700000Y-25160000D02*
X127880000Y-25160000D01*
X131040000Y-23820000D02*
X129700000Y-25160000D01*
X127880000Y-27700000D02*
X118080000Y-37500000D01*
X131040000Y-26360000D02*
X129700000Y-27700000D01*
X129700000Y-27700000D02*
X127880000Y-27700000D01*
X127520000Y-37500000D02*
X123160000Y-37500000D01*
X128500000Y-36520000D02*
X127520000Y-37500000D01*
M02*
