G04 #@! TF.GenerationSoftware,KiCad,Pcbnew,8.0.8*
G04 #@! TF.CreationDate,2026-01-16T16:01:14-05:00*
G04 #@! TF.ProjectId,InSystemROMProg,496e5379-7374-4656-9d52-4f4d50726f67,rev?*
G04 #@! TF.SameCoordinates,Original*
G04 #@! TF.FileFunction,Legend,Bot*
G04 #@! TF.FilePolarity,Positive*
%FSLAX46Y46*%
G04 Gerber Fmt 4.6, Leading zero omitted, Abs format (unit mm)*
G04 Created by KiCad (PCBNEW 8.0.8) date 2026-01-16 16:01:14*
%MOMM*%
%LPD*%
G01*
G04 APERTURE LIST*
G04 Aperture macros list*
%AMRoundRect*
0 Rectangle with rounded corners*
0 $1 Rounding radius*
0 $2 $3 $4 $5 $6 $7 $8 $9 X,Y pos of 4 corners*
0 Add a 4 corners polygon primitive as box body*
4,1,4,$2,$3,$4,$5,$6,$7,$8,$9,$2,$3,0*
0 Add four circle primitives for the rounded corners*
1,1,$1+$1,$2,$3*
1,1,$1+$1,$4,$5*
1,1,$1+$1,$6,$7*
1,1,$1+$1,$8,$9*
0 Add four rect primitives between the rounded corners*
20,1,$1+$1,$2,$3,$4,$5,0*
20,1,$1+$1,$4,$5,$6,$7,0*
20,1,$1+$1,$6,$7,$8,$9,0*
20,1,$1+$1,$8,$9,$2,$3,0*%
G04 Aperture macros list end*
%ADD10C,1.676000*%
%ADD11O,1.676000X1.676000*%
%ADD12RoundRect,0.038000X-0.850000X-0.850000X0.850000X-0.850000X0.850000X0.850000X-0.850000X0.850000X0*%
%ADD13O,1.776000X1.776000*%
%ADD14RoundRect,0.038000X0.850000X-0.850000X0.850000X0.850000X-0.850000X0.850000X-0.850000X-0.850000X0*%
%ADD15RoundRect,0.038000X-1.200000X-0.800000X1.200000X-0.800000X1.200000X0.800000X-1.200000X0.800000X0*%
%ADD16O,2.476000X1.676000*%
%ADD17O,3.076000X1.576000*%
G04 APERTURE END LIST*
%LPC*%
D10*
X110690000Y-700000D03*
D11*
X118310000Y-700000D03*
D10*
X110690000Y3000000D03*
D11*
X118310000Y3000000D03*
D10*
X110690000Y6500000D03*
D11*
X118310000Y6500000D03*
D12*
X128500000Y11740000D03*
D13*
X128500000Y9200000D03*
X128500000Y6660000D03*
X128500000Y4120000D03*
X128500000Y1580000D03*
X128500000Y-960000D03*
X128500000Y-3500000D03*
X128500000Y-6040000D03*
X128500000Y-8580000D03*
X128500000Y-11120000D03*
X128500000Y-13660000D03*
X128500000Y-16200000D03*
X128500000Y-18740000D03*
X128500000Y-21280000D03*
X128500000Y-23820000D03*
X128500000Y-26360000D03*
X128500000Y-28900000D03*
X128500000Y-31440000D03*
X128500000Y-33980000D03*
X128500000Y-36520000D03*
X131040000Y-36520000D03*
X131040000Y-33980000D03*
X131040000Y-31440000D03*
X131040000Y-28900000D03*
X131040000Y-26360000D03*
X131040000Y-23820000D03*
X131040000Y-21280000D03*
X131040000Y-18740000D03*
X131040000Y-16200000D03*
X131040000Y-13660000D03*
X131040000Y-11120000D03*
X131040000Y-8580000D03*
X131040000Y-6040000D03*
X131040000Y-3500000D03*
X131040000Y-960000D03*
X131040000Y1580000D03*
X131040000Y4120000D03*
X131040000Y6660000D03*
X131040000Y9200000D03*
X131040000Y11740000D03*
D14*
X113000000Y-37500000D03*
D13*
X115540000Y-37500000D03*
X118080000Y-37500000D03*
X120620000Y-37500000D03*
X123160000Y-37500000D03*
D15*
X76760000Y5040000D03*
D16*
X76760000Y2500000D03*
X76760000Y-40000D03*
X76760000Y-2580000D03*
X76760000Y-5120000D03*
X76760000Y-7660000D03*
X76760000Y-10200000D03*
X76760000Y-12740000D03*
X76760000Y-15280000D03*
X76760000Y-17820000D03*
X76760000Y-20360000D03*
X76760000Y-22900000D03*
X76760000Y-25440000D03*
X76760000Y-27980000D03*
X76760000Y-30520000D03*
X76760000Y-33060000D03*
X92000000Y-33060000D03*
X92000000Y-30520000D03*
X92000000Y-27980000D03*
X92000000Y-25440000D03*
X92000000Y-22900000D03*
X92000000Y-20360000D03*
X92000000Y-17820000D03*
X92000000Y-15280000D03*
X92000000Y-12740000D03*
X92000000Y-10200000D03*
X92000000Y-7660000D03*
X92000000Y-5120000D03*
X92000000Y-2580000D03*
X92000000Y-40000D03*
X92000000Y2500000D03*
X92000000Y5040000D03*
D17*
X84300000Y4960000D03*
X84300000Y2420000D03*
X84300000Y-120000D03*
X84300000Y-2660000D03*
X84300000Y-5200000D03*
X84300000Y-7740000D03*
X84300000Y-10280000D03*
X84300000Y-12820000D03*
X84300000Y-15360000D03*
X84300000Y-17900000D03*
X84300000Y-20440000D03*
X84300000Y-22980000D03*
X84300000Y-25520000D03*
X84300000Y-28060000D03*
X84300000Y-30600000D03*
X84300000Y-33140000D03*
X99540000Y-33140000D03*
X99540000Y-30600000D03*
X99540000Y-28060000D03*
X99540000Y-25520000D03*
X99540000Y-22980000D03*
X99540000Y-20440000D03*
X99540000Y-17900000D03*
X99540000Y-15360000D03*
X99540000Y-12820000D03*
X99540000Y-10280000D03*
X99540000Y-7740000D03*
X99540000Y-5200000D03*
X99540000Y-2660000D03*
X99540000Y-120000D03*
X99540000Y2420000D03*
X99540000Y4960000D03*
%LPD*%
M02*
