G04 #@! TF.GenerationSoftware,KiCad,Pcbnew,8.0.8*
G04 #@! TF.CreationDate,2026-01-16T16:01:14-05:00*
G04 #@! TF.ProjectId,InSystemROMProg,496e5379-7374-4656-9d52-4f4d50726f67,rev?*
G04 #@! TF.SameCoordinates,Original*
G04 #@! TF.FileFunction,Copper,L1,Top*
G04 #@! TF.FilePolarity,Positive*
%FSLAX46Y46*%
G04 Gerber Fmt 4.6, Leading zero omitted, Abs format (unit mm)*
G04 Created by KiCad (PCBNEW 8.0.8) date 2026-01-16 16:01:14*
%MOMM*%
%LPD*%
G01*
G04 APERTURE LIST*
G04 #@! TA.AperFunction,ComponentPad*
%ADD10C,1.600000*%
G04 #@! TD*
G04 #@! TA.AperFunction,ComponentPad*
%ADD11O,1.600000X1.600000*%
G04 #@! TD*
G04 #@! TA.AperFunction,ComponentPad*
%ADD12R,1.700000X1.700000*%
G04 #@! TD*
G04 #@! TA.AperFunction,ComponentPad*
%ADD13O,1.700000X1.700000*%
G04 #@! TD*
G04 #@! TA.AperFunction,ComponentPad*
%ADD14R,2.400000X1.600000*%
G04 #@! TD*
G04 #@! TA.AperFunction,ComponentPad*
%ADD15O,2.400000X1.600000*%
G04 #@! TD*
G04 #@! TA.AperFunction,ComponentPad*
%ADD16O,3.000000X1.500000*%
G04 #@! TD*
G04 #@! TA.AperFunction,ViaPad*
%ADD17C,0.800000*%
G04 #@! TD*
G04 #@! TA.AperFunction,Conductor*
%ADD18C,0.200000*%
G04 #@! TD*
G04 APERTURE END LIST*
D10*
X110690000Y-700000D03*
D11*
X118310000Y-700000D03*
D10*
X110690000Y3000000D03*
D11*
X118310000Y3000000D03*
D10*
X110690000Y6500000D03*
D11*
X118310000Y6500000D03*
D12*
X128500000Y11740000D03*
D13*
X128500000Y9200000D03*
X128500000Y6660000D03*
X128500000Y4120000D03*
X128500000Y1580000D03*
X128500000Y-960000D03*
X128500000Y-3500000D03*
X128500000Y-6040000D03*
X128500000Y-8580000D03*
X128500000Y-11120000D03*
X128500000Y-13660000D03*
X128500000Y-16200000D03*
X128500000Y-18740000D03*
X128500000Y-21280000D03*
X128500000Y-23820000D03*
X128500000Y-26360000D03*
X128500000Y-28900000D03*
X128500000Y-31440000D03*
X128500000Y-33980000D03*
X128500000Y-36520000D03*
X131040000Y-36520000D03*
X131040000Y-33980000D03*
X131040000Y-31440000D03*
X131040000Y-28900000D03*
X131040000Y-26360000D03*
X131040000Y-23820000D03*
X131040000Y-21280000D03*
X131040000Y-18740000D03*
X131040000Y-16200000D03*
X131040000Y-13660000D03*
X131040000Y-11120000D03*
X131040000Y-8580000D03*
X131040000Y-6040000D03*
X131040000Y-3500000D03*
X131040000Y-960000D03*
X131040000Y1580000D03*
X131040000Y4120000D03*
X131040000Y6660000D03*
X131040000Y9200000D03*
X131040000Y11740000D03*
D12*
X113000000Y-37500000D03*
D13*
X115540000Y-37500000D03*
X118080000Y-37500000D03*
X120620000Y-37500000D03*
X123160000Y-37500000D03*
D14*
X76760000Y5040000D03*
D15*
X76760000Y2500000D03*
X76760000Y-40000D03*
X76760000Y-2580000D03*
X76760000Y-5120000D03*
X76760000Y-7660000D03*
X76760000Y-10200000D03*
X76760000Y-12740000D03*
X76760000Y-15280000D03*
X76760000Y-17820000D03*
X76760000Y-20360000D03*
X76760000Y-22900000D03*
X76760000Y-25440000D03*
X76760000Y-27980000D03*
X76760000Y-30520000D03*
X76760000Y-33060000D03*
X92000000Y-33060000D03*
X92000000Y-30520000D03*
X92000000Y-27980000D03*
X92000000Y-25440000D03*
X92000000Y-22900000D03*
X92000000Y-20360000D03*
X92000000Y-17820000D03*
X92000000Y-15280000D03*
X92000000Y-12740000D03*
X92000000Y-10200000D03*
X92000000Y-7660000D03*
X92000000Y-5120000D03*
X92000000Y-2580000D03*
X92000000Y-40000D03*
X92000000Y2500000D03*
X92000000Y5040000D03*
D16*
X84300000Y4960000D03*
X84300000Y2420000D03*
X84300000Y-120000D03*
X84300000Y-2660000D03*
X84300000Y-5200000D03*
X84300000Y-7740000D03*
X84300000Y-10280000D03*
X84300000Y-12820000D03*
X84300000Y-15360000D03*
X84300000Y-17900000D03*
X84300000Y-20440000D03*
X84300000Y-22980000D03*
X84300000Y-25520000D03*
X84300000Y-28060000D03*
X84300000Y-30600000D03*
X84300000Y-33140000D03*
X99540000Y-33140000D03*
X99540000Y-30600000D03*
X99540000Y-28060000D03*
X99540000Y-25520000D03*
X99540000Y-22980000D03*
X99540000Y-20440000D03*
X99540000Y-17900000D03*
X99540000Y-15360000D03*
X99540000Y-12820000D03*
X99540000Y-10280000D03*
X99540000Y-7740000D03*
X99540000Y-5200000D03*
X99540000Y-2660000D03*
X99540000Y-120000D03*
X99540000Y2420000D03*
X99540000Y4960000D03*
D17*
X121000000Y-5000000D03*
X124000000Y4000000D03*
X120000000Y4210000D03*
X115000000Y4210000D03*
X106500000Y-2500000D03*
X117000000Y9500000D03*
X115500000Y-17500000D03*
X103500000Y-30120000D03*
X91000000Y9000000D03*
X87000000Y-2500000D03*
X122000000Y7000000D03*
X102750000Y-10500000D03*
X102449997Y-30120000D03*
X120000000Y-9750000D03*
X101674762Y-13025998D03*
X112000000Y-15250000D03*
X106500000Y-25500000D03*
X122500000Y-7500000D03*
X126000000Y2000000D03*
X119000000Y9790000D03*
X120000000Y12050003D03*
X125000000Y1000000D03*
X118500000Y-29000000D03*
X120000000Y-15750000D03*
X117000000Y-28000000D03*
X102000000Y-31500000D03*
D18*
X84300000Y-7740000D02*
X87260000Y-7740000D01*
X129840000Y-1542943D02*
X129840000Y380000D01*
X122500000Y-6500000D02*
X126700000Y-2300000D01*
X88500000Y-6500000D02*
X122500000Y-6500000D01*
X129082943Y-2300000D02*
X129840000Y-1542943D01*
X84220000Y-7660000D02*
X84300000Y-7740000D01*
X129840000Y380000D02*
X131040000Y1580000D01*
X87260000Y-7740000D02*
X88500000Y-6500000D01*
X76760000Y-7660000D02*
X84220000Y-7660000D01*
X126700000Y-2300000D02*
X129082943Y-2300000D01*
X99460000Y-5120000D02*
X99540000Y-5200000D01*
X92000000Y-5120000D02*
X99460000Y-5120000D01*
X99540000Y-5200000D02*
X120800000Y-5200000D01*
X120800000Y-5200000D02*
X121000000Y-5000000D01*
X129840000Y-4700000D02*
X131040000Y-3500000D01*
X76760000Y-12740000D02*
X84220000Y-12740000D01*
X129840000Y-6397057D02*
X129840000Y-4700000D01*
X88500000Y-11500000D02*
X123000000Y-11500000D01*
X87180000Y-12820000D02*
X88500000Y-11500000D01*
X123000000Y-11500000D02*
X127260000Y-7240000D01*
X127260000Y-7240000D02*
X128997057Y-7240000D01*
X84300000Y-12820000D02*
X87180000Y-12820000D01*
X128997057Y-7240000D02*
X129840000Y-6397057D01*
X84220000Y-12740000D02*
X84300000Y-12820000D01*
X76760000Y-5120000D02*
X84220000Y-5120000D01*
X127380000Y380000D02*
X128997057Y380000D01*
X123000000Y-4000000D02*
X127380000Y380000D01*
X87300000Y-5200000D02*
X88530000Y-3970000D01*
X106970000Y-3970000D02*
X107000000Y-4000000D01*
X107000000Y-4000000D02*
X123000000Y-4000000D01*
X129700000Y2780000D02*
X131040000Y4120000D01*
X84220000Y-5120000D02*
X84300000Y-5200000D01*
X128997057Y380000D02*
X129700000Y1082943D01*
X88530000Y-3970000D02*
X106970000Y-3970000D01*
X84300000Y-5200000D02*
X87300000Y-5200000D01*
X129700000Y1082943D02*
X129700000Y2780000D01*
X92000000Y-2580000D02*
X99460000Y-2580000D01*
X99540000Y-2660000D02*
X106340000Y-2660000D01*
X106340000Y-2660000D02*
X106500000Y-2500000D01*
X124000000Y4000000D02*
X124120000Y4120000D01*
X99460000Y-2580000D02*
X99540000Y-2660000D01*
X124120000Y4120000D02*
X128500000Y4120000D01*
X115000000Y4210000D02*
X120000000Y4210000D01*
X99540000Y-17900000D02*
X115100000Y-17900000D01*
X115100000Y-17900000D02*
X115500000Y-17500000D01*
X118040000Y10540000D02*
X129840000Y10540000D01*
X92000000Y-17820000D02*
X99460000Y-17820000D01*
X117000000Y9500000D02*
X118040000Y10540000D01*
X129840000Y10540000D02*
X131040000Y11740000D01*
X99460000Y-40000D02*
X99540000Y-120000D01*
X99540000Y-120000D02*
X110110000Y-120000D01*
X92000000Y-40000D02*
X99460000Y-40000D01*
X110110000Y-120000D02*
X110690000Y-700000D01*
X76760000Y5040000D02*
X84220000Y5040000D01*
X88020661Y4960000D02*
X89560661Y6500000D01*
X84300000Y4960000D02*
X88020661Y4960000D01*
X89560661Y6500000D02*
X110690000Y6500000D01*
X84220000Y5040000D02*
X84300000Y4960000D01*
X103500000Y-31000000D02*
X105280000Y-32780000D01*
X129840000Y-32780000D02*
X131040000Y-33980000D01*
X103500000Y-30120000D02*
X103500000Y-31000000D01*
X92000000Y2500000D02*
X99460000Y2500000D01*
X105280000Y-32780000D02*
X129840000Y-32780000D01*
X91000000Y9000000D02*
X91250000Y8750000D01*
X91200000Y9200000D02*
X91000000Y9000000D01*
X86840000Y-2660000D02*
X87000000Y-2500000D01*
X84220000Y-2580000D02*
X84300000Y-2660000D01*
X76760000Y-2580000D02*
X84220000Y-2580000D01*
X91250000Y8750000D02*
X120250000Y8750000D01*
X84300000Y-2660000D02*
X86840000Y-2660000D01*
X120250000Y8750000D02*
X122000000Y7000000D01*
X88440000Y-28060000D02*
X89670000Y-26830000D01*
X84300000Y-28060000D02*
X88440000Y-28060000D01*
X76760000Y-27980000D02*
X84220000Y-27980000D01*
X125490000Y-26830000D02*
X128500000Y-23820000D01*
X84220000Y-27980000D02*
X84300000Y-28060000D01*
X89670000Y-26830000D02*
X125490000Y-26830000D01*
X125720000Y-21280000D02*
X128500000Y-21280000D01*
X84300000Y-25520000D02*
X85530000Y-24290000D01*
X76760000Y-25440000D02*
X84220000Y-25440000D01*
X85530000Y-24290000D02*
X122710000Y-24290000D01*
X122710000Y-24290000D02*
X125720000Y-21280000D01*
X102449997Y-30120000D02*
X101880000Y-30120000D01*
X101390000Y-31055635D02*
X99540000Y-32905635D01*
X101880000Y-30120000D02*
X101390000Y-30610000D01*
X92000000Y-33060000D02*
X99460000Y-33060000D01*
X99540000Y-32905635D02*
X99540000Y-33140000D01*
X128500000Y-6040000D02*
X127297919Y-6040000D01*
X101390000Y-30610000D02*
X101390000Y-31055635D01*
X122837919Y-10500000D02*
X102750000Y-10500000D01*
X127297919Y-6040000D02*
X122837919Y-10500000D01*
X127297919Y1580000D02*
X128500000Y1580000D01*
X87120000Y-120000D02*
X88220000Y-1220000D01*
X88220000Y-1220000D02*
X107220000Y-1220000D01*
X84300000Y-120000D02*
X87120000Y-120000D01*
X128500000Y2216396D02*
X128500000Y1580000D01*
X76760000Y-40000D02*
X84220000Y-40000D01*
X107220000Y-1220000D02*
X109000000Y-3000000D01*
X84220000Y-40000D02*
X84300000Y-120000D01*
X109000000Y-3000000D02*
X122717919Y-3000000D01*
X122717919Y-3000000D02*
X127297919Y1580000D01*
X92000000Y-10200000D02*
X99460000Y-10200000D01*
X100320000Y-9500000D02*
X99540000Y-10280000D01*
X119750000Y-9500000D02*
X100320000Y-9500000D01*
X120000000Y-9750000D02*
X119750000Y-9500000D01*
X76760000Y-10200000D02*
X84220000Y-10200000D01*
X129759670Y-3937387D02*
X129759670Y-2259669D01*
X126800000Y-4700000D02*
X128997057Y-4700000D01*
X84300000Y-10280000D02*
X87220000Y-10280000D01*
X129759670Y-2259669D02*
X131040000Y-979339D01*
X131040000Y-979339D02*
X131040000Y-960000D01*
X84220000Y-10200000D02*
X84300000Y-10280000D01*
X87220000Y-10280000D02*
X88500000Y-9000000D01*
X128997057Y-4700000D02*
X129759670Y-3937387D01*
X88500000Y-9000000D02*
X122500000Y-9000000D01*
X122500000Y-9000000D02*
X126800000Y-4700000D01*
X101674762Y-13025998D02*
X101700760Y-13000000D01*
X127283604Y-8580000D02*
X128500000Y-8580000D01*
X92000000Y-27980000D02*
X99460000Y-27980000D01*
X122863604Y-13000000D02*
X127283604Y-8580000D01*
X101700760Y-13000000D02*
X122863604Y-13000000D01*
X99540000Y-25520000D02*
X106480000Y-25520000D01*
X127743604Y-11120000D02*
X128500000Y-11120000D01*
X112250000Y-15000000D02*
X123863604Y-15000000D01*
X112000000Y-15250000D02*
X112250000Y-15000000D01*
X92000000Y-25440000D02*
X99460000Y-25440000D01*
X123863604Y-15000000D02*
X127743604Y-11120000D01*
X106480000Y-25520000D02*
X106500000Y-25500000D01*
X84220000Y-20360000D02*
X84300000Y-20440000D01*
X76760000Y-20360000D02*
X84220000Y-20360000D01*
X89000000Y-19000000D02*
X123000000Y-19000000D01*
X123000000Y-19000000D02*
X127140000Y-14860000D01*
X128997057Y-14860000D02*
X129840000Y-14017057D01*
X129840000Y-12320000D02*
X131040000Y-11120000D01*
X87560000Y-20440000D02*
X89000000Y-19000000D01*
X129840000Y-14017057D02*
X129840000Y-12320000D01*
X127140000Y-14860000D02*
X128997057Y-14860000D01*
X84300000Y-20440000D02*
X87560000Y-20440000D01*
X105240000Y-7740000D02*
X122260000Y-7740000D01*
X122260000Y-7740000D02*
X122500000Y-7500000D01*
X92000000Y-7660000D02*
X99460000Y-7660000D01*
X99460000Y-7660000D02*
X99540000Y-7740000D01*
X99540000Y-7740000D02*
X105240000Y-7740000D01*
X129700000Y-11617057D02*
X129700000Y-9920000D01*
X129700000Y-9920000D02*
X131040000Y-8580000D01*
X76760000Y-17820000D02*
X84220000Y-17820000D01*
X84220000Y-17820000D02*
X84300000Y-17900000D01*
X84300000Y-17900000D02*
X87600000Y-17900000D01*
X87600000Y-17900000D02*
X89000000Y-16500000D01*
X127180000Y-12320000D02*
X128997057Y-12320000D01*
X89000000Y-16500000D02*
X123000000Y-16500000D01*
X123000000Y-16500000D02*
X127180000Y-12320000D01*
X128997057Y-12320000D02*
X129700000Y-11617057D01*
X89650000Y3650000D02*
X110040000Y3650000D01*
X84220000Y2500000D02*
X84300000Y2420000D01*
X76760000Y2500000D02*
X84220000Y2500000D01*
X110040000Y3650000D02*
X110690000Y3000000D01*
X88420000Y2420000D02*
X89650000Y3650000D01*
X84300000Y2420000D02*
X88420000Y2420000D01*
X124939339Y2000000D02*
X126000000Y2000000D01*
X123000000Y3939339D02*
X124939339Y2000000D01*
X92000000Y-30520000D02*
X99460000Y-30520000D01*
X121710000Y9790000D02*
X123000000Y8500000D01*
X119000000Y9790000D02*
X121710000Y9790000D01*
X123000000Y8500000D02*
X123000000Y3939339D01*
X129100000Y-17400000D02*
X129840000Y-16660000D01*
X129840000Y-14860000D02*
X131040000Y-13660000D01*
X84300000Y-22980000D02*
X88020000Y-22980000D01*
X123000000Y-21500000D02*
X127100000Y-17400000D01*
X76760000Y-22900000D02*
X84220000Y-22900000D01*
X129840000Y-16660000D02*
X129840000Y-14860000D01*
X109000000Y-21500000D02*
X123000000Y-21500000D01*
X108960000Y-21540000D02*
X109000000Y-21500000D01*
X84220000Y-22900000D02*
X84300000Y-22980000D01*
X127100000Y-17400000D02*
X129100000Y-17400000D01*
X88020000Y-22980000D02*
X89460000Y-21540000D01*
X89460000Y-21540000D02*
X108960000Y-21540000D01*
X120000000Y12050003D02*
X120310003Y11740000D01*
X99460000Y-12740000D02*
X99540000Y-12820000D01*
X120310003Y11740000D02*
X128500000Y11740000D01*
X92000000Y-12740000D02*
X99460000Y-12740000D01*
X99540000Y4960000D02*
X121040000Y4960000D01*
X121040000Y4960000D02*
X125000000Y1000000D01*
X92000000Y5040000D02*
X99460000Y5040000D01*
X123383604Y-22980000D02*
X127623604Y-18740000D01*
X99540000Y-22980000D02*
X123383604Y-22980000D01*
X92000000Y-22900000D02*
X99460000Y-22900000D01*
X127623604Y-18740000D02*
X128500000Y-18740000D01*
X84220000Y-30520000D02*
X84300000Y-30600000D01*
X89500000Y-29500000D02*
X89630000Y-29370000D01*
X118130000Y-29370000D02*
X118500000Y-29000000D01*
X88400000Y-30600000D02*
X89500000Y-29500000D01*
X84300000Y-30600000D02*
X88400000Y-30600000D01*
X76760000Y-30520000D02*
X84220000Y-30520000D01*
X89630000Y-29370000D02*
X118130000Y-29370000D01*
X128857057Y-9920000D02*
X129840000Y-8937057D01*
X88500000Y-14000000D02*
X122500000Y-14000000D01*
X84220000Y-15280000D02*
X84300000Y-15360000D01*
X126580000Y-9920000D02*
X128857057Y-9920000D01*
X122500000Y-14000000D02*
X126580000Y-9920000D01*
X87140000Y-15360000D02*
X88500000Y-14000000D01*
X76760000Y-15280000D02*
X84220000Y-15280000D01*
X129840000Y-8937057D02*
X129840000Y-7240000D01*
X84300000Y-15360000D02*
X87140000Y-15360000D01*
X129840000Y-7240000D02*
X131040000Y-6040000D01*
X132500000Y-35060000D02*
X131040000Y-36520000D01*
X120000000Y-15750000D02*
X119750000Y-16000000D01*
X100180000Y-16000000D02*
X99540000Y-15360000D01*
X117000000Y-28000000D02*
X125762943Y-28000000D01*
X127862943Y-30100000D02*
X131397057Y-30100000D01*
X119750000Y-16000000D02*
X100180000Y-16000000D01*
X132500000Y-31202943D02*
X132500000Y-35060000D01*
X125762943Y-28000000D02*
X127862943Y-30100000D01*
X92000000Y-15280000D02*
X99460000Y-15280000D01*
X131397057Y-30100000D02*
X132500000Y-31202943D01*
X92000000Y-20360000D02*
X99460000Y-20360000D01*
X104480000Y-33980000D02*
X102000000Y-31500000D01*
X128500000Y-33980000D02*
X104480000Y-33980000D01*
M02*
