G04 #@! TF.GenerationSoftware,KiCad,Pcbnew,8.0.8*
G04 #@! TF.CreationDate,2025-10-24T15:06:26-04:00*
G04 #@! TF.ProjectId,InSystemROMProg,496e5379-7374-4656-9d52-4f4d50726f67,rev?*
G04 #@! TF.SameCoordinates,Original*
G04 #@! TF.FileFunction,Copper,L2,Bot*
G04 #@! TF.FilePolarity,Positive*
%FSLAX46Y46*%
G04 Gerber Fmt 4.6, Leading zero omitted, Abs format (unit mm)*
G04 Created by KiCad (PCBNEW 8.0.8) date 2025-10-24 15:06:26*
%MOMM*%
%LPD*%
G01*
G04 APERTURE LIST*
%ADD10C,0.254000*%
G04 #@! TA.AperFunction,NonConductor*
%ADD11C,0.254000*%
G04 #@! TD*
G04 #@! TA.AperFunction,ComponentPad*
%ADD12C,1.600000*%
G04 #@! TD*
G04 #@! TA.AperFunction,ComponentPad*
%ADD13O,1.600000X1.600000*%
G04 #@! TD*
G04 #@! TA.AperFunction,ComponentPad*
%ADD14R,1.700000X1.700000*%
G04 #@! TD*
G04 #@! TA.AperFunction,ComponentPad*
%ADD15O,1.700000X1.700000*%
G04 #@! TD*
G04 #@! TA.AperFunction,ComponentPad*
%ADD16R,2.400000X1.600000*%
G04 #@! TD*
G04 #@! TA.AperFunction,ComponentPad*
%ADD17O,2.400000X1.600000*%
G04 #@! TD*
G04 #@! TA.AperFunction,ComponentPad*
%ADD18O,3.000000X1.500000*%
G04 #@! TD*
G04 #@! TA.AperFunction,ViaPad*
%ADD19C,0.800000*%
G04 #@! TD*
G04 #@! TA.AperFunction,Conductor*
%ADD20C,0.200000*%
G04 #@! TD*
G04 #@! TA.AperFunction,Conductor*
%ADD21C,1.524000*%
G04 #@! TD*
G04 APERTURE END LIST*
D10*
D11*
X105768514Y-40088357D02*
X105865275Y-40039976D01*
X105865275Y-40039976D02*
X106058799Y-40039976D01*
X106058799Y-40039976D02*
X106155561Y-40088357D01*
X106155561Y-40088357D02*
X106252323Y-40185119D01*
X106252323Y-40185119D02*
X106300704Y-40281881D01*
X106300704Y-40281881D02*
X106300704Y-40475405D01*
X106300704Y-40475405D02*
X106252323Y-40572167D01*
X106252323Y-40572167D02*
X106155561Y-40668929D01*
X106155561Y-40668929D02*
X106058799Y-40717310D01*
X106058799Y-40717310D02*
X105865275Y-40717310D01*
X105865275Y-40717310D02*
X105768514Y-40668929D01*
X105962037Y-39701310D02*
X106203942Y-39749691D01*
X106203942Y-39749691D02*
X106445847Y-39894833D01*
X106445847Y-39894833D02*
X106590990Y-40136738D01*
X106590990Y-40136738D02*
X106639371Y-40378643D01*
X106639371Y-40378643D02*
X106590990Y-40620548D01*
X106590990Y-40620548D02*
X106445847Y-40862452D01*
X106445847Y-40862452D02*
X106203942Y-41007595D01*
X106203942Y-41007595D02*
X105962037Y-41055976D01*
X105962037Y-41055976D02*
X105720133Y-41007595D01*
X105720133Y-41007595D02*
X105478228Y-40862452D01*
X105478228Y-40862452D02*
X105333085Y-40620548D01*
X105333085Y-40620548D02*
X105284704Y-40378643D01*
X105284704Y-40378643D02*
X105333085Y-40136738D01*
X105333085Y-40136738D02*
X105478228Y-39894833D01*
X105478228Y-39894833D02*
X105720133Y-39749691D01*
X105720133Y-39749691D02*
X105962037Y-39701310D01*
X104123562Y-39943214D02*
X104075181Y-39894833D01*
X104075181Y-39894833D02*
X103978419Y-39846452D01*
X103978419Y-39846452D02*
X103736514Y-39846452D01*
X103736514Y-39846452D02*
X103639752Y-39894833D01*
X103639752Y-39894833D02*
X103591371Y-39943214D01*
X103591371Y-39943214D02*
X103542990Y-40039976D01*
X103542990Y-40039976D02*
X103542990Y-40136738D01*
X103542990Y-40136738D02*
X103591371Y-40281881D01*
X103591371Y-40281881D02*
X104171943Y-40862452D01*
X104171943Y-40862452D02*
X103542990Y-40862452D01*
X102914038Y-39846452D02*
X102817276Y-39846452D01*
X102817276Y-39846452D02*
X102720514Y-39894833D01*
X102720514Y-39894833D02*
X102672133Y-39943214D01*
X102672133Y-39943214D02*
X102623752Y-40039976D01*
X102623752Y-40039976D02*
X102575371Y-40233500D01*
X102575371Y-40233500D02*
X102575371Y-40475405D01*
X102575371Y-40475405D02*
X102623752Y-40668929D01*
X102623752Y-40668929D02*
X102672133Y-40765691D01*
X102672133Y-40765691D02*
X102720514Y-40814072D01*
X102720514Y-40814072D02*
X102817276Y-40862452D01*
X102817276Y-40862452D02*
X102914038Y-40862452D01*
X102914038Y-40862452D02*
X103010800Y-40814072D01*
X103010800Y-40814072D02*
X103059181Y-40765691D01*
X103059181Y-40765691D02*
X103107562Y-40668929D01*
X103107562Y-40668929D02*
X103155943Y-40475405D01*
X103155943Y-40475405D02*
X103155943Y-40233500D01*
X103155943Y-40233500D02*
X103107562Y-40039976D01*
X103107562Y-40039976D02*
X103059181Y-39943214D01*
X103059181Y-39943214D02*
X103010800Y-39894833D01*
X103010800Y-39894833D02*
X102914038Y-39846452D01*
X102188324Y-39943214D02*
X102139943Y-39894833D01*
X102139943Y-39894833D02*
X102043181Y-39846452D01*
X102043181Y-39846452D02*
X101801276Y-39846452D01*
X101801276Y-39846452D02*
X101704514Y-39894833D01*
X101704514Y-39894833D02*
X101656133Y-39943214D01*
X101656133Y-39943214D02*
X101607752Y-40039976D01*
X101607752Y-40039976D02*
X101607752Y-40136738D01*
X101607752Y-40136738D02*
X101656133Y-40281881D01*
X101656133Y-40281881D02*
X102236705Y-40862452D01*
X102236705Y-40862452D02*
X101607752Y-40862452D01*
X100688514Y-39846452D02*
X101172324Y-39846452D01*
X101172324Y-39846452D02*
X101220705Y-40330262D01*
X101220705Y-40330262D02*
X101172324Y-40281881D01*
X101172324Y-40281881D02*
X101075562Y-40233500D01*
X101075562Y-40233500D02*
X100833657Y-40233500D01*
X100833657Y-40233500D02*
X100736895Y-40281881D01*
X100736895Y-40281881D02*
X100688514Y-40330262D01*
X100688514Y-40330262D02*
X100640133Y-40427024D01*
X100640133Y-40427024D02*
X100640133Y-40668929D01*
X100640133Y-40668929D02*
X100688514Y-40765691D01*
X100688514Y-40765691D02*
X100736895Y-40814072D01*
X100736895Y-40814072D02*
X100833657Y-40862452D01*
X100833657Y-40862452D02*
X101075562Y-40862452D01*
X101075562Y-40862452D02*
X101172324Y-40814072D01*
X101172324Y-40814072D02*
X101220705Y-40765691D01*
X99140324Y-39846452D02*
X99140324Y-40572167D01*
X99140324Y-40572167D02*
X99188705Y-40717310D01*
X99188705Y-40717310D02*
X99285467Y-40814072D01*
X99285467Y-40814072D02*
X99430610Y-40862452D01*
X99430610Y-40862452D02*
X99527372Y-40862452D01*
X97350229Y-39894833D02*
X97446991Y-39846452D01*
X97446991Y-39846452D02*
X97592134Y-39846452D01*
X97592134Y-39846452D02*
X97737277Y-39894833D01*
X97737277Y-39894833D02*
X97834039Y-39991595D01*
X97834039Y-39991595D02*
X97882420Y-40088357D01*
X97882420Y-40088357D02*
X97930801Y-40281881D01*
X97930801Y-40281881D02*
X97930801Y-40427024D01*
X97930801Y-40427024D02*
X97882420Y-40620548D01*
X97882420Y-40620548D02*
X97834039Y-40717310D01*
X97834039Y-40717310D02*
X97737277Y-40814072D01*
X97737277Y-40814072D02*
X97592134Y-40862452D01*
X97592134Y-40862452D02*
X97495372Y-40862452D01*
X97495372Y-40862452D02*
X97350229Y-40814072D01*
X97350229Y-40814072D02*
X97301848Y-40765691D01*
X97301848Y-40765691D02*
X97301848Y-40427024D01*
X97301848Y-40427024D02*
X97495372Y-40427024D01*
X96430991Y-40862452D02*
X96430991Y-40330262D01*
X96430991Y-40330262D02*
X96479372Y-40233500D01*
X96479372Y-40233500D02*
X96576134Y-40185119D01*
X96576134Y-40185119D02*
X96769658Y-40185119D01*
X96769658Y-40185119D02*
X96866420Y-40233500D01*
X96430991Y-40814072D02*
X96527753Y-40862452D01*
X96527753Y-40862452D02*
X96769658Y-40862452D01*
X96769658Y-40862452D02*
X96866420Y-40814072D01*
X96866420Y-40814072D02*
X96914801Y-40717310D01*
X96914801Y-40717310D02*
X96914801Y-40620548D01*
X96914801Y-40620548D02*
X96866420Y-40523786D01*
X96866420Y-40523786D02*
X96769658Y-40475405D01*
X96769658Y-40475405D02*
X96527753Y-40475405D01*
X96527753Y-40475405D02*
X96430991Y-40427024D01*
X95802039Y-40862452D02*
X95898801Y-40814072D01*
X95898801Y-40814072D02*
X95947182Y-40717310D01*
X95947182Y-40717310D02*
X95947182Y-39846452D01*
X94979563Y-40862452D02*
X94979563Y-40330262D01*
X94979563Y-40330262D02*
X95027944Y-40233500D01*
X95027944Y-40233500D02*
X95124706Y-40185119D01*
X95124706Y-40185119D02*
X95318230Y-40185119D01*
X95318230Y-40185119D02*
X95414992Y-40233500D01*
X94979563Y-40814072D02*
X95076325Y-40862452D01*
X95076325Y-40862452D02*
X95318230Y-40862452D01*
X95318230Y-40862452D02*
X95414992Y-40814072D01*
X95414992Y-40814072D02*
X95463373Y-40717310D01*
X95463373Y-40717310D02*
X95463373Y-40620548D01*
X95463373Y-40620548D02*
X95414992Y-40523786D01*
X95414992Y-40523786D02*
X95318230Y-40475405D01*
X95318230Y-40475405D02*
X95076325Y-40475405D01*
X95076325Y-40475405D02*
X94979563Y-40427024D01*
X94495754Y-40862452D02*
X94495754Y-39846452D01*
X94398992Y-40475405D02*
X94108706Y-40862452D01*
X94108706Y-40185119D02*
X94495754Y-40572167D01*
X92318611Y-40765691D02*
X92366992Y-40814072D01*
X92366992Y-40814072D02*
X92512135Y-40862452D01*
X92512135Y-40862452D02*
X92608897Y-40862452D01*
X92608897Y-40862452D02*
X92754040Y-40814072D01*
X92754040Y-40814072D02*
X92850802Y-40717310D01*
X92850802Y-40717310D02*
X92899183Y-40620548D01*
X92899183Y-40620548D02*
X92947564Y-40427024D01*
X92947564Y-40427024D02*
X92947564Y-40281881D01*
X92947564Y-40281881D02*
X92899183Y-40088357D01*
X92899183Y-40088357D02*
X92850802Y-39991595D01*
X92850802Y-39991595D02*
X92754040Y-39894833D01*
X92754040Y-39894833D02*
X92608897Y-39846452D01*
X92608897Y-39846452D02*
X92512135Y-39846452D01*
X92512135Y-39846452D02*
X92366992Y-39894833D01*
X92366992Y-39894833D02*
X92318611Y-39943214D01*
X91738040Y-40862452D02*
X91834802Y-40814072D01*
X91834802Y-40814072D02*
X91883183Y-40765691D01*
X91883183Y-40765691D02*
X91931564Y-40668929D01*
X91931564Y-40668929D02*
X91931564Y-40378643D01*
X91931564Y-40378643D02*
X91883183Y-40281881D01*
X91883183Y-40281881D02*
X91834802Y-40233500D01*
X91834802Y-40233500D02*
X91738040Y-40185119D01*
X91738040Y-40185119D02*
X91592897Y-40185119D01*
X91592897Y-40185119D02*
X91496135Y-40233500D01*
X91496135Y-40233500D02*
X91447754Y-40281881D01*
X91447754Y-40281881D02*
X91399373Y-40378643D01*
X91399373Y-40378643D02*
X91399373Y-40668929D01*
X91399373Y-40668929D02*
X91447754Y-40765691D01*
X91447754Y-40765691D02*
X91496135Y-40814072D01*
X91496135Y-40814072D02*
X91592897Y-40862452D01*
X91592897Y-40862452D02*
X91738040Y-40862452D01*
X90963945Y-40185119D02*
X90963945Y-40862452D01*
X90963945Y-40281881D02*
X90915564Y-40233500D01*
X90915564Y-40233500D02*
X90818802Y-40185119D01*
X90818802Y-40185119D02*
X90673659Y-40185119D01*
X90673659Y-40185119D02*
X90576897Y-40233500D01*
X90576897Y-40233500D02*
X90528516Y-40330262D01*
X90528516Y-40330262D02*
X90528516Y-40862452D01*
X90093088Y-40814072D02*
X89996326Y-40862452D01*
X89996326Y-40862452D02*
X89802802Y-40862452D01*
X89802802Y-40862452D02*
X89706040Y-40814072D01*
X89706040Y-40814072D02*
X89657659Y-40717310D01*
X89657659Y-40717310D02*
X89657659Y-40668929D01*
X89657659Y-40668929D02*
X89706040Y-40572167D01*
X89706040Y-40572167D02*
X89802802Y-40523786D01*
X89802802Y-40523786D02*
X89947945Y-40523786D01*
X89947945Y-40523786D02*
X90044707Y-40475405D01*
X90044707Y-40475405D02*
X90093088Y-40378643D01*
X90093088Y-40378643D02*
X90093088Y-40330262D01*
X90093088Y-40330262D02*
X90044707Y-40233500D01*
X90044707Y-40233500D02*
X89947945Y-40185119D01*
X89947945Y-40185119D02*
X89802802Y-40185119D01*
X89802802Y-40185119D02*
X89706040Y-40233500D01*
X88786802Y-40185119D02*
X88786802Y-40862452D01*
X89222231Y-40185119D02*
X89222231Y-40717310D01*
X89222231Y-40717310D02*
X89173850Y-40814072D01*
X89173850Y-40814072D02*
X89077088Y-40862452D01*
X89077088Y-40862452D02*
X88931945Y-40862452D01*
X88931945Y-40862452D02*
X88835183Y-40814072D01*
X88835183Y-40814072D02*
X88786802Y-40765691D01*
X88157850Y-40862452D02*
X88254612Y-40814072D01*
X88254612Y-40814072D02*
X88302993Y-40717310D01*
X88302993Y-40717310D02*
X88302993Y-39846452D01*
X87915946Y-40185119D02*
X87528898Y-40185119D01*
X87770803Y-39846452D02*
X87770803Y-40717310D01*
X87770803Y-40717310D02*
X87722422Y-40814072D01*
X87722422Y-40814072D02*
X87625660Y-40862452D01*
X87625660Y-40862452D02*
X87528898Y-40862452D01*
X87190232Y-40862452D02*
X87190232Y-40185119D01*
X87190232Y-39846452D02*
X87238613Y-39894833D01*
X87238613Y-39894833D02*
X87190232Y-39943214D01*
X87190232Y-39943214D02*
X87141851Y-39894833D01*
X87141851Y-39894833D02*
X87190232Y-39846452D01*
X87190232Y-39846452D02*
X87190232Y-39943214D01*
X86706422Y-40185119D02*
X86706422Y-40862452D01*
X86706422Y-40281881D02*
X86658041Y-40233500D01*
X86658041Y-40233500D02*
X86561279Y-40185119D01*
X86561279Y-40185119D02*
X86416136Y-40185119D01*
X86416136Y-40185119D02*
X86319374Y-40233500D01*
X86319374Y-40233500D02*
X86270993Y-40330262D01*
X86270993Y-40330262D02*
X86270993Y-40862452D01*
X85351755Y-40185119D02*
X85351755Y-41007595D01*
X85351755Y-41007595D02*
X85400136Y-41104357D01*
X85400136Y-41104357D02*
X85448517Y-41152738D01*
X85448517Y-41152738D02*
X85545279Y-41201119D01*
X85545279Y-41201119D02*
X85690422Y-41201119D01*
X85690422Y-41201119D02*
X85787184Y-41152738D01*
X85351755Y-40814072D02*
X85448517Y-40862452D01*
X85448517Y-40862452D02*
X85642041Y-40862452D01*
X85642041Y-40862452D02*
X85738803Y-40814072D01*
X85738803Y-40814072D02*
X85787184Y-40765691D01*
X85787184Y-40765691D02*
X85835565Y-40668929D01*
X85835565Y-40668929D02*
X85835565Y-40378643D01*
X85835565Y-40378643D02*
X85787184Y-40281881D01*
X85787184Y-40281881D02*
X85738803Y-40233500D01*
X85738803Y-40233500D02*
X85642041Y-40185119D01*
X85642041Y-40185119D02*
X85448517Y-40185119D01*
X85448517Y-40185119D02*
X85351755Y-40233500D01*
X84819565Y-40814072D02*
X84819565Y-40862452D01*
X84819565Y-40862452D02*
X84867946Y-40959214D01*
X84867946Y-40959214D02*
X84916327Y-41007595D01*
X83610041Y-40862452D02*
X83610041Y-39846452D01*
X83126231Y-40185119D02*
X83126231Y-40862452D01*
X83126231Y-40281881D02*
X83077850Y-40233500D01*
X83077850Y-40233500D02*
X82981088Y-40185119D01*
X82981088Y-40185119D02*
X82835945Y-40185119D01*
X82835945Y-40185119D02*
X82739183Y-40233500D01*
X82739183Y-40233500D02*
X82690802Y-40330262D01*
X82690802Y-40330262D02*
X82690802Y-40862452D01*
X81771564Y-40814072D02*
X81868326Y-40862452D01*
X81868326Y-40862452D02*
X82061850Y-40862452D01*
X82061850Y-40862452D02*
X82158612Y-40814072D01*
X82158612Y-40814072D02*
X82206993Y-40765691D01*
X82206993Y-40765691D02*
X82255374Y-40668929D01*
X82255374Y-40668929D02*
X82255374Y-40378643D01*
X82255374Y-40378643D02*
X82206993Y-40281881D01*
X82206993Y-40281881D02*
X82158612Y-40233500D01*
X82158612Y-40233500D02*
X82061850Y-40185119D01*
X82061850Y-40185119D02*
X81868326Y-40185119D01*
X81868326Y-40185119D02*
X81771564Y-40233500D01*
X81336136Y-40765691D02*
X81287755Y-40814072D01*
X81287755Y-40814072D02*
X81336136Y-40862452D01*
X81336136Y-40862452D02*
X81384517Y-40814072D01*
X81384517Y-40814072D02*
X81336136Y-40765691D01*
X81336136Y-40765691D02*
X81336136Y-40862452D01*
D12*
X106690000Y8900000D03*
D13*
X114310000Y8900000D03*
D12*
X106690000Y12600000D03*
D13*
X114310000Y12600000D03*
D14*
X120000000Y15420000D03*
D15*
X122540000Y15420000D03*
X120000000Y12880000D03*
X122540000Y12880000D03*
X120000000Y10340000D03*
X122540000Y10340000D03*
X120000000Y7800000D03*
X122540000Y7800000D03*
X120000000Y5260000D03*
X122540000Y5260000D03*
X120000000Y2720000D03*
X122540000Y2720000D03*
X120000000Y180000D03*
X122540000Y180000D03*
X120000000Y-2360000D03*
X122540000Y-2360000D03*
X120000000Y-4900000D03*
X122540000Y-4900000D03*
X120000000Y-7440000D03*
X122540000Y-7440000D03*
X120000000Y-9980000D03*
X122540000Y-9980000D03*
X120000000Y-12520000D03*
X122540000Y-12520000D03*
X120000000Y-15060000D03*
X122540000Y-15060000D03*
X120000000Y-17600000D03*
X122540000Y-17600000D03*
X120000000Y-20140000D03*
X122540000Y-20140000D03*
X120000000Y-22680000D03*
X122540000Y-22680000D03*
X120000000Y-25220000D03*
X122540000Y-25220000D03*
X120000000Y-27760000D03*
X122540000Y-27760000D03*
X120000000Y-30300000D03*
X122540000Y-30300000D03*
X120000000Y-32840000D03*
X122540000Y-32840000D03*
D14*
X122540000Y-37800000D03*
D15*
X120000000Y-37800000D03*
X117460000Y-37800000D03*
X114920000Y-37800000D03*
X112380000Y-37800000D03*
D16*
X92760000Y4940000D03*
D17*
X92760000Y2400000D03*
X92760000Y-140000D03*
X92760000Y-2680000D03*
X92760000Y-5220000D03*
X92760000Y-7760000D03*
X92760000Y-10300000D03*
X92760000Y-12840000D03*
X92760000Y-15380000D03*
X92760000Y-17920000D03*
X92760000Y-20460000D03*
X92760000Y-23000000D03*
X92760000Y-25540000D03*
X92760000Y-28080000D03*
X92760000Y-30620000D03*
X92760000Y-33160000D03*
X108000000Y-33160000D03*
X108000000Y-30620000D03*
X108000000Y-28080000D03*
X108000000Y-25540000D03*
X108000000Y-23000000D03*
X108000000Y-20460000D03*
X108000000Y-17920000D03*
X108000000Y-15380000D03*
X108000000Y-12840000D03*
X108000000Y-10300000D03*
X108000000Y-7760000D03*
X108000000Y-5220000D03*
X108000000Y-2680000D03*
X108000000Y-140000D03*
X108000000Y2400000D03*
X108000000Y4940000D03*
D18*
X99540000Y4960000D03*
X99540000Y2420000D03*
X99540000Y-120000D03*
X99540000Y-2660000D03*
X99540000Y-5200000D03*
X99540000Y-7740000D03*
X99540000Y-10280000D03*
X99540000Y-12820000D03*
X99540000Y-15360000D03*
X99540000Y-17900000D03*
X99540000Y-20440000D03*
X99540000Y-22980000D03*
X99540000Y-25520000D03*
X99540000Y-28060000D03*
X99540000Y-30600000D03*
X99540000Y-33140000D03*
X84300000Y-33140000D03*
X84300000Y-30600000D03*
X84300000Y-28060000D03*
X84300000Y-25520000D03*
X84300000Y-22980000D03*
X84300000Y-20440000D03*
X84300000Y-17900000D03*
X84300000Y-15360000D03*
X84300000Y-12820000D03*
X84300000Y-10280000D03*
X84300000Y-7740000D03*
X84300000Y-5200000D03*
X84300000Y-2660000D03*
X84300000Y-120000D03*
X84300000Y2420000D03*
X84300000Y4960000D03*
D19*
X109376000Y-6665700D03*
X94632700Y-27214600D03*
X102426700Y2967800D03*
X111201600Y-22686500D03*
X111840500Y731000D03*
X122741400Y-34342200D03*
X90230000Y-34449200D03*
X109759000Y-31404600D03*
X112084900Y-8469300D03*
X104336400Y5818200D03*
X114533500Y-20494900D03*
X115947300Y-27114500D03*
X112216400Y-18180800D03*
X111742000Y-26303300D03*
X105080900Y-33764300D03*
X101305600Y6194000D03*
X95329600Y-12920500D03*
X117468600Y-10323200D03*
X96751900Y-2397100D03*
X105171200Y-31185700D03*
X89788800Y-29340000D03*
X109142400Y12257300D03*
D20*
X121270000Y6530000D02*
X122540000Y5260000D01*
X115625000Y6530000D02*
X121270000Y6530000D01*
X115289000Y6194000D02*
X115625000Y6530000D01*
X104336400Y5818200D02*
X104712200Y6194000D01*
X104712200Y6194000D02*
X115289000Y6194000D01*
X94186100Y-12840000D02*
X92760000Y-12840000D01*
X115202200Y-16650000D02*
X97996100Y-16650000D01*
X123041000Y-18870000D02*
X117422200Y-18870000D01*
X97996100Y-16650000D02*
X94186100Y-12840000D01*
X123774900Y-19603900D02*
X123041000Y-18870000D01*
X122540000Y-25220000D02*
X123774900Y-23985100D01*
X123774900Y-23985100D02*
X123774900Y-19603900D01*
X117422200Y-18870000D02*
X115202200Y-16650000D01*
X97688300Y5420400D02*
X97688300Y-808300D01*
X118859000Y11678300D02*
X114313500Y7132800D01*
X97688300Y-808300D02*
X99540000Y-2660000D01*
X121338300Y11678300D02*
X118859000Y11678300D01*
X114313500Y7132800D02*
X99400700Y7132800D01*
X99400700Y7132800D02*
X97688300Y5420400D01*
X122540000Y12880000D02*
X121338300Y11678300D01*
X94310000Y2688300D02*
X94310000Y-1130000D01*
X107023900Y11201700D02*
X102823400Y11201700D01*
X110040500Y14218300D02*
X107023900Y11201700D01*
X102823400Y11201700D02*
X94310000Y2688300D01*
X121338300Y14218300D02*
X110040500Y14218300D01*
X122540000Y15420000D02*
X121338300Y14218300D01*
X94310000Y-1130000D02*
X92760000Y-2680000D01*
X82448300Y-19751700D02*
X84300000Y-17900000D01*
X82448300Y-23476800D02*
X82448300Y-19751700D01*
X119130100Y-24188700D02*
X83160200Y-24188700D01*
X119368700Y-23950100D02*
X119130100Y-24188700D01*
X121269900Y-23950100D02*
X119368700Y-23950100D01*
X83160200Y-24188700D02*
X82448300Y-23476800D01*
X122540000Y-22680000D02*
X121269900Y-23950100D01*
X111301200Y-19096000D02*
X112216400Y-18180800D01*
X98324200Y-19096000D02*
X111301200Y-19096000D01*
X97666300Y-18187300D02*
X97666300Y-18438100D01*
X93589000Y-14110000D02*
X97666300Y-18187300D01*
X83267300Y-14110000D02*
X93589000Y-14110000D01*
X97666300Y-18438100D02*
X98324200Y-19096000D01*
X82448300Y-12131700D02*
X82448300Y-13291000D01*
X82448300Y-13291000D02*
X83267300Y-14110000D01*
X84300000Y-10280000D02*
X82448300Y-12131700D01*
X114600000Y-15380000D02*
X120000000Y-9980000D01*
X108000000Y-15380000D02*
X114600000Y-15380000D01*
X112598500Y-1090000D02*
X109108500Y2400000D01*
X121270000Y-1923700D02*
X120436300Y-1090000D01*
X121270000Y-8710000D02*
X121270000Y-1923700D01*
X122540000Y-9980000D02*
X121270000Y-8710000D01*
X120436300Y-1090000D02*
X112598500Y-1090000D01*
X109108500Y2400000D02*
X108000000Y2400000D01*
X105060300Y2967800D02*
X102426700Y2967800D01*
X105647600Y3555100D02*
X105060300Y2967800D01*
X112488100Y1506000D02*
X110439000Y3555100D01*
X122540000Y2720000D02*
X121326000Y1506000D01*
X121326000Y1506000D02*
X112488100Y1506000D01*
X110439000Y3555100D02*
X105647600Y3555100D01*
X95502300Y-8950600D02*
X94311700Y-7760000D01*
X111503200Y-8950600D02*
X95502300Y-8950600D01*
X119002100Y-9221000D02*
X111773600Y-9221000D01*
X94311700Y-7760000D02*
X92760000Y-7760000D01*
X119453000Y-8770100D02*
X119002100Y-9221000D01*
X120522200Y-8770100D02*
X119453000Y-8770100D01*
X111773600Y-9221000D02*
X111503200Y-8950600D01*
X121270000Y-9517900D02*
X120522200Y-8770100D01*
X121270000Y-15495100D02*
X121270000Y-9517900D01*
X124260100Y-17548300D02*
X123041800Y-16330000D01*
X124260100Y-26039900D02*
X124260100Y-17548300D01*
X122540000Y-27760000D02*
X124260100Y-26039900D01*
X122104900Y-16330000D02*
X121270000Y-15495100D01*
X123041800Y-16330000D02*
X122104900Y-16330000D01*
X109856100Y-31501700D02*
X109759000Y-31404600D01*
X121338300Y-31501700D02*
X109856100Y-31501700D01*
X122540000Y-30300000D02*
X121338300Y-31501700D01*
X98615300Y-31712300D02*
X104644600Y-31712300D01*
X97649700Y-32677900D02*
X98615300Y-31712300D01*
X97649700Y-33609900D02*
X97649700Y-32677900D01*
X104644600Y-31712300D02*
X105171200Y-31185700D01*
X98806000Y-34766200D02*
X97649700Y-33609900D01*
X120613800Y-34766200D02*
X98806000Y-34766200D01*
X122540000Y-32840000D02*
X120613800Y-34766200D01*
X91063800Y-35283000D02*
X90230000Y-34449200D01*
X122000000Y-35283000D02*
X91063800Y-35283000D01*
X122741400Y-34541600D02*
X122000000Y-35283000D01*
X122741400Y-34342200D02*
X122741400Y-34541600D01*
X106428300Y-20440000D02*
X106448300Y-20460000D01*
X99540000Y-20440000D02*
X106428300Y-20440000D01*
X107584100Y-20460000D02*
X106448300Y-20460000D01*
X107584100Y-20460000D02*
X108000000Y-20460000D01*
X118024000Y-6665700D02*
X118798300Y-7440000D01*
X109376000Y-6665700D02*
X118024000Y-6665700D01*
X120000000Y-7440000D02*
X118798300Y-7440000D01*
X106428300Y-15360000D02*
X106448300Y-15380000D01*
X99540000Y-15360000D02*
X106428300Y-15360000D01*
X108000000Y-15380000D02*
X106448300Y-15380000D01*
X91188300Y-15360000D02*
X91208300Y-15380000D01*
X84300000Y-15360000D02*
X91188300Y-15360000D01*
X91984200Y-15380000D02*
X91208300Y-15380000D01*
X91984200Y-15380000D02*
X92760000Y-15380000D01*
X95130400Y-26716900D02*
X94632700Y-27214600D01*
X110004800Y-26716900D02*
X95130400Y-26716900D01*
X111501700Y-25220000D02*
X110004800Y-26716900D01*
X120000000Y-25220000D02*
X111501700Y-25220000D01*
X91188300Y-30600000D02*
X91208300Y-30620000D01*
X84300000Y-30600000D02*
X91188300Y-30600000D01*
X92760000Y-30620000D02*
X91208300Y-30620000D01*
X106428300Y-22980000D02*
X106448300Y-23000000D01*
X99540000Y-22980000D02*
X106428300Y-22980000D01*
X107224200Y-23000000D02*
X106448300Y-23000000D01*
X107224200Y-23000000D02*
X108000000Y-23000000D01*
X110888100Y-23000000D02*
X111201600Y-22686500D01*
X108000000Y-23000000D02*
X110888100Y-23000000D01*
X118247300Y731000D02*
X118798300Y180000D01*
X111840500Y731000D02*
X118247300Y731000D01*
X111201600Y-22686500D02*
X111302400Y-22585700D01*
X111302400Y-22585700D02*
X111201600Y-22686500D01*
X120000000Y180000D02*
X118798300Y180000D01*
D21*
X107584100Y4940000D02*
X105786300Y4940000D01*
X107584100Y4940000D02*
X108000000Y4940000D01*
X114950600Y2720000D02*
X120000000Y2720000D01*
X112730600Y4940000D02*
X114950600Y2720000D01*
X108000000Y4940000D02*
X112730600Y4940000D01*
X105457500Y4940000D02*
X105786300Y4940000D01*
X104922000Y4404500D02*
X105457500Y4940000D01*
X100095500Y4404500D02*
X104922000Y4404500D01*
X99540000Y4960000D02*
X100095500Y4404500D01*
D20*
X101411700Y-12840000D02*
X101391700Y-12820000D01*
X108000000Y-12840000D02*
X101411700Y-12840000D01*
X99540000Y-12820000D02*
X101391700Y-12820000D01*
X84300000Y-22980000D02*
X86151700Y-22980000D01*
X86171700Y-23000000D02*
X92760000Y-23000000D01*
X86151700Y-22980000D02*
X86171700Y-23000000D01*
X106245100Y-30416800D02*
X106448300Y-30620000D01*
X101574900Y-30416800D02*
X106245100Y-30416800D01*
X101391700Y-30600000D02*
X101574900Y-30416800D01*
X99540000Y-30600000D02*
X101391700Y-30600000D01*
X108000000Y-30620000D02*
X106448300Y-30620000D01*
X86171700Y2400000D02*
X86151700Y2420000D01*
X92760000Y2400000D02*
X86171700Y2400000D01*
X84300000Y2420000D02*
X86151700Y2420000D01*
X86171700Y-17920000D02*
X92760000Y-17920000D01*
X86151700Y-17900000D02*
X86171700Y-17920000D01*
X85225900Y-17900000D02*
X86151700Y-17900000D01*
X85225900Y-17900000D02*
X84300000Y-17900000D01*
X99540000Y-7740000D02*
X101391700Y-7740000D01*
X101411700Y-7760000D02*
X108000000Y-7760000D01*
X101391700Y-7740000D02*
X101411700Y-7760000D01*
X111375600Y-7760000D02*
X108000000Y-7760000D01*
X112084900Y-8469300D02*
X111375600Y-7760000D01*
X91188300Y-20440000D02*
X91208300Y-20460000D01*
X84300000Y-20440000D02*
X91188300Y-20440000D01*
X91984200Y-20460000D02*
X91208300Y-20460000D01*
X91984200Y-20460000D02*
X92760000Y-20460000D01*
X117747500Y-21629200D02*
X118798300Y-22680000D01*
X95480900Y-21629200D02*
X117747500Y-21629200D01*
X94311700Y-20460000D02*
X95480900Y-21629200D01*
X92760000Y-20460000D02*
X94311700Y-20460000D01*
X120000000Y-22680000D02*
X118798300Y-22680000D01*
X106428300Y-25520000D02*
X106448300Y-25540000D01*
X99540000Y-25520000D02*
X106428300Y-25520000D01*
X107584100Y-25540000D02*
X106448300Y-25540000D01*
X107584100Y-25540000D02*
X108000000Y-25540000D01*
D21*
X84300000Y-33140000D02*
X86813700Y-33140000D01*
X117781400Y-20494900D02*
X118136300Y-20140000D01*
X115724600Y-20494900D02*
X117781400Y-20494900D01*
X120000000Y-20140000D02*
X118136300Y-20140000D01*
X115724600Y-20494900D02*
X114533500Y-20494900D01*
X86918200Y-33035500D02*
X86813700Y-33140000D01*
X92635500Y-33035500D02*
X86918200Y-33035500D01*
X92760000Y-33160000D02*
X92635500Y-33035500D01*
D20*
X106428300Y-28060000D02*
X106448300Y-28080000D01*
X99540000Y-28060000D02*
X106428300Y-28060000D01*
X107224200Y-28080000D02*
X106448300Y-28080000D01*
X107224200Y-28080000D02*
X108000000Y-28080000D01*
X114981800Y-28080000D02*
X116000800Y-27061000D01*
X108000000Y-28080000D02*
X114981800Y-28080000D01*
X116000800Y-27061000D02*
X115947300Y-27114500D01*
X86171700Y-10300000D02*
X86151700Y-10280000D01*
X92760000Y-10300000D02*
X86171700Y-10300000D01*
X85225900Y-10280000D02*
X86151700Y-10280000D01*
X85225900Y-10280000D02*
X84300000Y-10280000D01*
X117341600Y-26303300D02*
X118798300Y-27760000D01*
X111742000Y-26303300D02*
X117341600Y-26303300D01*
X120000000Y-27760000D02*
X118798300Y-27760000D01*
X112216400Y-18180800D02*
X112216400Y-18182400D01*
X112216400Y-18182400D02*
X112216400Y-18180800D01*
X101411700Y-10300000D02*
X101391700Y-10280000D01*
X108000000Y-10300000D02*
X101411700Y-10300000D01*
X99540000Y-10280000D02*
X101391700Y-10280000D01*
X120000000Y-32840000D02*
X118798300Y-32840000D01*
X105631100Y-34314500D02*
X105080900Y-33764300D01*
X117323800Y-34314500D02*
X105631100Y-34314500D01*
X118798300Y-32840000D02*
X117323800Y-34314500D01*
X86171700Y-140000D02*
X86151700Y-120000D01*
X92760000Y-140000D02*
X86171700Y-140000D01*
X84300000Y-120000D02*
X86151700Y-120000D01*
X120000000Y10340000D02*
X118798300Y10340000D01*
X101757300Y6645700D02*
X101305600Y6194000D01*
X115101900Y6645700D02*
X101757300Y6645700D01*
X118796200Y10340000D02*
X115101900Y6645700D01*
X118798300Y10340000D02*
X118796200Y10340000D01*
X108000000Y-33160000D02*
X106448300Y-33160000D01*
X99540000Y-33140000D02*
X101391700Y-33140000D01*
X101519100Y-33012600D02*
X101391700Y-33140000D01*
X106300900Y-33012600D02*
X101519100Y-33012600D01*
X106448300Y-33160000D02*
X106300900Y-33012600D01*
X86171700Y-25540000D02*
X86151700Y-25520000D01*
X92760000Y-25540000D02*
X86171700Y-25540000D01*
X84300000Y-25520000D02*
X86151700Y-25520000D01*
X116221800Y-11570000D02*
X117468600Y-10323200D01*
X96680100Y-11570000D02*
X116221800Y-11570000D01*
X95329600Y-12920500D02*
X96680100Y-11570000D01*
X91188300Y-28060000D02*
X91208300Y-28080000D01*
X84300000Y-28060000D02*
X91188300Y-28060000D01*
X92344100Y-28080000D02*
X91208300Y-28080000D01*
X92344100Y-28080000D02*
X92760000Y-28080000D01*
X98186500Y-3831700D02*
X96751900Y-2397100D01*
X117326600Y-3831700D02*
X98186500Y-3831700D01*
X118798300Y-2360000D02*
X117326600Y-3831700D01*
X120000000Y-2360000D02*
X118798300Y-2360000D01*
X96751900Y-2397100D02*
X96919500Y-2564700D01*
X96919500Y-2564700D02*
X96751900Y-2397100D01*
X86171700Y-2680000D02*
X86151700Y-2660000D01*
X92760000Y-2680000D02*
X86171700Y-2680000D01*
X84300000Y-2660000D02*
X86151700Y-2660000D01*
X99540000Y2420000D02*
X101391700Y2420000D01*
X106264400Y2216100D02*
X106448300Y2400000D01*
X101595600Y2216100D02*
X106264400Y2216100D01*
X101391700Y2420000D02*
X101595600Y2216100D01*
X107224200Y2400000D02*
X106448300Y2400000D01*
X107224200Y2400000D02*
X108000000Y2400000D01*
X84300000Y4960000D02*
X86151700Y4960000D01*
X86171700Y4940000D02*
X92760000Y4940000D01*
X86151700Y4960000D02*
X86171700Y4940000D01*
X101971700Y12600000D02*
X106690000Y12600000D01*
X94311700Y4940000D02*
X101971700Y12600000D01*
X92760000Y4940000D02*
X94311700Y4940000D01*
X106428300Y-120000D02*
X106448300Y-140000D01*
X99540000Y-120000D02*
X106428300Y-120000D01*
X108000000Y-140000D02*
X106448300Y-140000D01*
X101411700Y-17920000D02*
X101391700Y-17900000D01*
X108000000Y-17920000D02*
X101411700Y-17920000D01*
X99540000Y-17900000D02*
X101391700Y-17900000D01*
X106428300Y-2660000D02*
X106448300Y-2680000D01*
X99540000Y-2660000D02*
X106428300Y-2660000D01*
X108000000Y-2680000D02*
X106448300Y-2680000D01*
X86171700Y-5220000D02*
X86151700Y-5200000D01*
X92760000Y-5220000D02*
X86171700Y-5220000D01*
X84300000Y-5200000D02*
X86151700Y-5200000D01*
X117838300Y-29340000D02*
X89788800Y-29340000D01*
X118798300Y-30300000D02*
X117838300Y-29340000D01*
X120000000Y-30300000D02*
X118798300Y-30300000D01*
X91188300Y-12820000D02*
X91208300Y-12840000D01*
X84300000Y-12820000D02*
X91188300Y-12820000D01*
X92344100Y-12840000D02*
X91208300Y-12840000D01*
X92344100Y-12840000D02*
X92760000Y-12840000D01*
X106428300Y-5200000D02*
X106448300Y-5220000D01*
X99540000Y-5200000D02*
X106428300Y-5200000D01*
X108000000Y-5220000D02*
X106448300Y-5220000D01*
X109957600Y11442100D02*
X109142400Y12257300D01*
X115002100Y11442100D02*
X109957600Y11442100D01*
X116440000Y12880000D02*
X115002100Y11442100D01*
X120000000Y12880000D02*
X116440000Y12880000D01*
X84300000Y-7740000D02*
X86151700Y-7740000D01*
X86171700Y-7760000D02*
X92760000Y-7760000D01*
X86151700Y-7740000D02*
X86171700Y-7760000D01*
M02*
