%TF.GenerationSoftware,KiCad,Pcbnew,8.0.8*%
%TF.CreationDate,2026-01-16T16:01:26-05:00*%
%TF.ProjectId,InSystemROMProg,496e5379-7374-4656-9d52-4f4d50726f67,rev?*%
%TF.SameCoordinates,Original*%
%TF.FileFunction,Drillmap*%
%TF.FilePolarity,Positive*%
%FSLAX45Y45*%
G04 Gerber Fmt 4.5, Leading zero omitted, Abs format (unit mm)*
G04 Created by KiCad (PCBNEW 8.0.8) date 2026-01-16 16:01:26*
%MOMM*%
%LPD*%
G01*
G04 APERTURE LIST*
%ADD10C,0.050000*%
%ADD11C,0.200000*%
G04 APERTURE END LIST*
D10*
X7500000Y1500000D02*
X13460000Y1500000D01*
X13460000Y-3950000D01*
X7500000Y-3950000D01*
X7500000Y1500000D01*
D11*
X7758277Y-4263984D02*
X7758277Y-4063984D01*
X7758277Y-4063984D02*
X7805896Y-4063984D01*
X7805896Y-4063984D02*
X7834467Y-4073508D01*
X7834467Y-4073508D02*
X7853515Y-4092555D01*
X7853515Y-4092555D02*
X7863039Y-4111603D01*
X7863039Y-4111603D02*
X7872562Y-4149698D01*
X7872562Y-4149698D02*
X7872562Y-4178269D01*
X7872562Y-4178269D02*
X7863039Y-4216365D01*
X7863039Y-4216365D02*
X7853515Y-4235412D01*
X7853515Y-4235412D02*
X7834467Y-4254460D01*
X7834467Y-4254460D02*
X7805896Y-4263984D01*
X7805896Y-4263984D02*
X7758277Y-4263984D01*
X7958277Y-4263984D02*
X7958277Y-4130650D01*
X7958277Y-4168746D02*
X7967801Y-4149698D01*
X7967801Y-4149698D02*
X7977324Y-4140174D01*
X7977324Y-4140174D02*
X7996372Y-4130650D01*
X7996372Y-4130650D02*
X8015420Y-4130650D01*
X8082086Y-4263984D02*
X8082086Y-4130650D01*
X8082086Y-4063984D02*
X8072562Y-4073508D01*
X8072562Y-4073508D02*
X8082086Y-4083031D01*
X8082086Y-4083031D02*
X8091610Y-4073508D01*
X8091610Y-4073508D02*
X8082086Y-4063984D01*
X8082086Y-4063984D02*
X8082086Y-4083031D01*
X8205896Y-4263984D02*
X8186848Y-4254460D01*
X8186848Y-4254460D02*
X8177324Y-4235412D01*
X8177324Y-4235412D02*
X8177324Y-4063984D01*
X8310658Y-4263984D02*
X8291610Y-4254460D01*
X8291610Y-4254460D02*
X8282086Y-4235412D01*
X8282086Y-4235412D02*
X8282086Y-4063984D01*
X8539229Y-4263984D02*
X8539229Y-4063984D01*
X8539229Y-4063984D02*
X8605896Y-4206841D01*
X8605896Y-4206841D02*
X8672563Y-4063984D01*
X8672563Y-4063984D02*
X8672563Y-4263984D01*
X8853515Y-4263984D02*
X8853515Y-4159222D01*
X8853515Y-4159222D02*
X8843991Y-4140174D01*
X8843991Y-4140174D02*
X8824944Y-4130650D01*
X8824944Y-4130650D02*
X8786848Y-4130650D01*
X8786848Y-4130650D02*
X8767801Y-4140174D01*
X8853515Y-4254460D02*
X8834467Y-4263984D01*
X8834467Y-4263984D02*
X8786848Y-4263984D01*
X8786848Y-4263984D02*
X8767801Y-4254460D01*
X8767801Y-4254460D02*
X8758277Y-4235412D01*
X8758277Y-4235412D02*
X8758277Y-4216365D01*
X8758277Y-4216365D02*
X8767801Y-4197317D01*
X8767801Y-4197317D02*
X8786848Y-4187793D01*
X8786848Y-4187793D02*
X8834467Y-4187793D01*
X8834467Y-4187793D02*
X8853515Y-4178269D01*
X8948753Y-4130650D02*
X8948753Y-4330650D01*
X8948753Y-4140174D02*
X8967801Y-4130650D01*
X8967801Y-4130650D02*
X9005896Y-4130650D01*
X9005896Y-4130650D02*
X9024944Y-4140174D01*
X9024944Y-4140174D02*
X9034467Y-4149698D01*
X9034467Y-4149698D02*
X9043991Y-4168746D01*
X9043991Y-4168746D02*
X9043991Y-4225889D01*
X9043991Y-4225889D02*
X9034467Y-4244936D01*
X9034467Y-4244936D02*
X9024944Y-4254460D01*
X9024944Y-4254460D02*
X9005896Y-4263984D01*
X9005896Y-4263984D02*
X8967801Y-4263984D01*
X8967801Y-4263984D02*
X8948753Y-4254460D01*
X9129705Y-4244936D02*
X9139229Y-4254460D01*
X9139229Y-4254460D02*
X9129705Y-4263984D01*
X9129705Y-4263984D02*
X9120182Y-4254460D01*
X9120182Y-4254460D02*
X9129705Y-4244936D01*
X9129705Y-4244936D02*
X9129705Y-4263984D01*
X9129705Y-4140174D02*
X9139229Y-4149698D01*
X9139229Y-4149698D02*
X9129705Y-4159222D01*
X9129705Y-4159222D02*
X9120182Y-4149698D01*
X9120182Y-4149698D02*
X9129705Y-4140174D01*
X9129705Y-4140174D02*
X9129705Y-4159222D01*
M02*
