M48
; DRILL file {KiCad 8.0.8} date 2026-01-16T16:01:25-0500
; FORMAT={-:-/ absolute / metric / decimal}
; #@! TF.CreationDate,2026-01-16T16:01:25-05:00
; #@! TF.GenerationSoftware,Kicad,Pcbnew,8.0.8
; #@! TF.FileFunction,Plated,1,2,PTH
FMAT,2
METRIC
; #@! TA.AperFunction,Plated,PTH,ViaDrill
T1C0.300
; #@! TA.AperFunction,Plated,PTH,ComponentDrill
T2C0.800
; #@! TA.AperFunction,Plated,PTH,ComponentDrill
T3C1.000
%
G90
G05
T1
X87.0Y-2.5
X91.0Y9.0
X101.675Y-13.026
X102.0Y-31.5
X102.45Y-30.12
X102.75Y-10.5
X103.5Y-30.12
X106.5Y-2.5
X106.5Y-25.5
X112.0Y-15.25
X115.0Y4.21
X115.5Y-17.5
X117.0Y9.5
X117.0Y-28.0
X118.5Y-29.0
X119.0Y9.79
X120.0Y12.05
X120.0Y4.21
X120.0Y-9.75
X120.0Y-15.75
X121.0Y-5.0
X122.0Y7.0
X122.5Y-7.5
X124.0Y4.0
X125.0Y1.0
X126.0Y2.0
T2
X76.76Y5.04
X76.76Y2.5
X76.76Y-0.04
X76.76Y-2.58
X76.76Y-5.12
X76.76Y-7.66
X76.76Y-10.2
X76.76Y-12.74
X76.76Y-15.28
X76.76Y-17.82
X76.76Y-20.36
X76.76Y-22.9
X76.76Y-25.44
X76.76Y-27.98
X76.76Y-30.52
X76.76Y-33.06
X92.0Y5.04
X92.0Y2.5
X92.0Y-0.04
X92.0Y-2.58
X92.0Y-5.12
X92.0Y-7.66
X92.0Y-10.2
X92.0Y-12.74
X92.0Y-15.28
X92.0Y-17.82
X92.0Y-20.36
X92.0Y-22.9
X92.0Y-25.44
X92.0Y-27.98
X92.0Y-30.52
X92.0Y-33.06
X110.69Y6.5
X110.69Y3.0
X110.69Y-0.7
X118.31Y6.5
X118.31Y3.0
X118.31Y-0.7
T3
X84.3Y4.96
X84.3Y2.42
X84.3Y-0.12
X84.3Y-2.66
X84.3Y-5.2
X84.3Y-7.74
X84.3Y-10.28
X84.3Y-12.82
X84.3Y-15.36
X84.3Y-17.9
X84.3Y-20.44
X84.3Y-22.98
X84.3Y-25.52
X84.3Y-28.06
X84.3Y-30.6
X84.3Y-33.14
X99.54Y4.96
X99.54Y2.42
X99.54Y-0.12
X99.54Y-2.66
X99.54Y-5.2
X99.54Y-7.74
X99.54Y-10.28
X99.54Y-12.82
X99.54Y-15.36
X99.54Y-17.9
X99.54Y-20.44
X99.54Y-22.98
X99.54Y-25.52
X99.54Y-28.06
X99.54Y-30.6
X99.54Y-33.14
X113.0Y-37.5
X115.54Y-37.5
X118.08Y-37.5
X120.62Y-37.5
X123.16Y-37.5
X128.5Y11.74
X128.5Y9.2
X128.5Y6.66
X128.5Y4.12
X128.5Y1.58
X128.5Y-0.96
X128.5Y-3.5
X128.5Y-6.04
X128.5Y-8.58
X128.5Y-11.12
X128.5Y-13.66
X128.5Y-16.2
X128.5Y-18.74
X128.5Y-21.28
X128.5Y-23.82
X128.5Y-26.36
X128.5Y-28.9
X128.5Y-31.44
X128.5Y-33.98
X128.5Y-36.52
X131.04Y11.74
X131.04Y9.2
X131.04Y6.66
X131.04Y4.12
X131.04Y1.58
X131.04Y-0.96
X131.04Y-3.5
X131.04Y-6.04
X131.04Y-8.58
X131.04Y-11.12
X131.04Y-13.66
X131.04Y-16.2
X131.04Y-18.74
X131.04Y-21.28
X131.04Y-23.82
X131.04Y-26.36
X131.04Y-28.9
X131.04Y-31.44
X131.04Y-33.98
X131.04Y-36.52
M30
